<svg width="66" height="66" viewBox="0 0 66 66" fill="none" xmlns="http://www.w3.org/2000/svg">
<path d="M59.25 3H6.75C4.67893 3 3 4.67893 3 6.75V14.25C3 16.3211 4.67893 18 6.75 18H59.25C61.3211 18 63 16.3211 63 14.25V6.75C63 4.67893 61.3211 3 59.25 3Z" stroke="#DD0000" stroke-width="5" stroke-linecap="round" stroke-linejoin="round"/>
<path d="M21.75 33H6.75C4.67893 33 3 34.6789 3 36.75V59.25C3 61.3211 4.67893 63 6.75 63H21.75C23.8211 63 25.5 61.3211 25.5 59.25V36.75C25.5 34.6789 23.8211 33 21.75 33Z" stroke="#DD0000" stroke-width="5" stroke-linecap="round" stroke-linejoin="round"/>
<path d="M40.5 33H63" stroke="#DD0000" stroke-width="5" stroke-linecap="round" stroke-linejoin="round"/>
<path d="M40.5 48H63" stroke="#DD0000" stroke-width="5" stroke-linecap="round" stroke-linejoin="round"/>
<path d="M40.5 63H63" stroke="#DD0000" stroke-width="5" stroke-linecap="round" stroke-linejoin="round"/>
</svg>
