<svg width="57" height="60" viewBox="0 0 57 60" fill="none" xmlns="http://www.w3.org/2000/svg">
<path d="M38.5438 12.3532C39.0186 12.3532 39.4544 12.1813 39.8471 11.8375C40.2364 11.4938 40.4755 11.0768 40.561 10.5901C40.6423 10.1 40.541 9.68652 40.2455 9.34276C39.9517 8.99561 39.5665 8.82373 39.09 8.82373C38.6119 8.82373 38.1769 8.99561 37.7876 9.34276C37.3941 9.68566 37.1542 10.1 37.0737 10.5901C37.0148 11.0777 37.1285 11.4938 37.4074 11.8375C37.6888 12.1813 38.069 12.3532 38.5438 12.3532Z" fill="#DD0000"/>
<path d="M41.7802 23.6945C41.7357 23.7562 41.6928 23.8097 41.6491 23.8722C41.387 24.1981 40.4097 25.3494 39.1417 26.0382C39.1333 26.0414 39.1258 26.0447 39.1216 26.0497C39.0107 26.1073 38.8972 26.1509 38.7846 26.2019C38.4502 26.3196 38.1368 26.3492 38.0359 26.3566C37.7511 26.3204 37.5973 26.1254 37.5973 25.7559C37.5973 25.4506 37.6881 24.8474 37.8729 23.9413L38.0864 23.0271L38.956 18.9388C39.0972 18.2426 39.1728 17.8558 39.1896 17.7793L39.3795 16.8231C39.4913 16.2314 39.5484 15.8405 39.5484 15.6496C39.5484 15.2842 39.456 15.0069 39.3073 14.7814C39.2938 14.7485 39.2762 14.7156 39.2518 14.681C39.23 14.6547 39.2064 14.6316 39.1829 14.6078C39.1569 14.5798 39.1443 14.5559 39.109 14.5271C38.7384 14.2309 38.3922 14.1453 38.1536 14.1263L38.1578 14.1198C38.1578 14.1198 36.589 14.0037 34.264 15.5039C34.2312 15.5253 34.211 15.5409 34.1799 15.5615C33.5497 15.9516 33.0473 16.3425 32.6977 16.6577C32.4305 16.8815 32.2255 17.0897 32.0725 17.2847L32.065 17.2938L32.0658 17.293C31.8684 17.5489 31.7642 17.7809 31.7642 17.9867C31.7642 18.1488 31.8978 18.3109 32.1641 18.473C32.1641 18.473 33.1624 17.2107 34.8404 16.3894C34.9664 16.3359 35.2891 16.205 35.5723 16.1326C35.705 16.103 35.9546 16.08 36.1151 16.2092C36.2294 16.326 36.305 16.4881 36.305 16.7408C36.305 16.9704 36.2705 17.2493 36.1983 17.5826L36.0294 18.3702L35.8176 19.3544L34.9891 23.2452C34.5656 25.2547 34.353 26.457 34.353 26.8487C34.353 27.7729 34.8698 28.2354 35.9017 28.2354C36.3697 28.2354 36.8512 28.1522 37.3444 28.0041C37.3478 28.0041 37.3494 28.0058 37.3528 28.0074C37.3864 27.9959 37.4167 27.9835 37.4494 27.972C37.5318 27.9465 37.6133 27.9161 37.6956 27.8856C40.024 27.0372 41.5567 25.328 42.0197 24.7552C42.0609 24.7067 42.0961 24.6614 42.1289 24.6178C42.155 24.5824 42.1718 24.5585 42.1718 24.5585H42.1701C42.2877 24.389 42.3524 24.2483 42.3524 24.143C42.3491 23.9957 42.155 23.8484 41.7802 23.6945Z" fill="#DD0000"/>
<path d="M37.941 0C27.7071 0 19.4111 8.29577 19.4111 18.5295C19.4111 19.8931 19.5625 21.221 19.8419 22.5C20.5932 21.5182 21.5183 20.6808 22.5746 20.0304C22.5273 19.5368 22.4993 19.0363 22.4993 18.5295C22.4993 10.0016 29.413 3.08811 37.941 3.08811C46.469 3.08811 53.3827 10.0016 53.3827 18.5295C53.3827 27.0573 46.469 33.9708 37.941 33.9708C37.4342 33.9708 36.9344 33.9429 36.4392 33.8948C35.7888 34.951 34.9514 35.8769 33.9696 36.6274C35.2494 36.9068 36.5766 37.0589 37.9402 37.0589C48.1741 37.0589 56.4701 28.7632 56.4701 18.5295C56.4701 8.29577 48.1749 0 37.941 0Z" fill="#DD0000"/>
<path d="M22.9404 26.4707H37.0581" stroke="#DD0000" stroke-width="3.52942" stroke-linecap="round" stroke-linejoin="round"/>
<path d="M22.9404 33.5293H31.764" stroke="#DD0000" stroke-width="3.52942" stroke-linecap="round" stroke-linejoin="round"/>
<path d="M22.9404 44.1177H37.0581" stroke="#DD0000" stroke-width="3.52942" stroke-linecap="round" stroke-linejoin="round"/>
<path d="M22.9404 51.1763H31.764" stroke="#DD0000" stroke-width="3.52942" stroke-linecap="round" stroke-linejoin="round"/>
<path d="M14.117 24.7056H7.05817C6.08354 24.7056 5.29346 25.4957 5.29346 26.4703V33.5291C5.29346 34.5037 6.08354 35.2938 7.05817 35.2938H14.117C15.0916 35.2938 15.8817 34.5037 15.8817 33.5291V26.4703C15.8817 25.4957 15.0916 24.7056 14.117 24.7056Z" stroke="#DD0000" stroke-width="3.52942" stroke-linecap="round" stroke-linejoin="round"/>
<path d="M14.117 42.353H7.05817C6.08354 42.353 5.29346 43.1431 5.29346 44.1177V51.1766C5.29346 52.1512 6.08354 52.9413 7.05817 52.9413H14.117C15.0916 52.9413 15.8817 52.1512 15.8817 51.1766V44.1177C15.8817 43.1431 15.0916 42.353 14.117 42.353Z" stroke="#DD0000" stroke-width="3.52942" stroke-linecap="round" stroke-linejoin="round"/>
</svg>
