<svg width="61" height="64" viewBox="0 0 61 64" fill="none" xmlns="http://www.w3.org/2000/svg">
<path d="M2 61.9996H27.68V52.0516H21.902V29.9176H39.1219V52.0516H33.2719V61.9996H58.6039V52.0516H52.9459V20.3656H21.572C21.572 20.3656 19.832 13.8556 27.68 13.8556H31.154V3.05566H25.298C20.924 3.05566 7.68199 3.26566 7.68199 20.3656H2V29.9176H7.55599V52.0516H2V61.9996Z" stroke="#DD0000" stroke-width="3.89999" stroke-miterlimit="10"/>
<path d="M52.946 8.94199C52.94 10.3065 52.5304 11.6387 51.7686 12.7707C51.0068 13.9028 49.927 14.7841 48.6653 15.3035C47.4035 15.8229 46.0162 15.9573 44.6782 15.6896C43.3402 15.422 42.1114 14.7643 41.1466 13.7994C40.1817 12.8346 39.524 11.6057 39.2564 10.2678C38.9887 8.92976 39.123 7.54248 39.6425 6.28071C40.1619 5.01895 41.0432 3.93915 42.1752 3.17737C43.3073 2.4156 44.6395 2.00594 46.004 2C47.8451 2 49.6109 2.73139 50.9127 4.03326C52.2146 5.33514 52.946 7.10086 52.946 8.94199Z" stroke="#DD0000" stroke-width="3.89999" stroke-miterlimit="10"/>
</svg>
