<svg width="221" height="112" viewBox="0 0 221 112" fill="none" xmlns="http://www.w3.org/2000/svg">
<path d="M220.999 111.062C221.073 96.5052 218.27 82.0768 212.75 68.6062C207.231 55.1356 199.105 42.8883 188.838 32.568C178.571 22.2476 166.366 14.0577 152.925 8.4686C139.483 2.87954 125.069 0.00155597 110.512 6.30686e-07C95.9544 -0.0015547 81.5402 2.87335 68.0973 8.45953C54.6543 14.0457 42.4477 22.2331 32.1786 32.5512C21.9096 42.8694 13.7805 55.1149 8.25848 68.5844C2.73647 82.0538 -0.0696644 96.4815 0.00131345 111.039L35.5372 110.866C35.489 100.99 37.3927 91.2019 41.1389 82.0642C44.885 72.9265 50.3998 64.6191 57.3664 57.6192C64.333 50.6193 72.614 45.065 81.7338 41.2753C90.8535 37.4856 100.632 35.5352 110.508 35.5363C120.384 35.5373 130.162 37.4898 139.281 41.2814C148.4 45.0731 156.68 50.6292 163.645 57.6305C170.61 64.6319 176.123 72.9405 179.867 82.079C183.611 91.2176 185.513 101.006 185.463 110.882L220.999 111.062Z" fill="#FB7F7F" fill-opacity="0.67"/>
</svg>
