<svg width="56" height="64" viewBox="0 0 56 64" fill="none" xmlns="http://www.w3.org/2000/svg">
<path d="M46 10V6C46 4.93913 45.5786 3.92172 44.8284 3.17157C44.0783 2.42143 43.0609 2 42 2H6C4.93913 2 3.92172 2.42143 3.17157 3.17157C2.42143 3.92172 2 4.93913 2 6V58C2 59.0609 2.42143 60.0783 3.17157 60.8284C3.92172 61.5786 4.93913 62 6 62H42C43.0609 62 44.0783 61.5786 44.8284 60.8284C45.5786 60.0783 46 59.0609 46 58V38" stroke="#DD0000" stroke-width="4" stroke-linecap="round" stroke-linejoin="round"/>
<path d="M20 54H28" stroke="#DD0000" stroke-width="4" stroke-linecap="round" stroke-linejoin="round"/>
<path d="M37.5 38.5L30 40L31.5 32.5L48 16L54 22L37.5 38.5Z" stroke="#DD0000" stroke-width="4" stroke-linecap="round" stroke-linejoin="round"/>
<path d="M24 40H10" stroke="#DD0000" stroke-width="4" stroke-linecap="round" stroke-linejoin="round"/>
<path d="M10 32H26" stroke="#DD0000" stroke-width="4" stroke-linecap="round" stroke-linejoin="round"/>
<path d="M10 24H30" stroke="#DD0000" stroke-width="4" stroke-linecap="round" stroke-linejoin="round"/>
</svg>
