<svg width="78" height="60" viewBox="0 0 78 60" fill="none" xmlns="http://www.w3.org/2000/svg">
<path d="M0 0V4H68V56H24V60H78V56H72V0H0ZM12.0059 9C5.40981 9 0 14.408 0 21C0 27.5961 5.41222 33 12.0059 33C18.5914 33 24 27.5961 24 21C24 14.408 18.5938 9 12.0059 9ZM30 12V16H45V12H30ZM51 12V16H60V12H51ZM12.0059 14C15.3479 14 19 17.65 19 21C19 24.358 15.3503 28 12.0059 28C8.6455 28 5 24.358 5 21C5 17.65 8.64791 14 12.0059 14ZM30 24V28H60V24H30ZM0 38V60H5V42H16V60H21V42.9746L27.1934 45.25C28.9463 46.1805 31.0548 46.1768 32.8066 45.25V45.2559L43.4004 39.6543L40.5996 36.3457L30.0059 41.9473L20.7188 39.043C19.4252 38.3601 17.9805 38 16.5117 38H0Z" fill="#DD0000"/>
</svg>
