<svg width="625" height="500" viewBox="0 0 625 500" fill="none" xmlns="http://www.w3.org/2000/svg">
<path fill-rule="evenodd" clip-rule="evenodd" d="M211.5 384.3L178.7 452.3C178.7 452.3 175.8 458.4 184.1 458.2C192.5 458 461.2 466.1 466.8 466.3C472.4 466.5 473.7 462.9 470.2 455.6C467.1 449 446.9 401.6 443.1 392.9C442.7 392 441.9 391.5 441 391.4L213.7 383C212.8 382.9 211.9 383.4 211.5 384.3Z" fill="black"/>
<path fill-rule="evenodd" clip-rule="evenodd" d="M458.2 200.6C458.2 200.6 462.6 195.6 470.2 188.7C474.9 190.3 497.6 197.3 497.5 185.3C497.4 175.5 483.5 180.3 476.1 183.5C479.6 180.5 483.6 177.3 488 174.1C493.5 176 514.2 182.6 513.9 172.6C513.6 162.3 498.9 167.7 494.2 169.7C498 167.1 502.1 164.5 506.4 162C510.7 163.9 527.4 170.6 528.6 161.7C529.7 153.8 518.9 156.3 513.9 157.9C516.4 156.6 518.9 155.4 521.4 154.3C531 155.7 554 150.8 545.4 142.4C537.9 135.1 525.4 147.8 521.3 152.4C518.4 153.7 515.6 155.1 512.8 156.5C515.8 151.4 522.1 139.2 512.4 140.2C501.6 141.3 504.3 157 505.1 160.7C501.6 162.7 498.3 164.8 495.1 167C499.5 160.5 507.3 146.7 496.1 145.4C482.6 143.8 485.9 168.8 486.6 173C481.5 176.8 476.9 180.6 473 184C477.2 178.3 490.1 159.5 476.5 160.2C462.4 160.9 467.8 182.5 469.2 187.4C461.5 194.4 457.1 199.4 457 199.4L458.2 200.6Z" fill="#FF9696"/>
<path fill-rule="evenodd" clip-rule="evenodd" d="M354.6 236.1C354.6 236.1 351.3 231 347 222.7C349.5 218.9 361.1 200.6 350.5 197.9C341.8 195.7 342.8 209.1 343.9 216.4C342.1 212.6 340.2 208.3 338.4 203.7C341.4 199.3 352.1 182.6 343.2 180.6C334.1 178.5 335.3 192.7 336 197.3C334.6 193.3 333.2 189.1 332.1 184.7C334.8 181.3 344.6 168.3 337.1 165C330.4 162.1 330.1 172.3 330.3 177.1C329.8 174.6 329.3 172.1 328.9 169.6C332.4 161.5 333.5 140 324.1 145.6C315.9 150.5 324.1 164.5 327.2 169.2C327.7 172.1 328.2 174.9 328.8 177.6C325 173.7 315.7 165.3 314.3 174.1C312.8 183.9 327.2 185.2 330.7 185.4C331.7 188.9 332.7 192.4 333.9 195.7C329.2 190.3 318.9 180.1 315.1 189.7C310.5 201.3 333.4 204.2 337.2 204.6C339.3 210 341.6 214.9 343.7 219.2C339.7 214.2 326.1 198.4 323.5 210.5C320.8 223.1 341.1 223.5 345.7 223.4C350.1 231.8 353.4 236.9 353.4 237L354.6 236.1Z" fill="#DD0000"/>
<path fill-rule="evenodd" clip-rule="evenodd" d="M400 356.2C400 356.2 405.1 352.9 413.4 348.6C417.2 351.1 435.5 362.7 438.2 352.1C440.4 343.4 427 344.4 419.7 345.5C423.5 343.7 427.8 341.8 432.4 340C436.8 343 453.5 353.7 455.5 344.8C457.6 335.7 443.4 336.9 438.8 337.6C442.8 336.2 447 334.8 451.4 333.7C454.8 336.4 467.8 346.2 471.1 338.7C474 332 463.8 331.7 459 331.9C461.5 331.4 464 330.9 466.5 330.5C474.6 334 496.1 335.1 490.5 325.7C485.6 317.5 471.6 325.7 466.9 328.8C464 329.3 461.2 329.8 458.5 330.4C462.4 326.6 470.8 317.3 462 315.9C452.2 314.4 450.9 328.8 450.7 332.3C447.2 333.3 443.7 334.3 440.4 335.5C445.8 330.8 456 320.5 446.4 316.7C434.8 312.1 431.9 335 431.5 338.8C426.1 340.9 421.2 343.2 416.9 345.3C421.9 341.3 437.7 327.7 425.6 325.1C413 322.4 412.6 342.7 412.7 347.3C404.3 351.7 399.2 355 399.1 355L400 356.2Z" fill="#DD0000"/>
<path fill-rule="evenodd" clip-rule="evenodd" d="M400 356.2C400 356.2 405.1 352.9 413.4 348.6C414.8 349.5 418.2 351.7 422.1 353.5C421.8 348.8 426 345.9 428.4 344.7C425.4 344.7 422.3 345 419.8 345.4C422 344.4 424.3 343.3 426.7 342.3C426.6 341.8 426.5 341.2 426.5 340.7C423 342.2 419.8 343.7 416.8 345.1C419 343.3 423.4 339.7 426.4 335.9C423.4 335.2 424.4 329.3 425.6 324.9H425.5C412.9 322.2 412.5 342.5 412.6 347.1C404.2 351.5 399.1 354.8 399 354.8L400 356.2Z" fill="#FFEBEB"/>
<path fill-rule="evenodd" clip-rule="evenodd" d="M200.9 347.9C200.9 347.9 195.9 344.5 187.6 340C183.7 342.4 165.2 353.6 162.7 342.9C160.7 334.2 174.1 335.4 181.3 336.7C177.5 334.8 173.3 332.8 168.7 330.9C164.2 333.8 147.3 344.1 145.4 335.2C143.5 326 157.6 327.6 162.3 328.3C158.3 326.8 154.2 325.4 149.8 324.1C146.4 326.7 133.1 336.3 130 328.6C127.3 321.8 137.4 321.7 142.2 322C139.8 321.4 137.3 320.9 134.8 320.4C126.6 323.7 105.1 324.4 110.9 315.1C116 307 129.8 315.6 134.4 318.8C137.2 319.3 140.1 319.9 142.8 320.6C139 316.7 130.8 307.3 139.6 306.1C149.4 304.8 150.4 319.2 150.5 322.7C154 323.8 157.4 324.9 160.7 326.1C155.4 321.3 145.5 310.8 155.1 307.2C166.8 302.9 169.2 325.8 169.5 329.6C174.9 331.9 179.7 334.2 184 336.4C179 332.3 163.6 318.4 175.7 316.1C188.4 313.7 188.3 334 188.1 338.6C196.4 343.1 201.4 346.6 201.5 346.6L200.9 347.9Z" fill="#DD0000"/>
<path fill-rule="evenodd" clip-rule="evenodd" d="M200.9 347.9C200.9 347.9 195.9 344.5 187.6 340C186.6 340.7 184.5 341.9 182 343.2C182.5 341 181.9 338.7 180.7 336.6C180.9 336.6 181.1 336.7 181.3 336.7L180.6 336.3C180.1 335.4 179.5 334.5 178.8 333.7C180.7 334.6 182.5 335.5 184.2 336.4C179.2 332.3 163.8 318.4 175.9 316.1C188.6 313.7 188.5 334 188.3 338.6C196.6 343.1 201.6 346.6 201.7 346.6L200.9 347.9ZM155.1 320C158 319.3 164.6 318.2 168.7 322C167.1 314.2 163.5 304.1 155.4 307.1C148.9 309.6 151.2 315.1 155.1 320Z" fill="#FFEBEB"/>
<path fill-rule="evenodd" clip-rule="evenodd" d="M159.5 181C159.5 181 155.2 175.9 147.7 168.8C142.9 170.3 120.1 176.8 120.5 164.8C120.8 155 134.7 160.1 141.9 163.5C138.4 160.4 134.5 157.1 130.2 153.8C124.6 155.6 103.8 161.7 104.4 151.8C105 141.5 119.5 147.2 124.2 149.3C120.4 146.6 116.4 143.9 112.2 141.3C107.8 143.1 91.1 149.4 90 140.5C89.1 132.5 99.8 135.3 104.8 137C102.4 135.7 99.9 134.4 97.4 133.2C87.8 134.4 64.9 129 73.7 120.8C81.4 113.7 93.6 126.6 97.5 131.3C100.4 132.7 103.2 134.1 105.9 135.6C103 130.4 97 118.1 106.6 119.3C117.3 120.7 114.3 136.3 113.5 140C116.9 142.1 120.2 144.3 123.4 146.5C119.2 139.9 111.6 126 122.9 124.9C136.5 123.6 132.5 148.6 131.8 152.7C136.8 156.6 141.3 160.5 145.2 164C141.1 158.2 128.7 139.1 142.2 140.1C156.3 141.1 150.4 162.6 148.9 167.4C156.4 174.6 160.8 179.6 160.8 179.7L159.5 181Z" fill="#FF9696"/>
<path fill-rule="evenodd" clip-rule="evenodd" d="M188.7 350.6L192.1 218.1C192.1 218.1 191.1 209.4 202.8 209.8C214.5 210.2 413.8 215.9 413.8 215.9C413.8 215.9 421.9 217.4 422.3 223.7C422.8 229.9 419.1 359.1 419.1 359.1L188.7 350.6Z" fill="#FF9696"/>
<path fill-rule="evenodd" clip-rule="evenodd" d="M313.2 214.9C314.3 214.9 315.2 215.8 315.2 216.9C315.2 218 314.3 218.9 313.2 218.9C312.1 218.9 311.2 218 311.2 216.9C311.2 215.8 312.1 214.9 313.2 214.9Z" fill="black"/>
<path fill-rule="evenodd" clip-rule="evenodd" d="M197.2 334.1L200 225.3C200 225.3 199.1 217.7 209.3 218.1C219.5 218.5 406.4 225.1 406.4 225.1C406.4 225.1 413.4 226.4 413.8 231.9C414.1 236.5 411.9 318.6 411.2 343C411.1 344.9 410.4 346.4 409.1 347.7C407.7 349 406.1 349.6 404.3 349.5L203.6 341C200 340.8 197.2 337.7 197.2 334.1Z" fill="black"/>
<path fill-rule="evenodd" clip-rule="evenodd" d="M317 314.6C317 314.6 287.2 302 244.3 293.9L203.6 341C198.1 335.8 193 335.6 189 337.2L192.1 218.1C192.1 218.1 191.1 209.4 202.8 209.8C207.8 210 246.2 211.1 288.9 212.3C294.5 246.9 300.1 283.4 317 314.6Z" fill="black"/>
<path fill-rule="evenodd" clip-rule="evenodd" d="M393.9 215.3L413.8 215.9C413.8 215.9 421.9 217.4 422.3 223.7C422.6 228 420.9 291.6 419.9 330.1C417 325 412.3 321.4 405.3 330.1C396.1 341.5 394.2 261.6 393.9 215.3Z" fill="black"/>
<path fill-rule="evenodd" clip-rule="evenodd" d="M294.6 348.1C294.6 348.1 312.2 347.3 312.6 349.3C313.1 351.3 312.8 353.2 312.3 353.1C311.9 353 294.6 353.4 294.3 352.4C294.1 351.5 294.1 348.1 294.6 348.1Z" fill="#EBF0FD"/>
<path fill-rule="evenodd" clip-rule="evenodd" d="M300.5 309.5L288.4 275.3C288.2 274.8 287.8 274.5 287.3 274.4C282.3 273.6 277.3 272.9 272.3 272.2C271.8 272.1 271.4 272.3 271.1 272.7C270.8 273.1 270.7 273.5 270.9 274L283.3 307.6C283.5 308.1 283.8 308.4 284.3 308.5C289.2 309.4 294.1 310.4 299 311.3C299.5 311.4 299.9 311.2 300.3 310.9C300.6 310.4 300.7 310 300.5 309.5ZM301.2 309.7C297.3 298.6 293.4 287.7 289.6 276.8C289.4 276.3 289.5 275.9 289.8 275.5C290.1 275.1 290.6 275 291 275L306.1 277.6C306.6 277.7 307 278 307.1 278.5C310.9 290 314.9 301.5 319 313.2C319.2 313.7 319.1 314.1 318.7 314.5C318.4 314.9 317.9 315 317.4 314.9L302.6 311.9C302.1 311.8 301.8 311.5 301.6 311L301.2 309.7ZM287.2 271.7C287.4 272.2 287.3 272.6 287 273C286.7 273.4 286.2 273.5 285.8 273.5C280.8 272.7 275.8 272 270.8 271.4C270.3 271.3 269.9 271 269.7 270.5C265.6 259.4 261.6 248.4 257.7 237.5C257.5 237.1 257.6 236.6 257.9 236.2C258.2 235.8 258.6 235.6 259.1 235.7C264.5 236.2 269.8 236.8 275.2 237.5C275.7 237.6 276.1 237.9 276.3 238.4C279.6 249.5 283.3 260.6 287.2 271.7ZM275.1 234.9C271.7 224 268.6 213.1 265.8 202.2C265.7 201.7 265.2 201.3 264.7 201.2C258.7 200.5 252.7 200 246.8 199.7C246.3 199.7 245.9 199.9 245.7 200.2C245.4 200.6 245.3 201 245.5 201.4C249 212.2 252.7 223.1 256.5 233.9C256.7 234.4 257.1 234.7 257.6 234.8C263 235.3 268.3 235.9 273.7 236.5C274.2 236.6 274.6 236.4 274.9 236C275.1 235.8 275.2 235.4 275.1 234.9ZM264.9 198.9C265 199.3 264.9 199.8 264.6 200.1C264.3 200.4 263.9 200.6 263.4 200.6C257.4 200 251.4 199.5 245.4 199.1C244.8 199.1 244.4 198.7 244.2 198.2C240.8 187.4 237.6 176.7 234.9 165.8C234.8 165.4 234.9 165 235.2 164.6C235.5 164.3 235.8 164.1 236.3 164.1C243.1 164.3 250 164.8 256.9 165.4C257.5 165.5 258 165.9 258.1 166.5C259.9 177.4 262.2 188.1 264.9 198.9ZM261.8 182.6C260.7 177.5 259.7 172.4 258.9 167.3C258.8 166.9 259 166.5 259.3 166.2C259.6 165.9 260 165.7 260.4 165.8L280.8 168.4C281.4 168.5 281.9 169 282 169.6C282.9 180.5 284.5 191.2 286.5 201.9C286.6 202.3 286.5 202.7 286.2 203.1C285.9 203.4 285.5 203.6 285 203.5L266.9 201C266.4 200.9 265.9 200.5 265.8 200C264.4 194.2 263 188.4 261.8 182.6ZM266.7 203.4C269.5 214.3 272.7 225.2 276.1 236.2C276.3 236.7 276.7 237 277.2 237.1L293.4 239.6C293.9 239.7 294.3 239.5 294.6 239.2C294.9 238.9 295 238.4 294.9 238C291.9 227 289.3 216.1 287.2 205.3C287.1 204.7 286.6 204.3 286.1 204.2L268.2 201.7C267.7 201.6 267.3 201.8 267 202.1C266.7 202.5 266.6 203 266.7 203.4ZM277.2 239.7C277.1 239.2 277.2 238.8 277.5 238.4C277.8 238 278.2 237.9 278.7 238L294.8 240.5C295.3 240.6 295.7 240.9 295.9 241.5C299 252.7 302.4 263.7 306 275C306.1 275.5 306.1 275.9 305.7 276.3C305.4 276.7 304.9 276.8 304.5 276.7L289.4 274.1C288.9 274 288.5 273.7 288.4 273.2C284.5 262 280.7 250.8 277.2 239.7ZM257.6 163.2C256 152.4 255.1 141.6 254.7 130.8C254.7 130.1 254.1 129.6 253.5 129.5C245.6 128.9 237.7 128.5 229.9 128.5C229.5 128.5 229.1 128.7 228.9 129C228.6 129.3 228.5 129.7 228.6 130.1L234.3 162.5C234.4 163.1 234.9 163.6 235.5 163.6L256.2 164.9C256.6 164.9 257 164.8 257.3 164.5C257.6 164 257.7 163.6 257.6 163.2ZM254.7 127.5C254.7 127.9 254.6 128.2 254.3 128.5C254 128.8 253.7 128.9 253.3 128.9C245.3 128.3 237.4 128 229.4 127.9C228.7 127.9 228.2 127.4 228.1 126.7C226.8 115.7 226.1 104.8 226 93.7C226 93 226.6 92.4001 227.3 92.3001C236.4 92.2001 245.5 92.4001 254.6 93C255 93 255.3 93.2001 255.5 93.5C255.7 93.8 255.9 94.1 255.8 94.5C254.8 105.5 254.5 116.5 254.7 127.5ZM255.3 119.1C255.4 110.9 255.8 102.7 256.5 94.4001C256.6 93.7001 257.2 93.1 257.9 93.2C266.9 93.8 276 94.7001 285 95.9001C285.4 95.9001 285.7 96.1001 285.9 96.4001C286.1 96.7001 286.2 97.1001 286.1 97.4001C284 108.4 282.5 119.4 281.8 130.5C281.8 130.9 281.6 131.2 281.3 131.4C281 131.6 280.7 131.7 280.3 131.7L256.5 129C255.8 128.9 255.3 128.4 255.3 127.7C255.3 124.9 255.2 122 255.3 119.1ZM255.4 131.2C255.8 142.2 256.8 153.1 258.4 163.9C258.5 164.5 259 165 259.6 165L280.3 167.6C280.7 167.7 281.1 167.5 281.4 167.2C281.7 166.9 281.8 166.6 281.8 166.1C281.1 155.4 281 144.6 281.6 133.7C281.6 133 281.1 132.4 280.4 132.3L256.9 129.6C256.5 129.6 256.1 129.7 255.8 129.9C255.5 130.4 255.4 130.8 255.4 131.2ZM256.2 91.2C257.4 79.8 259.2 68.2 261.7 56.6C261.8 56.2 261.7 55.8 261.4 55.5C261.1 55.2 260.8 55 260.4 55C249.9 54.7 239.4 54.7001 229 55.2001C228.3 55.2001 227.8 55.7001 227.7 56.4001C226.5 67.8001 225.9 79.1001 225.9 90.4001C225.9 90.8001 226 91.1001 226.3 91.3001C226.6 91.6001 226.9 91.7 227.3 91.7C236.4 91.6 245.6 91.8001 254.8 92.4001C255.5 92.4001 256.1 91.9 256.2 91.2ZM262.1 54.4001L262.2 53.8L262.8 53.9001L262.7 54.4001C273.7 54.8001 284.7 55.6001 295.6 56.7001C296.2 56.8001 296.8 56.4 297 55.8V55.7001L297.6 55.9001L297.3 56.9001C308.8 58.1001 320.3 59.7 331.7 61.5L331.6 61.8L331.9 61.9001C313.3 103.6 303.3 146 306.6 190.3C309.9 233.3 324.2 277.9 339.1 319.7L338.8 319.8L338.7 320.1C317.2 315.4 295.5 311.2 273.9 307.2C265.1 305.6 256.2 303.8 247.3 301.7C247 301.6 246.8 301.7 246.5 301.8L246.3 301.9L246.1 301.5L228.2 296.9L228.3 297.2L227.7 297.4L227.6 297.3C227.4 296.9 227.1 296.6 226.7 296.5C220.6 294.7 214.3 292.8 208 290.6L208.1 290.3L207.8 290.4C193.6 255.4 173.8 220.4 152.4 188C149.2 183.1 146.1 178.3 143 173.4H142.9V173.2C142.9 173 142.8 172.9 142.7 172.8C136.7 163.2 130.9 153.6 125.5 144L124.5 144.3L124.3 143.7L125.2 143.4C119.9 134 114.8 124.3 110.1 114.7L109 115.1L108.8 114.5L109.9 114.1C105.2 104.5 100.9 94.9001 97 85.3001L97.3 85.2V85C106.3 80.9 115.6 77.2001 125.2 73.9001C125.9 73.7001 126.2 73.0001 126.1 72.3001L125.9 71.6L126.5 71.4001L126.6 71.9001C126.7 72.3001 126.9 72.5 127.3 72.7C127.6 72.9 128 72.9001 128.4 72.8001C138.3 69.5001 148.4 66.6 158.6 64.2L158.5 63.4001L159.1 63.3L159.2 64C193.2 56 227 53.2001 262.1 54.4001ZM262.4 56.1C259.9 67.9 258 79.5 256.8 91.1C256.8 91.5 256.9 91.8 257.1 92.1C257.3 92.4 257.7 92.5 258 92.6C267.1 93.2 276.2 94.1001 285.2 95.3001C285.9 95.4001 286.5 94.9 286.7 94.2C289.1 82.6 292.2 70.8001 296 58.9001C296.1 58.5001 296.1 58.1 295.8 57.8C295.6 57.5 295.2 57.2001 294.8 57.2001C284.4 56.2001 274 55.4 263.6 55C263.1 55 262.5 55.5 262.4 56.1ZM181.6 231.9C186.4 232.1 191.2 232.2 196.1 232.4C196.6 232.4 197 232.2 197.3 231.8C197.6 231.4 197.6 230.9 197.4 230.5C192.6 221 187.6 211.5 182.5 202C182.2 201.5 181.8 201.3 181.2 201.3C175.8 201.7 170.5 202.2 165.3 202.7C164.8 202.7 164.4 203 164.2 203.4C164 203.8 164 204.3 164.3 204.7C181.3 231.9 196.8 260.6 208.6 289.5C208.8 289.9 209 290.1 209.4 290.3C214.6 292.1 219.8 293.7 224.9 295.2C225.4 295.3 225.9 295.2 226.3 294.8C226.7 294.4 226.7 293.9 226.5 293.4C222.7 284.2 218.7 274.9 214.4 265.6C214.2 265.2 213.8 264.9 213.4 264.8C208.1 264 202.7 263.1 197.3 262.1L197.4 261.5C202.1 262.4 206.7 263.2 211.3 263.9C211.8 264 212.3 263.8 212.6 263.4C212.9 263 213 262.5 212.7 262L199.1 233.8C198.9 233.3 198.4 233.1 197.9 233C192.5 232.8 187.1 232.7 181.7 232.5L181.6 231.9ZM199.8 232.4L215.2 232.8C215.7 232.8 216.1 232.6 216.3 232.2C216.6 231.8 216.6 231.3 216.4 230.9C211.8 220.8 207.2 210.7 202.6 200.6C202.4 200.1 201.9 199.8 201.3 199.8L184.7 200.9C184.2 200.9 183.8 201.2 183.6 201.6C183.4 202 183.4 202.5 183.6 202.9C188.8 212.5 193.8 222.1 198.6 231.7C198.8 232.1 199.3 232.4 199.8 232.4ZM205.4 233.2L201.5 233.1C201 233.1 200.6 233.3 200.3 233.7C200 234.1 200 234.6 200.2 235L214 263.7C214.2 264.1 214.6 264.4 215 264.4C219.9 265.1 224.9 265.8 229.8 266.5C230.3 266.6 230.7 266.4 231 266C231.3 265.6 231.4 265.1 231.2 264.7C226.9 254.6 222.4 244.5 217.9 234.4C217.7 233.9 217.2 233.6 216.7 233.6C213 233.4 209.2 233.3 205.4 233.2ZM218.8 233C224 233.2 229.2 233.3 234.4 233.6C234.9 233.6 235.3 233.4 235.5 233C235.8 232.6 235.8 232.2 235.7 231.7C231.5 221.1 227.3 210.6 223.2 200.1C223 199.6 222.5 199.2 221.9 199.2C216.1 199.3 210.4 199.4 204.7 199.7C204.2 199.7 203.9 199.9 203.6 200.3C203.4 200.7 203.3 201.1 203.5 201.6C208.2 211.8 212.9 222 217.5 232.2C217.9 232.7 218.3 233 218.8 233ZM238 233.7C237.5 233.7 237 233.4 236.8 232.9C232.6 222.3 228.3 211.7 224.2 201.1C224 200.7 224.1 200.2 224.4 199.9C224.7 199.5 225.1 199.3 225.5 199.3L243.1 199.7C243.7 199.7 244.2 200.1 244.3 200.6C247.7 211.4 251.4 222.1 255.2 233C255.4 233.4 255.3 233.9 255 234.2C254.7 234.6 254.3 234.8 253.9 234.7L238 233.7ZM247.2 234.8C244.6 234.6 242.1 234.5 239.5 234.4C239 234.4 238.6 234.6 238.3 235C238 235.4 238 235.8 238.1 236.3L250.9 268.4C251.1 268.9 251.5 269.2 252 269.2L266.9 270.9C267.4 271 267.8 270.8 268.1 270.4C268.4 270 268.5 269.6 268.3 269.1C264.2 258.1 260.2 247.1 256.4 236.2C256.2 235.7 255.8 235.4 255.2 235.3C252.6 235.2 249.9 235 247.2 234.8ZM235.9 234.2C236.4 234.2 236.9 234.5 237.1 235L249.8 266.9C250 267.3 249.9 267.8 249.6 268.2C249.3 268.6 248.9 268.8 248.4 268.7C243.5 268.1 238.6 267.6 233.6 266.9C233.1 266.8 232.7 266.5 232.5 266.1C228.1 255.9 223.6 245.7 219.1 235.4C218.9 235 218.9 234.5 219.2 234.1C219.5 233.7 219.9 233.5 220.4 233.5C225.6 233.8 230.7 234 235.9 234.2ZM297 240.3C296.5 240.2 296.1 239.8 295.9 239.3C292.9 228.3 290.2 217.3 288 206.4C287.9 206 288 205.5 288.4 205.2C288.7 204.9 289.1 204.7 289.6 204.8C295.5 205.8 301.3 206.9 307.2 208.2C307.8 208.3 308.2 208.8 308.2 209.3C313.4 245.1 325.1 281.9 337.6 317C337.8 317.5 337.7 318 337.3 318.3C337 318.7 336.5 318.8 336 318.7C331.1 317.6 326.1 316.6 321.2 315.6C320.7 315.5 320.4 315.2 320.2 314.7C316.1 303 312 291.4 308.2 279.9C308 279.4 308.1 279 308.5 278.6C308.8 278.2 309.3 278.1 309.8 278.2C314.8 279.1 319.8 280.1 324.8 281.2L324.9 280.6C319.3 279.4 313.7 278.3 308.1 277.3C307.6 277.2 307.2 276.9 307.1 276.4C303.4 265.1 300 254.1 296.9 242.8C296.8 242.3 296.9 241.9 297.2 241.5C297.5 241.1 298 241 298.4 241.1C303.8 242.1 309.3 243.2 314.7 244.3L314.8 243.7C308.9 242.5 303 241.3 297 240.3ZM111.8 113.5C119.4 110.6 127.1 107.9 135.1 105.6C135.5 105.5 135.7 105.3 135.9 104.9C136.1 104.6 136.1 104.2 136 103.8C132.7 94.4001 129.7 84.9001 127 75.4001C126.9 75.0001 126.7 74.8 126.3 74.6C126 74.4 125.6 74.4 125.2 74.5C116.2 77.6 107.5 81.1001 99 84.8001C98.3 85.1001 98 85.9001 98.3 86.5C101.9 95.3 105.8 104 110 112.7C110.4 113.5 111.1 113.8 111.8 113.5ZM138.2 104.7C146.5 102.3 155 100.2 163.5 98.5C163.9 98.4001 164.2 98.2001 164.4 97.9001C164.6 97.6001 164.7 97.2001 164.6 96.9001C162.3 86.8 160.4 76.6001 158.9 66.4001C158.8 66.0001 158.6 65.7 158.3 65.5C158 65.3 157.6 65.2001 157.2 65.3001C147.4 67.7001 137.8 70.5 128.3 73.6C127.6 73.8 127.2 74.5 127.4 75.2C130.1 84.8 133.1 94.4001 136.5 103.9C136.8 104.5 137.5 104.9 138.2 104.7ZM157.2 100.5C150.9 101.9 144.7 103.5 138.6 105.2C138.2 105.3 138 105.5 137.8 105.9C137.6 106.2 137.6 106.6 137.7 107C141.2 116.7 145.1 126.4 149.3 135.9C149.6 136.5 150.2 136.8 150.8 136.7L172.9 132.4C173.3 132.3 173.6 132.1 173.8 131.8C174 131.5 174 131.1 173.9 130.7C170.7 120.6 167.8 110.4 165.3 100.2C165.1 99.5 164.4 99.1 163.7 99.2C161.5 99.5 159.3 100 157.2 100.5ZM135.4 106.1C127.5 108.5 119.8 111.1 112.3 114C111.9 114.1 111.7 114.4 111.5 114.8C111.4 115.2 111.4 115.5 111.5 115.9C115.9 124.8 120.6 133.7 125.5 142.4C125.8 143 126.5 143.2 127.1 143C133.8 140.9 140.6 139.1 147.6 137.4C148 137.3 148.3 137.1 148.5 136.7C148.7 136.3 148.7 135.9 148.5 135.6C144.4 126.2 140.5 116.6 137.1 107C136.8 106.3 136.1 105.9 135.4 106.1ZM166.8 97.8001C175.5 96.1001 184.4 94.7 193.4 93.7C194.1 93.6 194.7 93 194.6 92.2C193.4 81.5 192.7 70.7001 192.5 59.9001C192.5 59.5001 192.3 59.2001 192 58.9001C191.7 58.6001 191.3 58.5 190.9 58.6C180.5 60.1 170.4 62.0001 160.4 64.3001C159.7 64.5001 159.3 65.1001 159.4 65.8001C160.9 76.1001 162.8 86.4 165.2 96.7C165.4 97.5 166.1 97.9001 166.8 97.8001ZM196.7 93.4001C205.8 92.5 214.9 91.9 224.1 91.7C224.8 91.7 225.4 91.1001 225.4 90.4001C225.4 79.3001 226 68.1 227.1 56.8C227.1 56.4 227 56.0001 226.7 55.7001C226.4 55.4001 226.1 55.3 225.7 55.3C215.2 55.8 204.7 56.8001 194.3 58.2001C193.6 58.3001 193.1 58.9 193.1 59.5C193.3 70.4 194 81.3 195.2 92.2C195.3 92.9 195.9 93.5 196.7 93.4001ZM207.5 93.1C203.9 93.4 200.3 93.7001 196.7 94C196.3 94 196 94.2001 195.8 94.5C195.6 94.8 195.5 95.1 195.5 95.5C196.8 106.3 198.6 117 200.9 127.7C201 128.4 201.6 128.8 202.3 128.8C210.2 128.2 218 127.9 226 127.9C226.4 127.9 226.7 127.7 227 127.5C227.3 127.2 227.4 126.9 227.3 126.5C226.1 115.7 225.4 104.8 225.3 93.8001C225.3 93.4001 225.2 93.1001 224.9 92.9001C224.6 92.6001 224.3 92.5 223.9 92.5C218.5 92.4001 213 92.7 207.5 93.1ZM193.5 94.4001C184.5 95.4001 175.7 96.8001 167 98.4001C166.6 98.5 166.3 98.7001 166.1 99C165.9 99.3 165.8 99.7001 165.9 100C168.4 110.3 171.3 120.6 174.6 130.8C174.8 131.4 175.4 131.8 176.1 131.7C183.6 130.5 191.3 129.6 199.1 128.9C199.5 128.9 199.8 128.7 200.1 128.4C200.3 128.1 200.4 127.7 200.3 127.3C198 116.8 196.2 106.1 195 95.5C194.9 94.8 194.2 94.3001 193.5 94.4001ZM288.5 95.7C296.9 96.8 305.2 98.2 313.5 99.7L313.4 100.3C305.1 98.8001 296.7 97.4 288.2 96.2C287.5 96.1 286.8 96.6001 286.7 97.3001C284.6 108.4 283.1 119.6 282.3 130.7C282.3 131.4 282.7 132 283.4 132.1C291.2 133.3 299 134.6 306.7 136.2L306.6 136.8C299 135.3 291.3 133.9 283.6 132.8C283.2 132.7 282.9 132.8 282.6 133.1C282.3 133.3 282.1 133.7 282.1 134.1C281.5 145.1 281.6 156 282.3 166.8C282.3 167.4 282.8 167.9 283.4 168C290.2 169.1 297 170.3 303.8 171.7C304.2 171.8 304.6 171.7 304.9 171.4C305.2 171.1 305.4 170.8 305.4 170.4C305.8 133.7 315.2 98.3 330.5 63.5C330.7 63.1 330.7 62.7 330.5 62.3C330.3 61.9 330 61.7 329.5 61.6C319.1 59.9 308.7 58.5001 298.2 57.4001C297.6 57.3001 297 57.7 296.8 58.3C292.9 70.3 289.7 82.2001 287.3 93.9001C287.2 94.3001 287.3 94.6001 287.5 94.9001C287.8 95.5 288.2 95.7 288.5 95.7ZM168.3 133.7C162.6 134.7 157.1 135.8 151.6 137.1C151.2 137.2 150.9 137.4 150.7 137.8C150.5 138.2 150.5 138.6 150.7 138.9C155 148.5 159.6 158.2 164.6 167.8C164.9 168.3 165.4 168.6 166 168.5L185.2 165.8C185.6 165.7 186 165.5 186.2 165.1C186.4 164.7 186.4 164.3 186.3 163.9C182.2 153.8 178.4 143.7 175 133.6C174.8 133 174.2 132.6 173.5 132.7C171.7 133.1 170 133.4 168.3 133.7ZM148.3 137.9C141.4 139.6 134.6 141.4 127.9 143.4C127.5 143.5 127.2 143.8 127 144.2C126.8 144.6 126.9 145 127.1 145.4C132.1 154.3 137.4 163.2 143 172C143.3 172.5 143.9 172.7 144.4 172.6C150.3 171.3 156.3 170.2 162.5 169.1C162.9 169 163.3 168.8 163.5 168.4C163.7 168 163.7 167.6 163.5 167.2C158.6 157.7 154.1 148.2 149.8 138.7C149.6 138 148.9 137.7 148.3 137.9ZM212.6 128.7C217.2 128.5 221.8 128.4 226.4 128.4C227.1 128.4 227.6 128.9 227.7 129.6C229 140.4 230.9 151.1 233.4 161.8C233.5 162.2 233.4 162.6 233.1 162.9C232.8 163.2 232.5 163.4 232.1 163.4L211.6 163.7C211 163.7 210.5 163.3 210.3 162.8C206.9 152.2 204 141.6 201.6 131C201.5 130.6 201.6 130.2 201.8 129.9C202 129.6 202.4 129.4 202.8 129.4C206.1 129.1 209.4 128.9 212.6 128.7ZM199.6 129.6C191.9 130.2 184.3 131.2 176.8 132.3C176.4 132.4 176.1 132.6 175.9 132.9C175.7 133.2 175.6 133.6 175.8 134C179.2 144.2 183 154.4 187.2 164.6C187.4 165.2 188 165.5 188.6 165.4C195.1 164.7 201.7 164.2 208.4 163.8C208.8 163.8 209.2 163.6 209.4 163.2C209.6 162.8 209.7 162.4 209.6 162C206.3 151.6 203.5 141.1 201.1 130.5C200.8 130 200.2 129.5 199.6 129.6ZM181.4 166.9C176.6 167.5 171.8 168.2 167.1 168.9C166.7 169 166.3 169.2 166.1 169.6C165.9 170 165.9 170.4 166.1 170.8L181.7 199.7C182 200.2 182.4 200.4 183 200.4L199.8 199.3C200.3 199.3 200.6 199 200.9 198.6C201.1 198.2 201.2 197.8 201 197.4C196.4 187.4 191.6 177.3 187.4 167.1C187.2 166.5 186.6 166.2 186 166.3C184.5 166.5 183 166.7 181.4 166.9ZM163.7 169.5C157.6 170.5 151.7 171.7 145.8 172.9C145.4 173 145 173.3 144.8 173.7C144.6 174.1 144.7 174.6 144.9 174.9L162.7 202.6V202.2C168.2 201.6 173.8 201.1 179.5 200.7C180 200.7 180.3 200.4 180.6 200C180.8 199.6 180.8 199.1 180.6 198.7L165.1 170.1C164.8 169.7 164.3 169.4 163.7 169.5ZM221.9 164C218.8 164.1 215.7 164.1 212.6 164.3C212.2 164.3 211.8 164.5 211.6 164.9C211.4 165.3 211.3 165.7 211.4 166.1C214.9 176.8 218.9 187.3 223 197.8C223.2 198.3 223.7 198.6 224.2 198.7L242 199.1C242.4 199.1 242.8 198.9 243.1 198.6C243.4 198.2 243.4 197.8 243.3 197.4C239.9 186.7 236.8 176.1 234.2 165.2C234.1 164.6 233.5 164.2 232.9 164.2C229.3 163.9 225.6 163.9 221.9 164ZM209.2 164.4C202.6 164.7 196 165.3 189.5 165.9C189.1 165.9 188.7 166.2 188.5 166.5C188.3 166.9 188.2 167.3 188.4 167.7C192.7 177.9 197.5 188.1 202.2 198.2C202.4 198.7 202.9 199 203.5 199C209.2 198.7 215 198.6 220.8 198.5C221.3 198.5 221.6 198.3 221.9 197.9C222.2 197.5 222.2 197.1 222 196.7C218 186.3 214 175.9 210.6 165.3C210.4 164.8 209.8 164.4 209.2 164.4ZM234.5 163.4L257.9 164.8C250.1 164.1 242.3 163.6 234.5 163.4ZM305.5 172.5L305.4 172.8C298.4 171.3 291.3 170 284.2 168.9C283.8 168.8 283.4 168.9 283.1 169.2C282.8 169.5 282.6 169.9 282.7 170.3C283.6 181.3 285.3 192.1 287.4 203C287.5 203.6 287.9 204 288.5 204.1C294.4 205.1 300.3 206.2 306.2 207.5C306.6 207.6 307.1 207.5 307.4 207.2C307.7 206.9 307.9 206.5 307.8 206C306.3 194.7 305.4 183.8 305.5 172.5ZM228.8 296.3L243.5 300.1C244 300.2 244.5 300.1 244.8 299.7C245.1 299.3 245.2 298.8 245 298.3C241.1 288.3 236.9 278.2 232.7 268.2C232.5 267.8 232.1 267.5 231.6 267.4C226.8 266.8 221.9 266.1 217 265.4C216.5 265.3 216 265.5 215.7 265.9C215.4 266.3 215.3 266.8 215.6 267.3C219.9 276.7 223.9 286.1 227.7 295.5C228 295.9 228.4 296.2 228.8 296.3ZM247.5 301.1C252.4 302.2 257.3 303.3 262.1 304.3C262.6 304.4 263.1 304.2 263.4 303.9C263.7 303.5 263.8 303 263.6 302.6C259.6 291.9 255.4 281.2 251.2 270.5C251 270 250.6 269.7 250.1 269.7C245.2 269.1 240.4 268.6 235.5 268C235 267.9 234.6 268.1 234.3 268.5C234 268.9 233.9 269.4 234.1 269.8C238.4 280 242.6 290.2 246.5 300.4C246.7 300.7 247 301 247.5 301.1ZM265.9 305C265.4 304.9 265.1 304.6 264.9 304.2C260.8 293.4 256.7 282.6 252.4 271.9C252.2 271.5 252.3 271 252.6 270.6C252.9 270.2 253.3 270 253.8 270.1L268.6 271.8C269.1 271.9 269.5 272.2 269.7 272.7L282 306C282.2 306.5 282.1 306.9 281.8 307.3C281.5 307.7 281 307.8 280.5 307.8L265.9 305Z" fill="#FF9696"/>
<path fill-rule="evenodd" clip-rule="evenodd" d="M215.6 316.8C228.3 342 315.5 356.9 314.5 341C268.3 295.9 264.9 198.9 268.1 161.9C285.1 157.3 301.3 146.4 296.8 126.1C291.5 102.2 195.5 113.7 148.5 121.5C85.4 132 152.7 296.5 215.6 316.8Z" fill="#FF9696"/>
<path fill-rule="evenodd" clip-rule="evenodd" d="M215.6 316.8C221.7 328.8 244.8 338.5 267.2 343.6L311.2 345.5C313.5 344.4 314.7 343 314.6 341C294 320.9 281.9 290.5 275.1 259.7C265.2 270.2 243.3 286.3 217.4 261.5C217.4 261.5 210.1 266 198.9 269.7L197.9 307.7C203.8 311.7 209.7 314.9 215.6 316.8Z" fill="#EBF0FD"/>
<path fill-rule="evenodd" clip-rule="evenodd" d="M268.1 161.9C308 167.4 303 123 288.6 119.5C278.6 117 264.3 130.1 268.1 161.9Z" fill="black"/>
<path fill-rule="evenodd" clip-rule="evenodd" d="M288.7 119.5C288.7 119.5 299.1 124.2 298 137.5C296.9 150.8 279.7 160.6 277.3 152.6C274.9 144.6 285.1 139.8 286.9 144.4C286.9 144.4 285.6 136.5 280.2 137.7C261.2 141.9 268.1 164.9 281.8 161.8C289.3 160.1 297.5 155.3 300.8 145.6C305 133.4 298.4 119.7 288.7 119.5Z" fill="#FF9696"/>
<path fill-rule="evenodd" clip-rule="evenodd" d="M133.1 173.2C133.1 173.2 255.3 168.2 255.9 170.5C256.5 172.8 257.6 242 272.7 278.9C272.7 278.9 277.8 284.6 267.5 284C257.2 283.4 178.6 283.7 178.6 283.7C178.6 283.7 135.3 223.1 133.1 173.2Z" fill="#FFF7F7"/>
<path fill-rule="evenodd" clip-rule="evenodd" d="M268.3 265.9C269.6 270.6 271.1 275 272.8 279C272.8 279 277.9 284.7 267.6 284.1C257.3 283.5 178.7 283.8 178.7 283.8C178.7 283.8 176.1 280.1 172.1 273.9C196.6 274.3 217.4 261.4 217.4 261.4C238.4 281.6 256.8 274.8 268.3 265.9Z" fill="white"/>
<path fill-rule="evenodd" clip-rule="evenodd" d="M247.1 174L252 173.8C252.3 173.8 252.5 174 252.5 174.2L253.5 178.5C253.6 178.8 253.4 179.1 253.1 179.1L252.6 179.2C252.3 179.3 252 179.1 252 178.8L251.6 177.3C251.6 177.1 251.4 176.9 251.2 176.9C251 176.9 250.8 176.9 250.7 177.1L248.1 180.1C247.9 180.3 247.6 180.4 247.3 180.2L246.9 179.9C246.7 179.7 246.6 179.4 246.8 179.1L249.1 176.4C249.2 176.2 249.3 176 249.2 175.8C249.1 175.6 248.9 175.5 248.7 175.5L247.1 175.6C246.8 175.6 246.6 175.4 246.5 175.1V174.6C246.5 174.5 246.5 174.3 246.6 174.2C246.9 174.1 247 174 247.1 174Z" fill="#FF9696"/>
<path fill-rule="evenodd" clip-rule="evenodd" d="M234.9 182.3C234.9 182.9 234.9 183.5 235 184.2V184.3C235 184.7 234.7 185.1 234.2 185.1H234.1C228 185.3 221.9 185.5 215.8 185.8H215.7C215.5 185.8 215.3 185.7 215.1 185.6C214.9 185.4 214.9 185.3 214.8 185V184.9C214.8 184 214.7 182.7 215.2 181.9C215.5 181.4 216.2 181.4 216.7 181.4C217.4 181.3 218.1 181.3 218.8 181.3C220.9 181.2 222.9 181.2 225 181.1C227 181.1 229 181.1 231 181.1C231.8 181.1 234 181.1 234.6 181.6C234.8 181.8 234.9 182 234.9 182.3Z" fill="#A8C3DF"/>
<path fill-rule="evenodd" clip-rule="evenodd" d="M211.2 182.8C211.2 183.5 211.2 184.3 211.2 185V185.1C211.2 185.5 210.9 185.9 210.4 185.9H210.3C203.3 186.1 196.3 186.3 189.3 186.5H189.2C189 186.5 188.8 186.4 188.6 186.3C188.4 186.1 188.4 186 188.4 185.7V185.6C188.4 184.6 188.2 182.9 189.2 182.2C189.7 181.9 192.4 181.9 193 181.9C195.3 181.8 197.7 181.8 200 181.8C202.3 181.8 204.6 181.7 206.9 181.8C207.6 181.8 210.3 181.7 210.8 182.2C211.1 182.3 211.2 182.5 211.2 182.8Z" fill="#A8C3DF"/>
<path fill-rule="evenodd" clip-rule="evenodd" d="M245.2 191.1C245.2 191.7 245.3 192.3 245.3 193V193.1C245.3 193.3 245.2 193.5 245.1 193.7C244.9 193.9 244.8 194 244.5 194H244.4C239 194.2 233.6 194.5 228.2 194.7H228.1C227.9 194.7 227.7 194.6 227.5 194.5C227.3 194.4 227.2 194.2 227.2 193.9V193.8C227.2 193 227.1 192.3 227.1 191.5V191.4C227.1 191 227.4 190.6 227.9 190.6H228C230.7 190.5 233.4 190.4 236.1 190.3C237.7 190.3 239.4 190.2 241 190.2C242.1 190.2 243.3 190.2 244.4 190.4H244.5C244.9 190.3 245.2 190.6 245.2 191.1Z" fill="#A8C3DF"/>
<path fill-rule="evenodd" clip-rule="evenodd" d="M225.5 192C225.5 192.6 225.6 193.2 225.6 193.9V194C225.6 194.4 225.3 194.8 224.8 194.8H224.7C207.8 195.6 190.8 196.4 173.8 196.6H173.7C173.3 196.6 172.9 196.3 172.9 195.8V195.7C172.8 194.7 172.6 193 173.6 192.3C174 192 175.8 192.1 176.3 192C178.2 191.9 180.1 191.9 182 191.8C187.8 191.6 193.5 191.5 199.3 191.3C205 191.2 210.8 191 216.5 190.9C218.4 190.9 220.3 190.8 222.3 190.9C222.9 190.9 224.7 190.8 225.2 191.2C225.4 191.5 225.5 191.7 225.5 192Z" fill="#A8C3DF"/>
<path fill-rule="evenodd" clip-rule="evenodd" d="M170.4 196.6C162.8 196.7 155.2 196.8 147.6 196.9H147.5C147.1 196.9 146.7 196.6 146.7 196.1V196C146.6 194.8 146.4 193 147.7 192.4C148.4 192.1 151 192.1 151.8 192.1C154.3 192 156.7 192 159.2 191.9C161.7 191.9 164.3 191.8 166.8 191.8C167.4 191.8 169.9 191.7 170.8 192C171.1 192.1 171.3 192.4 171.3 192.7C171.3 193.6 171.2 194.5 171.3 195.4V195.5C171.3 195.7 171.2 195.9 171.1 196.1C170.9 196.3 170.8 196.3 170.5 196.4L170.4 196.6Z" fill="#A8C3DF"/>
<path fill-rule="evenodd" clip-rule="evenodd" d="M228.6 203.4C228.6 204 228.7 204.6 228.7 205.2V205.3C228.7 205.5 228.6 205.7 228.5 205.9C228.4 206.1 228.2 206.2 227.9 206.2H227.8C220.6 206.6 213.5 206.9 206.3 207.2H206.2C205.8 207.2 205.4 206.9 205.4 206.4V206.3C205.4 205.5 205.3 204.8 205.3 204V203.9C205.3 203.7 205.4 203.5 205.5 203.3C205.6 203.1 205.8 203 206.1 203H206.2C209.7 202.8 213.3 202.5 216.8 202.4C218.5 202.3 227.1 201.7 228.3 202.6C228.5 202.9 228.6 203.1 228.6 203.4Z" fill="#A8C3DF"/>
<path fill-rule="evenodd" clip-rule="evenodd" d="M201.3 204.7C201.3 205.3 201.4 205.9 201.4 206.5V206.6C201.4 206.8 201.3 207 201.2 207.2C201 207.4 200.9 207.5 200.6 207.5H200.5C189 207.9 177.4 208.1 165.9 208.3H165.8C165.4 208.3 165 208 165 207.5V207.4C164.9 206.1 164.6 204.2 166.3 203.8C166.8 203.7 167.7 203.7 168.3 203.7C169.6 203.7 170.9 203.7 172.2 203.7C176 203.7 179.7 203.7 183.5 203.7C187.4 203.7 191.3 203.7 195.1 203.8C196.4 203.8 197.7 203.8 199 203.8C199.5 203.8 200.6 203.7 201 204C201.2 204.2 201.3 204.4 201.3 204.7Z" fill="white"/>
<path fill-rule="evenodd" clip-rule="evenodd" d="M150.8 204.5C153 204.4 161.1 203.6 162.5 205C162.7 205.1 162.7 205.3 162.7 205.5C162.8 206.6 162.9 208 161.7 208.5C161.3 208.7 156.8 208.6 156.1 208.6C154.9 208.6 153.7 208.6 152.5 208.6C152 208.6 151 208.7 150.4 208.4C150.2 208.3 150.1 208.2 150 208C149.7 207.3 149.8 205.9 149.7 205.3V205.2C149.7 205 149.8 204.8 149.9 204.6C150.1 204.4 150.2 204.3 150.5 204.3L150.8 204.5Z" fill="white"/>
<path fill-rule="evenodd" clip-rule="evenodd" d="M234.8 217.7C234.8 216.9 234.7 216.2 234.7 215.4V215.3C234.7 215.1 234.8 214.9 234.9 214.7C235 214.5 235.2 214.4 235.5 214.4H235.6C239.9 214.2 244.1 214 248.4 213.8H248.5C248.9 213.8 249.3 214.1 249.3 214.6L249.4 217.1C249.4 217.3 249.3 217.5 249.2 217.7C249.1 217.9 248.9 218 248.6 218H248.5C244.2 218.2 240 218.4 235.7 218.6H235.6C235.2 218.6 234.8 218.3 234.8 217.8V217.7Z" fill="#A8C3DF"/>
<path fill-rule="evenodd" clip-rule="evenodd" d="M193.4 219.8C193.3 219 193.3 218.3 193.2 217.5V217.4C193.2 217.2 193.2 217 193.4 216.8C193.5 216.6 193.7 216.5 194 216.5H194.1C196.5 216.4 198.9 216.2 201.2 216.1C205.2 215.9 209.1 215.6 213.1 215.4C217.4 215.2 221.8 214.9 226.2 214.8C227.3 214.8 232.4 214.5 233.3 215.2C233.5 215.3 233.6 215.6 233.6 215.8V215.9C233.6 216.5 233.7 217.1 233.7 217.7V217.8C233.7 218 233.6 218.2 233.5 218.4C233.4 218.6 233.2 218.7 232.9 218.7H232.8C220 219.4 207.1 220.1 194.3 220.6H194.2C193.8 220.6 193.4 220.3 193.4 219.9V219.8Z" fill="#A8C3DF"/>
<path fill-rule="evenodd" clip-rule="evenodd" d="M190.3 218C190.4 218.6 190.4 219.2 190.5 219.8V219.9C190.5 220.1 190.5 220.3 190.3 220.5C190.1 220.7 190 220.8 189.7 220.8H189.6C178.6 221.2 167.6 221.4 156.5 221.8H156.4C156 221.8 155.6 221.5 155.6 221.1V221C155.5 220 155.3 218.5 156.1 217.8C156.5 217.4 157.6 217.5 158.2 217.4C159.4 217.4 160.7 217.3 161.9 217.3C165.6 217.2 169.4 217.2 173.1 217.1C176.8 217.1 180.5 217 184.2 217C185.4 217 186.7 217 187.9 217C188.4 217 189.5 217 190 217.3C190.2 217.5 190.3 217.7 190.3 218Z" fill="white"/>
<path fill-rule="evenodd" clip-rule="evenodd" d="M211.7 229.5C211.6 228.7 211.6 228 211.5 227.2V227.1C211.5 226.9 211.5 226.7 211.7 226.5C211.8 226.3 212 226.2 212.3 226.2H212.4C225.5 225.5 238.6 224.9 251.7 224.4H251.8C252.2 224.4 252.6 224.7 252.6 225.2L252.7 227.7C252.7 227.9 252.6 228.1 252.5 228.3C252.4 228.5 252.2 228.6 251.9 228.6H251.8C238.7 229.1 225.6 229.8 212.5 230.4H212.4C212 230.4 211.6 230.1 211.6 229.7L211.7 229.5Z" fill="white"/>
<path fill-rule="evenodd" clip-rule="evenodd" d="M209.2 227.7C209.3 228.3 209.3 228.9 209.4 229.5V229.6C209.4 229.8 209.4 230 209.2 230.2C209.1 230.4 208.9 230.5 208.6 230.5H208.5C193.4 231.2 178.4 231.7 163.3 232.2H163.2C162.8 232.2 162.4 231.9 162.4 231.5V231.4C162.3 230.6 162.3 229.9 162.2 229.1V229C162.2 228.8 162.3 228.6 162.4 228.4C162.6 228.2 162.7 228.1 163 228.1H163.1C170.6 227.8 178.1 227.6 185.6 227.3C190.4 227.1 195.2 227 200 226.9C201.8 226.9 203.5 226.8 205.3 226.8C206.3 226.8 207.4 226.8 208.3 226.8H208.4C208.8 226.9 209.1 227.2 209.2 227.7Z" fill="#A8C3DF"/>
<path fill-rule="evenodd" clip-rule="evenodd" d="M198.7 239.2C198.7 239.8 198.8 240.4 198.8 241V241.1C198.8 241.3 198.7 241.5 198.6 241.7C198.4 241.9 198.3 242 198 242H197.9C187.8 242.3 177.7 242.2 167.5 242.5H167.4C167 242.5 166.6 242.2 166.6 241.7V241.6C166.6 240.5 166.3 238.8 167.4 238.1C167.8 237.9 168.8 237.9 169.2 237.9C170.3 237.9 171.5 237.9 172.6 237.9C176 237.9 179.4 237.9 182.9 238C186.3 238 189.7 238.1 193.1 238.1C193.9 238.1 197.9 238.1 198.4 238.5C198.6 238.7 198.7 238.9 198.7 239.2Z" fill="#A8C3DF"/>
<path fill-rule="evenodd" clip-rule="evenodd" d="M185.8 182.8C185.8 184 185.7 185.6 184.3 186C183.2 186.3 180.5 186.3 179.3 186.4C176.4 186.5 173.6 186.5 170.7 186.5C168.1 186.5 165.5 186.5 162.9 186.6C161.2 186.6 159.6 186.6 157.9 186.7H157.8C157.4 186.7 157 186.4 157 185.9V185.8C157 184.8 156.7 183.1 157.7 182.4C158.3 182 161.8 182 162.5 182C165.5 181.9 168.5 181.9 171.6 181.8C174.6 181.8 177.6 181.7 180.6 181.7C181.6 181.7 182.6 181.7 183.6 181.7C184.1 181.7 185 181.7 185.4 182C185.7 182.3 185.8 182.5 185.8 182.8Z" fill="#A8C3DF"/>
<path fill-rule="evenodd" clip-rule="evenodd" d="M129.6 149C129.9 149 235.2 142.3 254.6 144.8C254.8 144.8 258.4 145 258.6 149.7C258.7 152.3 258.6 155.3 257.9 157.6C257.4 159.5 256.5 161 255.1 161.6C253.5 162.3 217.7 164.2 185 165.7C157.4 166.9 132 167.7 131 167.1C129.7 166.3 128.4 161.1 128 156.5C127.9 155.1 127.8 153.7 127.9 152.6C128 151.4 128.2 150.5 128.5 149.9C128.9 149.2 129.2 149 129.6 149ZM254.6 145.4C235.3 142.9 130 149.6 129.7 149.6C129.5 149.6 129.3 149.8 129.2 150C128.9 150.5 128.7 151.4 128.6 152.5C128.5 153.6 128.6 155 128.7 156.3C129.1 160.7 130.3 165.7 131.4 166.4C132.4 167 157.6 166.2 185.1 165C217.8 163.6 253.5 161.6 255 161C256.2 160.5 256.9 159.2 257.4 157.4C258 155.1 258.2 152.3 258 149.7C257.8 145.4 254.6 145.4 254.6 145.4Z" fill="#A8C3DF"/>
<path fill-rule="evenodd" clip-rule="evenodd" d="M132.6 153.2C132.5 156.6 132.6 159.9 132.8 163.3C132.8 163.5 132.9 163.7 133.1 163.8C133.3 163.9 133.4 163.9 133.6 164C139.5 164.3 141.2 160.4 135.6 157.9C140.6 159.1 142 151.5 133.1 152.8C132.8 152.7 132.6 152.9 132.6 153.2Z" fill="#A8C3DF"/>
<path fill-rule="evenodd" clip-rule="evenodd" d="M147.3 155L145.9 160.9C145.8 161.1 145.7 161.3 145.4 161.3L143.9 161.4C143.6 161.4 143.4 161.6 143.4 161.8V161.9C143.4 162.1 143.5 162.3 143.6 162.5C143.8 162.7 144 162.8 144.2 162.7L150 162.3C150.3 162.3 150.5 162.1 150.5 161.8V161.7C150.5 161.5 150.4 161.3 150.3 161.1C150.1 160.9 149.9 160.9 149.7 160.9H149.2C149 160.9 148.7 160.8 148.6 160.6C148.4 160.4 148.4 160.2 148.4 160L149.7 154.5C149.8 154.3 149.9 154.1 150.2 154.1L152.4 153.8C152.7 153.8 152.8 153.6 152.9 153.4L153 152.6C153 152.4 152.9 152.2 152.8 152C152.6 151.8 152.4 151.7 152.2 151.8L145.5 152.4C145.2 152.4 145 152.6 145 152.9V153.3C145 153.5 145.1 153.7 145.2 153.9C145.4 154.1 145.6 154.1 145.8 154.1L146.5 154C146.7 154 147 154.1 147.1 154.3C147.3 154.6 147.4 154.8 147.3 155Z" fill="#A8C3DF"/>
<path fill-rule="evenodd" clip-rule="evenodd" d="M158 160.6L167.2 160.1C167.6 160.1 167.9 160.4 167.9 160.7V161.3C167.9 161.5 167.9 161.6 167.7 161.8C167.6 161.9 167.4 162 167.3 162L158.1 162.5C157.7 162.5 157.4 162.2 157.4 161.9V161.3C157.4 161.1 157.4 161 157.6 160.8C157.7 160.6 157.8 160.6 158 160.6ZM158.7 156.4L171.3 155.7C171.7 155.7 172 156 172 156.3V156.9C172 157.1 172 157.2 171.8 157.4C171.7 157.5 171.5 157.6 171.4 157.6L158.8 158.3C158.4 158.3 158.1 158 158.1 157.7V157.1C158.1 156.9 158.1 156.8 158.3 156.6C158.3 156.5 158.5 156.4 158.7 156.4ZM159.3 152.9L166.2 152.5C166.6 152.5 166.9 152.8 166.9 153.1V153.7C166.9 153.9 166.9 154 166.7 154.2C166.6 154.3 166.4 154.4 166.3 154.4L159.4 154.8C159 154.8 158.7 154.5 158.7 154.2V153.6C158.7 153.4 158.7 153.3 158.9 153.1C159 153 159.1 152.9 159.3 152.9Z" fill="#A8C3DF"/>
<path fill-rule="evenodd" clip-rule="evenodd" d="M179.2 152L185 151.7C185.4 151.7 185.7 152 185.7 152.3V152.9C185.7 153.1 185.7 153.2 185.5 153.4C185.4 153.5 185.2 153.6 185.1 153.6L179.3 153.9C178.9 153.9 178.6 153.6 178.6 153.3V152.7C178.6 152.5 178.6 152.4 178.8 152.2C178.9 152.1 179 152 179.2 152ZM178.7 159.3L186.3 158.9C186.7 158.9 187 159.2 187 159.5V160.1C187 160.3 187 160.4 186.8 160.6C186.7 160.7 186.5 160.8 186.4 160.8L178.8 161.2C178.4 161.2 178.1 160.9 178.1 160.6V160C178.1 159.8 178.1 159.7 178.3 159.5C178.4 159.4 178.6 159.3 178.7 159.3ZM176.4 155.6L189 154.9C189.4 154.9 189.7 155.2 189.7 155.5V156.1C189.7 156.3 189.7 156.4 189.5 156.6C189.4 156.7 189.2 156.8 189.1 156.8L176.5 157.5C176.1 157.5 175.8 157.2 175.8 156.9V156.3C175.8 156.1 175.8 156 176 155.8C176.1 155.7 176.2 155.6 176.4 155.6Z" fill="#A8C3DF"/>
<path fill-rule="evenodd" clip-rule="evenodd" d="M208.6 157.2L199.5 157.8C199.1 157.8 198.8 158.1 198.8 158.5V159.1C198.8 159.3 198.8 159.4 199 159.6C199.1 159.7 199.3 159.8 199.4 159.8L208.5 159.2C208.9 159.2 209.2 158.9 209.2 158.5V157.9C209.2 157.7 209.2 157.6 209 157.4C208.9 157.2 208.8 157.2 208.6 157.2ZM208 153.1L195.7 153.9C195.3 153.9 195 154.2 195 154.6V155.2C195 155.4 195 155.5 195.2 155.7C195.3 155.8 195.5 155.9 195.6 155.9L207.9 155.1C208.3 155.1 208.6 154.8 208.6 154.4V153.8C208.6 153.6 208.6 153.5 208.4 153.3C208.3 153.1 208.2 153.1 208 153.1ZM207.4 149.5L200.6 149.9C200.2 149.9 199.9 150.2 199.9 150.6V151.2C199.9 151.4 199.9 151.5 200.1 151.7C200.2 151.8 200.4 151.9 200.5 151.9L207.3 151.5C207.7 151.5 208 151.2 208 150.8V150.2C208 150 208 149.9 207.8 149.7C207.8 149.6 207.6 149.5 207.4 149.5Z" fill="#A8C3DF"/>
<path fill-rule="evenodd" clip-rule="evenodd" d="M244.2 153.8C246.4 153 248.1 157.5 244.6 157.8C239.8 158.1 239.4 151.7 243.7 150C243.9 149.9 244.2 150 244.4 150.2C244.6 150.4 244.6 150.7 244.4 150.9C243.9 151.6 243.5 152.4 243.5 153.3C243.5 153.5 243.6 153.7 243.8 153.8C243.8 153.9 244 153.9 244.2 153.8ZM251.4 153.9C251.2 154 251 153.9 250.9 153.8C250.7 153.7 250.6 153.5 250.6 153.3C250.6 152.4 251 151.6 251.5 150.9C251.7 150.7 251.7 150.4 251.5 150.2C251.3 150 251.1 149.9 250.8 150C246.5 151.7 246.9 158.1 251.7 157.8C255.3 157.6 253.6 153.1 251.4 153.9Z" fill="#A8C3DF"/>
<path fill-rule="evenodd" clip-rule="evenodd" d="M215.9 151.8C215.9 151.8 217.4 150.6 218.5 150.7C219.6 150.7 221 151.4 221.3 153.6C221.5 155.8 222.2 155.2 222.2 155.2L222.3 156.8C222.3 156.8 220.4 157.7 220.1 156.1C220.1 156.1 219.3 157.8 217.2 157.7C215.1 157.5 215.3 155.1 216 154.4C216.7 153.7 219 152.7 219.7 153.5C219.7 153.5 218.5 151.7 216.9 153.2L215.9 151.8ZM235.5 150.6C235.5 150.6 233.1 148.3 231.1 150.2C229.1 152.1 229.9 155.6 231.7 156C233.5 156.4 235.3 154.8 235.3 154.8L234.4 153.5C234.4 153.5 231.9 155.5 231.5 153.2C231.2 150.9 233.2 150.5 233.7 151.6L235.5 150.6ZM223.4 148.7C224 148.4 225.6 148.2 225.6 148.2L225.2 152C229.3 149 230.3 153.7 228.9 155.7C227.6 157.7 225.4 156 225.4 156V157L223.2 157.2L223.4 148.7ZM225.4 153.5C225.4 153.5 225.4 154.4 226 154.8C226.6 155.1 228.1 154.6 227.7 153.3C227.3 151.9 225.4 153.5 225.4 153.5ZM219.3 154.8C219.3 154.8 216.5 154.7 216.9 155.7C217.3 156.7 219.4 155.8 219.4 155.4C219.5 154.9 219.3 154.8 219.3 154.8Z" fill="#A8C3DF"/>
<path fill-rule="evenodd" clip-rule="evenodd" d="M237.1 123.4C238 121.4 257.8 120.2 256.4 124.1C255.1 128 253.5 133.7 252.9 137.2C252.3 140.7 235.3 139.6 234.9 137.4C234.5 135.2 235.2 128.5 237.1 123.4Z" fill="#E07077"/>
<path fill-rule="evenodd" clip-rule="evenodd" d="M239 128.6L249 125.4C249.3 125.3 249.5 125.4 249.7 125.6C249.9 125.8 250 126.1 249.9 126.3L247.2 135C247.1 135.2 247 135.4 246.7 135.5C246.5 135.6 246.2 135.5 246.1 135.4L242.9 133C242.7 132.9 242.6 132.7 242.6 132.5C242.6 132.3 242.7 132.1 242.8 131.9L245.8 129L241.1 131.2C240.9 131.3 240.6 131.3 240.4 131.1L238.8 129.9C238.6 129.7 238.5 129.5 238.5 129.2C238.5 128.9 238.7 128.7 239 128.6Z" fill="#FF9696"/>
<path fill-rule="evenodd" clip-rule="evenodd" d="M140 132.5C140 132.5 198.2 127.8 200.4 128.1C202.6 128.3 201.2 141 199.2 141.2C197.2 141.4 136.7 146.7 135.1 144.4C133.5 142 135.2 133.6 140 132.5Z" fill="#FFF7F7"/>
<path fill-rule="evenodd" clip-rule="evenodd" d="M215.3 270.3L292.4 278.7C294.5 278.9 300.8 280.5 298.3 288.8C298.3 288.8 294.5 287.5 289.3 287.1C283.6 307.6 289.3 335.3 304.9 345.3L230.6 342.1L215.3 270.3Z" fill="#E07077"/>
<path fill-rule="evenodd" clip-rule="evenodd" d="M215.3 270.3L270.7 276.3C260.8 296.6 249.9 332.4 289.2 344.6L230.6 342.1L215.3 270.3Z" fill="#A45066"/>
<path fill-rule="evenodd" clip-rule="evenodd" d="M298.3 288.7C298.3 288.7 294.5 287.4 289.3 287C293.4 275.4 299.2 283 298.3 288.7Z" fill="black"/>
<path fill-rule="evenodd" clip-rule="evenodd" d="M177.6 250.7L210.3 253.1C210.7 253.1 211 253.3 211.2 253.6C211.4 253.9 211.5 254.3 211.4 254.7C210.8 257.6 211.5 263.1 212 264.4L177.2 262.5L177.6 250.7Z" fill="white"/>
<path fill-rule="evenodd" clip-rule="evenodd" d="M181 259.3C199.2 260.6 217.7 260.9 253.6 264.6C252.4 343.5 288.5 344.6 309.3 345.4L211.2 341.2C177.9 328.9 126.7 293.1 114.8 245.7L179.3 249.3C179.7 249.3 180 249.5 180.2 249.8C180.4 250.1 180.5 250.4 180.5 250.8C180 253.6 180.1 256.3 181 259.3Z" fill="black"/>
<path fill-rule="evenodd" clip-rule="evenodd" d="M140.6 272.5C136.5 272.2 136.2 268.1 139.1 268.3L157.7 269.7C160.2 269.9 160.9 274 159.2 273.9L140.6 272.5Z" fill="#FF9696"/>
<path fill-rule="evenodd" clip-rule="evenodd" d="M159 284.4C157.8 284.3 156.9 283.4 156.9 282.2C156.9 281.1 157.8 280.2 159 280.3L184.5 281.8C185 281.8 185.5 282.1 185.9 282.5C186.3 282.9 186.5 283.4 186.4 283.9V284.3C186.4 285.3 185.5 286 184.5 286L159 284.4ZM195.3 282.5L217.1 283.8C218.1 283.9 219 284.7 219 285.7V286.1C219 286.6 218.9 287.1 218.5 287.4C218.1 287.8 217.7 287.9 217.1 287.9L195.2 286.6C194.6 286.6 194.2 286.3 193.8 285.9C193.4 285.5 193.3 285 193.3 284.4V284C193.5 283.1 194.3 282.4 195.3 282.5ZM225.8 284.2L239.6 285C240.8 285.1 241.7 286 241.7 287.2C241.7 288.3 240.8 289.2 239.6 289.1L225.8 288.3C225.3 288.3 224.8 288.1 224.4 287.7C224 287.3 223.8 286.8 223.8 286.3V285.9C223.9 285 224.7 284.2 225.8 284.2Z" fill="#DD0000"/>
<path fill-rule="evenodd" clip-rule="evenodd" d="M166 295.1C164.8 295 163.9 294.1 163.8 292.9C163.8 291.8 164.7 290.9 165.8 290.9L177.7 291.5C178.2 291.5 178.7 291.7 179.1 292.1C179.5 292.5 179.7 293 179.7 293.5V293.9C179.7 294.9 178.9 295.6 177.9 295.6L166 295.1ZM190 292.2L212.6 293.4C213.8 293.5 214.7 294.4 214.8 295.6C214.8 296.7 213.9 297.6 212.8 297.6L190.2 296.4C189.2 296.3 188.3 295.5 188.3 294.5V294.1C188.3 293.6 188.4 293.1 188.8 292.8C189 292.3 189.5 292.1 190 292.2Z" fill="#DD0000"/>
<path fill-rule="evenodd" clip-rule="evenodd" d="M176.9 305.3C175.7 305.2 174.6 304.3 174.4 303.2C174.2 302.1 175 301.2 176.2 301.3L194.8 302.4C196 302.5 197.1 303.4 197.3 304.5C197.5 305.6 196.7 306.5 195.5 306.4L176.9 305.3Z" fill="white"/>
<path fill-rule="evenodd" clip-rule="evenodd" d="M173.4 313.4C169.1 313.1 169.2 308.9 171.7 309.1L186.7 310.3C188.9 310.5 190.4 314.7 188.4 314.6L173.4 313.4Z" fill="#FF9696"/>
<path fill-rule="evenodd" clip-rule="evenodd" d="M201.7 320.9C200.5 320.9 199.5 319.9 199.5 318.8C199.4 317.7 200.3 316.8 201.5 316.8L207.2 317C208.2 317 209.1 317.8 209.2 318.8L209.3 319.2C209.4 319.7 209.2 320.2 208.9 320.6C208.6 321 208.1 321.2 207.5 321.1L201.7 320.9ZM214.8 317.3L242.8 318.4C244 318.4 245 319.4 245 320.5C245.1 321.6 244.2 322.5 243 322.5L215 321.4C214 321.4 213.1 320.5 213 319.5V319.1C212.9 318.6 213.1 318.1 213.4 317.7C213.8 317.4 214.3 317.3 214.8 317.3Z" fill="white"/>
<path fill-rule="evenodd" clip-rule="evenodd" d="M204.2 329.5C203 329.5 202 328.5 201.9 327.3C201.8 326.2 202.6 325.3 203.8 325.3L218.5 326C219.7 326 220.7 327 220.8 328.2C220.9 329.3 220.1 330.2 218.9 330.2L204.2 329.5Z" fill="#DD0000"/>
<path fill-rule="evenodd" clip-rule="evenodd" d="M172.7 252.1C174.3 251.9 175.9 253 176.3 254.6C176.7 256.2 175.7 257.6 174.1 257.8C172.5 258 170.9 256.9 170.5 255.3C170.1 253.7 171.1 252.3 172.7 252.1Z" fill="#E07077"/>
<path fill-rule="evenodd" clip-rule="evenodd" d="M244.1 303.1L241.8 306.3C241.5 306.7 241.5 307.1 241.7 307.5C241.9 307.9 242.3 308.1 242.7 308.2L247.9 308.3C248.4 308.3 248.8 308.1 249 307.6C249.2 307.2 249.1 306.7 248.8 306.3L245.9 302.9C245.7 302.6 245.3 302.5 245 302.5C244.6 302.7 244.3 302.8 244.1 303.1Z" fill="#E07077"/>
<path fill-rule="evenodd" clip-rule="evenodd" d="M303.2 338.6C303.2 338.6 348.9 257.2 353.9 142.1C353.9 142.1 568.4 185.4 609.2 203.4C574.5 267.3 413.2 271.1 411.2 343C411.1 344.9 410.4 346.4 409.1 347.7C407.7 349 406.1 349.6 404.3 349.5L299.4 345L303.2 338.6Z" fill="#DD0000"/>
<path fill-rule="evenodd" clip-rule="evenodd" d="M303.2 338.6C303.2 338.6 312.6 321.9 323.3 293C338.3 311.3 368.6 328.5 428.1 308.2C418 317.9 411.7 329.2 411.3 343.1C411.2 345 410.5 346.5 409.2 347.8C407.8 349.1 406.2 349.7 404.4 349.6L299.4 345L303.2 338.6Z" fill="#FFEBEB"/>
<path fill-rule="evenodd" clip-rule="evenodd" d="M351.7 171.5C352.7 162 353.5 152.1 353.9 142C353.9 142 568.4 185.3 609.2 203.3C605.2 210.6 600.1 217.1 594.1 222.9C553.9 207.8 384.7 177.4 351.7 171.5Z" fill="#FF9696"/>
<path fill-rule="evenodd" clip-rule="evenodd" d="M365.8 154.8C369 154 372.3 155.9 373.2 159.2C374 162.4 372.1 165.7 368.8 166.6C365.5 167.5 362.3 165.5 361.4 162.2C360.6 158.9 362.6 155.6 365.8 154.8Z" fill="#E07077"/>
<path fill-rule="evenodd" clip-rule="evenodd" d="M399.1 162.9C402.3 162.1 405.6 164 406.5 167.3C407.3 170.5 405.4 173.8 402.1 174.7C398.9 175.5 395.6 173.6 394.7 170.3C393.9 167 395.8 163.7 399.1 162.9Z" fill="#DD0000"/>
<path fill-rule="evenodd" clip-rule="evenodd" d="M381.9 158.5C385.1 157.7 388.4 159.6 389.3 162.9C390.1 166.1 388.2 169.4 384.9 170.3C381.7 171.1 378.4 169.2 377.5 165.9C376.7 162.6 378.7 159.3 381.9 158.5Z" fill="#FF9696"/>
<path fill-rule="evenodd" clip-rule="evenodd" d="M318.5 327.7C336.1 294.6 367.6 183.1 362.5 186.3C369.8 188 446.3 205.3 456.6 208.6C458.1 209.1 384.8 299.6 375.8 329.7C375.5 330.8 374.5 331.6 373.3 331.6C349.6 332.2 341.9 331.5 321 331.3C320.1 331.3 319.3 330.9 318.8 330.2C318.3 329.4 318.1 328.5 318.5 327.7Z" fill="#FFEBEB"/>
<path fill-rule="evenodd" clip-rule="evenodd" d="M318.5 327.7C322 321.1 326 311.4 330.3 300.1C341.1 309.8 357.3 317.6 381.3 317.2C378.8 322 376.9 326.2 375.9 329.6C375.6 330.7 374.6 331.5 373.4 331.5C349.7 332.1 342 331.4 321.1 331.2C320.2 331.2 319.4 330.8 318.9 330.1C318.3 329.4 318.1 328.5 318.5 327.7Z" fill="black"/>
<path fill-rule="evenodd" clip-rule="evenodd" d="M318.2 327.6C330.4 304.6 349.4 243.5 358.1 209.7C359.9 202.7 361.3 196.9 362 192.8C362.6 189.5 362.9 187.3 362.8 186.8L361.7 186.5L362.3 186.1C362.4 186 362.6 186 362.7 186C362.8 186 362.9 186.1 363 186.2C364.7 186.6 368.5 187.5 373.6 188.6C397 193.9 448.3 205.7 456.7 208.3C456.9 208.4 457 208.5 456.9 208.8C456.6 209.8 451.6 216.4 444.3 226.1C423.3 254 382.6 307.9 376.1 329.8C375.9 330.4 375.5 330.9 375.1 331.3C374.6 331.7 374 331.9 373.4 331.9C357.6 332.3 348.9 332.1 338.6 331.9C333.5 331.8 328 331.7 321.1 331.6C320.6 331.6 320.1 331.5 319.7 331.3C319.3 331.1 318.9 330.8 318.6 330.4C318.3 330 318.1 329.5 318 329C317.9 328.5 318 328 318.2 327.6ZM358.7 209.8C350 243.7 331 304.8 318.8 327.8C318.6 328.1 318.6 328.4 318.6 328.8C318.7 329.2 318.8 329.6 319.1 329.9C319.3 330.2 319.6 330.5 319.9 330.6C320.2 330.8 320.6 330.9 321 330.9C327.9 331 333.4 331.1 338.6 331.2C348.9 331.4 357.6 331.6 373.4 331.2C373.9 331.2 374.4 331 374.8 330.7C375.2 330.4 375.5 330 375.6 329.5C382.2 307.5 422.9 253.6 443.9 225.7C450.8 216.5 455.6 210.2 456.3 208.8C447.2 206 396.7 194.5 373.6 189.2C368.9 188.1 365.3 187.3 363.4 186.9C363.5 188 363.3 190.1 362.8 192.9C361.9 197 360.5 202.8 358.7 209.8Z" fill="black"/>
<path fill-rule="evenodd" clip-rule="evenodd" d="M372.9 245.9C374.6 250.2 398.8 255 403.9 255.7C409.8 243.7 412.3 236.9 419.9 224.6C422.9 219.7 386.2 207.9 385.9 208.1C384 208.2 371.7 242.9 372.9 245.9Z" fill="#FF9696"/>
<path fill-rule="evenodd" clip-rule="evenodd" d="M402 248.4C401.5 253.5 392.1 249.4 388.8 247.9C382.5 245.2 374 242.1 381.3 237.4C392.3 230.2 403.3 236.8 402 248.4ZM390.7 223.2C386.1 231 399.6 239.1 404.3 230.4C407.3 224.9 404.4 220.9 400.9 219.6C397.2 218.2 392.6 219.9 390.7 223.2Z" fill="black"/>
<path fill-rule="evenodd" clip-rule="evenodd" d="M352.4 253C354.3 252.5 356.1 254.2 356.6 256.1C357.1 258 355.9 260 354 260.5C352.1 261 350.3 259.3 349.8 257.4C349.4 255.5 350.5 253.5 352.4 253Z" fill="#FF9696"/>
<path fill-rule="evenodd" clip-rule="evenodd" d="M346.1 270.2C348 269.7 349.7 271.4 350.2 273.3C350.7 275.2 349.5 277.2 347.6 277.7C345.7 278.2 344 276.5 343.5 274.6C343.1 272.6 344.2 270.7 346.1 270.2Z" fill="#FF9696"/>
<path fill-rule="evenodd" clip-rule="evenodd" d="M340.6 286.1C342.5 285.6 344.1 287.2 344.6 289.1C345.1 291 343.9 293 342 293.5C340.1 294 338.5 292.4 338 290.5C337.6 288.5 338.7 286.6 340.6 286.1Z" fill="#FF9696"/>
<path fill-rule="evenodd" clip-rule="evenodd" d="M360.8 260.8C359.6 260.2 359.2 258.8 359.8 257.6C360.4 256.4 361.8 256 363 256.6C363.1 256.6 385.2 268.1 399 271C400.3 271.3 401.1 272.5 400.8 273.8C400.5 275.1 399.3 275.9 398 275.6C383.5 272.5 360.9 260.8 360.8 260.8Z" fill="#FF9696"/>
<path fill-rule="evenodd" clip-rule="evenodd" d="M358.4 266C357.7 265.5 357.4 264.6 357.9 263.8C358.4 263.1 359.3 262.8 360.1 263.3C360.1 263.3 368.8 268.8 374.9 271.1C375.7 271.4 376.1 272.3 375.8 273.1C375.5 273.9 374.6 274.3 373.8 274C367.4 271.6 358.5 266 358.4 266Z" fill="#FF9696"/>
<path fill-rule="evenodd" clip-rule="evenodd" d="M378.2 274.8C378.4 274 379.3 273.5 380.1 273.7C381.9 275 388.1 276.6 391 276.8C391.8 277.1 392.3 278 392 278.8C391.7 279.6 390.8 280.1 390 279.8C388.3 279.6 377.4 277.7 378.2 274.8Z" fill="#FF9696"/>
<path fill-rule="evenodd" clip-rule="evenodd" d="M354.1 277C352.9 276.4 352.4 275 353 273.8C353.6 272.6 355 272.1 356.2 272.7C356 273.5 370.8 281.6 385 285.2C386.2 285.6 386.9 287 386.4 288.2C386 289.4 384.6 290.1 383.4 289.6C369 285.5 353.9 277.6 354.1 277Z" fill="#FF9696"/>
<path fill-rule="evenodd" clip-rule="evenodd" d="M352.1 282.8C351.3 282.4 351 281.5 351.4 280.7C351.8 279.9 352.7 279.6 353.5 280C353.5 280 360 283.3 365.5 285.8C366.3 286.2 366.6 287.1 366.3 287.9C365.9 288.7 365 289 364.2 288.7C358.9 286.2 352.1 282.8 352.1 282.8Z" fill="#FF9696"/>
<path fill-rule="evenodd" clip-rule="evenodd" d="M348.3 294.1C347.3 293.3 347.1 291.8 347.9 290.8C348.7 289.8 350.2 289.6 351.2 290.4C361.7 296.9 374.2 299.5 380.8 301.8C381.8 302.6 382.3 303.6 381.5 304.6C380.7 305.6 379.4 306 377.9 305.6C368.8 303.3 360.3 301 348.3 294.1Z" fill="#FF9696"/>
<path fill-rule="evenodd" clip-rule="evenodd" d="M345.6 300C344.9 299.5 344.7 298.5 345.2 297.8C345.7 297.1 346.7 296.9 347.4 297.4C347.4 297.4 356.6 302.8 364.4 305C365.2 305.2 365.7 306.1 365.5 306.9C365.3 307.7 364.4 308.2 363.6 308C355.3 305.7 345.6 300 345.6 300Z" fill="#FF9696"/>
<path fill-rule="evenodd" clip-rule="evenodd" d="M465.1 210.3C474.8 211.4 517.1 216.9 568 233.4C568.9 233.7 569.2 234.9 569.1 235.9C569 236.9 568.4 237.7 567.5 238.1C556.3 242.9 509.7 263.6 490.7 270.9C490.1 271.1 489.5 271.1 488.9 270.9C483.4 269 454.9 259.2 437.1 253.9C436.2 253.6 435.6 253 435.3 252.1C435 251.2 435.2 250.3 435.8 249.6C440.5 244 452.3 228.7 462.5 211.5C463 210.6 464 210.1 465.1 210.3Z" fill="#FFEBEB"/>
<path fill-rule="evenodd" clip-rule="evenodd" d="M464.1 221.7C462.8 221.5 461.9 220.3 462.2 219C462.4 217.7 463.6 216.8 464.9 217.1C483 220.1 488.1 220.8 509.9 229.4C511 230.1 511.3 231.6 510.6 232.7C509.9 233.8 508.4 234.1 507.3 233.4C488.8 225.5 481.6 224.5 464.1 221.7Z" fill="black"/>
<path fill-rule="evenodd" clip-rule="evenodd" d="M461.2 228.9C459.9 228.7 459 227.5 459.2 226.2C460 221.2 485.7 229.2 488.5 230.1C489.7 230.6 490.2 232 489.7 233.2C489.2 234.4 487.8 234.9 486.6 234.4C473.6 230 460.4 229.2 461.2 228.9Z" fill="#DD0000"/>
<path fill-rule="evenodd" clip-rule="evenodd" d="M481.7 264.8C480.5 264.3 479.9 263.2 480.4 262C480.9 260.8 482.3 260.2 483.5 260.7C486.1 261.7 488.7 262.8 491.3 263.8C492.5 264.3 493.4 265.8 492.9 267C492.4 268.2 490.7 268.4 489.5 267.9C486.9 266.8 484.3 265.8 481.7 264.8Z" fill="black"/>
<path fill-rule="evenodd" clip-rule="evenodd" d="M432.7 257.5C439.7 258.1 467.5 265.2 477.9 271.2C478.9 271.6 479.6 272.6 479.5 273.8C479.4 278.2 424.2 290.6 409.2 332.6C408.8 333.8 407.6 334.5 406.4 334.4L382.9 331.7C382 331.6 381.3 331.1 380.9 330.4C380.5 329.6 380.4 328.8 380.8 328C385.8 317.1 403 282.1 430 258.2C430.8 257.4 431.8 257.2 432.7 257.5Z" fill="black"/>
<path fill-rule="evenodd" clip-rule="evenodd" d="M447.7 272.7C446.8 272.5 446.3 271.7 446.5 270.8C446.7 269.9 447.5 269.4 448.4 269.6L448.7 269.7C450.2 270 456.3 271.7 462.6 275.7C463.3 276.2 463.4 277.3 463 278C462.5 278.7 461.6 279 460.8 278.5C455 274.9 449.5 273.1 448.1 272.8L447.7 272.7Z" fill="#FF9696"/>
<path fill-rule="evenodd" clip-rule="evenodd" d="M443.8 276.1C442.8 275.3 443.6 273.6 445.3 274C446.7 274.3 449.2 274.8 453.7 276.9C454.4 277.4 454.6 278.4 454.1 279.1C453.6 279.8 452.7 279.9 451.9 279.5C450.3 278.5 446.4 277.8 443.8 276.1Z" fill="#FF9696"/>
<path fill-rule="evenodd" clip-rule="evenodd" d="M427.2 283.6C426.3 283.3 425.7 282.5 425.9 281.7C426.1 280.9 426.9 280.5 427.8 280.7L428.1 280.8C429.7 281.3 436.1 283.6 442.8 288.1C443.6 288.6 443.7 289.7 443.2 290.4C442.7 291.1 441.7 291.2 440.9 290.6C434.7 286.5 429 284.1 427.5 283.7L427.2 283.6Z" fill="#DD0000"/>
<path fill-rule="evenodd" clip-rule="evenodd" d="M416.4 285C415.6 284.8 415 283.9 415.2 283.1C415.4 282.3 416.3 281.7 417.1 281.9L417.4 282C418.9 282.4 424.9 284.4 431 288.6C431.7 289.1 431.7 290.2 431.2 290.9C430.7 291.6 429.7 291.8 429 291.3C423.3 287.4 418 285.3 416.6 285H416.4Z" fill="#DD0000"/>
<path fill-rule="evenodd" clip-rule="evenodd" d="M424.2 294.8C423.4 294.5 422.8 293.8 423 292.9C423.5 290.5 426.3 292.2 427.7 292.8C428.4 293.1 429.2 293.6 430.5 294.4C431.2 294.9 431.3 296 430.9 296.7C430.4 297.4 429.5 297.7 428.7 297.2C426.6 296.1 426.1 295.6 424.2 294.8Z" fill="#FF9696"/>
<path fill-rule="evenodd" clip-rule="evenodd" d="M412.9 297.9C412.1 297.6 411.5 296.9 411.7 296C412.2 293.6 415 295.3 416.4 295.9C417.1 296.2 417.9 296.7 419.2 297.5C419.9 298 420 299.1 419.6 299.8C419.1 300.5 418.2 300.8 417.4 300.3C415.3 299.1 414.8 298.6 412.9 297.9Z" fill="#DD0000"/>
<path fill-rule="evenodd" clip-rule="evenodd" d="M396.2 311.4C395.4 311.1 394.8 310.4 395 309.5C395.5 307.1 398.3 308.8 399.7 309.4C400.4 309.7 401.2 310.2 402.5 311C403.2 311.5 403.3 312.6 402.9 313.3C402.4 314 401.5 314.3 400.7 313.8C398.6 312.6 398.1 312.1 396.2 311.4Z" fill="#FFEBEB"/>
<path fill-rule="evenodd" clip-rule="evenodd" d="M442 267.9C442 270.7 439.3 273 436 273.1C432.7 273.2 430.1 271 430.1 268.2C430.1 265.4 432.8 263.1 436.1 263C439.4 263 442.1 265.2 442 267.9Z" fill="#FF9696"/>
<path fill-rule="evenodd" clip-rule="evenodd" d="M304.8 345.7C309.6 340.2 323.1 324.1 331.2 309.1C331.2 309.1 382.3 331.9 405.3 330.3C405.3 330.3 381.9 336.2 370 348.5L304.8 345.7Z" fill="#FF9696"/>
<path d="M199.849 340.559L199.82 341.258L408.453 349.778L408.481 349.079L199.849 340.559Z" fill="black"/>
<path fill-rule="evenodd" clip-rule="evenodd" d="M169.6 415.2L154.7 422.8L159.8 430.6C159.8 430.6 162.3 432.9 168.5 432.9C174.8 432.9 436.9 439.5 436.9 439.5C436.9 439.5 442.7 440.4 445.9 431.8L169.6 415.2Z" fill="#FFEBEB"/>
<path fill-rule="evenodd" clip-rule="evenodd" d="M188.7 350.6L155.2 420C155.2 420 152.3 426.1 160.6 425.9C169 425.7 443.3 434 443.3 434C443.3 434 450.2 430.6 446.7 423.3C443.2 416 419 359.2 419 359.2L188.7 350.6Z" fill="#DD0000"/>
<path fill-rule="evenodd" clip-rule="evenodd" d="M211.4 355.9L223.6 356.4C224 356.4 224.4 356.6 224.6 357C224.8 357.4 224.9 357.8 224.7 358.2L223 362.3C222.8 362.8 222.3 363.1 221.8 363.1L205.9 362.6C205.5 362.6 205.1 362.3 204.8 361.9C204.6 361.5 204.6 361 204.8 360.6L205.6 359.1C206.8 357 208.9 355.7 211.4 355.9ZM381.8 388.7L387.4 388.8L410.3 389.4C410.7 389.4 411.1 389.2 411.4 388.8C411.6 388.4 411.7 388 411.5 387.6L409.7 383.2L409.4 382.4L407.1 376.7L406.7 375.6L405.5 372.5C405.3 372 404.9 371.7 404.4 371.7L384.3 371.1C383.9 371.1 383.6 371.3 383.3 371.6C383.1 371.9 383 372.3 383.1 372.7L383.7 375.3L384.1 376.9C384.1 377 384.1 377 384.2 377.1L385.1 380.9L377.6 380.8L358.1 380.4C357.7 380.4 357.4 380.5 357.2 380.8C357 381.1 356.8 381.4 356.9 381.8L357.5 386.8C357.6 387.5 358.1 388 358.7 388L381.8 388.7ZM272.9 389.1L281.7 389.3L295.1 389.6L314.2 390.1C314.6 390.1 314.9 390.2 315.1 390.5C315.3 390.8 315.5 391.1 315.4 391.5L315.2 398.8C315.2 399.5 314.6 400.1 313.9 400L293 399.3L286.3 399.1L280.9 398.9L244.8 397.8C244.4 397.8 244.1 397.6 243.8 397.3C243.6 397 243.5 396.6 243.6 396.2L245.2 389.5C245.3 388.9 245.8 388.5 246.4 388.5L272.9 389.1ZM229.4 356.7L248.2 357.5C248.6 357.5 248.9 357.7 249.2 358C249.4 358.3 249.5 358.7 249.4 359.1L248.5 362.9C248.4 363.5 247.9 363.9 247.3 363.9L227.8 363.3C227.4 363.3 227 363.1 226.8 362.7C226.6 362.3 226.5 361.9 226.7 361.5L228.3 357.5C228.4 356.9 228.9 356.6 229.4 356.7ZM253.8 357.8L285.6 359.2C286 359.2 286.3 359.4 286.5 359.7C286.7 360 286.8 360.3 286.8 360.7L286.4 363.9C286.3 364.6 285.8 365 285.1 365L252.8 364C252.4 364 252.1 363.8 251.8 363.5C251.6 363.2 251.5 362.8 251.6 362.4L252.5 358.7C252.7 358.1 253.2 357.7 253.8 357.8ZM291 359.4L315.1 360.5C315.4 360.5 315.7 360.7 316 360.9C316.2 361.2 316.4 361.5 316.3 361.8L316.2 364.6C316.2 365.3 315.6 365.9 314.9 365.8L290.4 365.1C290 365.1 289.7 364.9 289.5 364.6C289.3 364.3 289.2 364 289.2 363.6L289.6 360.4C289.9 359.9 290.4 359.4 291 359.4ZM320.7 360.8L350.1 362.1C350.7 362.1 351.2 362.6 351.3 363.3L351.6 365.6C351.6 366 351.5 366.3 351.3 366.6C351 366.9 350.7 367 350.3 367L320.5 366.1C320.1 366.1 319.8 365.9 319.6 365.7C319.4 365.4 319.2 365.1 319.3 364.7L319.4 362C319.4 361.3 320 360.7 320.7 360.8ZM355.6 362.3L376.8 363.3C377.4 363.3 377.9 363.7 378 364.3L378.4 366.2C378.5 366.6 378.4 367 378.2 367.3C378 367.6 377.6 367.8 377.2 367.8L355.8 367.2C355.2 367.2 354.6 366.7 354.6 366L354.3 363.8C354.3 363.4 354.4 363.1 354.6 362.8C354.9 362.5 355.2 362.3 355.6 362.3ZM382.5 363.6L398.1 364.3C399.8 364.4 401.4 365.1 402.5 366.4C402.9 366.8 402.9 367.3 402.7 367.8C402.5 368.3 402.1 368.6 401.5 368.6L382.7 368C382.1 368 381.6 367.6 381.5 367L381.1 365.2C381 364.8 381.1 364.4 381.4 364.1C381.7 363.7 382.1 363.5 382.5 363.6ZM413.7 393.3L414 394C417.2 402 416.9 403.2 408.1 403L390.3 402.4C389.7 402.4 389.2 402 389.1 401.4L387.4 393.5C387.3 393.1 387.4 392.7 387.6 392.4C387.8 392.1 388.2 391.9 388.6 391.9L412.5 392.5C413.1 392.5 413.5 392.8 413.7 393.3ZM384.7 402.2L359.8 401.4C359.2 401.4 358.7 400.9 358.6 400.2L357.7 392.6C357.7 392.2 357.8 391.9 358 391.6C358.2 391.3 358.6 391.2 358.9 391.2L382.9 391.8C383.5 391.8 384 392.2 384.1 392.8L385.8 400.6C385.9 401 385.8 401.4 385.6 401.7C385.5 402.1 385.1 402.3 384.7 402.2ZM354.4 401.3L319.4 400.2C319.1 400.2 318.8 400 318.5 399.8C318.3 399.5 318.1 399.2 318.2 398.8L318.4 391.5C318.4 390.8 319 390.2 319.7 390.3L353.5 391.1C354.1 391.1 354.7 391.6 354.7 392.3L355.6 399.9C355.6 400.3 355.5 400.6 355.3 400.9C355.1 401.1 354.7 401.3 354.4 401.3ZM239.1 397.6L214.4 396.8C214 396.8 213.6 396.6 213.4 396.2C213.2 395.8 213.1 395.4 213.3 395L215.9 388.5C216.1 388 216.5 387.7 217.1 387.7L240.9 388.3C241.3 388.3 241.6 388.5 241.9 388.8C242.1 389.1 242.2 389.5 242.1 389.9L240.5 396.6C240.1 397.2 239.6 397.6 239.1 397.6ZM208.4 396.6L197.1 396.2C187.2 395.9 189.1 391.4 191 387.7C191.2 387.3 191.6 387 192.1 387L210.9 387.5C211.3 387.5 211.7 387.7 211.9 388.1C212.1 388.5 212.2 388.9 212 389.3L209.4 395.7C209.4 396.4 209 396.7 208.4 396.6ZM194 382.2L196.3 377.6C196.5 377.2 196.9 376.9 197.4 376.9L215.1 377.3C215.5 377.3 215.9 377.5 216.1 377.9C216.3 378.3 216.4 378.7 216.2 379.1L214.3 383.8C214.1 384.3 213.7 384.6 213.1 384.6L194.9 384.2C194.4 384.2 194.1 384 193.8 383.5C193.8 383.1 193.7 382.6 194 382.2ZM199.2 372L202.1 366.4C202.3 366 202.7 365.7 203.2 365.7L219.7 366.2C220.1 366.2 220.5 366.4 220.7 366.8C220.9 367.2 221 367.6 220.8 368L218.6 373.5C218.4 374 218 374.3 217.4 374.3L200.3 373.9C199.8 373.9 199.5 373.7 199.2 373.2C199 372.8 199 372.4 199.2 372ZM224.3 367.1L222.1 372.6C221.9 373 222 373.4 222.2 373.8C222.4 374.2 222.8 374.4 223.2 374.4L244.5 374.9C245.1 374.9 245.6 374.5 245.7 373.9L247 368.6C247.1 368.2 247 367.8 246.8 367.5C246.6 367.2 246.2 367 245.8 367L225.4 366.4C225 366.3 224.5 366.6 224.3 367.1ZM219.9 378.2L218 382.9C217.8 383.3 217.9 383.7 218.1 384.1C218.3 384.5 218.7 384.7 219.1 384.7L242 385.3C242.6 385.3 243.1 384.9 243.2 384.3L244.3 379.6C244.4 379.2 244.3 378.8 244.1 378.5C243.9 378.2 243.5 378 243.1 378L220.9 377.5C220.5 377.4 220.1 377.7 219.9 378.2ZM247.7 385.4L282.4 386.2C283 386.2 283.6 385.7 283.7 385.1L284.3 380.3C284.3 379.9 284.2 379.6 284 379.3C283.8 379 283.4 378.8 283.1 378.8L248.9 378C248.3 378 247.8 378.4 247.7 379L246.5 383.8C246.4 384.2 246.5 384.6 246.7 384.9C246.9 385.2 247.3 385.4 247.7 385.4ZM287.9 386.4L314.4 387C315.1 387 315.6 386.5 315.7 385.8L315.9 380.9C315.9 380.5 315.8 380.2 315.6 379.9C315.4 379.6 315.1 379.5 314.7 379.5L288.7 378.9C288.1 378.9 287.5 379.4 287.5 380L286.9 384.9C286.9 385.3 287 385.6 287.2 385.9C287.2 386.2 287.5 386.4 287.9 386.4ZM319.8 387.2L352.7 388C353.1 388 353.4 387.9 353.6 387.6C353.8 387.3 354 387 353.9 386.6L353.3 381.6C353.2 380.9 352.7 380.4 352.1 380.4L319.9 379.7C319.2 379.7 318.7 380.2 318.6 380.9L318.4 385.8C318.4 386.2 318.5 386.5 318.7 386.8C319.2 387 319.5 387.2 319.8 387.2ZM250.2 375L283.7 375.7C284.3 375.7 284.9 375.2 284.9 374.6L285.5 369.6C285.5 369.2 285.4 368.9 285.2 368.6C285 368.3 284.6 368.1 284.3 368.1L251.4 367.1C250.8 367.1 250.3 367.5 250.2 368.1L248.9 373.4C248.8 373.8 248.9 374.2 249.1 374.5C249.5 374.8 249.8 375 250.2 375ZM289.2 375.9L314.7 376.5C315.4 376.5 315.9 376 316 375.3L316.2 370.5C316.2 370.1 316.1 369.8 315.9 369.5C315.7 369.2 315.4 369.1 315 369.1L290 368.4C289.4 368.4 288.8 368.9 288.7 369.5L288.1 374.5C288.1 374.9 288.2 375.2 288.4 375.5C288.5 375.7 288.9 375.8 289.2 375.9ZM320.2 376.5L351.5 377.2C351.9 377.2 352.2 377.1 352.4 376.8C352.6 376.5 352.8 376.2 352.7 375.8L352.2 371.3C352.1 370.6 351.6 370.2 351 370.1L320.4 369.2C319.7 369.2 319.2 369.7 319.1 370.4L318.9 375.2C318.9 375.6 319 375.9 319.2 376.2C319.5 376.4 319.8 376.5 320.2 376.5ZM357 377.3C356.4 377.3 355.8 376.8 355.8 376.1L355.3 371.6C355.3 371.2 355.4 370.9 355.6 370.6C355.9 370.3 356.2 370.2 356.6 370.2L378.6 370.9C379.2 370.9 379.7 371.3 379.8 371.9L380.7 376.2C380.8 376.6 380.7 377 380.5 377.3C380.3 377.6 379.9 377.8 379.5 377.8L357 377.3Z" fill="#FFEBEB"/>
<path fill-rule="evenodd" clip-rule="evenodd" d="M270.2 401.6L339 403C339.6 403 340.1 403.4 340.3 404L346.2 424.8C346.3 425.2 346.2 425.6 345.9 425.9C345.6 426.2 345.2 426.4 344.8 426.3L262 424.5C261.6 424.5 261.2 424.3 260.9 423.9C260.7 423.5 260.6 423.1 260.8 422.7L269 402.3C269.2 401.9 269.7 401.6 270.2 401.6Z" fill="#FFEBEB"/>
<path fill-rule="evenodd" clip-rule="evenodd" d="M502.6 333.2L521.9 337.6C524.4 338.2 526.4 339.7 527.6 341.7C528.9 343.7 529.3 346.2 528.8 348.6C528.2 351.1 526.7 353.1 524.7 354.3C522.7 355.6 520.2 356 517.8 355.5L498.5 351.1C496 350.5 494 349 492.8 347C491.5 345 491.1 342.5 491.6 340.1C492.2 337.6 493.7 335.6 495.7 334.4C497.7 333.2 500.2 332.7 502.6 333.2ZM521.8 338.2L502.5 333.8C500.2 333.3 497.9 333.7 496.1 334.9C494.2 336.1 492.8 337.9 492.3 340.2C491.8 342.5 492.2 344.8 493.4 346.6C494.6 348.5 496.4 349.9 498.7 350.4L518 354.8C520.3 355.3 522.6 354.9 524.4 353.7C526.3 352.5 527.7 350.7 528.2 348.4C528.7 346.1 528.3 343.8 527.1 342C525.9 340.2 524.1 338.8 521.8 338.2Z" fill="#FF9696"/>
<path fill-rule="evenodd" clip-rule="evenodd" d="M502.1 335.8C505.7 336.6 507.9 340.1 507.1 343.7C506.3 347.3 502.8 349.5 499.2 348.7C495.6 347.9 493.4 344.4 494.2 340.8C495 337.2 498.6 334.9 502.1 335.8Z" fill="#FF9696"/>
<path fill-rule="evenodd" clip-rule="evenodd" d="M103.3 272C107.2 271.5 111.3 272.7 114.7 274.9C118.1 277.1 120.9 280.4 122.1 284.3C123.4 288.2 122.9 291.8 121.1 294.7C119.3 297.5 116.3 299.5 112.3 300C108.4 300.5 104.3 299.3 100.9 297.1C97.5 294.9 94.7 291.6 93.5 287.7C92.2 283.8 92.7 280.2 94.5 277.3C96.3 274.5 99.4 272.5 103.3 272ZM113.7 276.7C110.8 274.8 107.4 273.9 104.1 274.3C100.8 274.7 98.2 276.4 96.7 278.8C95.2 281.2 94.8 284.3 95.9 287.5C97 290.7 99.3 293.5 102.1 295.4C105 297.3 108.4 298.2 111.7 297.8C115 297.4 117.6 295.7 119.1 293.3C120.6 290.9 121 287.8 119.9 284.6C118.9 281.3 116.6 278.5 113.7 276.7Z" fill="#FF9696"/>
<path fill-rule="evenodd" clip-rule="evenodd" d="M88.8 249.9C91.4 249.6 94.2 250.3 96.4 251.8C98.7 253.3 100.5 255.5 101.3 258C102.1 260.6 101.8 263 100.7 264.9C99.5 266.8 97.5 268.1 94.8 268.4C92.2 268.7 89.4 268 87.2 266.5C84.9 265 83.1 262.8 82.3 260.3C81.5 257.7 81.8 255.3 82.9 253.4C84.1 251.5 86.1 250.2 88.8 249.9ZM95.7 253C93.8 251.8 91.5 251.1 89.3 251.4C87.1 251.7 85.4 252.8 84.4 254.4C83.4 256 83.2 258.1 83.9 260.2C84.6 262.4 86.1 264.2 88.1 265.5C90 266.7 92.3 267.4 94.5 267.1C96.7 266.8 98.4 265.7 99.4 264.1C100.4 262.5 100.6 260.4 99.9 258.3C99.1 256 97.6 254.2 95.7 253Z" fill="#FF9696"/>
<path fill-rule="evenodd" clip-rule="evenodd" d="M498.3 288.1C494.6 286.5 490.4 286.5 486.5 287.6C482.6 288.8 479.1 291.2 476.8 294.5C474.5 297.8 473.9 301.5 474.8 304.7C475.7 307.9 478.1 310.7 481.7 312.2C485.4 313.8 489.6 313.8 493.5 312.7C497.4 311.5 500.9 309.1 503.2 305.8C505.5 302.5 506.1 298.8 505.2 295.6C504.3 292.4 501.9 289.6 498.3 288.1ZM487 289.6C490.3 288.6 493.8 288.7 496.9 290C500 291.3 502 293.6 502.7 296.4C503.5 299.1 503 302.2 501 305C499.1 307.8 496.1 309.8 492.8 310.8C489.5 311.8 486 311.7 482.9 310.4C479.8 309.1 477.8 306.8 477.1 304C476.3 301.3 476.8 298.2 478.8 295.4C480.8 292.6 483.8 290.6 487 289.6Z" fill="#FF9696"/>
<path fill-rule="evenodd" clip-rule="evenodd" d="M518.5 270.9C516.1 269.9 513.2 269.8 510.6 270.6C508 271.4 505.6 273 504.1 275.2C502.6 277.4 502.2 279.9 502.8 282C503.4 284.1 505 286 507.4 287C509.8 288 512.7 288.1 515.3 287.3C517.9 286.5 520.3 284.9 521.8 282.7C523.3 280.5 523.7 278 523.1 275.9C522.5 273.8 520.9 271.9 518.5 270.9ZM511 271.9C513.2 271.2 515.6 271.3 517.6 272.2C519.7 273.1 521 274.6 521.5 276.4C522 278.2 521.7 280.3 520.4 282.1C519.1 284 517.1 285.3 514.9 286C512.7 286.7 510.3 286.6 508.3 285.7C506.2 284.8 504.9 283.3 504.4 281.5C503.9 279.7 504.2 277.6 505.5 275.8C506.8 273.9 508.8 272.5 511 271.9Z" fill="#FF9696"/>
<path fill-rule="evenodd" clip-rule="evenodd" d="M274.6 69.7999L291 73.7999C292.4 74.0999 293.4 75.0999 293.8 76.3999C294.2 77.6999 293.9 79.0999 293 80.0999L281.2 93.6999C280.2 94.7999 278.8 95.2999 277.4 94.8999C276 94.5999 274.9 93.4999 274.5 92.0999L269.9 74.4999C269.5 73.0999 269.9 71.7999 270.9 70.7999C271.9 69.8999 273.2 69.4999 274.6 69.7999ZM286.8 75.0999L277.8 72.8999C276.4 72.5999 275.1 72.8999 274.1 73.9999C273.1 74.9999 272.8 76.3999 273.1 77.6999L275.6 87.3999C276 88.7999 277 89.8999 278.5 90.1999C279.9 90.4999 281.4 90.0999 282.3 88.9999L288.8 81.4999C289.7 80.3999 290 79.0999 289.6 77.7999C289.2 76.3999 288.2 75.4999 286.8 75.0999Z" fill="#FF9696"/>
<path fill-rule="evenodd" clip-rule="evenodd" d="M252.1 84L259 76.8C259.6 76.2 260.3 76 261.2 76.1C262 76.3 262.6 76.8 262.9 77.6L266.4 87.6C266.7 88.4 266.5 89.3 265.9 89.9C265.3 90.5 264.5 90.8 263.6 90.5L253.3 87.7C252.5 87.5 251.9 86.9 251.7 86.1C251.3 85.4 251.5 84.6 252.1 84ZM258.4 79.3L254.6 83.3C254 83.9 253.8 84.7 254 85.5C254.2 86.3 254.8 86.9 255.6 87.1L261.3 88.7C262.1 88.9 263 88.7 263.6 88.1C264.2 87.5 264.4 86.6 264.1 85.8L262.2 80.3C261.9 79.5 261.3 79 260.5 78.8C259.7 78.5 259 78.7 258.4 79.3Z" fill="#FF9696"/>
<path fill-rule="evenodd" clip-rule="evenodd" d="M573.7 169.5L576.5 179.1C576.7 179.9 576.5 180.7 576 181.3C575.4 181.9 574.7 182.2 573.9 182L563.5 180C562.6 179.8 562 179.2 561.7 178.4C561.4 177.6 561.7 176.7 562.3 176.1L569.9 168.6C570.5 168 571.3 167.8 572.1 168C572.9 168.2 573.5 168.7 573.7 169.5ZM574.6 177.3L573.1 172C572.9 171.2 572.3 170.6 571.5 170.4C570.7 170.2 569.9 170.4 569.3 171L565.1 175.1C564.5 175.7 564.3 176.6 564.5 177.4C564.8 178.2 565.4 178.8 566.3 179L572 180.1C572.8 180.3 573.6 180 574.1 179.4C574.7 178.9 574.8 178.1 574.6 177.3Z" fill="#FF9696"/>
<path fill-rule="evenodd" clip-rule="evenodd" d="M148.2 101.7L140 107.4C139.3 107.9 139 108.6 139 109.4C139.1 110.2 139.5 110.9 140.2 111.3L149.6 116.2C150.4 116.6 151.2 116.6 152 116.1C152.7 115.6 153.1 114.8 153 113.9L151.8 103.3C151.7 102.5 151.2 101.8 150.5 101.5C149.7 101.2 148.9 101.3 148.2 101.7ZM142.7 107.3L147.2 104.2C147.9 103.7 148.7 103.6 149.5 104C150.3 104.3 150.7 105 150.8 105.8L151.5 111.6C151.6 112.5 151.2 113.3 150.5 113.8C149.8 114.3 148.9 114.3 148.1 113.9L142.9 111.2C142.2 110.8 141.7 110.1 141.7 109.3C141.6 108.5 142 107.8 142.7 107.3Z" fill="#FF9696"/>
<path fill-rule="evenodd" clip-rule="evenodd" d="M427.2 396.3C429.1 395.9 430.8 396.8 431.6 398.5L480.1 381.4C480 379.6 481.2 378 483.1 377.5C485.2 377 487.2 378.3 487.7 380.4C488.2 382.5 486.9 384.5 484.8 385C484.4 385.1 484 385.1 483.6 385.1L476 410.1C477.5 410.9 478.3 412.8 477.8 414.5C477.2 416.5 475.1 417.6 473.1 417C471.4 416.5 470.3 414.9 470.4 413.1L431.2 402.3C430.7 402.9 430.5 403.3 429.1 403.6C427.6 403.9 425 402.8 424.5 400.7C423.9 398.8 425.3 396.7 427.2 396.3ZM482.1 384.6C481.4 384.2 480.8 383.6 480.5 382.8L432 399.9C432 400.3 432 400.6 431.9 401L470.8 411.7C471.5 410.3 473 409.5 474.5 409.7L482.1 384.6Z" fill="#FF9696"/>
<path fill-rule="evenodd" clip-rule="evenodd" d="M315.7 204.2C317.8 204.2 319.5 202.5 319.5 200.4C319.5 198.3 317.8 196.6 315.7 196.6C313.6 196.6 311.9 198.3 311.9 200.4C311.9 202.4 313.6 204.2 315.7 204.2Z" fill="#FF9696"/>
<path fill-rule="evenodd" clip-rule="evenodd" d="M321.1 180.9C322.1 180.9 322.9 180.1 322.9 179.1C322.9 178.1 322.1 177.3 321.1 177.3C320.1 177.3 319.3 178.1 319.3 179.1C319.3 180.1 320.2 180.9 321.1 180.9Z" fill="#FF9696"/>
<path fill-rule="evenodd" clip-rule="evenodd" d="M83.6 103.5C84.8 103.5 85.8 102.5 85.8 101.3C85.8 100.1 84.8 99.0999 83.6 99.0999C82.4 99.0999 81.4 100.1 81.4 101.3C81.3 102.5 82.3 103.5 83.6 103.5Z" fill="#FF9696"/>
<path fill-rule="evenodd" clip-rule="evenodd" d="M413.3 140C414.9 140 416.2 138.7 416.2 137.1C416.2 135.5 414.9 134.2 413.3 134.2C411.7 134.2 410.4 135.5 410.4 137.1C410.3 138.7 411.6 140 413.3 140Z" fill="#FF9696"/>
<path d="M442.3 310.4C443.626 310.4 444.7 309.325 444.7 308C444.7 306.674 443.626 305.6 442.3 305.6C440.975 305.6 439.9 306.674 439.9 308C439.9 309.325 440.975 310.4 442.3 310.4Z" fill="black"/>
<path fill-rule="evenodd" clip-rule="evenodd" d="M210 384.6C212.1 384.6 213.7 382.9 213.7 380.9C213.7 378.8 212 377.2 210 377.2C208 377.2 206.3 378.9 206.3 380.9C206.3 382.9 208 384.6 210 384.6Z" fill="#FF9696"/>
<path fill-rule="evenodd" clip-rule="evenodd" d="M280 384.6C281.6 384.6 283 383.3 283 381.6C283 379.9 281.7 378.6 280 378.6C278.3 378.6 277 379.9 277 381.6C277 383.3 278.4 384.6 280 384.6Z" fill="#FF9696"/>
<path fill-rule="evenodd" clip-rule="evenodd" d="M137.1 345.6C137.7 345.6 138.2 345.1 138.2 344.5C138.2 343.9 137.7 343.4 137.1 343.4C136.5 343.4 136 343.9 136 344.5C136 345.1 136.5 345.6 137.1 345.6Z" fill="#FF9696"/>
<path fill-rule="evenodd" clip-rule="evenodd" d="M215.3 101.5C217.5 101.5 219.2 103.3 219.2 105.4C219.2 107.6 217.4 109.3 215.3 109.3C213.1 109.3 211.4 107.5 211.4 105.4C211.3 103.3 213.1 101.5 215.3 101.5ZM201.1 97.7998C202.1 97.7998 202.9 98.5998 202.9 99.5998C202.9 100.6 202.1 101.4 201.1 101.4C200.1 101.4 199.3 100.6 199.3 99.5998C199.4 98.5998 200.2 97.7998 201.1 97.7998Z" fill="#FF9696"/>
<path fill-rule="evenodd" clip-rule="evenodd" d="M157.5 385.4L177 383C178 382.9 179 383.2 179.8 383.8C180.6 384.4 181.1 385.3 181.2 386.3L183.5 405.8C183.6 406.8 183.3 407.8 182.7 408.6C182.1 409.4 181.2 409.9 180.2 410L160.7 412.3C159.7 412.4 158.7 412.1 157.9 411.5C157.1 410.9 156.6 410 156.5 409L154.2 389.5C154.1 388.5 154.4 387.5 155 386.7C155.6 386 156.4 385.5 157.5 385.4ZM177.1 384.3L157.6 386.6C156.9 386.7 156.4 387 156 387.5C155.6 388 155.4 388.6 155.5 389.3L157.8 408.8C157.9 409.5 158.2 410 158.7 410.4C159.2 410.8 159.8 411 160.5 410.9L180 408.6C180.7 408.5 181.2 408.2 181.6 407.7C182 407.2 182.2 406.6 182.1 405.9L179.8 386.4C179.7 385.7 179.4 385.2 178.9 384.8C178.4 384.4 177.8 384.2 177.1 384.3Z" fill="#FF9696"/>
<path fill-rule="evenodd" clip-rule="evenodd" d="M153.9 355.8L173.4 353.5C174.4 353.4 175.4 353.7 176.2 354.3C177 354.9 177.5 355.8 177.6 356.8L179.9 376.3C180 377.3 179.7 378.3 179.1 379.1C178.5 379.9 177.6 380.4 176.6 380.5L157.1 382.8C156.1 382.9 155.1 382.6 154.3 382C153.5 381.4 153 380.5 152.9 379.5L150.6 360C150.5 359 150.8 358 151.4 357.2C152 356.4 152.9 355.9 153.9 355.8Z" fill="#FF9696"/>
<path fill-rule="evenodd" clip-rule="evenodd" d="M155.6 369.2C154.8 368.6 154.7 367.4 155.3 366.7C155.9 365.9 157.1 365.8 157.8 366.4L163.6 371L171.6 360.8C172.2 360 173.4 359.9 174.1 360.5C174.9 361.1 175 362.3 174.4 363L165.4 374.4C164.7 375.3 163.4 375.4 162.5 374.7L155.6 369.2Z" fill="#FFEBEB"/>
<path fill-rule="evenodd" clip-rule="evenodd" d="M427 68.3C427 68.3 521.8 96.1 522.6 100.6C523.4 105.1 495.9 163.2 487.4 163.3C478.8 163.4 414.4 144.6 414.4 144.6C414.4 144.6 421.7 64.5 427 68.3Z" fill="#DD0000"/>
<path fill-rule="evenodd" clip-rule="evenodd" d="M431.4 76.2C431.4 76.2 514.7 99.3 515.5 103C516.1 105.9 501.2 136.5 491.1 149.6C489.7 145.1 487.1 137.4 485.6 136.6C483.6 135.4 467 141.7 467 141.7C467 141.7 454.8 119.3 452.2 116.1C450.2 113.6 431.1 116.9 422.6 118.5C424.9 99.2 428.5 74.2 431.4 76.2Z" fill="#FFEBEB"/>
<path fill-rule="evenodd" clip-rule="evenodd" d="M482.4 102.9C487.5 103.3 491.3 107.6 491.1 112.7C490.8 117.7 486.5 121.5 481.4 121.1C476.3 120.7 472.5 116.4 472.7 111.3C473 106.3 477.4 102.6 482.4 102.9Z" fill="#DD0000"/>
<path fill-rule="evenodd" clip-rule="evenodd" d="M310.9 83C310.2 96.3 315.7 123.1 320.6 126.9C326.8 131.7 385.4 140.6 388.7 135.4C391.5 131 402.2 96.9 401.7 85.4C393.2 91.5 359.9 115 355.7 114.7C352.7 114.4 327.5 95.6 310.9 83Z" fill="#DD0000"/>
<path fill-rule="evenodd" clip-rule="evenodd" d="M399.7 81.5999C392.2 80.6999 318.4 71.7999 313 75.9999C312.5 76.3999 312.1 76.9999 311.8 77.7999C327.9 90.0999 354.3 110 356.6 110.2C359.2 110.4 392 87.0999 399.7 81.5999Z" fill="#FF9696"/>
<path fill-rule="evenodd" clip-rule="evenodd" d="M401 81.7L399.8 81.5C392.3 86.9 359.3 110.4 356.6 110.2C354.2 110 326.5 89 310.5 76.8C309.8 78.2 309.2 79.7 308.8 81.4C325.3 93.9 352.6 114.4 355.8 114.6C360.2 114.9 395.7 89.7 402.6 84.7C402.3 83.1 401.8 81.9 401 81.7Z" fill="#FFEBEB"/>
<path fill-rule="evenodd" clip-rule="evenodd" d="M404.3 76.5C398.9 73.1 391.7 74.4 388.3 79.5C384.9 84.6 386.4 91.5 391.9 94.9C397.3 98.3 404.5 97 407.9 91.9C411.3 86.9 409.7 80 404.3 76.5Z" fill="#E07077"/>
<path fill-rule="evenodd" clip-rule="evenodd" d="M27.2 162.3C32.1 161.9 37 161.5 42 161.1C47 160.7 52 160.3 57 159.9C58.2 159.8 59.8 160.7 60.4 161.9C62.9 166.6 65.4 171.4 67.8 176.1C70.2 180.8 72.6 185.6 74.9 190.3C75.5 191.5 75 192.5 73.9 192.6C69.5 193 65.1 193.4 60.7 193.8C56.3 194.2 52 194.6 47.7 195C46.6 195.1 45.2 194.3 44.5 193.1C41.6 188.4 38.6 183.6 35.6 178.9C32.6 174.2 29.5 169.4 26.4 164.7C26 164.1 25.9 163.6 26 163.1C26.2 162.6 26.6 162.3 27.2 162.3ZM56.3 161.2C51.8 161.6 47.2 161.9 42.7 162.3C38.2 162.7 33.7 163 29.3 163.4C28.7 163.4 28.3 163.7 28.1 164.2C27.9 164.7 28.1 165.2 28.4 165.8C31.2 170.1 34 174.4 36.7 178.7C39.4 183 42.1 187.3 44.7 191.6C45.4 192.8 46.9 193.6 47.9 193.5C51.9 193.1 55.8 192.8 59.8 192.4C63.8 192 67.8 191.7 71.9 191.3C73 191.2 73.5 190.1 72.9 189C70.7 184.7 68.6 180.4 66.3 176.1C64.1 171.8 61.8 167.5 59.5 163.2C59.1 162 57.5 161.1 56.3 161.2Z" fill="#FF9696"/>
<path fill-rule="evenodd" clip-rule="evenodd" d="M37.6 169.9C37.6 169.9 41.1 166.2 45.3 166.4C49.5 166.7 55.9 169 60.5 176.5C65.1 184 65.8 181 66.2 181.9C66.7 182.8 68.1 185.6 69.1 187.4C69.1 187.4 63.9 190.3 60.3 184.8C60.3 184.8 60.6 190.5 53 189.8C45.4 189 41.5 180.8 42.6 178.6C43.8 176.4 50.4 173.3 54.2 176C54.2 176 46.7 169.9 43.6 174.7C41.6 173 39.6 171.5 37.6 169.9ZM55.2 180.3C55.2 180.3 45.1 179.5 48.3 182.9C51.4 186.3 57.2 183.5 56.7 182.2C56.2 180.8 55.2 180.3 55.2 180.3Z" fill="#FF9696"/>
<path fill-rule="evenodd" clip-rule="evenodd" d="M65 160C70.1 159.6 75.2 159.2 80.3 158.8C85.4 158.4 90.6 158 95.8 157.6C97.1 157.5 98.5 158.4 99 159.6C100.8 164.3 102.7 169 104.4 173.7C106.2 178.4 107.9 183.1 109.6 187.8C110 189 109.4 190 108.2 190.1C103.6 190.5 99 190.9 94.5 191.3C90 191.7 85.5 192.1 81 192.5C79.9 192.6 78.6 191.8 78 190.6C75.7 185.9 73.4 181.2 71 176.5C68.6 171.8 66.2 167.1 63.8 162.4C63.5 161.8 63.5 161.3 63.7 160.8C63.9 160.3 64.3 160.1 65 160ZM94.8 159C90.1 159.4 85.4 159.7 80.8 160.1C76.2 160.5 71.5 160.8 66.9 161.2C66.3 161.3 65.8 161.5 65.6 162C65.4 162.5 65.4 163 65.7 163.6C67.9 167.9 70.1 172.2 72.2 176.5C74.3 180.8 76.4 185.1 78.5 189.3C79.1 190.5 80.4 191.3 81.5 191.2C85.6 190.8 89.7 190.5 93.9 190.1C98.1 189.7 102.2 189.4 106.4 189C107.6 188.9 108.2 187.9 107.7 186.7C106.1 182.4 104.5 178.1 102.9 173.8C101.3 169.5 99.6 165.2 97.9 160.9C97.5 159.8 96.1 158.9 94.8 159Z" fill="#FF9696"/>
<path fill-rule="evenodd" clip-rule="evenodd" d="M70.7 164.7C73 168.7 75.2 172.6 77.4 176.5C79.6 180.4 81.8 184.4 83.9 188.3C86.2 188.1 88.5 188 90.8 187.8C90.3 186.9 89.7 186 89.2 185.1C89.2 185.1 98.8 189.9 100.3 184.3C101.8 178.7 91.5 165.6 82.3 174C80.7 170.4 79.2 166.9 77.6 163.3C77.6 163.3 72.3 163.9 70.7 164.7ZM85.4 178.1C85.4 178.1 89.5 173.8 92.7 177.3C95.9 180.8 91.6 182.4 89.2 181.6C86.8 180.7 85.4 178.1 85.4 178.1Z" fill="#FF9696"/>
<path fill-rule="evenodd" clip-rule="evenodd" d="M75.9 203.5C75.9 203.5 62.9 197.6 59.8 202.2C56.7 206.7 59.3 210.2 62.1 214.8C65 219.4 67.4 222.9 72.8 224.9C78.3 226.9 84.7 223.6 83.8 222.7C82.9 221.8 80.3 219.1 78.5 217.3C78.5 217.3 72.8 223.4 67.4 214.2C61.9 205.1 71.9 206.3 75.7 211C75.8 208.5 75.8 206 75.9 203.5Z" fill="#FF9696"/>
<path fill-rule="evenodd" clip-rule="evenodd" d="M49 197.3C53.4 196.9 57.8 196.5 62.2 196.1C66.7 195.7 71.1 195.3 75.6 194.9C76.7 194.8 78.1 195.7 78.7 196.9C81 201.6 83.2 206.4 85.4 211.1C87.6 215.8 89.7 220.5 91.8 225.2C92.3 226.4 91.9 227.4 90.9 227.5C87 227.9 83.1 228.3 79.2 228.7C75.3 229.1 71.5 229.5 67.7 229.9C66.7 230 65.5 229.2 64.8 228C62.1 223.3 59.4 218.6 56.7 213.9C54 209.2 51.1 204.5 48.3 199.7C47.9 199.1 47.8 198.6 48 198.1C48.1 197.6 48.5 197.3 49 197.3ZM75.1 196.2C71 196.6 67 196.9 62.9 197.3C58.9 197.7 54.9 198 50.9 198.4C50.3 198.5 50 198.7 49.9 199.2C49.8 199.7 49.9 200.2 50.2 200.8C52.8 205.1 55.3 209.4 57.8 213.7C60.3 218 62.7 222.3 65.1 226.6C65.8 227.8 67 228.6 68 228.5C71.5 228.1 75 227.8 78.6 227.4C82.1 227 85.7 226.7 89.3 226.3C90.3 226.2 90.7 225.1 90.2 224C88.3 219.7 86.3 215.4 84.3 211.1C82.3 206.8 80.2 202.5 78.2 198.2C77.6 197 76.2 196.1 75.1 196.2Z" fill="#FF9696"/>
<path fill-rule="evenodd" clip-rule="evenodd" d="M82 195C86.5 194.6 91.1 194.2 95.7 193.8C100.3 193.4 104.9 193 109.6 192.6C110.8 192.5 112.1 193.4 112.5 194.6C114.1 199.3 115.7 204.1 117.3 208.8C118.9 213.5 120.4 218.2 121.9 222.9C122.3 224.1 121.7 225.1 120.7 225.2C116.6 225.6 112.6 226 108.5 226.4C104.5 226.8 100.5 227.2 96.5 227.6C95.5 227.7 94.3 226.9 93.8 225.7C91.7 221 89.7 216.3 87.5 211.6C85.4 206.9 83.2 202.2 81 197.5C80.7 196.9 80.7 196.4 80.9 195.9C81 195.3 81.4 195 82 195Z" fill="#FF9696"/>
</svg>
