<svg width="52" height="60" viewBox="0 0 52 60" fill="none" xmlns="http://www.w3.org/2000/svg">
<path fill-rule="evenodd" clip-rule="evenodd" d="M31.5658 6.37501L25.7201 3.00001L19.8744 6.37501L18.8744 4.64296L25.7201 0.690613L32.5658 4.64296L31.5658 6.37501ZM8.18307 13.125L7.18307 11.393L0.337402 15.3453V23.25H2.3374V16.5L8.18307 13.125ZM2.3374 36.75H0.337402V44.6547L7.18307 48.6071L8.18307 46.875L2.3374 43.5V36.75ZM19.8744 53.625L18.8744 55.3571L25.7201 59.3094L32.5658 55.3571L31.5658 53.625L25.7201 57L19.8744 53.625ZM43.2571 46.875L44.2571 48.6071L51.1028 44.6547V36.75H49.1028V43.5L43.2571 46.875ZM49.1028 23.25H51.1028V15.3453L44.2571 11.393L43.2571 13.125L49.1028 16.5V23.25Z" fill="black"/>
<path d="M25.7201 3L49.1028 16.5V43.5L25.7201 57L2.3374 43.5V16.5L25.7201 3Z" fill="url(#paint0_angular_1103_3)"/>
<defs>
<radialGradient id="paint0_angular_1103_3" cx="0" cy="0" r="1" gradientUnits="userSpaceOnUse" gradientTransform="translate(25.7201 30) rotate(90) scale(27)">
<stop stop-color="#DD0000"/>
<stop offset="1" stop-color="#870000"/>
</radialGradient>
</defs>
</svg>
