<svg width="1920" height="730" viewBox="0 0 1920 730" fill="none" xmlns="http://www.w3.org/2000/svg">
<g clip-path="url(#clip0_2729_608)">
<rect width="1920" height="730" fill="white"/>
<circle cx="1850" cy="686" r="129.659" stroke="#FB7F7F" stroke-opacity="0.67" stroke-width="56.6816"/>
<path d="M621.823 246.204L684.886 231.869L712.737 213V515.513L640.35 456.212V262.01H637.65V456.212L622.314 451.678L621.823 246.204Z" fill="#182430"/>
<path d="M719.485 223.293L764.513 213.491V484.883L737.521 478.635V241.304L721.326 245.838L719.485 513.677H715.927L719.485 223.293Z" fill="#182430"/>
<path d="M767.211 213.491L774.45 215.207V482.188L767.211 484.883V213.491Z" fill="#1E2527"/>
<mask id="mask0_2729_608" style="mask-type:luminance" maskUnits="userSpaceOnUse" x="689" y="355" width="13" height="18">
<path d="M695.683 372.652C698.935 372.652 701.572 368.813 701.572 364.076C701.572 359.339 698.935 355.499 695.683 355.499C692.43 355.499 689.793 359.339 689.793 364.076C689.793 368.813 692.43 372.652 695.683 372.652Z" fill="white"/>
</mask>
<g mask="url(#mask0_2729_608)">
<path d="M689.916 355.499H689.793V372.53H689.916V355.499Z" fill="#B71918"/>
<path d="M690.162 355.499H690.039V372.53H690.162V355.499Z" fill="#B91818"/>
<path d="M690.285 355.499H690.162V372.53H690.285V355.499Z" fill="#BB1818"/>
<path d="M690.407 355.499H690.285V372.53H690.407V355.499Z" fill="#BC1818"/>
<path d="M690.652 355.499H690.529V372.53H690.652V355.499Z" fill="#BD1818"/>
<path d="M690.775 355.499H690.652V372.53H690.775V355.499Z" fill="#BE1818"/>
<path d="M690.898 355.499H690.775V372.53H690.898V355.499Z" fill="#C11718"/>
<path d="M691.143 355.499H691.021V372.53H691.143V355.499Z" fill="#C11718"/>
<path d="M691.266 355.499H691.144V372.53H691.266V355.499Z" fill="#C41617"/>
<path d="M691.389 355.499H691.266V372.53H691.389V355.499Z" fill="#C51618"/>
<path d="M691.633 355.499H691.511V372.53H691.633V355.499Z" fill="#C71617"/>
<path d="M691.756 355.499H691.634V372.53H691.756V355.499Z" fill="#C71617"/>
<path d="M691.879 355.499H691.756V372.53H691.879V355.499Z" fill="#C81517"/>
<path d="M692.125 355.499H692.002V372.53H692.125V355.499Z" fill="#CA1517"/>
<path d="M692.248 355.499H692.125V372.53H692.248V355.499Z" fill="#CB1517"/>
<path d="M692.371 355.499H692.249V372.53H692.371V355.499Z" fill="#CD1417"/>
<path d="M692.614 355.499H692.492V372.53H692.614V355.499Z" fill="#CE1417"/>
<path d="M692.738 355.499H692.615V372.53H692.738V355.499Z" fill="#CF1317"/>
<path d="M692.86 355.499H692.738V372.53H692.86V355.499Z" fill="#D11317"/>
<path d="M693.106 355.499H692.983V372.53H693.106V355.499Z" fill="#D31217"/>
<path d="M693.229 355.499H693.106V372.53H693.229V355.499Z" fill="#D31217"/>
<path d="M693.352 355.499H693.229V372.53H693.352V355.499Z" fill="#D41117"/>
<path d="M693.596 355.499H693.474V372.53H693.596V355.499Z" fill="#D51017"/>
<path d="M693.719 355.499H693.597V372.53H693.719V355.499Z" fill="#D70F17"/>
<path d="M693.841 355.499H693.719V372.53H693.841V355.499Z" fill="#D80F17"/>
<path d="M694.088 355.499H693.965V372.53H694.088V355.499Z" fill="#DA0D18"/>
<path d="M694.211 355.499H694.088V372.53H694.211V355.499Z" fill="#DA0D18"/>
<path d="M694.455 355.499H694.333V372.53H694.455V355.499Z" fill="#DD0B18"/>
<path d="M694.578 355.499H694.455V372.53H694.578V355.499Z" fill="#DD0B18"/>
<path d="M694.701 355.499H694.578V372.53H694.701V355.499Z" fill="#DF0919"/>
<path d="M694.946 355.499H694.824V372.53H694.946V355.499Z" fill="#E00818"/>
<path d="M695.07 355.499H694.947V372.53H695.07V355.499Z" fill="#E00819"/>
<path d="M695.192 355.499H695.069V372.53H695.192V355.499Z" fill="#E10719"/>
<path d="M695.437 355.499H695.314V372.53H695.437V355.499Z" fill="#E2051A"/>
<path d="M695.559 355.499H695.436V372.53H695.559V355.499Z" fill="#E2051C"/>
<path d="M695.682 355.499H695.56V372.53H695.682V355.499Z" fill="#E2051C"/>
<path d="M695.928 355.499H695.805V372.53H695.928V355.499Z" fill="#E3091D"/>
<path d="M696.051 355.499H695.929V372.53H696.051V355.499Z" fill="#E3091E"/>
<path d="M696.173 355.499H696.051V372.53H696.173V355.499Z" fill="#E3101E"/>
<path d="M696.418 355.499H696.295V372.53H696.418V355.499Z" fill="#E3101E"/>
<path d="M696.542 355.499H696.419V372.53H696.542V355.499Z" fill="#E31220"/>
<path d="M696.664 355.499H696.541V372.53H696.664V355.499Z" fill="#E31220"/>
<path d="M696.909 355.499H696.787V372.53H696.909V355.499Z" fill="#E31521"/>
<path d="M697.032 355.499H696.91V372.53H697.032V355.499Z" fill="#E31522"/>
<path d="M697.155 355.499H697.032V372.53H697.155V355.499Z" fill="#E31924"/>
<path d="M697.402 355.499H697.279V372.53H697.402V355.499Z" fill="#E31925"/>
<path d="M697.523 355.499H697.4V372.53H697.523V355.499Z" fill="#E31926"/>
<path d="M697.645 355.499H697.522V372.53H697.645V355.499Z" fill="#E31926"/>
<path d="M697.891 355.499H697.768V372.53H697.891V355.499Z" fill="#E31926"/>
<path d="M698.014 355.499H697.891V372.53H698.014V355.499Z" fill="#E41B27"/>
<path d="M698.137 355.499H698.015V372.53H698.137V355.499Z" fill="#E41B27"/>
<path d="M698.383 355.499H698.26V372.53H698.383V355.499Z" fill="#E41D27"/>
<path d="M698.505 355.499H698.382V372.53H698.505V355.499Z" fill="#E41D28"/>
<path d="M698.627 355.499H698.504V372.53H698.627V355.499Z" fill="#E41D28"/>
<path d="M698.872 355.499H698.749V372.53H698.872V355.499Z" fill="#E42029"/>
<path d="M698.995 355.499H698.873V372.53H698.995V355.499Z" fill="#E42029"/>
<path d="M699.118 355.499H698.996V372.53H699.118V355.499Z" fill="#E42029"/>
<path d="M699.364 355.499H699.242V372.53H699.364V355.499Z" fill="#E42029"/>
<path d="M699.485 355.499H699.363V372.53H699.485V355.499Z" fill="#E4202A"/>
<path d="M699.732 355.499H699.609V372.53H699.732V355.499Z" fill="#E4202A"/>
<path d="M699.855 355.499H699.732V372.53H699.855V355.499Z" fill="#E4222B"/>
<path d="M699.977 355.499H699.854V372.53H699.977V355.499Z" fill="#E4222B"/>
<path d="M700.222 355.499H700.1V372.53H700.222V355.499Z" fill="#E4222B"/>
<path d="M700.345 355.499H700.223V372.53H700.345V355.499Z" fill="#E4222C"/>
<path d="M700.467 355.499H700.344V372.53H700.467V355.499Z" fill="#E4222C"/>
<path d="M700.713 355.499H700.59V372.53H700.713V355.499Z" fill="#E4232E"/>
<path d="M700.836 355.499H700.713V372.53H700.836V355.499Z" fill="#E4232E"/>
<path d="M700.958 355.499H700.835V372.53H700.958V355.499Z" fill="#E4232E"/>
<path d="M701.204 355.499H701.081V372.53H701.204V355.499Z" fill="#E4232E"/>
<path d="M701.327 355.499H701.205V372.53H701.327V355.499Z" fill="#E4232E"/>
<path d="M701.449 355.499H701.326V372.53H701.449V355.499Z" fill="#E4232E"/>
</g>
<path opacity="0.1" d="M624.032 451.431H380" stroke="#182430" stroke-width="6.10916" stroke-miterlimit="10"/>
<path d="M671.022 311.996C671.022 311.996 670.777 311.996 670.777 311.751C670.777 303.909 670.777 299.989 670.531 292.269C670.531 292.147 670.531 292.024 670.777 292.024C670.777 292.024 671.022 292.024 671.022 292.269C671.267 300.111 671.39 304.032 671.267 311.873C671.267 311.996 671.267 312.118 671.022 312.118V311.996Z" fill="white"/>
<mask id="mask1_2729_608" style="mask-type:luminance" maskUnits="userSpaceOnUse" x="670" y="292" width="2" height="21">
<path d="M671.023 311.995C671.023 311.995 670.778 311.995 670.778 311.75C670.778 303.908 670.778 299.988 670.532 292.268C670.532 292.146 670.532 292.023 670.778 292.023C670.778 292.023 671.023 292.023 671.023 292.268C671.268 300.11 671.391 304.031 671.268 311.872C671.268 311.995 671.268 312.117 671.023 312.117V311.995Z" fill="white"/>
</mask>
<g mask="url(#mask1_2729_608)">
<path d="M670.655 292.023C670.9 299.988 671.023 304.031 670.9 311.995C670.9 311.995 670.9 311.995 670.778 311.995C670.778 304.031 670.778 299.988 670.532 292.023C670.532 292.023 670.532 292.023 670.655 292.023Z" fill="white"/>
<path d="M670.655 292.023C670.901 299.988 671.023 304.031 670.901 311.995C670.901 304.031 670.901 299.988 670.655 292.023Z" fill="white"/>
<path d="M670.655 292.023C670.901 299.988 671.023 304.031 670.901 311.995C670.901 304.031 670.901 299.988 670.655 292.023Z" fill="white"/>
<path d="M670.655 292.023C670.901 299.988 671.023 304.031 670.901 311.995C670.901 304.031 670.901 299.988 670.655 292.023Z" fill="white"/>
<path d="M670.655 292.023C670.901 299.988 671.023 304.031 670.901 311.995C670.901 304.031 670.901 299.988 670.655 292.023Z" fill="white"/>
<path d="M670.777 292.023C671.023 299.988 671.145 304.031 671.023 311.995C671.023 304.031 671.023 299.988 670.777 292.023Z" fill="white"/>
<path d="M670.777 292.023C671.023 299.988 671.145 304.031 671.023 311.995C671.023 304.031 671.023 299.988 670.777 292.023Z" fill="white"/>
<path d="M670.777 292.023C671.023 299.988 671.145 304.031 671.023 311.995C671.023 304.031 671.023 299.988 670.777 292.023Z" fill="white"/>
<path d="M670.777 292.023C671.023 299.988 671.145 304.031 671.023 311.995C671.023 304.031 671.023 299.988 670.777 292.023Z" fill="white"/>
<path d="M670.777 292.023C671.023 299.988 671.145 304.031 671.023 311.995C671.023 304.031 671.023 299.988 670.777 292.023Z" fill="white"/>
<path d="M670.777 292.023C671.023 299.988 671.145 304.031 671.023 311.995C671.023 304.031 671.023 299.988 670.777 292.023Z" fill="white"/>
<path d="M670.901 292.023C671.146 299.988 671.269 304.031 671.146 311.995C671.146 304.031 671.146 299.988 670.901 292.023Z" fill="white"/>
<path d="M670.901 292.023C671.146 299.988 671.269 304.031 671.146 311.995C671.146 304.031 671.146 299.988 670.901 292.023Z" fill="white"/>
<path d="M670.901 292.023C671.146 299.988 671.269 304.031 671.146 311.995C671.146 304.031 671.146 299.988 670.901 292.023Z" fill="white"/>
<path d="M670.901 292.023C671.146 299.988 671.269 304.031 671.146 311.995C671.146 304.031 671.146 299.988 670.901 292.023Z" fill="white"/>
<path d="M670.901 292.023C671.146 299.988 671.269 304.031 671.146 311.995C671.146 304.031 671.146 299.988 670.901 292.023Z" fill="white"/>
<path d="M670.901 292.023C671.146 299.988 671.269 304.031 671.146 311.995C671.146 304.031 671.146 299.988 670.901 292.023Z" fill="white"/>
<path d="M671.022 292.023C671.268 299.988 671.391 304.031 671.268 311.995C671.268 304.031 671.268 299.988 671.022 292.023Z" fill="white"/>
<path d="M671.268 311.995C671.268 304.031 671.268 299.988 671.022 292.023C671.268 299.988 671.391 304.031 671.268 311.995Z" fill="white"/>
</g>
<path d="M679.611 296.437C679.611 297.54 679.242 298.398 678.752 299.133C678.138 299.868 677.402 300.236 676.543 300.481C675.562 300.726 674.703 300.481 674.089 299.746C673.476 299.01 673.231 298.03 673.108 296.56C673.108 296.315 673.108 296.192 673.108 295.947C673.108 295.09 673.108 294.232 673.476 293.497C673.844 292.762 674.089 292.149 674.58 291.659C675.071 291.169 675.684 290.801 676.298 290.679C677.157 290.434 678.016 290.679 678.506 291.046C679.12 291.536 679.488 292.272 679.611 293.252C678.997 293.374 678.629 293.497 678.016 293.619C678.016 293.007 677.77 292.639 677.525 292.394C677.279 292.149 676.911 292.149 676.421 292.272C675.93 292.394 675.439 292.762 675.194 293.252C674.948 293.742 674.826 294.477 674.826 295.457C674.826 295.702 674.826 295.825 674.826 296.192C674.826 297.173 674.948 297.908 675.316 298.398C675.562 298.765 676.052 299.01 676.543 298.888C677.034 298.888 677.402 298.52 677.647 298.275C677.893 297.908 678.016 297.54 678.016 296.927C678.629 296.805 678.997 296.682 679.611 296.56V296.437Z" fill="white"/>
<path d="M687.218 293.251C687.218 294.231 687.218 295.089 686.85 295.946C686.605 296.804 686.237 297.417 685.746 297.907C685.255 298.397 684.642 298.764 684.028 298.887C683.415 299.009 682.801 298.887 682.188 298.642C681.697 298.397 681.206 297.907 680.961 297.294C680.716 296.681 680.47 295.824 680.47 294.966C680.47 294.721 680.47 294.721 680.47 294.476C680.47 293.496 680.47 292.638 680.838 291.903C681.084 291.168 681.452 290.433 681.943 289.943C682.433 289.452 683.047 289.085 683.66 288.962C684.274 288.84 684.887 288.84 685.501 289.085C685.991 289.33 686.482 289.82 686.727 290.433C687.096 291.045 687.218 291.903 687.218 292.883C687.218 293.006 687.218 293.128 687.218 293.373V293.251ZM685.501 293.251C685.501 292.27 685.255 291.413 685.01 291.045C684.642 290.555 684.274 290.433 683.66 290.555C683.169 290.678 682.679 291.045 682.433 291.658C682.188 292.27 682.065 293.006 682.065 294.108C682.065 294.353 682.065 294.353 682.065 294.598C682.065 295.579 682.311 296.314 682.556 296.804C682.801 297.294 683.292 297.417 683.906 297.294C684.519 297.171 684.887 296.804 685.132 296.191C685.378 295.579 685.501 294.721 685.501 293.741C685.501 293.496 685.501 293.496 685.501 293.251Z" fill="white"/>
<path d="M688.445 297.907C688.445 293.741 688.322 291.781 688.077 287.615C689.058 287.37 689.549 287.247 690.653 286.88C691.389 286.635 692.003 286.757 692.616 286.88C693.23 287.125 693.72 287.615 693.966 288.35C694.334 289.085 694.457 289.82 694.579 290.801C694.579 291.046 694.579 291.046 694.579 291.291C694.579 292.271 694.579 293.129 694.211 293.986C693.966 294.844 693.475 295.579 692.984 296.069C692.371 296.682 691.757 296.927 691.021 297.172C690.04 297.417 689.549 297.539 688.445 297.784V297.907ZM689.917 288.84C689.917 291.658 690.04 293.006 690.162 295.702C690.53 295.702 690.653 295.702 691.021 295.456C691.635 295.334 692.125 294.966 692.494 294.231C692.862 293.619 692.984 292.761 692.984 291.781C692.984 291.536 692.984 291.413 692.984 291.168C692.984 290.065 692.739 289.33 692.371 288.84C692.003 288.35 691.512 288.228 690.776 288.473C690.408 288.473 690.285 288.595 689.917 288.718V288.84Z" fill="white"/>
<path d="M700.591 290.433C699.242 290.8 698.628 290.923 697.279 291.29C697.279 292.393 697.279 293.006 697.279 294.109C698.751 293.741 699.61 293.496 701.082 293.128C701.082 293.863 701.082 294.231 701.082 294.966C698.874 295.456 697.769 295.824 695.561 296.314C695.561 292.026 695.438 289.943 695.193 285.654C697.401 285.042 698.506 284.674 700.714 284.062C700.714 284.797 700.714 285.164 700.714 285.899C699.242 286.389 698.383 286.512 696.911 287.002C696.911 287.982 696.911 288.472 696.911 289.575C698.26 289.208 698.874 289.085 700.223 288.717C700.223 289.453 700.223 289.82 700.223 290.433H700.591Z" fill="white"/>
<path d="M698.137 304.037C698.137 305.139 698.137 305.629 698.137 306.732C698.137 306.732 698.137 306.732 698.014 306.732C698.014 306.732 698.014 306.732 697.891 306.732C697.891 305.629 697.891 305.139 697.891 304.037C698.137 304.037 698.26 304.037 698.628 303.914L698.137 304.037Z" fill="white"/>
<path d="M698.138 302.688C698.138 302.688 698.138 303.423 698.138 303.79C697.892 303.79 697.769 303.79 697.401 303.913C697.401 303.423 697.401 303.178 697.401 302.81C697.401 302.81 697.401 302.81 697.524 302.81H697.647" fill="white"/>
<path d="M697.523 301.951C697.523 301.951 697.646 301.951 697.769 301.951C697.769 302.074 697.769 302.196 697.769 302.319C697.769 302.319 697.646 302.319 697.523 302.319C697.523 302.196 697.523 302.074 697.523 301.951Z" fill="white"/>
<path d="M698.137 301.708C698.137 301.708 698.015 301.708 697.892 301.708C697.892 301.586 697.892 301.463 697.892 301.341C697.892 301.341 698.015 301.341 698.137 301.341C698.137 301.463 698.137 301.586 698.137 301.708Z" fill="white"/>
<path d="M701.082 302.195V302.318C700.714 302.318 700.591 302.318 700.223 302.44C700.223 303.298 700.223 303.666 700.223 304.523C699.978 304.523 699.855 304.523 699.487 304.646C699.487 303.788 699.487 303.42 699.487 302.563C699.119 302.563 698.996 302.563 698.628 302.685C698.628 302.685 698.628 302.685 698.628 302.563V302.44C699.61 302.195 700.101 302.195 700.96 301.95C700.96 301.95 700.96 301.95 700.96 302.073" fill="white"/>
<mask id="mask2_2729_608" style="mask-type:luminance" maskUnits="userSpaceOnUse" x="698" y="301" width="4" height="4">
<path d="M701.082 302.196V302.319C700.714 302.319 700.591 302.319 700.223 302.441C700.223 303.299 700.223 303.667 700.223 304.524C699.978 304.524 699.855 304.524 699.487 304.647C699.487 303.789 699.487 303.421 699.487 302.564C699.119 302.564 698.996 302.564 698.628 302.686C698.628 302.686 698.628 302.686 698.628 302.564V302.441C699.61 302.196 700.101 302.196 700.96 301.951C700.96 301.951 700.96 301.951 700.96 302.074" fill="white"/>
</mask>
<g mask="url(#mask2_2729_608)">
<path d="M699.241 302.32C699.241 303.423 699.241 304.036 699.241 305.138C698.996 305.138 698.75 305.138 698.505 305.261C698.505 304.158 698.505 303.546 698.505 302.443C698.75 302.443 698.996 302.443 699.241 302.32Z" fill="white"/>
</g>
<path d="M700.224 305.137C700.224 305.137 700.224 305.872 700.224 306.362C700.224 306.362 700.224 306.362 700.102 306.362H699.979C699.979 305.872 699.979 305.627 699.979 305.137C700.224 305.137 700.347 305.137 700.715 305.015L700.224 305.137Z" fill="white"/>
<path d="M696.666 302.565C696.666 302.565 696.666 302.565 696.543 302.565C696.543 302.075 696.543 301.83 696.543 301.34C696.911 301.34 697.034 301.34 697.402 301.095C697.402 301.095 697.402 301.217 697.402 301.34C697.156 301.34 696.911 301.34 696.666 301.462C696.666 301.83 696.666 302.075 696.666 302.443V302.565Z" fill="white"/>
<path d="M701.45 306.854C701.45 306.854 700.836 306.854 700.468 306.977V306.732C700.468 306.732 700.959 306.732 701.204 306.609C701.204 306.242 701.204 305.996 701.204 305.629C701.204 305.629 701.204 305.629 701.327 305.629C701.327 306.119 701.327 306.364 701.327 306.854H701.45Z" fill="white"/>
<path d="M697.401 307.588C697.401 307.588 696.788 307.588 696.42 307.711C696.42 307.22 696.42 306.975 696.42 306.485C696.42 306.485 696.42 306.485 696.543 306.485C696.543 306.853 696.543 307.098 696.543 307.466C696.788 307.466 697.033 307.466 697.279 307.343V307.588H697.401Z" fill="white"/>
<path d="M701.451 301.462C701.451 301.462 701.451 301.462 701.328 301.462C701.328 301.094 701.328 300.849 701.328 300.482C701.083 300.482 700.837 300.482 700.592 300.604C700.592 300.604 700.592 300.482 700.592 300.359C700.96 300.359 701.083 300.359 701.451 300.114C701.451 300.604 701.451 300.849 701.451 301.34V301.462Z" fill="white"/>
<path d="M667.954 298.149C667.954 298.149 667.095 298.394 666.482 298.517C666.482 298.517 667.341 298.272 667.954 298.149Z" fill="white"/>
<path d="M652.987 305.135C652.987 306.116 653.232 306.973 653.477 307.831C656.054 307.463 657.404 307.218 660.103 306.851C660.225 306.851 660.348 306.728 660.348 306.483C660.348 304.768 660.348 304.033 660.348 302.317C660.348 302.195 660.348 302.072 660.348 301.95C660.348 301.705 660.471 301.582 660.716 301.582C660.839 301.582 660.962 301.582 661.084 301.582C661.084 301.582 661.207 301.582 661.33 301.582C661.452 301.582 661.575 301.582 661.698 301.827C662.557 302.93 663.047 303.42 663.906 304.645C663.906 303.42 663.906 302.685 663.906 301.46C663.906 301.46 663.906 301.337 664.029 301.337C664.52 301.337 664.765 301.215 665.133 301.092H665.256C665.256 303.42 665.256 304.645 665.256 306.973C665.256 307.096 665.256 307.341 665.133 307.463C665.133 307.586 664.888 307.708 664.765 307.831C664.642 307.831 664.52 307.831 664.274 307.831C664.152 307.831 664.029 307.831 663.906 307.586C663.047 306.483 662.557 305.871 661.698 304.768C661.698 306.116 661.698 306.728 661.698 307.953C661.698 307.953 661.698 308.076 661.575 308.076C658.017 308.566 656.177 308.811 652.619 309.301C652.373 308.934 652.251 308.444 652.128 307.953C651.882 307.096 651.76 306.238 651.76 305.258C651.76 300.234 655.44 295.333 660.225 294.353C663.047 293.741 665.624 294.721 667.219 296.681C666.483 296.804 666.115 296.926 665.501 297.049C664.152 295.824 662.311 295.333 660.348 295.824C656.299 296.681 653.109 300.725 653.109 305.013L652.987 305.135Z" fill="white"/>
<path d="M668.936 302.44C668.936 307.953 665.01 312.854 660.225 313.467C657.403 313.835 654.949 312.609 653.354 310.649C654.09 310.649 654.458 310.526 655.194 310.404C656.544 311.629 658.262 312.242 660.347 311.997C664.396 311.507 667.709 307.218 667.709 302.685C667.709 301.705 667.463 300.724 667.218 299.867C663.537 300.602 661.697 300.969 658.139 301.582C656.912 301.705 656.544 302.317 656.544 303.42V304.155C656.544 305.135 657.035 305.625 658.139 305.38C658.63 305.38 658.875 305.38 659.243 305.135C659.489 305.135 659.611 305.135 659.857 305.135C659.857 305.135 660.102 305.135 660.102 305.38C660.102 305.748 660.102 305.993 660.102 306.361C660.102 306.361 660.102 306.606 659.857 306.606C659.611 306.606 659.489 306.606 659.243 306.606C658.507 306.606 658.139 306.728 657.525 306.851C655.931 307.096 655.072 306.115 655.072 303.91C655.072 301.705 655.931 300.602 657.403 300.234C661.697 299.499 663.783 299.009 667.954 298.151C668.2 298.641 668.322 299.009 668.568 299.499C668.813 300.357 668.936 301.337 669.058 302.317L668.936 302.44Z" fill="white"/>
<mask id="mask3_2729_608" style="mask-type:luminance" maskUnits="userSpaceOnUse" x="653" y="298" width="17" height="16">
<path d="M668.936 302.44C668.936 307.953 665.01 312.854 660.225 313.467C657.403 313.835 654.949 312.609 653.354 310.649C654.09 310.649 654.458 310.526 655.194 310.404C656.544 311.629 658.262 312.242 660.347 311.997C664.396 311.507 667.709 307.218 667.709 302.685C667.709 301.705 667.463 300.724 667.218 299.867C663.537 300.602 661.697 300.969 658.139 301.582C656.912 301.705 656.544 302.317 656.544 303.42V304.155C656.544 305.135 657.035 305.625 658.139 305.38C658.63 305.38 658.875 305.38 659.243 305.135C659.489 305.135 659.611 305.135 659.857 305.135C659.857 305.135 660.102 305.135 660.102 305.38C660.102 305.748 660.102 305.993 660.102 306.361C660.102 306.361 660.102 306.606 659.857 306.606C659.611 306.606 659.489 306.606 659.243 306.606C658.507 306.606 658.139 306.728 657.525 306.851C655.931 307.096 655.072 306.115 655.072 303.91C655.072 301.705 655.931 300.602 657.403 300.234C661.697 299.499 663.783 299.009 667.954 298.151C668.2 298.641 668.322 299.009 668.568 299.499C668.813 300.357 668.936 301.337 669.058 302.317L668.936 302.44Z" fill="white"/>
</mask>
<g mask="url(#mask3_2729_608)">
<path d="M664.028 298.886C659.734 299.866 657.648 300.356 653.354 301.214C653.354 301.214 653.354 301.214 653.354 300.969C654.581 300.724 655.194 300.601 656.421 300.356C659.489 299.743 660.961 299.498 664.028 298.886Z" fill="white"/>
<path d="M668.936 298.028C662.678 299.498 659.611 300.111 653.354 301.458C653.354 301.458 653.354 301.458 653.354 301.213C657.648 300.356 659.734 299.866 664.028 298.885C665.991 298.518 666.973 298.273 668.936 297.905V298.028Z" fill="white"/>
<path d="M668.936 298.15C662.678 299.62 659.611 300.233 653.354 301.458C653.354 301.458 653.354 301.458 653.354 301.213C659.611 299.988 662.678 299.253 668.936 297.782C668.936 297.782 668.936 297.905 668.936 298.027V298.15Z" fill="white"/>
<path d="M668.936 298.394C662.678 299.865 659.611 300.477 653.354 301.703C653.354 301.703 653.354 301.703 653.354 301.458C659.611 300.232 662.678 299.497 668.936 298.149C668.936 298.149 668.936 298.272 668.936 298.394Z" fill="white"/>
<path d="M668.936 298.638C662.678 300.108 659.611 300.721 653.354 301.946C653.354 301.946 653.354 301.946 653.354 301.701C659.611 300.475 662.678 299.74 668.936 298.393C668.936 298.393 668.936 298.515 668.936 298.638Z" fill="white"/>
<path d="M668.936 298.885C662.678 300.355 659.611 300.968 653.354 302.193C653.354 302.193 653.354 302.193 653.354 301.948C659.611 300.723 662.678 299.987 668.936 298.64C668.936 298.64 668.936 298.762 668.936 298.885Z" fill="white"/>
<path d="M668.936 299.008C662.678 300.478 659.611 301.091 653.354 302.316C653.354 302.316 653.354 302.316 653.354 302.071C659.611 300.846 662.678 300.233 668.936 298.763C668.936 298.763 668.936 298.885 668.936 299.008Z" fill="white"/>
<path d="M668.936 299.252C662.678 300.722 659.611 301.335 653.354 302.56C653.354 302.56 653.354 302.56 653.354 302.315C659.611 301.09 662.678 300.477 668.936 299.007C668.936 299.007 668.936 299.129 668.936 299.252Z" fill="white"/>
<path d="M668.936 299.498C662.678 300.846 659.611 301.581 653.354 302.806C653.354 302.806 653.354 302.806 653.354 302.561C659.611 301.336 662.678 300.723 668.936 299.253C668.936 299.253 668.936 299.375 668.936 299.498Z" fill="white"/>
<path d="M668.936 299.741C662.678 301.089 659.611 301.824 653.354 303.049C653.354 303.049 653.354 303.049 653.354 302.804C659.611 301.579 662.678 300.966 668.936 299.496C668.936 299.496 668.936 299.619 668.936 299.741Z" fill="white"/>
<path d="M668.936 299.864C662.678 301.211 659.611 301.947 653.354 303.049C653.354 303.049 653.354 303.049 653.354 302.804C659.611 301.579 662.678 300.966 668.936 299.496C668.936 299.496 668.936 299.619 668.936 299.741V299.864Z" fill="white"/>
<path d="M668.936 300.109C662.678 301.457 659.611 302.192 653.354 303.295C653.354 303.295 653.354 303.295 653.354 303.05C659.611 301.825 662.678 301.212 668.936 299.864C668.936 299.864 668.936 299.987 668.936 300.109Z" fill="white"/>
<path d="M668.936 300.355C662.678 301.703 659.611 302.438 653.354 303.541C653.354 303.541 653.354 303.541 653.354 303.296C659.611 302.071 662.678 301.458 668.936 300.11C668.936 300.11 668.936 300.233 668.936 300.355Z" fill="white"/>
<path d="M668.936 300.602C662.678 301.95 659.611 302.563 653.354 303.788C653.354 303.788 653.354 303.788 653.354 303.543C659.611 302.318 662.678 301.705 668.936 300.357C668.936 300.357 668.936 300.48 668.936 300.602Z" fill="white"/>
<path d="M668.936 300.846C662.678 302.193 659.611 302.806 653.354 304.031C653.354 304.031 653.354 304.031 653.354 303.786C659.611 302.561 662.678 301.948 668.936 300.601C668.936 300.601 668.936 300.723 668.936 300.846Z" fill="white"/>
<path d="M668.936 300.967C662.678 302.315 659.611 302.927 653.354 304.152C653.354 304.152 653.354 304.152 653.354 303.907C659.611 302.682 662.678 302.069 668.936 300.722C668.936 300.722 668.936 300.844 668.936 300.967Z" fill="white"/>
<path d="M668.936 301.213C662.678 302.561 659.611 303.173 653.354 304.398C653.354 304.398 653.354 304.398 653.354 304.153C659.611 302.928 662.678 302.316 668.936 300.968C668.936 300.968 668.936 301.09 668.936 301.213Z" fill="white"/>
<path d="M668.936 301.46C662.678 302.808 659.611 303.42 653.354 304.646C653.354 304.646 653.354 304.646 653.354 304.4C659.611 303.298 662.678 302.563 668.936 301.215C668.936 301.215 668.936 301.337 668.936 301.46Z" fill="white"/>
<path d="M668.936 301.703C662.678 303.05 659.611 303.663 653.354 304.766C653.354 304.766 653.354 304.766 653.354 304.521C659.611 303.418 662.678 302.683 668.936 301.335C668.936 301.335 668.936 301.457 668.936 301.58V301.703Z" fill="white"/>
<path d="M668.936 301.823C662.678 303.171 659.611 303.784 653.354 304.886C653.354 304.886 653.354 304.886 653.354 304.641C659.611 303.539 662.678 302.926 668.936 301.578C668.936 301.578 668.936 301.701 668.936 301.823Z" fill="white"/>
<path d="M668.936 302.07C662.678 303.418 659.611 304.031 653.354 305.133C653.354 305.133 653.354 305.133 653.354 304.888C659.611 303.786 662.678 303.173 668.936 301.825C668.936 301.825 668.936 301.948 668.936 302.07Z" fill="white"/>
<path d="M668.936 302.314C662.678 303.662 659.611 304.275 653.354 305.378C653.354 305.378 653.354 305.378 653.354 305.132C659.611 304.03 662.678 303.417 668.936 302.069C668.936 302.069 668.936 302.192 668.936 302.314Z" fill="white"/>
<path d="M669.059 302.561C662.802 303.909 659.735 304.522 653.478 305.625C653.478 305.625 653.478 305.625 653.478 305.38C659.735 304.277 662.802 303.664 669.059 302.316C669.059 302.316 669.059 302.439 669.059 302.561Z" fill="white"/>
<path d="M669.059 302.685C662.802 304.032 659.735 304.645 653.478 305.748C653.478 305.748 653.478 305.748 653.478 305.503C659.735 304.4 662.802 303.787 669.059 302.439C669.059 302.439 669.059 302.562 669.059 302.685Z" fill="white"/>
<path d="M669.059 302.928C662.802 304.275 659.735 304.888 653.478 305.991C653.478 305.991 653.478 305.991 653.478 305.746C659.735 304.643 662.802 304.03 669.059 302.683C669.059 302.683 669.059 302.805 669.059 302.928Z" fill="white"/>
<path d="M669.059 303.172C662.802 304.52 659.735 305.132 653.478 306.235C653.478 306.235 653.478 306.235 653.478 305.99C659.735 304.887 662.802 304.275 669.059 302.927C669.059 302.927 669.059 303.049 669.059 303.172Z" fill="white"/>
<path d="M669.059 303.417C662.802 304.765 659.735 305.255 653.478 306.358V306.113C659.735 305.01 662.802 304.398 669.059 303.05C669.059 303.05 669.059 303.172 669.059 303.295V303.417Z" fill="white"/>
<path d="M669.059 303.542C662.802 304.89 659.735 305.38 653.478 306.483C653.478 306.483 653.478 306.483 653.478 306.237C659.735 305.135 662.802 304.522 669.059 303.297C669.059 303.297 669.059 303.419 669.059 303.542Z" fill="white"/>
<path d="M669.059 303.786C662.802 305.011 659.735 305.624 653.478 306.727V306.482C659.735 305.379 662.802 304.766 669.059 303.541C669.059 303.541 669.059 303.664 669.059 303.786Z" fill="white"/>
<path d="M669.059 304.029C662.802 305.254 659.735 305.867 653.478 306.97C653.478 306.97 653.478 306.97 653.478 306.725C659.735 305.622 662.802 305.009 669.059 303.784C669.059 303.784 669.059 303.907 669.059 304.029Z" fill="white"/>
<path d="M669.059 304.275C662.802 305.501 659.735 306.113 653.478 307.216V306.971C659.735 305.868 662.802 305.256 669.059 304.03C669.059 304.03 669.059 304.153 669.059 304.275Z" fill="white"/>
<path d="M669.059 304.398C662.802 305.624 659.735 306.236 653.478 307.339C653.478 307.339 653.478 307.339 653.478 307.094C659.735 305.991 662.802 305.379 669.059 304.153C669.059 304.153 669.059 304.276 669.059 304.398Z" fill="white"/>
<path d="M669.059 304.643C662.802 305.868 659.735 306.48 653.478 307.583V307.338C659.735 306.235 662.802 305.745 669.059 304.397C669.059 304.397 669.059 304.52 669.059 304.643Z" fill="white"/>
<path d="M669.059 304.89C662.802 306.115 659.735 306.727 653.478 307.83V307.585C659.735 306.482 662.802 305.992 669.059 304.645C669.059 304.645 669.059 304.767 669.059 304.89Z" fill="white"/>
<path d="M669.059 305.132C662.802 306.357 659.735 306.97 653.478 307.95V307.705C659.735 306.603 662.802 306.112 669.059 304.765V305.01V305.132Z" fill="white"/>
<path d="M669.059 305.256C662.802 306.481 659.735 307.094 653.478 308.074V307.829C659.735 306.726 662.802 306.236 669.059 305.011C669.059 305.011 669.059 305.133 669.059 305.256Z" fill="white"/>
<path d="M669.059 305.5C662.802 306.725 659.735 307.338 653.478 308.318V308.073C659.735 306.97 662.802 306.48 669.059 305.255C669.059 305.255 669.059 305.377 669.059 305.5Z" fill="white"/>
<path d="M669.059 305.747C662.802 306.972 659.735 307.585 653.478 308.565V308.32C659.735 307.34 662.802 306.727 669.059 305.502C669.059 305.502 669.059 305.624 669.059 305.747Z" fill="white"/>
<path d="M669.059 305.99C662.802 307.215 659.735 307.828 653.478 308.808V308.563C659.735 307.583 662.802 306.97 669.059 305.745C669.059 305.745 669.059 305.868 669.059 305.99Z" fill="white"/>
<path d="M669.059 306.236C662.802 307.462 659.735 308.074 653.478 309.054V308.809C659.735 307.829 662.802 307.216 669.059 305.991C669.059 305.991 669.059 306.114 669.059 306.236Z" fill="white"/>
<path d="M669.059 306.357C662.802 307.583 659.735 308.073 653.478 309.175V308.93C659.735 307.95 662.802 307.338 669.059 306.112V306.357Z" fill="white"/>
<path d="M669.059 306.604C662.802 307.83 659.735 308.32 653.478 309.422V309.177C659.735 308.197 662.802 307.585 669.059 306.359C669.059 306.359 669.059 306.482 669.059 306.604Z" fill="white"/>
<path d="M669.059 306.85C662.802 308.075 659.735 308.565 653.478 309.546C653.478 309.546 653.478 309.546 653.478 309.3C659.735 308.32 662.802 307.708 669.059 306.482C669.059 306.482 669.059 306.605 669.059 306.727V306.85Z" fill="white"/>
<path d="M669.059 307.094C662.802 308.319 659.735 308.809 653.478 309.789V309.544C659.735 308.564 662.802 307.951 669.059 306.849V307.094Z" fill="white"/>
<path d="M669.059 307.215C662.802 308.44 659.735 308.93 653.478 309.91C653.478 309.91 653.478 309.91 653.478 309.665C659.735 308.685 662.802 308.072 669.059 306.97V307.215Z" fill="white"/>
<path d="M669.059 307.461C662.802 308.686 659.735 309.176 653.478 310.156V309.911C659.735 308.931 662.802 308.441 669.059 307.216C669.059 307.216 669.059 307.338 669.059 307.461Z" fill="white"/>
<path d="M669.059 307.708C662.802 308.933 659.735 309.423 653.478 310.403C653.478 310.403 653.478 310.403 653.478 310.158C659.735 309.178 662.802 308.688 669.059 307.463V307.708Z" fill="white"/>
<path d="M669.059 307.952C662.802 309.177 659.735 309.667 653.478 310.648V310.403C659.735 309.422 662.802 308.932 669.059 307.707V307.952Z" fill="white"/>
<path d="M669.059 308.075C662.802 309.178 659.735 309.79 653.478 310.771C653.478 310.771 653.478 310.771 653.478 310.526C659.735 309.545 662.802 309.055 669.059 307.83V308.075Z" fill="white"/>
<path d="M669.059 308.318C662.802 309.421 659.735 310.034 653.478 311.014C653.478 311.014 653.478 311.014 653.478 310.769C659.735 309.789 662.802 309.298 669.059 308.073V308.318Z" fill="white"/>
<path d="M669.059 308.564C662.802 309.667 659.735 310.279 653.478 311.137C653.478 311.137 653.478 311.137 653.478 310.892C659.735 309.912 662.802 309.422 669.059 308.196V308.441V308.564Z" fill="white"/>
<path d="M669.059 308.81C662.802 309.912 659.735 310.525 653.478 311.383C653.478 311.383 653.478 311.383 653.478 311.137C659.735 310.157 662.802 309.667 669.059 308.564V308.81Z" fill="white"/>
<path d="M669.059 308.933C662.802 310.035 659.735 310.648 653.478 311.506C653.478 311.506 653.478 311.506 653.478 311.261C659.735 310.28 662.802 309.79 669.059 308.688V308.933Z" fill="white"/>
<path d="M669.059 309.176C662.802 310.278 659.735 310.769 653.478 311.749C653.478 311.749 653.478 311.749 653.478 311.504C659.735 310.523 662.802 310.033 669.059 308.931V309.176Z" fill="white"/>
<path d="M669.059 309.422C662.802 310.525 659.735 311.015 653.478 311.995C653.478 311.995 653.478 311.995 653.478 311.75C659.735 310.77 662.802 310.279 669.059 309.177C669.059 309.177 669.059 309.299 669.059 309.422Z" fill="white"/>
<path d="M669.059 309.667C662.802 310.77 659.735 311.26 653.478 312.24C653.478 312.24 653.478 312.24 653.478 311.995C659.735 311.015 662.802 310.525 669.059 309.422V309.667Z" fill="white"/>
<path d="M669.059 309.79C662.802 310.893 659.735 311.383 653.478 312.363C653.478 312.363 653.478 312.363 653.478 312.118C659.735 311.26 662.802 310.648 669.059 309.545V309.79Z" fill="white"/>
<path d="M669.059 310.035C662.802 311.138 659.735 311.628 653.478 312.608C653.478 312.608 653.478 312.608 653.478 312.363C659.735 311.505 662.802 310.893 669.059 309.79C669.059 309.79 669.059 309.913 669.059 310.035Z" fill="white"/>
<path d="M669.059 310.281C662.802 311.383 659.735 311.873 653.478 312.731C653.478 312.731 653.478 312.731 653.478 312.486C659.735 311.628 662.802 311.138 669.059 309.913V310.158V310.281Z" fill="white"/>
<path d="M669.059 310.523C662.802 311.626 659.735 312.116 653.478 312.974C653.478 312.974 653.478 312.974 653.478 312.729C659.735 311.871 662.802 311.381 669.059 310.278C669.059 310.278 669.059 310.401 669.059 310.523Z" fill="white"/>
<path d="M669.059 310.77C662.802 311.873 659.735 312.363 653.478 313.221C653.478 313.221 653.478 313.221 653.478 312.976C659.735 312.118 662.802 311.628 669.059 310.525C669.059 310.525 669.059 310.648 669.059 310.77Z" fill="white"/>
<path d="M669.059 310.892C662.802 311.994 659.735 312.484 653.478 313.342C653.478 313.342 653.478 313.342 653.478 313.097C659.735 312.239 662.802 311.749 669.059 310.646V310.892Z" fill="white"/>
<path d="M669.059 311.138C662.802 312.24 659.735 312.73 653.478 313.588C653.478 313.588 653.478 313.588 653.478 313.343C659.735 312.485 662.802 311.995 669.059 310.893C669.059 310.893 669.059 311.015 669.059 311.138Z" fill="white"/>
<path d="M669.059 311.381C662.802 312.484 659.735 312.974 653.478 313.831C653.478 313.831 653.478 313.831 653.478 313.586C659.735 312.729 662.802 312.238 669.059 311.136C669.059 311.136 669.059 311.258 669.059 311.381Z" fill="white"/>
<path d="M669.059 311.628C662.802 312.731 659.735 313.221 653.478 314.078C653.478 314.078 653.478 314.078 653.478 313.833C659.735 312.976 662.802 312.486 669.059 311.383C669.059 311.383 669.059 311.505 669.059 311.628Z" fill="white"/>
<path d="M669.059 311.749C662.802 312.852 659.735 313.342 653.478 314.199C653.478 314.199 653.478 314.199 653.478 313.954C659.735 313.097 662.802 312.607 669.059 311.504C669.059 311.504 669.059 311.626 669.059 311.749Z" fill="white"/>
<path d="M669.059 311.995C665.01 312.73 662.925 312.975 658.876 313.588C656.667 313.833 655.563 313.955 653.478 314.2C659.735 313.343 662.802 312.853 669.059 311.75C669.059 311.75 669.059 311.873 669.059 311.995Z" fill="white"/>
<path d="M669.058 312.241C668.076 312.364 667.586 312.486 666.481 312.609C663.414 312.976 661.942 313.221 658.875 313.589C662.923 312.976 665.009 312.609 669.058 311.996C669.058 311.996 669.058 312.119 669.058 312.241Z" fill="white"/>
<path d="M666.482 312.607C667.464 312.484 667.955 312.362 669.059 312.239C668.077 312.362 667.587 312.484 666.482 312.607Z" fill="white"/>
</g>
<path d="M673.109 311.752C673.109 308.688 673.109 307.096 673.109 304.032C673.355 304.032 673.6 304.032 673.846 303.91C674.827 305.625 677.281 309.546 677.772 310.281C677.772 309.179 677.772 307.953 677.772 306.728C677.772 305.258 677.772 304.645 677.772 303.175H678.262C678.262 306.238 678.262 307.831 678.262 310.894C678.017 310.894 677.894 310.894 677.526 310.894C676.545 309.179 674.091 305.135 673.6 304.4C673.6 305.38 673.6 306.483 673.6 307.953C673.6 309.424 673.6 310.036 673.6 311.506C673.355 311.506 673.232 311.506 673.109 311.506V311.752Z" fill="white"/>
<path d="M684.029 306.115C682.679 306.36 682.066 306.483 680.716 306.728C680.716 308.075 680.716 308.688 680.716 310.036C682.189 309.791 682.925 309.668 684.397 309.423C684.397 309.668 684.397 309.791 684.397 310.036C682.802 310.281 681.943 310.403 680.226 310.648C680.226 307.463 680.226 305.87 680.226 302.684C681.821 302.317 682.679 302.194 684.274 301.949C684.274 302.194 684.274 302.317 684.274 302.562C682.925 302.807 682.189 302.929 680.716 303.297C680.716 304.4 680.716 305.012 680.716 306.238C682.066 305.993 682.679 305.87 684.029 305.625C684.029 305.87 684.029 305.993 684.029 306.238V306.115Z" fill="white"/>
<path d="M689.672 309.054C688.936 307.707 688.445 307.094 687.709 305.746C686.973 307.339 686.482 308.197 685.746 309.789C685.501 309.789 685.378 309.789 685.133 309.789C685.992 307.952 686.482 307.094 687.341 305.256C686.482 303.786 685.992 303.051 685.133 301.703C685.378 301.703 685.501 301.703 685.746 301.703C686.482 302.928 686.85 303.541 687.709 304.766C688.445 303.173 688.814 302.438 689.55 300.845C689.795 300.845 689.918 300.845 690.163 300.723C689.304 302.561 688.814 303.418 687.955 305.134C688.936 306.604 689.304 307.462 690.286 308.932C690.04 308.932 689.918 308.932 689.672 308.932V309.054Z" fill="white"/>
<path d="M692.985 300.723C692.126 300.968 691.635 300.968 690.776 301.213C690.776 300.968 690.776 300.846 690.776 300.601C692.739 300.233 693.721 299.988 695.684 299.498C695.684 299.743 695.684 299.866 695.684 300.111C694.825 300.356 694.334 300.356 693.476 300.601C693.476 303.664 693.476 305.257 693.476 308.32C693.23 308.32 693.107 308.32 692.985 308.32C692.985 305.257 692.985 303.664 692.985 300.601V300.723Z" fill="white"/>
<path d="M737.5 241.5L721.5 246L719.5 513.5L772.5 594.5L985.5 536L737.5 478.5V241.5Z" fill="#FFD3D3"/>
<g opacity="0.3">
<path d="M862.423 319.663L916.165 305.584C933.638 301.011 946.712 300.65 955.448 304.441C964.184 308.231 968.462 316.053 968.462 327.846L968.1 401.611C968.1 413.404 963.642 423.512 954.845 431.936C946.049 440.359 932.975 446.858 915.503 451.43L861.76 465.51L862.423 319.663ZM914.9 430.733C920.624 429.228 925.082 426.942 928.155 423.934C931.228 420.925 932.794 416.894 932.854 411.9L933.216 336.089C933.216 331.095 931.71 327.906 928.637 326.462C925.564 325.078 921.106 325.078 915.382 326.582L897.488 331.275L897.006 435.426L914.9 430.733Z" fill="#E22126"/>
<path d="M1002.74 420.986C993.585 417.015 989.066 409.193 989.127 397.52L989.488 320.867C989.488 309.194 994.188 298.966 1003.35 290.181C1012.56 281.397 1025.76 274.718 1043.05 270.206C1060.34 265.693 1073.54 265.392 1082.63 269.423C1091.79 273.394 1096.31 281.216 1096.25 292.889L1095.89 369.542C1095.89 381.215 1091.19 391.443 1082.03 400.228C1072.81 409.012 1059.62 415.691 1042.33 420.204C1025.04 424.716 1011.84 425.017 1002.74 421.046V420.986ZM1060.76 380.192L1061.12 300.59C1061.12 291.024 1055.1 287.835 1042.99 290.963C1030.82 294.152 1024.73 300.53 1024.67 310.097L1024.31 389.699C1024.31 399.265 1030.34 402.454 1042.45 399.265C1054.62 396.076 1060.7 389.699 1060.76 380.132V380.192Z" fill="#E22126"/>
<path d="M1130.65 387.473C1121.49 383.502 1116.98 375.68 1117.04 364.008L1117.4 287.354C1117.4 275.682 1122.1 265.453 1131.25 256.669C1140.47 247.884 1153.67 241.205 1170.96 236.693C1188.25 232.18 1201.44 231.879 1210.54 235.911C1219.7 239.882 1224.22 247.704 1224.16 259.376L1223.8 336.03C1223.8 347.702 1219.1 357.931 1209.94 366.715C1200.72 375.5 1187.53 382.178 1170.24 386.691C1152.94 391.204 1139.75 391.504 1130.65 387.533V387.473ZM1188.67 346.679L1189.03 267.078C1189.03 257.511 1183.01 254.322 1170.9 257.451C1158.73 260.64 1152.64 267.017 1152.58 276.584L1152.22 356.186C1152.22 365.753 1158.25 368.941 1170.36 365.753C1182.53 362.564 1188.61 356.186 1188.67 346.619V346.679Z" fill="#E22126"/>
<path d="M1248.02 218.522L1300.13 204.864C1318.27 200.11 1331.46 199.388 1339.72 202.698C1348.03 206.007 1352.13 213.347 1352.07 224.719V233.684C1351.95 248.846 1344.24 260.398 1328.87 268.461V268.882C1337.37 268.341 1343.39 270.146 1346.89 274.357C1350.38 278.569 1352.13 285.007 1352.07 293.611L1351.95 319.242C1351.95 323.394 1352.13 326.703 1352.55 329.17C1352.97 331.637 1354 333.863 1355.68 335.909L1319.89 345.295C1318.63 343.249 1317.79 341.264 1317.36 339.278C1316.94 337.293 1316.76 333.622 1316.76 328.207L1316.88 301.553C1316.88 294.874 1315.26 290.663 1312 288.918C1308.69 287.173 1303.03 287.293 1294.89 289.459L1282.72 292.648L1282.42 355.163L1247.23 364.368L1247.9 218.522H1248.02ZM1295.67 268.461C1302.72 266.596 1307.97 264.069 1311.52 260.759C1315.07 257.45 1316.82 253.058 1316.82 247.522V236.271C1316.88 230.976 1315.5 227.547 1312.6 225.922C1309.71 224.298 1305.19 224.298 1299.05 225.922L1283.08 230.134L1282.9 271.83L1295.67 268.461Z" fill="#E22126"/>
</g>
<path d="M852.663 314.248L906.405 300.169C923.877 295.596 936.951 295.235 945.687 299.026C954.424 302.816 958.701 310.638 958.701 322.431L958.34 396.196C958.34 407.989 953.881 418.098 945.085 426.521C936.289 434.944 923.215 441.443 905.742 446.015L852 460.095L852.663 314.248ZM905.14 425.318C910.863 423.813 915.322 421.527 918.395 418.519C921.467 415.51 923.034 411.479 923.094 406.485L923.456 330.674C923.456 325.68 921.949 322.491 918.877 321.047C915.804 319.663 911.345 319.663 905.622 321.167L887.728 325.86L887.246 430.011L905.14 425.318Z" fill="#E22126"/>
<path d="M993.043 415.63C983.885 411.659 979.367 403.838 979.427 392.165L979.788 315.511C979.788 303.839 984.488 293.61 993.646 284.826C1002.86 276.041 1016.06 269.363 1033.35 264.85C1050.64 260.338 1063.84 260.037 1072.93 264.068C1082.09 268.039 1086.61 275.861 1086.55 287.533L1086.19 364.187C1086.19 375.86 1081.49 386.088 1072.33 394.873C1063.11 403.657 1049.92 410.336 1032.63 414.848C1015.34 419.361 1002.14 419.662 993.043 415.691V415.63ZM1051.06 374.837L1051.42 295.235C1051.42 285.668 1045.4 282.479 1033.29 285.608C1021.12 288.797 1015.03 295.175 1014.97 304.741L1014.61 384.343C1014.61 393.91 1020.64 397.099 1032.75 393.91C1044.92 390.721 1051 384.343 1051.06 374.776V374.837Z" fill="#E22126"/>
<path d="M1120.95 382.058C1111.79 378.087 1107.28 370.265 1107.34 358.593L1107.7 281.939C1107.7 270.266 1112.4 260.038 1121.55 251.253C1130.77 242.469 1143.97 235.79 1161.26 231.278C1178.55 226.765 1191.74 226.464 1200.84 230.496C1210 234.467 1214.52 242.288 1214.46 253.961L1214.1 330.615C1214.1 342.287 1209.4 352.516 1200.24 361.3C1191.02 370.085 1177.83 376.763 1160.54 381.276C1143.24 385.788 1130.05 386.089 1120.95 382.118V382.058ZM1178.97 341.264L1179.33 261.663C1179.33 252.096 1173.31 248.907 1161.2 252.036C1149.03 255.225 1142.94 261.602 1142.88 271.169L1142.52 350.771C1142.52 360.338 1148.55 363.526 1160.66 360.338C1172.83 357.149 1178.91 350.771 1178.97 341.204V341.264Z" fill="#E22126"/>
<path d="M1238.26 213.107L1290.37 199.449C1308.51 194.695 1321.7 193.973 1329.96 197.283C1338.27 200.592 1342.37 207.932 1342.31 219.304V228.269C1342.19 243.431 1334.48 254.983 1319.11 263.046V263.467C1327.61 262.925 1333.63 264.731 1337.13 268.942C1340.62 273.154 1342.37 279.592 1342.31 288.196L1342.19 313.827C1342.19 317.979 1342.37 321.288 1342.79 323.755C1343.21 326.222 1344.24 328.448 1345.92 330.494L1310.13 339.88C1308.87 337.834 1308.03 335.849 1307.6 333.863C1307.18 331.878 1307 328.207 1307 322.792L1307.12 296.138C1307.12 289.459 1305.5 285.248 1302.24 283.503C1298.93 281.758 1293.26 281.878 1285.13 284.044L1272.96 287.233L1272.66 349.747L1237.47 358.953L1238.14 213.107H1238.26ZM1285.91 263.046C1292.96 261.181 1298.21 258.654 1301.76 255.344C1305.31 252.035 1307.06 247.643 1307.06 242.107V230.856C1307.12 225.561 1305.74 222.132 1302.84 220.507C1299.95 218.883 1295.43 218.883 1289.29 220.507L1273.32 224.719L1273.14 266.415L1285.91 263.046Z" fill="#E22126"/>
<path d="M858.326 551.67C855.434 549.323 853.988 545.292 854.049 539.636L854.29 502.392C854.29 496.737 855.796 491.983 858.748 488.133C861.7 484.282 865.918 481.634 871.4 480.19C876.883 478.746 881.101 479.228 883.993 481.574C886.884 483.921 888.33 487.952 888.27 493.608L888.029 530.852C888.029 536.507 886.523 541.261 883.571 545.111C880.619 548.962 876.401 551.61 870.918 553.054C865.436 554.498 861.218 554.016 858.326 551.67ZM876.823 534.462L877.124 495.834C877.124 491.201 875.256 489.336 871.34 490.359C867.484 491.382 865.496 494.21 865.496 498.842L865.195 537.47C865.195 542.103 867.063 543.968 870.979 542.945C874.835 541.923 876.823 539.095 876.823 534.462Z" fill="#1D1D1B"/>
<path d="M895.982 474.835L925.625 467.134V477.242L907.128 482.055L907.008 501.79L921.467 498.06V508.168L906.947 511.899L906.706 542.765L895.5 545.653L895.982 474.835Z" fill="#1D1D1B"/>
<path d="M947.315 461.539L963.823 457.267C969.366 455.823 973.583 456.244 976.294 458.47C979.066 460.696 980.391 464.728 980.391 470.443V477.423C980.271 483.139 978.885 487.892 976.053 491.562C973.222 495.233 969.064 497.82 963.522 499.264L958.22 500.648L958.039 529.468L946.833 532.356L947.315 461.539ZM963.582 489.095C965.389 488.614 966.775 487.772 967.739 486.508C968.643 485.245 969.125 483.44 969.125 480.973V472.549C969.185 470.143 968.763 468.518 967.859 467.736C966.956 466.954 965.57 466.833 963.763 467.315L958.461 468.699L958.28 490.419L963.582 489.035V489.095Z" fill="#1D1D1B"/>
<path d="M989.73 517.615C986.838 515.269 985.392 511.237 985.452 505.581L985.693 468.338C985.693 462.682 987.199 457.929 990.151 454.078C993.104 450.227 997.321 447.58 1002.8 446.136C1008.29 444.692 1012.5 445.173 1015.4 447.52C1018.29 449.866 1019.73 453.897 1019.67 459.553L1019.43 496.797C1019.43 502.453 1017.93 507.206 1014.97 511.057C1012.02 514.907 1007.8 517.555 1002.32 518.999C996.839 520.443 992.622 519.962 989.73 517.615ZM1008.23 500.407L1008.53 461.779C1008.53 457.146 1006.66 455.281 1002.74 456.304C998.888 457.327 996.899 460.155 996.899 464.788L996.598 503.415C996.598 508.048 998.466 509.914 1002.38 508.891C1006.24 507.868 1008.23 505.04 1008.23 500.407Z" fill="#1D1D1B"/>
<path d="M1029.13 507.387C1026.36 505.04 1025.04 501.009 1025.04 495.293V491.262L1035.64 488.494V493.368C1035.58 497.941 1037.51 499.746 1041.36 498.723C1043.29 498.242 1044.74 497.279 1045.7 495.955C1046.67 494.571 1047.21 492.646 1047.21 490.179C1047.21 487.231 1046.55 484.764 1045.22 482.839C1043.89 480.913 1041.36 478.867 1037.75 476.641C1033.17 473.813 1029.98 470.986 1028.17 468.158C1026.36 465.39 1025.46 461.9 1025.52 457.809C1025.52 452.213 1027.02 447.52 1029.92 443.73C1032.81 439.939 1036.97 437.292 1042.39 435.908C1047.75 434.524 1051.79 435.005 1054.5 437.352C1057.21 439.698 1058.59 443.73 1058.53 449.506V452.454L1047.93 455.222V451.551C1047.93 449.145 1047.51 447.46 1046.55 446.618C1045.58 445.775 1044.2 445.535 1042.39 446.016C1038.65 446.979 1036.78 449.746 1036.72 454.259C1036.72 456.846 1037.39 459.012 1038.77 460.877C1040.16 462.743 1042.63 464.788 1046.3 467.014C1050.94 469.842 1054.14 472.67 1055.88 475.558C1057.63 478.386 1058.47 482.056 1058.47 486.509C1058.47 492.285 1056.97 497.158 1054.08 501.009C1051.18 504.86 1046.97 507.507 1041.48 508.951C1036.06 510.335 1031.96 509.914 1029.19 507.567L1029.13 507.387Z" fill="#1D1D1B"/>
<path d="M1067.03 497.578C1064.26 495.232 1062.93 491.201 1062.93 485.485V481.453L1073.54 478.686V483.559C1073.48 488.132 1075.4 489.937 1079.26 488.914C1081.19 488.433 1082.63 487.47 1083.6 486.147C1084.56 484.763 1085.1 482.837 1085.1 480.37C1085.1 477.422 1084.44 474.955 1083.12 473.03C1081.79 471.105 1079.26 469.059 1075.64 466.833C1071.07 464.005 1067.87 461.177 1066.07 458.349C1064.26 455.581 1063.35 452.092 1063.41 448C1063.41 442.405 1064.92 437.711 1067.81 433.921C1070.7 430.13 1074.86 427.483 1080.28 426.099C1085.65 424.715 1089.68 425.197 1092.39 427.543C1095.11 429.89 1096.49 433.921 1096.43 439.697V442.645L1085.83 445.413V441.743C1085.83 439.336 1085.41 437.651 1084.44 436.809C1083.48 435.967 1082.09 435.726 1080.28 436.207C1076.55 437.17 1074.68 439.938 1074.62 444.45C1074.62 447.037 1075.28 449.204 1076.67 451.069C1078.05 452.934 1080.52 454.98 1084.2 457.206C1088.84 460.034 1092.03 462.862 1093.78 465.75C1095.53 468.578 1096.37 472.248 1096.37 476.7C1096.37 482.476 1094.86 487.35 1091.97 491.201C1089.08 495.051 1084.86 497.699 1079.38 499.143C1073.96 500.527 1069.86 500.105 1067.09 497.759L1067.03 497.578Z" fill="#1D1D1B"/>
<path d="M1103.12 421.106L1114.32 418.218L1113.84 489.035L1102.64 491.923L1103.12 421.106Z" fill="#1D1D1B"/>
<path d="M1122.7 416.052L1139.63 411.66C1145.41 410.156 1149.57 410.397 1152.22 412.382C1154.87 414.368 1156.14 418.098 1156.08 423.633V426.461C1156.08 430.132 1155.41 433.2 1154.21 435.847C1153 438.435 1151.2 440.601 1148.73 442.225V442.406C1154.27 442.827 1157.04 447.039 1156.98 454.981V461.058C1156.92 466.533 1155.41 471.046 1152.52 474.656C1149.63 478.266 1145.35 480.793 1139.81 482.237L1122.22 486.81L1122.7 415.992V416.052ZM1139.87 472.189C1141.86 471.707 1143.3 470.805 1144.27 469.481C1145.23 468.218 1145.71 466.292 1145.71 463.705V457.508C1145.77 454.259 1145.23 452.153 1144.15 451.19C1143.06 450.228 1141.2 450.107 1138.61 450.769L1133.6 452.093L1133.42 473.813L1139.81 472.129L1139.87 472.189ZM1138.06 440.841C1140.29 440.24 1141.98 439.277 1143.12 437.833C1144.27 436.389 1144.81 434.343 1144.87 431.636V427.665C1144.87 425.077 1144.45 423.393 1143.55 422.43C1142.64 421.528 1141.2 421.347 1139.21 421.828L1133.79 423.212L1133.66 441.924L1138.06 440.781V440.841Z" fill="#1D1D1B"/>
<path d="M1163.79 405.342L1175 402.454L1174.51 473.272L1163.31 476.16L1163.79 405.342Z" fill="#1D1D1B"/>
<path d="M1183.37 400.288L1194.58 397.4L1194.16 458.11L1212.59 453.296V463.404L1182.89 471.106L1183.37 400.288Z" fill="#1D1D1B"/>
<path d="M1218.38 391.203L1229.58 388.314L1229.1 459.132L1217.89 462.02L1218.38 391.203Z" fill="#1D1D1B"/>
<path d="M1246.63 393.97L1234.94 397.039V386.931L1269.65 377.966V388.074L1257.84 391.143L1257.42 451.852L1246.21 454.74L1246.63 394.031V393.97Z" fill="#1D1D1B"/>
<path d="M1275.01 376.521L1286.22 373.633L1285.73 444.45L1274.53 447.338L1275.01 376.521Z" fill="#1D1D1B"/>
<path d="M1294.59 371.408L1325.14 363.466V373.574L1305.74 378.568L1305.62 397.28L1320.98 393.309V403.417L1305.56 407.388L1305.38 429.109L1324.72 424.115V434.223L1294.11 442.165L1294.59 371.348V371.408Z" fill="#1D1D1B"/>
<path d="M1333.51 428.447C1330.74 426.1 1329.41 422.069 1329.41 416.353V412.322L1340.02 409.554V414.427C1339.96 419 1341.89 420.805 1345.74 419.782C1347.67 419.301 1349.12 418.338 1350.08 417.015C1351.04 415.631 1351.59 413.705 1351.59 411.239C1351.59 408.29 1350.92 405.823 1349.6 403.898C1348.27 401.973 1345.74 399.927 1342.13 397.701C1337.55 394.873 1334.35 392.045 1332.55 389.217C1330.74 386.449 1329.84 382.96 1329.9 378.868C1329.9 373.273 1331.4 368.58 1334.29 364.789C1337.19 360.999 1341.34 358.351 1346.77 356.967C1352.13 355.583 1356.17 356.065 1358.88 358.411C1361.59 360.758 1362.97 364.789 1362.91 370.565V373.513L1352.31 376.281V372.611C1352.31 370.204 1351.89 368.52 1350.92 367.677C1349.96 366.835 1348.57 366.594 1346.77 367.075C1343.03 368.038 1341.16 370.806 1341.1 375.318C1341.1 377.906 1341.77 380.072 1343.15 381.937C1344.54 383.802 1347.01 385.848 1350.68 388.074C1355.32 390.902 1358.51 393.73 1360.26 396.618C1362.01 399.446 1362.85 403.116 1362.85 407.568C1362.85 413.344 1361.35 418.218 1358.45 422.069C1355.56 425.92 1351.35 428.567 1345.86 430.011C1340.44 431.395 1336.34 430.974 1333.57 428.627L1333.51 428.447Z" fill="#1D1D1B"/>
<path d="M859.049 293.009C855.916 290.422 854.349 286.029 854.349 279.832L854.53 238.978C854.53 232.781 856.157 227.546 859.35 223.274C862.543 219.063 867.122 216.114 873.087 214.55C879.051 212.986 883.63 213.467 886.763 216.054C889.896 218.642 891.463 223.034 891.463 229.231L891.282 270.085C891.282 276.282 889.655 281.517 886.462 285.789C883.269 290.061 878.69 292.949 872.725 294.513C866.76 296.077 862.182 295.596 859.049 293.009ZM879.172 274.056L879.353 231.638C879.353 226.523 877.304 224.538 873.087 225.621C868.869 226.704 866.76 229.833 866.76 234.947L866.58 277.365C866.58 282.479 868.628 284.465 872.846 283.382C877.063 282.299 879.172 279.17 879.172 274.056Z" fill="#1D1D1B"/>
<path d="M899.777 208.594L917.731 203.841C923.756 202.276 928.335 202.697 931.347 205.164C934.36 207.631 935.866 212.023 935.806 218.281V225.922C935.746 232.24 934.179 237.414 931.167 241.445C928.154 245.477 923.575 248.305 917.55 249.929L911.766 251.433L911.646 283.082L899.476 286.27L899.837 208.534L899.777 208.594ZM917.55 238.858C919.539 238.317 921.045 237.354 922.069 236.03C923.093 234.647 923.575 232.661 923.575 229.953V220.748C923.575 218.1 923.154 216.295 922.129 215.453C921.165 214.611 919.659 214.43 917.671 214.972L911.887 216.476L911.766 240.362L917.55 238.858Z" fill="#1D1D1B"/>
<path d="M942.494 197.341L975.691 188.617V199.748L954.604 205.284L954.483 225.861L971.172 221.469V232.6L954.423 236.992L954.302 260.879L975.329 255.343V266.474L942.072 275.199L942.433 197.462L942.494 197.341Z" fill="#1D1D1B"/>
<path d="M982.68 186.752L997.983 182.721L1009.61 226.162H1009.85L1010.09 179.592L1020.94 176.704L1020.58 254.441L1008.05 257.75L993.706 204.863H993.465L993.224 261.661L982.379 264.549L982.74 186.812L982.68 186.752Z" fill="#1D1D1B"/>
<path d="M1047.63 169.605L1062.93 165.573L1074.56 209.015H1074.8L1075.04 162.445L1085.89 159.557L1085.52 237.293L1072.99 240.603L1058.65 187.715H1058.41L1058.17 244.513L1047.33 247.401L1047.69 169.665L1047.63 169.605Z" fill="#1D1D1B"/>
<path d="M1094.92 157.21L1128.12 148.485V159.616L1107.03 165.152L1106.91 185.729L1123.6 181.337V192.468L1106.85 196.86L1106.73 220.747L1127.76 215.211V226.342L1094.5 235.067L1094.86 157.33L1094.92 157.21Z" fill="#1D1D1B"/>
<path d="M1132.22 147.343L1143.97 144.274L1149.15 202.577H1149.39L1155.41 141.266L1168.67 137.776L1174.15 196.018H1174.39L1180.12 134.768L1190.66 132L1182.47 211.843L1167.28 215.814L1161.98 164.852H1161.74L1155.96 218.762L1139.81 223.034L1132.28 147.343H1132.22Z" fill="#1D1D1B"/>
<path d="M860.977 594.208C864.771 594.208 867.846 591.138 867.846 587.349C867.846 583.561 864.771 580.49 860.977 580.49C857.184 580.49 854.109 583.561 854.109 587.349C854.109 591.138 857.184 594.208 860.977 594.208Z" fill="#E22126"/>
<path d="M880.558 588.613C884.352 588.613 887.427 585.542 887.427 581.754C887.427 577.965 884.352 574.895 880.558 574.895C876.765 574.895 873.69 577.965 873.69 581.754C873.69 585.542 876.765 588.613 880.558 588.613Z" fill="#E22126"/>
<path d="M900.139 583.378C903.932 583.378 907.007 580.308 907.007 576.519C907.007 572.731 903.932 569.66 900.139 569.66C896.346 569.66 893.271 572.731 893.271 576.519C893.271 580.308 896.346 583.378 900.139 583.378Z" fill="#E22126"/>
<path d="M984.01 547.479L917.2 565.356C914.243 566.148 912.488 569.183 913.281 572.136L913.717 573.763C914.51 576.716 917.549 578.469 920.506 577.677L987.315 559.8C990.272 559.009 992.027 555.974 991.235 553.021L990.798 551.393C990.006 548.44 986.966 546.688 984.01 547.479Z" fill="#E22126"/>
<path d="M157.331 352.877H152.959V348.531C152.959 347.128 151.832 346 150.43 346C149.028 346 147.901 347.128 147.901 348.531V352.877H143.529C142.127 352.877 141 354.005 141 355.408C141 356.811 142.127 357.939 143.529 357.939H147.873V362.313C147.873 363.716 149 364.844 150.402 364.844C151.805 364.844 152.932 363.716 152.932 362.313V357.939H157.303C158.705 357.939 159.832 356.811 159.832 355.408C159.832 354.005 158.705 352.877 157.303 352.877H157.331Z" fill="url(#paint0_linear_2729_608)"/>
<path d="M1773.65 252.417H1769.28V248.071C1769.28 246.668 1768.15 245.54 1766.75 245.54C1765.35 245.54 1764.22 246.668 1764.22 248.071V252.417H1759.88C1758.48 252.417 1757.35 253.545 1757.35 254.948C1757.35 256.351 1758.48 257.479 1759.88 257.479H1764.22V261.853C1764.22 263.256 1765.35 264.384 1766.75 264.384C1768.15 264.384 1769.28 263.256 1769.28 261.853V257.479H1773.65C1775.05 257.479 1776.18 256.351 1776.18 254.948C1776.18 253.545 1775.05 252.417 1773.65 252.417Z" fill="url(#paint1_linear_2729_608)"/>
<path d="M683.197 110.941H677.533V105.301C677.533 103.486 676.076 102 674.234 102C672.392 102 670.935 103.486 670.935 105.301V110.941H665.299C663.485 110.941 662 112.426 662 114.242C662 116.057 663.485 117.543 665.299 117.543H670.935V123.182C670.935 124.998 672.42 126.483 674.234 126.483C676.049 126.483 677.533 124.998 677.533 123.182V117.543H683.197C685.011 117.543 686.496 116.057 686.496 114.242C686.496 112.426 685.011 110.941 683.197 110.941Z" fill="#2E3240"/>
<path d="M1498.37 398.758C1491.55 398.758 1486 393.202 1486 386.379C1486 379.557 1491.55 374 1498.37 374C1505.19 374 1510.74 379.557 1510.74 386.379C1510.74 393.202 1505.19 398.758 1498.37 398.758ZM1498.37 376.531C1492.96 376.531 1488.53 380.96 1488.53 386.379C1488.53 391.799 1492.96 396.228 1498.37 396.228C1503.79 396.228 1508.21 391.799 1508.21 386.379C1508.21 380.96 1503.79 376.531 1498.37 376.531Z" fill="url(#paint2_linear_2729_608)"/>
<path d="M594.164 654C587.346 654 581.792 648.443 581.792 641.62C581.792 634.798 587.346 629.241 594.164 629.241C600.982 629.241 606.536 634.798 606.536 641.62C606.536 648.443 600.982 654 594.164 654ZM594.164 631.772C588.748 631.772 584.322 636.201 584.322 641.62C584.322 647.04 588.748 651.469 594.164 651.469C599.58 651.469 604.007 647.04 604.007 641.62C604.007 636.201 599.58 631.772 594.164 631.772Z" fill="#2E3240"/>
<path d="M1701.37 449.761C1696.21 449.761 1692 445.552 1692 440.381C1692 435.209 1696.21 431 1701.37 431C1706.54 431 1710.78 435.209 1710.78 440.381C1710.78 445.552 1706.57 449.761 1701.37 449.761ZM1701.37 432.898C1697.25 432.898 1693.9 436.254 1693.9 440.381C1693.9 444.507 1697.25 447.863 1701.37 447.863C1705.5 447.863 1708.85 444.507 1708.85 440.381C1708.85 436.254 1705.5 432.898 1701.37 432.898Z" fill="#2E3240"/>
<path d="M1288.78 577.066C1288.5 577.066 1288.2 577.011 1287.95 576.874C1287.38 576.571 1286.99 575.994 1286.96 575.333L1286 556.929C1285.97 556.269 1286.28 555.637 1286.83 555.306C1287.38 554.949 1288.06 554.894 1288.67 555.196L1305.08 563.559C1305.66 563.862 1306.04 564.44 1306.07 565.1C1306.1 565.76 1305.8 566.393 1305.25 566.723L1289.8 576.764C1289.49 576.956 1289.14 577.066 1288.81 577.066H1288.78ZM1289.82 559.928L1290.46 571.977L1300.57 565.402L1289.82 559.928Z" fill="url(#paint3_linear_2729_608)"/>
<path d="M469.902 291.912C469.586 291.912 469.322 291.859 469.058 291.701C468.478 291.384 468.055 290.803 468.003 290.117L467 271.003C467 270.317 467.317 269.683 467.844 269.314C468.425 268.944 469.164 268.891 469.744 269.208L486.788 277.92C487.421 278.237 487.791 278.818 487.843 279.504C487.843 280.19 487.527 280.824 486.999 281.194L470.958 291.648C470.641 291.859 470.272 291.965 469.902 291.965V291.912ZM470.958 274.066L471.591 286.579L482.092 279.768L470.905 274.066H470.958Z" fill="url(#paint4_linear_2729_608)"/>
<path d="M1307.51 113.937C1307.35 113.937 1307.21 113.91 1307.07 113.827C1306.77 113.662 1306.55 113.36 1306.52 113.002L1306 103.044C1306 102.686 1306.16 102.356 1306.44 102.163C1306.74 101.971 1307.13 101.943 1307.43 102.108L1316.31 106.647C1316.64 106.812 1316.83 107.115 1316.86 107.473C1316.86 107.83 1316.69 108.16 1316.42 108.353L1308.06 113.8C1307.9 113.91 1307.7 113.965 1307.51 113.965V113.937ZM1308.06 104.639L1308.39 111.159L1313.86 107.61L1308.03 104.639H1308.06Z" fill="#2E3240"/>
<path d="M400.726 550.399C397.482 550.399 395.805 548.831 394.321 547.428C392.863 546.052 391.599 544.869 388.932 544.869C386.265 544.869 385.028 546.052 383.543 547.428C382.059 548.831 380.382 550.399 377.165 550.399C373.948 550.399 372.244 548.831 370.787 547.428C369.33 546.052 368.065 544.869 365.398 544.869C362.731 544.869 361.494 546.052 360.01 547.428C358.525 548.831 356.848 550.399 353.631 550.399C350.415 550.399 348.71 548.831 347.253 547.428C345.796 546.052 344.531 544.869 341.892 544.869V543.384C345.136 543.384 346.786 544.952 348.27 546.355C349.727 547.73 350.992 548.913 353.659 548.913C356.326 548.913 357.563 547.73 359.047 546.355C360.532 544.952 362.209 543.384 365.426 543.384C368.642 543.384 370.347 544.952 371.804 546.355C373.261 547.73 374.526 548.913 377.193 548.913C379.859 548.913 381.097 547.73 382.581 546.355C384.066 544.952 385.743 543.384 388.959 543.384C392.176 543.384 393.881 544.952 395.365 546.355C396.822 547.73 398.087 548.913 400.754 548.913C403.421 548.913 404.658 547.73 406.142 546.355C407.627 544.952 409.304 543.384 412.548 543.384V544.869C409.909 544.869 408.617 546.052 407.16 547.428C405.675 548.831 403.998 550.399 400.781 550.399H400.726Z" fill="url(#paint5_linear_2729_608)"/>
<path d="M1568.46 186.308C1564.64 186.308 1562.66 184.437 1560.9 182.787C1559.17 181.164 1557.66 179.761 1554.52 179.761C1551.39 179.761 1549.91 181.164 1548.17 182.787C1546.41 184.437 1544.44 186.308 1540.61 186.308C1536.79 186.308 1534.81 184.437 1533.05 182.787C1531.32 181.164 1529.84 179.761 1526.7 179.761C1523.57 179.761 1522.08 181.164 1520.35 182.787C1518.59 184.437 1516.61 186.308 1512.79 186.308C1508.97 186.308 1506.99 184.437 1505.23 182.787C1503.5 181.164 1502.01 179.761 1498.88 179.761C1498.38 179.761 1498 179.375 1498 178.88C1498 178.385 1498.38 178 1498.88 178C1502.7 178 1504.68 179.871 1506.44 181.521C1508.17 183.144 1509.66 184.547 1512.79 184.547C1515.93 184.547 1517.41 183.144 1519.14 181.521C1520.9 179.871 1522.88 178 1526.7 178C1530.52 178 1532.5 179.871 1534.26 181.521C1535.99 183.144 1537.48 184.547 1540.61 184.547C1543.75 184.547 1545.23 183.144 1546.96 181.521C1548.72 179.871 1550.7 178 1554.52 178C1558.35 178 1560.33 179.871 1562.09 181.521C1563.82 183.144 1565.3 184.547 1568.44 184.547C1571.57 184.547 1573.05 183.144 1574.79 181.521C1576.55 179.871 1578.53 178 1582.35 178C1582.84 178 1583.23 178.385 1583.23 178.88C1583.23 179.375 1582.84 179.761 1582.35 179.761C1579.21 179.761 1577.7 181.164 1576 182.787C1574.24 184.437 1572.26 186.308 1568.44 186.308H1568.46Z" fill="#2E3240"/>
<path d="M-58.2841 508.126C-17.5413 491.567 19.179 459.985 67.8147 469.941C169.495 490.766 166.14 628.597 256.72 668.89C344.557 707.988 439.828 619.152 521.005 679.496C557.604 706.706 568.704 757.09 611.392 774.459C665.93 796.665 707.392 747.933 753.656 740.258C802.928 732.108 860.742 764.498 889.8 806.263C941.613 880.714 927.705 1012.45 860.927 1061.04C797.602 1107.11 694.226 1092.19 603.7 1070.09C319.241 1000.67 45.3378 881.109 -225.982 762.453C-303.861 728.393 -384.001 692.909 -445.619 637.282C-665.53 438.8 -483.094 190.75 -387.467 248.636C-362.444 263.794 -365.046 284.715 -365.325 305.869C-367.5 471.361 -176.911 556.328 -58.269 508.143L-58.2841 508.126Z" fill="url(#paint6_linear_2729_608)"/>
</g>
<defs>
<linearGradient id="paint0_linear_2729_608" x1="141" y1="355.436" x2="159.887" y2="355.436" gradientUnits="userSpaceOnUse">
<stop stop-color="#B62025"/>
<stop offset="0.39" stop-color="#D11E28"/>
<stop offset="0.75" stop-color="#E51E2A"/>
<stop offset="1" stop-color="#EC1E2B"/>
</linearGradient>
<linearGradient id="paint1_linear_2729_608" x1="1757.32" y1="254.976" x2="1776.21" y2="254.976" gradientUnits="userSpaceOnUse">
<stop stop-color="#B62025"/>
<stop offset="0.39" stop-color="#D11E28"/>
<stop offset="0.75" stop-color="#E51E2A"/>
<stop offset="1" stop-color="#EC1E2B"/>
</linearGradient>
<linearGradient id="paint2_linear_2729_608" x1="1486" y1="386.379" x2="1510.74" y2="386.379" gradientUnits="userSpaceOnUse">
<stop stop-color="#B62025"/>
<stop offset="0.39" stop-color="#D11E28"/>
<stop offset="0.75" stop-color="#E51E2A"/>
<stop offset="1" stop-color="#EC1E2B"/>
</linearGradient>
<linearGradient id="paint3_linear_2729_608" x1="1286" y1="566.035" x2="1306.07" y2="566.035" gradientUnits="userSpaceOnUse">
<stop stop-color="#B62025"/>
<stop offset="0.39" stop-color="#D11E28"/>
<stop offset="0.75" stop-color="#E51E2A"/>
<stop offset="1" stop-color="#EC1E2B"/>
</linearGradient>
<linearGradient id="paint4_linear_2729_608" x1="467" y1="280.454" x2="487.843" y2="280.454" gradientUnits="userSpaceOnUse">
<stop stop-color="#B62025"/>
<stop offset="0.39" stop-color="#D11E28"/>
<stop offset="0.75" stop-color="#E51E2A"/>
<stop offset="1" stop-color="#EC1E2B"/>
</linearGradient>
<linearGradient id="paint5_linear_2729_608" x1="341.892" y1="546.877" x2="412.493" y2="546.877" gradientUnits="userSpaceOnUse">
<stop stop-color="#B62025"/>
<stop offset="0.39" stop-color="#D11E28"/>
<stop offset="0.75" stop-color="#E51E2A"/>
<stop offset="1" stop-color="#EC1E2B"/>
</linearGradient>
<linearGradient id="paint6_linear_2729_608" x1="261.132" y1="529.553" x2="131.063" y2="784.363" gradientUnits="userSpaceOnUse">
<stop stop-color="#FF0000"/>
<stop offset="1" stop-color="#9E002F"/>
</linearGradient>
<clipPath id="clip0_2729_608">
<rect width="1920" height="730" fill="white"/>
</clipPath>
</defs>
</svg>
