<svg width="237" height="59" viewBox="0 0 237 59" fill="none" xmlns="http://www.w3.org/2000/svg">
<path d="M15.9301 10.1611L15.3341 12.8144L12.6353 12.566L14.963 13.9548L13.8947 16.45L15.9301 14.6548L17.9542 16.45L16.886 13.9548L19.2137 12.566L16.5261 12.8144L15.9301 10.1611Z" fill="#C32126"/>
<path d="M52.9717 15.0379C52.9717 17.759 52.4882 20.1526 51.5323 22.2074C50.5765 24.2623 49.2046 25.843 47.4166 26.9608C45.6286 28.0786 43.582 28.6318 41.2767 28.6318C38.9714 28.6318 36.9585 28.0786 35.1593 26.9834C33.3713 25.8769 31.9769 24.3075 30.9985 22.2639C30.009 20.2203 29.5142 17.8606 29.5029 15.2073V13.8411C29.5029 11.1201 29.9865 8.71516 30.9648 6.64897C31.9431 4.58279 33.3263 2.99081 35.1143 1.88433C36.9023 0.777851 38.9377 0.224609 41.243 0.224609C43.5482 0.224609 45.5836 0.777851 47.3716 1.88433C49.1596 2.99081 50.5428 4.58279 51.5211 6.64897C52.4994 8.72645 52.9942 11.1201 52.9942 13.8298V15.0605L52.9717 15.0379ZM47.2142 13.7847C47.2142 10.883 46.6969 8.68129 45.6623 7.16835C44.6278 5.65541 43.1546 4.91023 41.2317 4.91023C39.3088 4.91023 37.8581 5.6554 36.8236 7.14576C35.789 8.63613 35.2717 10.8152 35.2492 13.6943V15.0492C35.2492 17.8719 35.7665 20.0622 36.8011 21.6316C37.8356 23.1897 39.3313 23.9688 41.2654 23.9688C43.1996 23.9688 44.639 23.2123 45.6623 21.722C46.6856 20.2203 47.2029 18.0299 47.2142 15.1508V13.8072V13.7847Z" fill="url(#paint0_linear_2529_1441)"/>
<path d="M57.0647 28.7218V0.19043H65.8023C68.2987 0.19043 70.5365 0.754961 72.5044 1.88402C74.4723 3.01308 76.0129 4.61636 77.115 6.70512C78.217 8.79389 78.7793 11.1536 78.7793 13.8069V15.1166C78.7793 17.7699 78.2395 20.1297 77.1487 22.1846C76.0579 24.2507 74.5286 25.8427 72.5494 26.9831C70.5702 28.1234 68.3437 28.688 65.8585 28.7105H57.0535L57.0647 28.7218ZM62.9235 4.95507V24.0023H65.7573C68.0513 24.0023 69.7943 23.2572 71.0088 21.7442C72.212 20.2426 72.8418 18.0974 72.8643 15.2973V13.7843C72.8643 10.8827 72.2683 8.69226 71.065 7.19061C69.8618 5.70025 68.1188 4.94379 65.8135 4.94379H62.9235V4.95507Z" fill="url(#paint1_linear_2529_1441)"/>
<path d="M99.3921 16.3925H88.1244V24.0475H101.349V28.7783H82.2656V0.19043H101.315V4.96636H88.1244V11.7746H99.3921V16.3925Z" fill="url(#paint2_linear_2529_1441)"/>
<mask id="mask0_2529_1441" style="mask-type:luminance" maskUnits="userSpaceOnUse" x="219" y="17" width="4" height="10">
<path d="M222.549 17.2158V26.4403C222.549 26.5193 222.527 26.587 222.47 26.6435C222.425 26.6999 222.335 26.7564 222.223 26.7903C222.111 26.8354 221.953 26.858 221.762 26.8806C221.571 26.9032 221.323 26.9145 221.031 26.9145C220.739 26.9145 220.503 26.9145 220.3 26.8806C220.109 26.858 219.951 26.8241 219.839 26.7903C219.727 26.7564 219.648 26.6999 219.592 26.6435C219.547 26.5758 219.513 26.508 219.513 26.4403V17.2158H222.527H222.549Z" fill="white"/>
</mask>
<g mask="url(#mask0_2529_1441)">
<path d="M220.379 17.2158H219.535V26.9258H220.379V17.2158Z" fill="#0E1E2F"/>
<path d="M220.491 17.2158H220.367V26.9258H220.491V17.2158Z" fill="#0E1E2F"/>
<path d="M220.626 17.2158H220.502V26.9258H220.626V17.2158Z" fill="#0D1D2E"/>
<path d="M220.75 17.2158H220.626V26.9258H220.75V17.2158Z" fill="#0D1C2D"/>
<path d="M220.873 17.2158H220.75V26.9258H220.873V17.2158Z" fill="#0C1B2C"/>
<path d="M221.009 17.2158H220.885V26.9258H221.009V17.2158Z" fill="#0B1A2B"/>
<path d="M221.132 17.2158H221.009V26.9258H221.132V17.2158Z" fill="#0B1A2B"/>
<path d="M221.267 17.2158H221.144V26.9258H221.267V17.2158Z" fill="#0B192A"/>
<path d="M221.391 17.2158H221.267V26.9258H221.391V17.2158Z" fill="#0B1829"/>
<path d="M221.514 17.2158H221.391V26.9258H221.514V17.2158Z" fill="#0A1828"/>
<path d="M221.65 17.2158H221.526V26.9258H221.65V17.2158Z" fill="#0A1827"/>
<path d="M221.773 17.2158H221.649V26.9258H221.773V17.2158Z" fill="#0A1726"/>
<path d="M221.908 17.2158H221.784V26.9258H221.908V17.2158Z" fill="#0A1725"/>
<path d="M222.032 17.2158H221.908V26.9258H222.032V17.2158Z" fill="#0B1624"/>
<path d="M222.155 17.2158H222.031V26.9258H222.155V17.2158Z" fill="#0A1523"/>
<path d="M222.29 17.2158H222.167V26.9258H222.29V17.2158Z" fill="#0A1522"/>
<path d="M222.414 17.2158H222.291V26.9258H222.414V17.2158Z" fill="#0B1521"/>
<path d="M222.538 17.2158H222.415V26.9258H222.538V17.2158Z" fill="#0A1420"/>
</g>
<mask id="mask1_2529_1441" style="mask-type:luminance" maskUnits="userSpaceOnUse" x="219" y="11" width="4" height="6">
<path d="M222.549 12.4185V16.2461H219.536V12.4185C219.536 12.3395 219.558 12.2718 219.614 12.2153C219.659 12.1589 219.749 12.1024 219.862 12.0685C219.985 12.0347 220.132 12.0008 220.323 11.9782C220.514 11.9556 220.75 11.9443 221.043 11.9443C221.335 11.9443 221.582 11.9556 221.773 11.9782C221.965 12.0008 222.111 12.0347 222.234 12.0685C222.347 12.1024 222.437 12.1589 222.482 12.2153C222.527 12.2718 222.561 12.3508 222.561 12.4185" fill="white"/>
</mask>
<g mask="url(#mask1_2529_1441)">
<path d="M219.581 11.9316H219.536V16.2446H219.581V11.9316Z" fill="#B62025"/>
<path d="M219.614 11.9316H219.569V16.2446H219.614V11.9316Z" fill="#B92025"/>
<path d="M219.659 11.9316H219.614V16.2446H219.659V11.9316Z" fill="#B92025"/>
<path d="M219.704 11.9316H219.659V16.2446H219.704V11.9316Z" fill="#BA2025"/>
<path d="M219.749 11.9316H219.704V16.2446H219.749V11.9316Z" fill="#BD2026"/>
<path d="M219.783 11.9316H219.738V16.2446H219.783V11.9316Z" fill="#BE2026"/>
<path d="M219.828 11.9316H219.783V16.2446H219.828V11.9316Z" fill="#BF2026"/>
<path d="M219.873 11.9316H219.828V16.2446H219.873V11.9316Z" fill="#C02026"/>
<path d="M219.918 11.9316H219.873V16.2446H219.918V11.9316Z" fill="#C22026"/>
<path d="M219.963 11.9316H219.918V16.2446H219.963V11.9316Z" fill="#C32126"/>
<path d="M219.997 11.9316H219.952V16.2446H219.997V11.9316Z" fill="#C52127"/>
<path d="M220.041 11.9316H219.996V16.2446H220.041V11.9316Z" fill="#C62026"/>
<path d="M220.086 11.9316H220.041V16.2446H220.086V11.9316Z" fill="#C72026"/>
<path d="M220.131 11.9316H220.086V16.2446H220.131V11.9316Z" fill="#CA2027"/>
<path d="M220.165 11.9316H220.12V16.2446H220.165V11.9316Z" fill="#CA2026"/>
<path d="M220.21 11.9316H220.165V16.2446H220.21V11.9316Z" fill="#CC2027"/>
<path d="M220.255 11.9316H220.21V16.2446H220.255V11.9316Z" fill="#CD2027"/>
<path d="M220.3 11.9316H220.255V16.2446H220.3V11.9316Z" fill="#CE2027"/>
<path d="M220.345 11.9316H220.3V16.2446H220.345V11.9316Z" fill="#D02027"/>
<path d="M220.379 11.9316H220.334V16.2446H220.379V11.9316Z" fill="#D12027"/>
<path d="M220.424 11.9316H220.379V16.2446H220.424V11.9316Z" fill="#D22027"/>
<path d="M220.469 11.9316H220.424V16.2446H220.469V11.9316Z" fill="#D32027"/>
<path d="M220.514 11.9316H220.469V16.2446H220.514V11.9316Z" fill="#D51F26"/>
<path d="M220.548 11.9316H220.503V16.2446H220.548V11.9316Z" fill="#D71F26"/>
<path d="M220.593 11.9316H220.548V16.2446H220.593V11.9316Z" fill="#D81F26"/>
<path d="M220.637 11.9316H220.592V16.2446H220.637V11.9316Z" fill="#D91F26"/>
<path d="M220.682 11.9316H220.637V16.2446H220.682V11.9316Z" fill="#DA1F26"/>
<path d="M220.727 11.9316H220.682V16.2446H220.727V11.9316Z" fill="#DA1F26"/>
<path d="M220.761 11.9316H220.716V16.2446H220.761V11.9316Z" fill="#DB1F26"/>
<path d="M220.806 11.9316H220.761V16.2446H220.806V11.9316Z" fill="#DD1F26"/>
<path d="M220.851 11.9316H220.806V16.2446H220.851V11.9316Z" fill="#DE1F26"/>
<path d="M220.896 11.9316H220.851V16.2446H220.896V11.9316Z" fill="#DF1F26"/>
<path d="M220.93 11.9316H220.885V16.2446H220.93V11.9316Z" fill="#DF1E26"/>
<path d="M220.975 11.9316H220.93V16.2446H220.975V11.9316Z" fill="#E11F26"/>
<path d="M221.02 11.9316H220.975V16.2446H221.02V11.9316Z" fill="#E31E26"/>
<path d="M221.065 11.9316H221.02V16.2446H221.065V11.9316Z" fill="#E31E25"/>
<path d="M221.11 11.9316H221.065V16.2446H221.11V11.9316Z" fill="#E31E25"/>
<path d="M221.143 11.9316H221.098V16.2446H221.143V11.9316Z" fill="#E51E25"/>
<path d="M221.189 11.9316H221.144V16.2446H221.189V11.9316Z" fill="#E71E25"/>
<path d="M221.234 11.9316H221.189V16.2446H221.234V11.9316Z" fill="#E81E25"/>
<path d="M221.278 11.9316H221.233V16.2446H221.278V11.9316Z" fill="#E91D25"/>
<path d="M221.312 11.9316H221.267V16.2446H221.312V11.9316Z" fill="#EA1D25"/>
<path d="M221.357 11.9316H221.312V16.2446H221.357V11.9316Z" fill="#EB1D25"/>
<path d="M221.402 11.9316H221.357V16.2446H221.402V11.9316Z" fill="#EC1C24"/>
<path d="M221.447 11.9316H221.402V16.2446H221.447V11.9316Z" fill="#EC1C24"/>
<path d="M221.492 11.9316H221.447V16.2446H221.492V11.9316Z" fill="#EC1C24"/>
<path d="M221.526 11.9316H221.481V16.2446H221.526V11.9316Z" fill="#EC1C24"/>
<path d="M221.571 11.9316H221.526V16.2446H221.571V11.9316Z" fill="#EC1C24"/>
<path d="M221.616 11.9316H221.571V16.2446H221.616V11.9316Z" fill="#EC1C24"/>
<path d="M221.661 11.9316H221.616V16.2446H221.661V11.9316Z" fill="#EC1C24"/>
<path d="M221.695 11.9316H221.65V16.2446H221.695V11.9316Z" fill="#EC1C24"/>
<path d="M221.739 11.9316H221.694V16.2446H221.739V11.9316Z" fill="#EC1C24"/>
<path d="M221.784 11.9316H221.74V16.2446H221.784V11.9316Z" fill="#EC1C24"/>
<path d="M221.83 11.9316H221.785V16.2446H221.83V11.9316Z" fill="#EC1C24"/>
<path d="M221.875 11.9316H221.83V16.2446H221.875V11.9316Z" fill="#EC1C25"/>
<path d="M221.908 11.9316H221.863V16.2446H221.908V11.9316Z" fill="#EC1C25"/>
<path d="M221.953 11.9316H221.908V16.2446H221.953V11.9316Z" fill="#EC1C26"/>
<path d="M221.999 11.9316H221.954V16.2446H221.999V11.9316Z" fill="#EC1C26"/>
<path d="M222.043 11.9316H221.998V16.2446H222.043V11.9316Z" fill="#EC1C27"/>
<path d="M222.077 11.9316H222.032V16.2446H222.077V11.9316Z" fill="#EC1C27"/>
<path d="M222.122 11.9316H222.077V16.2446H222.122V11.9316Z" fill="#EC1C28"/>
<path d="M222.167 11.9316H222.122V16.2446H222.167V11.9316Z" fill="#EC1C29"/>
<path d="M222.212 11.9316H222.167V16.2446H222.212V11.9316Z" fill="#EC1C29"/>
<path d="M222.256 11.9316H222.211V16.2446H222.256V11.9316Z" fill="#EC1C29"/>
<path d="M222.291 11.9316H222.246V16.2446H222.291V11.9316Z" fill="#EC1C29"/>
<path d="M222.335 11.9316H222.29V16.2446H222.335V11.9316Z" fill="#EC1C2A"/>
<path d="M222.38 11.9316H222.335V16.2446H222.38V11.9316Z" fill="#EC1C2A"/>
<path d="M222.426 11.9316H222.381V16.2446H222.426V11.9316Z" fill="#EC1C2A"/>
<path d="M222.46 11.9316H222.415V16.2446H222.46V11.9316Z" fill="#EC1E2B"/>
<path d="M222.504 11.9316H222.459V16.2446H222.504V11.9316Z" fill="#EC1E2B"/>
<path d="M222.549 11.9316H222.504V16.2446H222.549V11.9316Z" fill="#EC1E2B"/>
</g>
<mask id="mask2_2529_1441" style="mask-type:luminance" maskUnits="userSpaceOnUse" x="220" y="9" width="2" height="3">
<path d="M221.346 9.78711H220.075V11.063H221.346V9.78711Z" fill="white"/>
</mask>
<g mask="url(#mask2_2529_1441)">
<path d="M220.435 9.78711H220.075V11.063H220.435V9.78711Z" fill="#0E1E2F"/>
<path d="M220.491 9.78711H220.435V11.063H220.491V9.78711Z" fill="#0E1E2F"/>
<path d="M220.547 9.78711H220.491V11.063H220.547V9.78711Z" fill="#0D1D2E"/>
<path d="M220.592 9.78711H220.536V11.063H220.592V9.78711Z" fill="#0D1C2D"/>
<path d="M220.649 9.78711H220.592V11.063H220.649V9.78711Z" fill="#0C1B2C"/>
<path d="M220.705 9.78711H220.649V11.063H220.705V9.78711Z" fill="#0B1A2B"/>
<path d="M220.761 9.78711H220.705V11.063H220.761V9.78711Z" fill="#0B1A2B"/>
<path d="M220.817 9.78711H220.761V11.063H220.817V9.78711Z" fill="#0B192A"/>
<path d="M220.862 9.78711H220.806V11.063H220.862V9.78711Z" fill="#0B1829"/>
<path d="M220.919 9.78711H220.862V11.063H220.919V9.78711Z" fill="#0A1828"/>
<path d="M220.975 9.78711H220.918V11.063H220.975V9.78711Z" fill="#0A1827"/>
<path d="M221.031 9.78711H220.975V11.063H221.031V9.78711Z" fill="#0A1726"/>
<path d="M221.087 9.78711H221.031V11.063H221.087V9.78711Z" fill="#0A1725"/>
<path d="M221.144 9.78711H221.087V11.063H221.144V9.78711Z" fill="#0B1624"/>
<path d="M221.189 9.78711H221.132V11.063H221.189V9.78711Z" fill="#0A1523"/>
<path d="M221.245 9.78711H221.189V11.063H221.245V9.78711Z" fill="#0A1522"/>
<path d="M221.301 9.78711H221.244V11.063H221.301V9.78711Z" fill="#0B1521"/>
<path d="M221.357 9.78711H221.301V11.063H221.357V9.78711Z" fill="#0A1420"/>
</g>
<mask id="mask3_2529_1441" style="mask-type:luminance" maskUnits="userSpaceOnUse" x="221" y="8" width="2" height="2">
<path d="M222.695 8.43066H221.65V9.48068H222.695V8.43066Z" fill="white"/>
</mask>
<g mask="url(#mask3_2529_1441)">
<path d="M221.942 8.43066H221.65V9.48068H221.942V8.43066Z" fill="#0E1E2F"/>
<path d="M221.987 8.43066H221.942V9.48068H221.987V8.43066Z" fill="#0E1E2F"/>
<path d="M222.032 8.43066H221.987V9.48068H222.032V8.43066Z" fill="#0D1D2E"/>
<path d="M222.076 8.43066H222.031V9.48068H222.076V8.43066Z" fill="#0D1C2D"/>
<path d="M222.122 8.43066H222.077V9.48068H222.122V8.43066Z" fill="#0C1B2C"/>
<path d="M222.167 8.43066H222.122V9.48068H222.167V8.43066Z" fill="#0B1A2B"/>
<path d="M222.212 8.43066H222.167V9.48068H222.212V8.43066Z" fill="#0B1A2B"/>
<path d="M222.245 8.43066H222.2V9.48068H222.245V8.43066Z" fill="#0B192A"/>
<path d="M222.291 8.43066H222.246V9.48068H222.291V8.43066Z" fill="#0B1829"/>
<path d="M222.335 8.43066H222.29V9.48068H222.335V8.43066Z" fill="#0A1828"/>
<path d="M222.381 8.43066H222.336V9.48068H222.381V8.43066Z" fill="#0A1827"/>
<path d="M222.426 8.43066H222.381V9.48068H222.426V8.43066Z" fill="#0A1726"/>
<path d="M222.47 8.43066H222.425V9.48068H222.47V8.43066Z" fill="#0A1725"/>
<path d="M222.516 8.43066H222.471V9.48068H222.516V8.43066Z" fill="#0B1624"/>
<path d="M222.56 8.43066H222.515V9.48068H222.56V8.43066Z" fill="#0A1523"/>
<path d="M222.605 8.43066H222.56V9.48068H222.605V8.43066Z" fill="#0A1522"/>
<path d="M222.65 8.43066H222.605V9.48068H222.65V8.43066Z" fill="#0B1521"/>
<path d="M222.696 8.43066H222.651V9.48068H222.696V8.43066Z" fill="#0A1420"/>
</g>
<mask id="mask4_2529_1441" style="mask-type:luminance" maskUnits="userSpaceOnUse" x="224" y="11" width="12" height="11">
<path d="M235.617 13.241C235.617 13.4668 235.617 13.6587 235.583 13.8055C235.561 13.9636 235.538 14.0878 235.493 14.1894C235.459 14.2797 235.415 14.3588 235.347 14.4039C235.291 14.4491 235.223 14.4717 235.156 14.4717H231.456V21.3364H228.442V14.4717H224.732C224.653 14.4717 224.597 14.4491 224.54 14.4039C224.484 14.3588 224.439 14.2797 224.405 14.1894C224.372 14.0878 224.338 13.9636 224.315 13.8055C224.293 13.6474 224.293 13.4555 224.293 13.241C224.293 13.0265 224.293 12.812 224.315 12.6539C224.338 12.4958 224.36 12.3603 224.405 12.27C224.439 12.1797 224.495 12.1006 224.54 12.0668C224.597 12.0216 224.664 11.999 224.732 11.999H235.156C235.223 11.999 235.291 12.0216 235.347 12.0668C235.403 12.1119 235.448 12.1797 235.493 12.27C235.538 12.3603 235.561 12.4958 235.583 12.6539C235.606 12.812 235.617 13.0152 235.617 13.241Z" fill="white"/>
</mask>
<g mask="url(#mask4_2529_1441)">
<path d="M227.453 12.0088H224.293V21.3461H227.453V12.0088Z" fill="#0E1E2F"/>
<path d="M227.936 12.0088H227.453V21.3461H227.936V12.0088Z" fill="#0E1E2F"/>
<path d="M228.42 12.0088H227.937V21.3461H228.42V12.0088Z" fill="#0D1D2E"/>
<path d="M228.892 12.0088H228.409V21.3461H228.892V12.0088Z" fill="#0D1C2D"/>
<path d="M229.376 12.0088H228.893V21.3461H229.376V12.0088Z" fill="#0C1B2C"/>
<path d="M229.86 12.0088H229.376V21.3461H229.86V12.0088Z" fill="#0B1A2B"/>
<path d="M230.332 12.0088H229.848V21.3461H230.332V12.0088Z" fill="#0B1A2B"/>
<path d="M230.816 12.0088H230.332V21.3461H230.816V12.0088Z" fill="#0B192A"/>
<path d="M231.299 12.0088H230.816V21.3461H231.299V12.0088Z" fill="#0B1829"/>
<path d="M231.771 12.0088H231.288V21.3461H231.771V12.0088Z" fill="#0A1828"/>
<path d="M232.255 12.0088H231.771V21.3461H232.255V12.0088Z" fill="#0A1827"/>
<path d="M232.738 12.0088H232.255V21.3461H232.738V12.0088Z" fill="#0A1726"/>
<path d="M233.211 12.0088H232.727V21.3461H233.211V12.0088Z" fill="#0A1725"/>
<path d="M233.694 12.0088H233.211V21.3461H233.694V12.0088Z" fill="#0B1624"/>
<path d="M234.178 12.0088H233.694V21.3461H234.178V12.0088Z" fill="#0A1523"/>
<path d="M234.662 12.0088H234.178V21.3461H234.662V12.0088Z" fill="#0A1522"/>
<path d="M235.133 12.0088H234.65V21.3461H235.133V12.0088Z" fill="#0B1521"/>
<path d="M235.617 12.0088H235.134V21.3461H235.617V12.0088Z" fill="#0A1420"/>
</g>
<mask id="mask5_2529_1441" style="mask-type:luminance" maskUnits="userSpaceOnUse" x="228" y="22" width="4" height="5">
<path d="M231.467 22.3096V26.4419C231.467 26.521 231.445 26.5887 231.389 26.6452C231.344 26.7016 231.254 26.7581 231.141 26.7919C231.029 26.8371 230.871 26.8597 230.68 26.8823C230.489 26.9049 230.242 26.9161 229.949 26.9161C229.657 26.9161 229.421 26.9161 229.218 26.8823C229.027 26.8597 228.87 26.8258 228.757 26.7919C228.645 26.7581 228.566 26.7016 228.51 26.6452C228.465 26.5774 228.442 26.5097 228.442 26.4419V22.3096H231.456H231.467Z" fill="white"/>
</mask>
<g mask="url(#mask5_2529_1441)">
<path d="M228.487 22.3096H228.442V26.9161H228.487V22.3096Z" fill="#B62025"/>
<path d="M228.533 22.3096H228.488V26.9161H228.533V22.3096Z" fill="#B92025"/>
<path d="M228.578 22.3096H228.533V26.9161H228.578V22.3096Z" fill="#B92025"/>
<path d="M228.623 22.3096H228.578V26.9161H228.623V22.3096Z" fill="#BA2025"/>
<path d="M228.667 22.3096H228.622V26.9161H228.667V22.3096Z" fill="#BD2026"/>
<path d="M228.701 22.3096H228.656V26.9161H228.701V22.3096Z" fill="#BE2026"/>
<path d="M228.746 22.3096H228.701V26.9161H228.746V22.3096Z" fill="#BF2026"/>
<path d="M228.791 22.3096H228.746V26.9161H228.791V22.3096Z" fill="#C02026"/>
<path d="M228.836 22.3096H228.791V26.9161H228.836V22.3096Z" fill="#C22026"/>
<path d="M228.87 22.3096H228.825V26.9161H228.87V22.3096Z" fill="#C32126"/>
<path d="M228.915 22.3096H228.87V26.9161H228.915V22.3096Z" fill="#C52127"/>
<path d="M228.96 22.3096H228.915V26.9161H228.96V22.3096Z" fill="#C62026"/>
<path d="M229.005 22.3096H228.96V26.9161H229.005V22.3096Z" fill="#C72026"/>
<path d="M229.05 22.3096H229.005V26.9161H229.05V22.3096Z" fill="#CA2027"/>
<path d="M229.083 22.3096H229.038V26.9161H229.083V22.3096Z" fill="#CA2026"/>
<path d="M229.128 22.3096H229.083V26.9161H229.128V22.3096Z" fill="#CC2027"/>
<path d="M229.174 22.3096H229.129V26.9161H229.174V22.3096Z" fill="#CD2027"/>
<path d="M229.219 22.3096H229.174V26.9161H229.219V22.3096Z" fill="#CE2027"/>
<path d="M229.252 22.3096H229.207V26.9161H229.252V22.3096Z" fill="#D02027"/>
<path d="M229.297 22.3096H229.252V26.9161H229.297V22.3096Z" fill="#D12027"/>
<path d="M229.342 22.3096H229.297V26.9161H229.342V22.3096Z" fill="#D22027"/>
<path d="M229.387 22.3096H229.342V26.9161H229.387V22.3096Z" fill="#D32027"/>
<path d="M229.432 22.3096H229.387V26.9161H229.432V22.3096Z" fill="#D51F26"/>
<path d="M229.466 22.3096H229.421V26.9161H229.466V22.3096Z" fill="#D71F26"/>
<path d="M229.511 22.3096H229.466V26.9161H229.511V22.3096Z" fill="#D81F26"/>
<path d="M229.556 22.3096H229.511V26.9161H229.556V22.3096Z" fill="#D91F26"/>
<path d="M229.601 22.3096H229.556V26.9161H229.601V22.3096Z" fill="#DA1F26"/>
<path d="M229.635 22.3096H229.59V26.9161H229.635V22.3096Z" fill="#DA1F26"/>
<path d="M229.679 22.3096H229.635V26.9161H229.679V22.3096Z" fill="#DB1F26"/>
<path d="M229.724 22.3096H229.679V26.9161H229.724V22.3096Z" fill="#DD1F26"/>
<path d="M229.77 22.3096H229.725V26.9161H229.77V22.3096Z" fill="#DE1F26"/>
<path d="M229.815 22.3096H229.77V26.9161H229.815V22.3096Z" fill="#DF1F26"/>
<path d="M229.848 22.3096H229.803V26.9161H229.848V22.3096Z" fill="#DF1E26"/>
<path d="M229.893 22.3096H229.848V26.9161H229.893V22.3096Z" fill="#E11F26"/>
<path d="M229.938 22.3096H229.893V26.9161H229.938V22.3096Z" fill="#E31E26"/>
<path d="M229.983 22.3096H229.938V26.9161H229.983V22.3096Z" fill="#E31E25"/>
<path d="M230.017 22.3096H229.972V26.9161H230.017V22.3096Z" fill="#E31E25"/>
<path d="M230.062 22.3096H230.017V26.9161H230.062V22.3096Z" fill="#E51E25"/>
<path d="M230.107 22.3096H230.062V26.9161H230.107V22.3096Z" fill="#E71E25"/>
<path d="M230.152 22.3096H230.107V26.9161H230.152V22.3096Z" fill="#E81E25"/>
<path d="M230.197 22.3096H230.152V26.9161H230.197V22.3096Z" fill="#E91D25"/>
<path d="M230.23 22.3096H230.185V26.9161H230.23V22.3096Z" fill="#EA1D25"/>
<path d="M230.276 22.3096H230.231V26.9161H230.276V22.3096Z" fill="#EB1D25"/>
<path d="M230.32 22.3096H230.275V26.9161H230.32V22.3096Z" fill="#EC1C24"/>
<path d="M230.366 22.3096H230.321V26.9161H230.366V22.3096Z" fill="#EC1C24"/>
<path d="M230.399 22.3096H230.354V26.9161H230.399V22.3096Z" fill="#EC1C24"/>
<path d="M230.444 22.3096H230.399V26.9161H230.444V22.3096Z" fill="#EC1C24"/>
<path d="M230.489 22.3096H230.444V26.9161H230.489V22.3096Z" fill="#EC1C24"/>
<path d="M230.534 22.3096H230.489V26.9161H230.534V22.3096Z" fill="#EC1C24"/>
<path d="M230.579 22.3096H230.534V26.9161H230.579V22.3096Z" fill="#EC1C24"/>
<path d="M230.613 22.3096H230.568V26.9161H230.613V22.3096Z" fill="#EC1C24"/>
<path d="M230.658 22.3096H230.613V26.9161H230.658V22.3096Z" fill="#EC1C24"/>
<path d="M230.703 22.3096H230.658V26.9161H230.703V22.3096Z" fill="#EC1C24"/>
<path d="M230.748 22.3096H230.703V26.9161H230.748V22.3096Z" fill="#EC1C24"/>
<path d="M230.782 22.3096H230.737V26.9161H230.782V22.3096Z" fill="#EC1C25"/>
<path d="M230.826 22.3096H230.781V26.9161H230.826V22.3096Z" fill="#EC1C25"/>
<path d="M230.871 22.3096H230.826V26.9161H230.871V22.3096Z" fill="#EC1C26"/>
<path d="M230.917 22.3096H230.872V26.9161H230.917V22.3096Z" fill="#EC1C26"/>
<path d="M230.961 22.3096H230.916V26.9161H230.961V22.3096Z" fill="#EC1C27"/>
<path d="M230.995 22.3096H230.95V26.9161H230.995V22.3096Z" fill="#EC1C27"/>
<path d="M231.04 22.3096H230.995V26.9161H231.04V22.3096Z" fill="#EC1C28"/>
<path d="M231.085 22.3096H231.04V26.9161H231.085V22.3096Z" fill="#EC1C29"/>
<path d="M231.13 22.3096H231.085V26.9161H231.13V22.3096Z" fill="#EC1C29"/>
<path d="M231.164 22.3096H231.119V26.9161H231.164V22.3096Z" fill="#EC1C29"/>
<path d="M231.209 22.3096H231.164V26.9161H231.209V22.3096Z" fill="#EC1C29"/>
<path d="M231.254 22.3096H231.209V26.9161H231.254V22.3096Z" fill="#EC1C2A"/>
<path d="M231.299 22.3096H231.254V26.9161H231.299V22.3096Z" fill="#EC1C2A"/>
<path d="M231.344 22.3096H231.299V26.9161H231.344V22.3096Z" fill="#EC1C2A"/>
<path d="M231.378 22.3096H231.333V26.9161H231.378V22.3096Z" fill="#EC1E2B"/>
<path d="M231.422 22.3096H231.377V26.9161H231.422V22.3096Z" fill="#EC1E2B"/>
<path d="M231.468 22.3096H231.423V26.9161H231.468V22.3096Z" fill="#EC1E2B"/>
</g>
<path d="M216.005 11.0537H215.308V7.03418H219.322V7.73421H216.005V11.0537Z" fill="black"/>
<path d="M237 28.8154H232.996V28.1153H236.302V24.7959H237V28.8154Z" fill="black"/>
<path d="M219.322 28.8154H215.308V24.7959H216.005V28.1153H219.322V28.8154Z" fill="black"/>
<path d="M237 11.0537H236.302V7.73421H232.996V7.03418H237V11.0537Z" fill="black"/>
<path d="M113.549 28.8122V0.00976562H116.833C121.297 6.91963 131.789 23.0088 133.6 26.1363H133.645C133.397 21.9813 133.442 17.736 133.442 13.0504V0.00976562H135.691V28.8122H132.655C128.393 22.1507 117.733 5.39539 115.686 2.23402H115.641C115.843 6.01638 115.81 10.2165 115.81 15.4441V28.8234H113.561L113.549 28.8122Z" fill="black"/>
<path d="M160.971 14.6557H146.341V26.7592H162.365L162.039 28.8141H144.125V0.0117188H161.713V2.06662H146.341V12.6008H160.971V14.6557Z" fill="black"/>
<path d="M185.722 28.8137L177.074 15.852H177.029L168.46 28.8137H165.874L175.668 14.1584L166.279 0H168.865L177.063 12.3068H177.108L185.474 0H188.061L178.39 13.9891L188.353 28.8024H185.733L185.722 28.8137Z" fill="black"/>
<path d="M200.194 2.06662H190.556V0.0117188H212.114V2.06662H202.443V28.8141H200.194V2.06662Z" fill="black"/>
<path d="M26.4669 21.7226C22.6548 28.1357 14.4907 30.5744 7.7661 27.1421C1.04145 23.7097 -2.07348 14.9369 1.49126 7.88026C4.97728 0.970404 13.2763 -1.87483 20.2146 1.35429C15.4578 0.744593 10.6336 3.13822 8.3396 7.66576C5.42709 13.424 7.72111 20.4693 13.4674 23.3936C17.8531 25.6291 22.9921 24.8049 26.4669 21.7113V21.7226Z" fill="url(#paint3_linear_2529_1441)"/>
<path d="M165.473 50.8761V38.4979C164.644 38.7608 163.916 39.0237 163.289 39.2867C162.662 39.5294 161.974 39.8631 161.226 40.2879C161.084 40.389 160.973 40.4699 160.892 40.5306C160.832 40.571 160.781 40.6115 160.74 40.6519C160.7 40.6722 160.66 40.7025 160.619 40.7429C160.579 40.7632 160.518 40.8036 160.437 40.8643C160.376 40.9047 160.275 40.9857 160.134 41.107C160.134 41.1272 160.124 41.1475 160.103 41.1677C160.083 41.1879 160.063 41.2081 160.043 41.2284C160.002 41.2486 159.962 41.2789 159.921 41.3194C158.89 42.452 158.374 43.7566 158.374 45.2331C158.374 46.0623 158.566 46.8511 158.951 47.5995C159.638 48.7726 160.569 49.6018 161.742 50.0873C162.915 50.5525 164.159 50.8154 165.473 50.8761ZM167.445 35.8887C167.546 35.9292 167.637 35.9798 167.718 36.0404L167.991 36.2225C168.234 36.3641 168.487 36.5259 168.75 36.7079C169.397 37.1529 170.014 37.6282 170.601 38.1338C171.268 37.2237 172.34 36.3539 173.816 35.5247C175.414 34.5943 177.255 34.0988 179.338 34.0381C179.439 34.0381 179.49 34.0785 179.49 34.1594C179.49 35.3123 178.519 35.9191 176.577 35.9798C176.011 36 175.242 36.182 174.272 36.5259C173.604 36.7281 172.502 37.3753 170.965 38.4675L171.389 38.8316C172.198 39.6002 172.866 40.4497 173.392 41.3801C173.918 42.2902 174.181 43.2914 174.181 44.3836C174.181 45.3544 173.938 46.2646 173.452 47.1141C172.967 47.9433 172.3 48.6715 171.45 49.2985H171.42C171.379 49.3389 171.278 49.4097 171.116 49.5108C170.955 49.612 170.772 49.7131 170.57 49.8142C170.388 49.9153 170.226 49.9659 170.085 49.9659C169.984 49.9659 169.923 49.9052 169.903 49.7839L169.933 49.1468C169.933 48.7422 169.872 48.3681 169.751 48.0242C169.63 47.6602 169.397 47.3568 169.053 47.1141C169.033 47.0938 169.023 47.0635 169.023 47.0231C169.023 46.8815 169.144 46.659 169.387 46.3556C169.65 46.0522 169.953 45.7792 170.297 45.5365C170.661 45.2735 170.975 45.1421 171.238 45.1421C171.319 45.1421 171.379 45.1522 171.42 45.1724C171.46 45.1724 171.501 45.1926 171.541 45.2331C171.561 45.2533 171.592 45.2735 171.632 45.2937C171.45 44.1611 171.005 43.1397 170.297 42.2295C169.589 41.2991 168.811 40.5002 167.961 39.8328V51.0581C167.961 51.1592 167.921 51.2604 167.84 51.3615C167.779 51.4626 167.708 51.5536 167.627 51.6345C167.607 51.675 167.587 51.7053 167.567 51.7256C167.304 52.0087 167 52.2615 166.657 52.484C166.616 52.5042 166.535 52.5548 166.414 52.6357C166.313 52.6964 166.181 52.7571 166.019 52.8177C165.878 52.8784 165.756 52.9088 165.655 52.9088L165.322 52.9391H164.472C163.238 52.9391 162.025 52.7975 160.831 52.5144C159.638 52.211 158.607 51.7053 157.737 50.9974C156.867 50.2895 156.291 49.3288 156.008 48.1152C155.927 47.7107 155.886 47.3163 155.886 46.932C155.886 45.4353 156.311 44.0802 157.161 42.8667C158.03 41.6531 159.122 40.6014 160.437 39.7114C161.752 38.8013 163.107 38.063 164.502 37.4967C164.502 37.4765 164.513 37.4664 164.533 37.4664C164.533 37.4461 164.543 37.4259 164.563 37.4057C164.563 37.3855 164.573 37.3551 164.594 37.3147C163.056 36.3641 161.115 35.8786 158.768 35.8584C157.717 35.8584 156.796 35.9393 156.008 36.1011C154.875 36.3438 153.742 36.8495 152.61 37.6181C152.225 37.881 151.942 38.0125 151.76 38.0125C151.639 38.0125 151.568 37.9316 151.548 37.7697C151.548 37.5473 151.983 37.1023 152.852 36.4348C154.996 34.837 157.464 34.0381 160.255 34.0381L161.135 34.0684C163.198 34.0684 165.301 34.6752 167.445 35.8887Z" fill="url(#paint4_linear_2529_1441)"/>
<path d="M151.409 50.8761V38.4979C150.681 38.7204 149.963 38.9833 149.255 39.2867C148.831 39.4485 148.426 39.6204 148.042 39.8024L147.374 40.1665L147.162 40.2879L147.041 40.3789L146.707 40.5912H146.677L146.07 41.107C146.07 41.1272 146.06 41.1475 146.04 41.1677C146.019 41.1879 145.989 41.2081 145.949 41.2284L145.857 41.3194C145.716 41.4812 145.605 41.6127 145.524 41.7138C145.443 41.8149 145.342 41.9565 145.22 42.1385C145.079 42.3812 144.957 42.6138 144.856 42.8363L144.735 43.079C144.452 43.7869 144.31 44.5151 144.31 45.2634C144.31 46.0724 144.502 46.8511 144.887 47.5995C145.574 48.7726 146.505 49.6018 147.678 50.0873C148.851 50.5525 150.095 50.8154 151.409 50.8761ZM146.191 55.1538H145.827C144.856 55.1538 143.946 54.901 143.097 54.3954C143.076 54.3751 143.066 54.3448 143.066 54.3043C143.066 54.183 143.198 53.9706 143.461 53.6672C143.724 53.3638 144.027 53.0807 144.371 52.8177C144.715 52.5548 145.018 52.4233 145.281 52.4233C145.382 52.4233 145.463 52.4436 145.524 52.484C146.252 52.929 147 53.1515 147.769 53.1515H148.042C148.264 53.1515 148.365 53.2121 148.345 53.3335C148.345 53.4346 148.305 53.5459 148.224 53.6672C148.143 53.8088 148.062 53.9201 147.981 54.001C147.698 54.2841 147.395 54.5369 147.071 54.7594C146.95 54.8403 146.808 54.9212 146.646 55.0021C146.484 55.1033 146.333 55.1538 146.191 55.1538ZM153.503 35.9798C153.725 35.8382 153.978 35.6865 154.261 35.5247C155.859 34.5943 157.7 34.0988 159.783 34.0381C159.884 34.0381 159.935 34.0785 159.935 34.1594C159.935 35.3123 158.964 35.9191 157.022 35.9798C156.456 36 155.687 36.182 154.716 36.5259C154.453 36.6068 154.18 36.718 153.897 36.8596V51.0581C153.897 51.1592 153.857 51.2604 153.776 51.3615C153.715 51.4626 153.644 51.5536 153.564 51.6345C153.543 51.675 153.523 51.7053 153.503 51.7256C153.24 52.0087 152.937 52.2615 152.593 52.484C152.552 52.5042 152.471 52.5548 152.35 52.6357C152.229 52.6964 152.097 52.7571 151.956 52.8177C151.814 52.8784 151.693 52.9088 151.592 52.9088L151.258 52.9391H150.408C149.458 52.9391 148.517 52.8683 147.587 52.7267C146.677 52.5851 145.797 52.2919 144.947 51.8469C143.39 51.0379 142.389 49.794 141.944 48.1152C141.863 47.7107 141.822 47.3163 141.822 46.932C141.822 45.5162 142.257 44.1813 143.127 42.9273C144.017 41.6126 145.099 40.5306 146.373 39.6811C147.647 38.8114 149.003 38.0832 150.439 37.4967C148.841 36.4247 146.798 35.8786 144.31 35.8584C143.258 35.8584 142.338 35.9393 141.549 36.1011C140.417 36.3438 139.284 36.8495 138.151 37.6181C137.767 37.881 137.484 38.0125 137.302 38.0125C137.181 38.0125 137.11 37.9316 137.09 37.7697C137.09 37.5473 137.524 37.1023 138.394 36.4348C140.538 34.837 143.006 34.0381 145.797 34.0381L146.677 34.0684C149.164 34.0684 151.44 34.6954 153.503 35.9494V35.9798Z" fill="url(#paint5_linear_2529_1441)"/>
<path d="M138.619 37.345V51.0278C138.619 51.1289 138.579 51.23 138.498 51.3312C138.437 51.4323 138.366 51.5233 138.285 51.6042C138.265 51.6447 138.245 51.675 138.225 51.6952C137.962 51.9784 137.658 52.2312 137.315 52.4537L137.284 52.484C137.183 52.5447 137.031 52.6256 136.829 52.7267C136.647 52.8279 136.485 52.8784 136.344 52.8784C136.222 52.8784 136.152 52.8076 136.131 52.6661V36.0708C135.868 35.9697 135.525 35.9595 135.1 36.0404C134.695 36.1011 134.281 36.2124 133.856 36.3742C133.431 36.5157 133.077 36.6472 132.794 36.7686C132.632 36.8495 132.481 36.9203 132.339 36.9809C132.238 37.0416 132.117 37.1124 131.975 37.1933C131.833 37.2944 131.692 37.3855 131.55 37.4664C131.388 37.5473 131.257 37.5877 131.156 37.5877C131.055 37.5877 130.984 37.5574 130.943 37.4967L130.883 37.345C130.883 37.2237 130.954 37.0821 131.095 36.9203C131.217 36.7585 131.358 36.6169 131.52 36.4955C131.662 36.3539 131.773 36.2528 131.854 36.1921C132.521 35.7067 133.391 35.2516 134.463 34.8269C135.535 34.3819 136.809 34.119 138.285 34.0381H138.498C138.599 34.0381 138.639 34.0887 138.619 34.1898V36.2832C138.923 36.0404 139.317 35.7876 139.802 35.5247C141.4 34.5943 143.241 34.0988 145.324 34.0381C145.425 34.0381 145.476 34.0785 145.476 34.1594C145.476 35.3123 144.505 35.9191 142.563 35.9798C141.997 36 141.228 36.182 140.257 36.5259C139.772 36.6877 139.226 36.9607 138.619 37.345Z" fill="url(#paint6_linear_2529_1441)"/>
<path d="M130.107 50.8761V38.4979C128.752 38.9024 127.407 39.4586 126.072 40.1665C125.708 40.3688 125.273 40.6823 124.768 41.107C124.768 41.1475 124.717 41.198 124.616 41.2587C124.151 41.7846 123.797 42.3104 123.554 42.8363C123.19 43.5644 123.008 44.3634 123.008 45.2331C123.008 46.0623 123.2 46.8511 123.584 47.5995C124.778 49.6423 126.952 50.7345 130.107 50.8761ZM132.595 51.0581C132.595 51.2199 132.484 51.4121 132.261 51.6345C132.16 51.857 131.837 52.1402 131.29 52.484C131.25 52.5042 131.169 52.5548 131.048 52.6357C130.947 52.6964 130.825 52.7571 130.684 52.8177C130.542 52.8582 130.299 52.8987 129.956 52.9391H129.106C124.353 52.9391 121.531 51.3311 120.642 48.1152C120.561 47.7107 120.52 47.3163 120.52 46.932C120.52 45.5162 120.955 44.1712 121.825 42.897C122.715 41.6025 123.797 40.5205 125.071 39.6507C126.325 38.8215 127.66 38.1136 129.076 37.527C129.096 37.5068 129.116 37.4967 129.136 37.4967C127.539 36.4247 125.496 35.8786 123.008 35.8584C121.956 35.8584 121.036 35.9393 120.247 36.1011C119.115 36.3438 117.982 36.8495 116.849 37.6181C116.465 37.881 116.182 38.0125 116 38.0125C115.878 38.0125 115.808 37.9316 115.787 37.7697C115.787 37.5473 116.222 37.1023 117.092 36.4348C119.236 34.837 121.703 34.0381 124.495 34.0381L125.374 34.0684C127.862 34.0684 130.148 34.6954 132.231 35.9494C132.453 35.8078 132.696 35.6663 132.959 35.5247C134.557 34.5943 136.397 34.0988 138.481 34.0381C138.582 34.0381 138.632 34.0785 138.632 34.1594C138.632 35.3123 137.662 35.9191 135.72 35.9798C135.154 36 134.385 36.182 133.414 36.5259C133.151 36.6068 132.868 36.7281 132.565 36.8899L132.595 37.0416V51.0581Z" fill="url(#paint7_linear_2529_1441)"/>
<path d="M117.317 37.345V51.0278C117.317 51.1289 117.276 51.23 117.196 51.3312C117.135 51.4323 117.064 51.5233 116.983 51.6042C116.963 51.6447 116.943 51.675 116.923 51.6952C116.66 51.9784 116.356 52.2312 116.012 52.4537L115.982 52.484C115.881 52.5447 115.729 52.6256 115.527 52.7267C115.345 52.8279 115.183 52.8784 115.042 52.8784C114.92 52.8784 114.849 52.8076 114.829 52.6661V36.0708C114.566 35.9697 114.222 35.9595 113.798 36.0404C113.393 36.1011 112.978 36.2124 112.554 36.3742C112.129 36.5157 111.775 36.6472 111.492 36.7686C111.33 36.8495 111.178 36.9203 111.037 36.9809C110.936 37.0416 110.814 37.1124 110.673 37.1933C110.531 37.2944 110.39 37.3855 110.248 37.4664C110.086 37.5473 109.955 37.5877 109.854 37.5877C109.752 37.5877 109.682 37.5574 109.641 37.4967L109.581 37.345C109.581 37.2237 109.651 37.0821 109.793 36.9203C109.914 36.7585 110.056 36.6169 110.218 36.4955C110.359 36.3539 110.471 36.2528 110.551 36.1921C111.219 35.7067 112.089 35.2516 113.161 34.8269C114.232 34.3819 115.507 34.119 116.983 34.0381H117.196C117.297 34.0381 117.337 34.0887 117.317 34.1898V36.2832C117.62 36.0404 118.015 35.7876 118.5 35.5247C120.098 34.5943 121.939 34.0988 124.022 34.0381C124.123 34.0381 124.173 34.0785 124.173 34.1594C124.173 35.3123 123.203 35.9191 121.261 35.9798C120.695 36 119.926 36.182 118.955 36.5259C118.47 36.6877 117.924 36.9607 117.317 37.345Z" fill="url(#paint8_linear_2529_1441)"/>
<path d="M100.715 47.9029C100.877 47.9029 101.029 47.8827 101.17 47.8422C101.211 47.7613 101.241 47.6703 101.261 47.5691C101.302 47.468 101.332 47.3871 101.352 47.3264C101.372 47.2658 101.393 47.2152 101.413 47.1747C101.554 46.75 101.726 46.0118 101.929 44.96C101.18 44.7375 100.412 44.5757 99.6229 44.4746C99.1779 44.5151 98.9453 44.5454 98.9251 44.5656C98.9049 44.5656 98.8847 44.5656 98.8644 44.5656C98.8038 44.8286 98.7734 45.0915 98.7734 45.3544C98.7734 46.1432 99.0566 46.8208 99.6229 47.3871C99.9667 47.731 100.331 47.9029 100.715 47.9029ZM108.785 45.6882V38.2855C106.742 36.8899 104.518 36.1618 102.111 36.1011C103.749 37.8001 104.568 39.7317 104.568 41.8958C104.568 42.2801 104.538 42.6543 104.477 43.0183C105.59 43.3824 106.601 43.8982 107.511 44.5656C107.996 44.8892 108.421 45.2634 108.785 45.6882ZM97.3172 35.9191C96.8317 35.9595 96.3868 36.0202 95.9823 36.1011C94.8496 36.3438 93.717 36.8495 92.5843 37.6181C92.2 37.881 91.9169 38.0125 91.7348 38.0125C91.6135 38.0125 91.5427 37.9316 91.5225 37.7697C91.5225 37.5473 91.9573 37.1023 92.827 36.4348C94.971 34.837 97.4385 34.0381 100.23 34.0381C105.63 34.0381 109.129 34.7157 110.727 36.0708C112.588 34.7966 114.732 34.119 117.159 34.0381C117.26 34.0381 117.31 34.0785 117.31 34.1594C117.31 35.3123 116.34 35.9191 114.398 35.9798C113.832 36 113.063 36.182 112.092 36.5259C111.809 36.6068 111.516 36.7281 111.212 36.8899C111.253 37.0517 111.273 41.7745 111.273 51.0581C111.273 51.1997 111.192 51.3615 111.03 51.5435L110.909 51.7256C110.626 52.0087 110.322 52.2615 109.999 52.484L109.756 52.6054C109.432 52.8076 109.18 52.9088 108.998 52.9088C108.836 52.9088 108.755 52.7874 108.755 52.5447C108.229 49.4906 106.601 47.2152 103.87 45.7185C103.526 46.9725 102.748 47.9939 101.534 48.7827C100.685 49.4704 99.7341 49.8547 98.6824 49.9356C98.0756 49.9356 97.5599 49.6929 97.1351 49.2074C96.6497 48.6613 96.3564 47.9332 96.2553 47.0231C96.2553 46.1938 96.5385 45.4556 97.1048 44.8083C98.3992 43.3318 99.8656 42.5532 101.504 42.4722L101.747 42.4419L101.989 42.4722C101.565 40.1261 100.007 37.9417 97.3172 35.9191Z" fill="url(#paint9_linear_2529_1441)"/>
<path d="M90.275 34.099C90.4975 34.0181 90.8009 33.9878 91.1852 34.008C91.5695 34.008 91.9234 34.0181 92.2471 34.0384L92.4291 34.008C92.4695 34.008 92.51 34.0181 92.5505 34.0384C92.5909 34.0586 92.6212 34.0889 92.6415 34.1294C93.1673 34.9384 93.4303 35.798 93.4303 36.7082C93.4303 37.0925 93.3797 37.4869 93.2786 37.8914C93.1775 38.2757 93.0561 38.6498 92.9145 39.0139C92.7932 39.3982 92.6819 39.7825 92.5808 40.1668C92.3583 41.0163 92.0246 41.9466 91.5796 42.9579C90.8515 44.576 90.3256 46.3255 90.002 48.2065C89.6784 50.0875 90.1436 51.9888 91.3976 53.9102C91.6201 54.2338 91.8223 54.4968 92.0043 54.699C92.1864 54.9215 92.4493 55.1238 92.7932 55.3058C93.6426 55.7305 94.5427 55.9732 95.4933 56.0339L96.8889 56.0946C97.435 56.0946 97.971 56.0541 98.4968 55.9732C98.9418 55.8923 99.3767 55.7912 99.8014 55.6699C99.9834 55.5081 100.206 55.3361 100.469 55.1541C100.752 54.9721 100.995 54.8811 101.197 54.8811C101.298 54.9013 101.369 54.9215 101.409 54.9417C101.45 54.9822 101.47 55.0429 101.47 55.1238C101.47 55.2653 101.389 55.4272 101.227 55.6092C101.086 55.7912 100.964 55.9227 100.863 56.0036L100.833 56.0339C99.9834 56.8227 99.0328 57.3587 97.9811 57.6419C96.9496 57.9453 95.8776 58.097 94.7652 58.097C93.5314 58.0767 92.3583 57.8644 91.2459 57.4598C90.1537 57.0756 89.3447 56.5497 88.8188 55.8822C88.1513 55.0125 87.6861 53.8698 87.4232 52.454C87.1603 51.0179 87.2108 49.3999 87.5749 47.5998C87.8985 46.1233 88.4446 44.7277 89.2132 43.413C89.5166 42.8467 89.8099 42.2601 90.093 41.6534C90.6593 40.5814 90.9425 39.4892 90.9425 38.3768C90.9425 37.5678 90.72 36.8194 90.275 36.1317C89.7492 35.3227 89.7492 34.6451 90.275 34.099Z" fill="url(#paint10_linear_2529_1441)"/>
<path d="M66.0621 34.3111C66.8104 34.1493 67.579 34.0583 68.3678 34.0381C71.6242 34.0381 74.0614 34.6651 75.6794 35.9191C75.8615 35.7775 76.0738 35.646 76.3166 35.5247C77.9144 34.5943 79.7549 34.0988 81.8382 34.0381C81.9393 34.0381 81.9899 34.0785 81.9899 34.1594C81.9899 35.3123 81.0191 35.9191 79.0774 35.9798C78.5111 36 77.7425 36.182 76.7716 36.5259C76.5087 36.6068 76.2357 36.718 75.9525 36.8596V51.0581C75.9525 51.2199 75.8412 51.4121 75.6188 51.6345C75.5176 51.857 75.1536 52.1604 74.5266 52.5447C74.1221 52.7874 73.8288 52.9088 73.6467 52.9088C73.5254 52.9088 73.4546 52.838 73.4344 52.6964V52.2413C73.4141 52.2211 73.404 52.2009 73.404 52.1806C73.404 52.1402 73.3939 52.1098 73.3737 52.0896C73.2523 51.5031 73.1411 50.8963 73.04 50.2693C72.9186 49.3794 72.7467 48.5097 72.5242 47.6602C71.8568 45.2735 70.1679 43.7364 67.4577 43.0487L67.4273 43.9588C67.4475 44.6263 67.4577 45.3039 67.4577 45.9915C67.8015 45.6882 68.1858 45.4556 68.6105 45.2937C68.6914 45.2331 68.8027 45.2027 68.9442 45.2027C69.0858 45.2027 69.1566 45.2634 69.1566 45.3848C69.1566 45.4859 69.0959 45.6275 68.9746 45.8095C68.3274 46.7803 67.8521 47.822 67.5487 48.9344C67.3666 49.5209 66.861 50.0468 66.0317 50.512C65.6879 50.694 65.4351 50.7851 65.2733 50.7851C65.0508 50.7851 64.9395 48.5703 64.9395 44.1409C64.9395 43.5139 64.9598 43.0285 65.0002 42.6846C65.0407 42.3408 65.2025 42.0273 65.4856 41.7441C66.2744 40.9958 66.9722 40.6216 67.579 40.6216C69.5814 40.8441 71.3107 41.461 72.7669 42.4722C73.0299 42.6543 73.2523 42.8565 73.4344 43.079V38.2855L73.404 38.2552C71.3612 36.8596 69.0959 36.1416 66.6082 36.1011C65.6576 36.1011 64.8384 36.182 64.1507 36.3438C63.4833 36.5056 63.008 36.6472 62.7248 36.7686C62.563 36.8495 62.4518 36.9 62.3911 36.9203C62.3506 36.9405 62.3203 36.9506 62.3001 36.9506V36.9809H62.2697C62.1686 37.0416 62.0473 37.1124 61.9057 37.1933C61.7641 37.2944 61.6225 37.3855 61.4809 37.4664C61.3191 37.5473 61.1877 37.5877 61.0865 37.5877C60.9854 37.5877 60.9146 37.5574 60.8742 37.4967L60.8135 37.345C60.8135 37.2237 60.8843 37.0821 61.0258 36.9203C61.1472 36.7585 61.2888 36.6169 61.4506 36.4955C61.5922 36.3539 61.7034 36.2528 61.7843 36.1921C62.4518 35.7067 63.3215 35.2415 64.3934 34.7966C64.8991 34.5943 65.4553 34.4325 66.0621 34.3111Z" fill="url(#paint11_linear_2529_1441)"/>
<path d="M61.7059 37.345V51.0278C61.7059 51.1289 61.6654 51.23 61.5845 51.3312C61.5238 51.4323 61.453 51.5233 61.3721 51.6042C61.3519 51.6447 61.3317 51.675 61.3115 51.6952C61.0485 51.9784 60.7451 52.2312 60.4013 52.4537L60.3709 52.484C60.2698 52.5447 60.1181 52.6256 59.9159 52.7267C59.7338 52.8279 59.572 52.8784 59.4305 52.8784C59.3091 52.8784 59.2383 52.8076 59.2181 52.6661V36.0708C58.9551 35.9697 58.6113 35.9595 58.1866 36.0404C57.782 36.1011 57.3674 36.2124 56.9427 36.3742C56.5179 36.5157 56.164 36.6472 55.8808 36.7686C55.719 36.8495 55.5673 36.9203 55.4257 36.9809C55.3246 37.0416 55.2033 37.1124 55.0617 37.1933C54.9201 37.2944 54.7785 37.3855 54.6369 37.4664C54.4751 37.5473 54.3437 37.5877 54.2425 37.5877C54.1414 37.5877 54.0706 37.5574 54.0302 37.4967L53.9695 37.345C53.9695 37.2237 54.0403 37.0821 54.1819 36.9203C54.3032 36.7585 54.4448 36.6169 54.6066 36.4955C54.7482 36.3539 54.8594 36.2528 54.9403 36.1921C55.6078 35.7067 56.4775 35.2516 57.5494 34.8269C58.6214 34.3819 59.8956 34.119 61.3721 34.0381H61.5845C61.6856 34.0381 61.7261 34.0887 61.7059 34.1898V36.2832C62.0092 36.0404 62.4036 35.7876 62.8891 35.5247C64.4869 34.5943 66.3275 34.0988 68.4107 34.0381C68.5118 34.0381 68.5624 34.0785 68.5624 34.1594C68.5624 35.3123 67.5916 35.9191 65.6499 35.9798C65.0836 36 64.315 36.182 63.3441 36.5259C62.8587 36.6877 62.3126 36.9607 61.7059 37.345Z" fill="url(#paint12_linear_2529_1441)"/>
<path d="M47.3956 35.434V44.657L48.0024 44.4446L48.7609 44.1109L48.8519 44.0805L49.8834 43.5345L50.0048 43.4434L50.1565 43.3828C50.3183 43.2614 50.47 43.1603 50.6115 43.0794C50.6318 43.0591 50.6621 43.0389 50.7026 43.0187C50.7835 42.9782 50.8543 42.9277 50.9149 42.867C50.9756 42.8265 51.0262 42.7861 51.0666 42.7456C51.1678 42.685 51.2588 42.6142 51.3397 42.5333L51.7037 42.2602C52.1892 41.8153 52.442 41.5827 52.4622 41.5624L52.6442 41.3501L53.069 40.895L53.251 40.6826L53.5544 40.2882C53.8376 40.005 54.1409 39.7522 54.4646 39.5297C54.505 39.5095 54.5859 39.4691 54.7073 39.4084C54.8286 39.3275 54.9601 39.2567 55.1017 39.196C55.2433 39.1353 55.3646 39.105 55.4657 39.105C55.5871 39.105 55.6579 39.1758 55.6781 39.3174V49.5415L55.6478 50.118C55.6478 50.2393 55.6579 50.3505 55.6781 50.4517C55.6983 50.5528 55.7388 50.6236 55.7995 50.664H55.8905C56.0118 50.664 56.0725 50.7146 56.0725 50.8157C56.0725 50.8562 56.0624 50.9169 56.0422 50.9978C55.9006 51.3214 55.6781 51.6045 55.3747 51.8473C55.0713 52.09 54.7781 52.2922 54.4949 52.454L54.4646 52.4844C54.3634 52.5248 54.2421 52.5754 54.1005 52.6361C53.9589 52.6967 53.8274 52.7271 53.7061 52.7271C53.5847 52.7271 53.4735 52.6866 53.3724 52.6057C53.2915 52.5248 53.2409 52.4338 53.2207 52.3327C53.2004 52.2315 53.1903 52.1304 53.1903 52.0293V42.1995C50.9453 44.2626 48.3867 45.7694 45.5146 46.72C45.4944 46.72 45.4742 46.7301 45.454 46.7504C45.4135 46.7504 45.3629 46.7605 45.3023 46.7807C45.2416 46.7807 45.191 46.7807 45.1506 46.7807C45.0697 46.7807 44.9989 46.7605 44.9382 46.72C44.918 46.6998 44.9079 46.6796 44.9079 46.6593C44.9079 46.6391 44.9079 46.6189 44.9079 46.5987V35.7374C43.8561 35.9397 42.774 36.2329 41.6616 36.6172C41.0549 36.6172 40.7515 36.5161 40.7515 36.3138C40.7515 36.0105 41.4088 35.5756 42.7235 35.0093C44.7056 34.18 47.1833 33.7856 50.1565 33.8261C52.7049 33.907 55.2635 34.6553 57.8322 36.0711C56.6995 36.3138 55.6073 36.779 54.5556 37.4667C54.5151 37.5072 54.4646 37.5274 54.4039 37.5274C54.2219 37.669 54.0499 37.8004 53.8881 37.9218C53.8072 37.9825 53.7162 38.0128 53.6151 38.0128C53.5342 38.0128 53.4634 37.9926 53.4027 37.9521C53.2409 37.2442 52.8263 36.7285 52.1588 36.4049C50.6823 35.7172 49.2463 35.3835 47.8507 35.4037C47.7091 35.4037 47.5574 35.4138 47.3956 35.434Z" fill="url(#paint13_linear_2529_1441)"/>
<path d="M40.5518 37.345V51.0278C40.5518 51.1289 40.5114 51.23 40.4304 51.3312C40.3698 51.4323 40.299 51.5233 40.2181 51.6042C40.1978 51.6447 40.1776 51.675 40.1574 51.6952C39.8945 51.9784 39.5911 52.2312 39.2472 52.4537L39.2169 52.484C39.1158 52.5447 38.9641 52.6256 38.7618 52.7267C38.5798 52.8279 38.418 52.8784 38.2764 52.8784C38.155 52.8784 38.0843 52.8076 38.064 52.6661V36.0708C37.8011 35.9697 37.4573 35.9595 37.0325 36.0404C36.628 36.1011 36.2134 36.2124 35.7886 36.3742C35.3639 36.5157 35.0099 36.6472 34.7268 36.7686C34.565 36.8495 34.4133 36.9203 34.2717 36.9809C34.1706 37.0416 34.0492 37.1124 33.9076 37.1933C33.766 37.2944 33.6245 37.3855 33.4829 37.4664C33.3211 37.5473 33.1896 37.5877 33.0885 37.5877C32.9873 37.5877 32.9166 37.5574 32.8761 37.4967L32.8154 37.345C32.8154 37.2237 32.8862 37.0821 33.0278 36.9203C33.1492 36.7585 33.2907 36.6169 33.4525 36.4955C33.5941 36.3539 33.7054 36.2528 33.7863 36.1921C34.4537 35.7067 35.3234 35.2516 36.3954 34.8269C37.4674 34.3819 38.7416 34.119 40.2181 34.0381H40.4304C40.5316 34.0381 40.572 34.0887 40.5518 34.1898V36.2832C40.8552 36.0404 41.2496 35.7876 41.735 35.5247C43.3328 34.5943 45.1734 34.0988 47.2567 34.0381C47.3578 34.0381 47.4083 34.0785 47.4083 34.1594C47.4083 35.3123 46.4375 35.9191 44.4958 35.9798C43.9295 36 43.1609 36.182 42.1901 36.5259C41.7047 36.6877 41.1586 36.9607 40.5518 37.345Z" fill="url(#paint14_linear_2529_1441)"/>
<path d="M23.95 47.9029C24.1118 47.9029 24.2635 47.8827 24.405 47.8422C24.4455 47.7613 24.4758 47.6703 24.496 47.5691C24.5365 47.468 24.5668 47.3871 24.5871 47.3264C24.6073 47.2658 24.6275 47.2152 24.6477 47.1747C24.7893 46.75 24.9612 46.0118 25.1635 44.96C24.4151 44.7375 23.6466 44.5757 22.8578 44.4746C22.4128 44.5151 22.1802 44.5454 22.16 44.5656C22.1397 44.5656 22.1195 44.5656 22.0993 44.5656C22.0386 44.8286 22.0083 45.0915 22.0083 45.3544C22.0083 46.1432 22.2914 46.8208 22.8578 47.3871C23.2016 47.731 23.5657 47.9029 23.95 47.9029ZM32.0201 45.6882V38.2855C29.9772 36.8899 27.7524 36.1618 25.3455 36.1011C26.9838 37.8001 27.803 39.7317 27.803 41.8958C27.803 42.2801 27.7726 42.6543 27.712 43.0183C28.8244 43.3824 29.8357 43.8982 30.7458 44.5656C31.2312 44.8892 31.656 45.2634 32.0201 45.6882ZM20.552 35.9191C20.0666 35.9595 19.6216 36.0202 19.2171 36.1011C18.0845 36.3438 16.9518 36.8495 15.8192 37.6181C15.4349 37.881 15.1517 38.0125 14.9697 38.0125C14.8483 38.0125 14.7776 37.9316 14.7573 37.7697C14.7573 37.5473 15.1922 37.1023 16.0619 36.4348C18.2058 34.837 20.6734 34.0381 23.4645 34.0381C28.8648 34.0381 32.3639 34.7157 33.9617 36.0708C35.8225 34.7966 37.9664 34.119 40.3935 34.0381C40.4947 34.0381 40.5452 34.0785 40.5452 34.1594C40.5452 35.3123 39.5744 35.9191 37.6327 35.9798C37.0664 36 36.2978 36.182 35.327 36.5259C35.0438 36.6068 34.7505 36.7281 34.4471 36.8899C34.4876 37.0517 34.5078 41.7745 34.5078 51.0581C34.5078 51.1997 34.4269 51.3615 34.2651 51.5435L34.1438 51.7256C33.8606 52.0087 33.5572 52.2615 33.2336 52.484L32.9909 52.6054C32.6673 52.8076 32.4145 52.9088 32.2324 52.9088C32.0706 52.9088 31.9897 52.7874 31.9897 52.5447C31.4638 49.4906 29.8357 47.2152 27.1052 45.7185C26.7613 46.9725 25.9826 47.9939 24.7691 48.7827C23.9196 49.4704 22.969 49.8547 21.9173 49.9356C21.3105 49.9356 20.7947 49.6929 20.37 49.2074C19.8846 48.6613 19.5913 47.9332 19.4902 47.0231C19.4902 46.1938 19.7733 45.4556 20.3396 44.8083C21.6341 43.3318 23.1005 42.5532 24.7388 42.4722L24.9815 42.4419L25.2242 42.4722C24.7994 40.1261 23.242 37.9417 20.552 35.9191Z" fill="url(#paint15_linear_2529_1441)"/>
<path d="M14.6187 50.8761V38.4979C13.8906 38.7204 13.1726 38.9833 12.4647 39.2867C12.0399 39.4485 11.6354 39.6204 11.2511 39.8024L10.5837 40.1665L10.3713 40.2879L10.2499 40.3789L9.9162 40.5912H9.88586L9.27909 41.107C9.27909 41.1272 9.26897 41.1475 9.24875 41.1677C9.22852 41.1879 9.19818 41.2081 9.15773 41.2284L9.06672 41.3194C8.92513 41.4812 8.81389 41.6127 8.73299 41.7138C8.65209 41.8149 8.55096 41.9565 8.4296 42.1385C8.28802 42.3812 8.16667 42.6138 8.06554 42.8363L7.94418 43.079C7.66102 43.7869 7.51944 44.5151 7.51944 45.2634C7.51944 46.0724 7.71159 46.8511 8.09588 47.5995C8.78355 48.7726 9.71394 49.6018 10.887 50.0873C12.0601 50.5525 13.304 50.8154 14.6187 50.8761ZM9.40044 55.1538H9.03638C8.06554 55.1538 7.15538 54.901 6.30589 54.3954C6.28567 54.3751 6.27555 54.3448 6.27555 54.3043C6.27555 54.183 6.40702 53.9706 6.66996 53.6672C6.93289 53.3638 7.23628 53.0807 7.58012 52.8177C7.92396 52.5548 8.22734 52.4233 8.49028 52.4233C8.59141 52.4233 8.67231 52.4436 8.73299 52.484C9.46112 52.929 10.2095 53.1515 10.9781 53.1515H11.2511C11.4736 53.1515 11.5747 53.2121 11.5545 53.3335C11.5545 53.4346 11.514 53.5459 11.4331 53.6672C11.3522 53.8088 11.2713 53.9201 11.1904 54.001C10.9073 54.2841 10.6039 54.5369 10.2803 54.7594C10.1589 54.8403 10.0173 54.9212 9.85552 55.0021C9.69371 55.1033 9.54202 55.1538 9.40044 55.1538ZM16.7121 35.9798C16.9346 35.8382 17.1874 35.6865 17.4705 35.5247C19.0684 34.5943 20.9089 34.0988 22.9922 34.0381C23.0933 34.0381 23.1439 34.0785 23.1439 34.1594C23.1439 35.3123 22.173 35.9191 20.2314 35.9798C19.665 36 18.8965 36.182 17.9256 36.5259C17.6627 36.6068 17.3896 36.718 17.1065 36.8596V51.0581C17.1065 51.1592 17.066 51.2604 16.9851 51.3615C16.9244 51.4626 16.8536 51.5536 16.7727 51.6345C16.7525 51.675 16.7323 51.7053 16.7121 51.7256C16.4491 52.0087 16.1457 52.2615 15.8019 52.484C15.7615 52.5042 15.6806 52.5548 15.5592 52.6357C15.4378 52.6964 15.3064 52.7571 15.1648 52.8177C15.0232 52.8784 14.9019 52.9088 14.8007 52.9088L14.467 52.9391H13.6175C12.6669 52.9391 11.7264 52.8683 10.796 52.7267C9.88586 52.5851 9.00604 52.2919 8.15655 51.8469C6.59917 51.0379 5.59799 49.794 5.15302 48.1152C5.07212 47.7107 5.03167 47.3163 5.03167 46.932C5.03167 45.5162 5.46652 44.1813 6.33623 42.9273C7.22617 41.6126 8.30825 40.5306 9.58247 39.6811C10.8567 38.8114 12.2118 38.0832 13.6479 37.4967C12.05 36.4247 10.0072 35.8786 7.51944 35.8584C6.4677 35.8584 5.54742 35.9393 4.75862 36.1011C3.62597 36.3438 2.49333 36.8495 1.36068 37.6181C0.976393 37.881 0.693231 38.0125 0.511199 38.0125C0.389844 38.0125 0.319054 37.9316 0.298828 37.7697C0.298828 37.5473 0.733683 37.1023 1.60339 36.4348C3.74733 34.837 6.21488 34.0381 9.00604 34.0381L9.88586 34.0684C12.3736 34.0684 14.649 34.6954 16.7121 35.9494V35.9798Z" fill="url(#paint16_linear_2529_1441)"/>
<defs>
<linearGradient id="paint0_linear_2529_1441" x1="41.3779" y1="-3.52388" x2="41.1398" y2="26.8366" gradientUnits="userSpaceOnUse">
<stop stop-color="#B62025"/>
<stop offset="0.39" stop-color="#D11E28"/>
<stop offset="0.75" stop-color="#E51E2A"/>
<stop offset="1" stop-color="#EC1E2B"/>
</linearGradient>
<linearGradient id="paint1_linear_2529_1441" x1="68.0176" y1="-3.81774" x2="67.7682" y2="27.4686" gradientUnits="userSpaceOnUse">
<stop stop-color="#B62025"/>
<stop offset="0.39" stop-color="#D11E28"/>
<stop offset="0.75" stop-color="#E51E2A"/>
<stop offset="1" stop-color="#EC1E2B"/>
</linearGradient>
<linearGradient id="paint2_linear_2529_1441" x1="91.9478" y1="-3.63709" x2="91.6984" y2="27.7282" gradientUnits="userSpaceOnUse">
<stop stop-color="#B62025"/>
<stop offset="0.39" stop-color="#D11E28"/>
<stop offset="0.75" stop-color="#E51E2A"/>
<stop offset="1" stop-color="#EC1E2B"/>
</linearGradient>
<linearGradient id="paint3_linear_2529_1441" x1="2.35576" y1="30.8717" x2="12.1832" y2="17.3147" gradientUnits="userSpaceOnUse">
<stop stop-color="#B62025"/>
<stop offset="0.39" stop-color="#D11E28"/>
<stop offset="0.75" stop-color="#E51E2A"/>
<stop offset="1" stop-color="#EC1E2B"/>
</linearGradient>
<linearGradient id="paint4_linear_2529_1441" x1="4.00006" y1="43.4088" x2="175" y2="43.4088" gradientUnits="userSpaceOnUse">
<stop stop-color="#EC1E2B"/>
<stop offset="1" stop-color="#DD0000"/>
</linearGradient>
<linearGradient id="paint5_linear_2529_1441" x1="4.00008" y1="43.4088" x2="175" y2="43.4088" gradientUnits="userSpaceOnUse">
<stop stop-color="#EC1E2B"/>
<stop offset="1" stop-color="#DD0000"/>
</linearGradient>
<linearGradient id="paint6_linear_2529_1441" x1="4.00018" y1="43.4088" x2="175" y2="43.4088" gradientUnits="userSpaceOnUse">
<stop stop-color="#EC1E2B"/>
<stop offset="1" stop-color="#DD0000"/>
</linearGradient>
<linearGradient id="paint7_linear_2529_1441" x1="4.00012" y1="43.4088" x2="175" y2="43.4088" gradientUnits="userSpaceOnUse">
<stop stop-color="#EC1E2B"/>
<stop offset="1" stop-color="#DD0000"/>
</linearGradient>
<linearGradient id="paint8_linear_2529_1441" x1="4.0002" y1="43.4088" x2="175" y2="43.4088" gradientUnits="userSpaceOnUse">
<stop stop-color="#EC1E2B"/>
<stop offset="1" stop-color="#DD0000"/>
</linearGradient>
<linearGradient id="paint9_linear_2529_1441" x1="4.00027" y1="43.4088" x2="175" y2="43.4088" gradientUnits="userSpaceOnUse">
<stop stop-color="#EC1E2B"/>
<stop offset="1" stop-color="#DD0000"/>
</linearGradient>
<linearGradient id="paint10_linear_2529_1441" x1="4.00006" y1="43.409" x2="175" y2="43.409" gradientUnits="userSpaceOnUse">
<stop stop-color="#EC1E2B"/>
<stop offset="1" stop-color="#DD0000"/>
</linearGradient>
<linearGradient id="paint11_linear_2529_1441" x1="4.00021" y1="43.4088" x2="175" y2="43.4088" gradientUnits="userSpaceOnUse">
<stop stop-color="#EC1E2B"/>
<stop offset="1" stop-color="#DD0000"/>
</linearGradient>
<linearGradient id="paint12_linear_2529_1441" x1="4.00021" y1="43.4088" x2="175" y2="43.4088" gradientUnits="userSpaceOnUse">
<stop stop-color="#EC1E2B"/>
<stop offset="1" stop-color="#DD0000"/>
</linearGradient>
<linearGradient id="paint13_linear_2529_1441" x1="4.00015" y1="43.4091" x2="175" y2="43.4091" gradientUnits="userSpaceOnUse">
<stop stop-color="#EC1E2B"/>
<stop offset="1" stop-color="#DD0000"/>
</linearGradient>
<linearGradient id="paint14_linear_2529_1441" x1="4.00029" y1="43.4088" x2="175" y2="43.4088" gradientUnits="userSpaceOnUse">
<stop stop-color="#EC1E2B"/>
<stop offset="1" stop-color="#DD0000"/>
</linearGradient>
<linearGradient id="paint15_linear_2529_1441" x1="4.00036" y1="43.4088" x2="175" y2="43.4088" gradientUnits="userSpaceOnUse">
<stop stop-color="#EC1E2B"/>
<stop offset="1" stop-color="#DD0000"/>
</linearGradient>
<linearGradient id="paint16_linear_2529_1441" x1="4.00015" y1="43.4088" x2="175" y2="43.4088" gradientUnits="userSpaceOnUse">
<stop stop-color="#EC1E2B"/>
<stop offset="1" stop-color="#DD0000"/>
</linearGradient>
</defs>
</svg>
