<svg width="761" height="356" viewBox="0 0 761 356" fill="none" xmlns="http://www.w3.org/2000/svg">
<path d="M78.0588 97.2708C69.5985 105.651 59.3024 109.842 47.1705 109.842C35.0387 109.842 24.7426 105.651 16.2822 97.2708C7.82185 88.8903 3.59166 78.5542 3.59166 66.2628C3.59166 53.9713 7.82185 43.6353 16.2822 35.2547C24.7426 26.8742 35.0387 22.6839 47.1705 22.6839C59.3024 22.6839 69.5985 26.8742 78.0588 35.2547C86.5192 43.6353 90.7494 53.9713 90.7494 66.2628C90.7494 78.5542 86.5192 88.8903 78.0588 97.2708ZM29.6911 84.2211C34.4002 88.8504 40.2266 91.165 47.1705 91.165C54.1144 91.165 59.901 88.8504 64.5302 84.2211C69.2393 79.5918 71.5939 73.6057 71.5939 66.2628C71.5939 58.9198 69.2393 52.9337 64.5302 48.3045C59.901 43.6752 54.1144 41.3606 47.1705 41.3606C40.2266 41.3606 34.4002 43.6752 29.6911 48.3045C25.0618 52.9337 22.7472 58.9198 22.7472 66.2628C22.7472 73.6057 25.0618 79.5918 29.6911 84.2211ZM133.261 24.36C141.482 24.36 148.426 27.1535 154.093 32.7406C159.76 38.3276 162.593 45.1119 162.593 53.0933C162.593 61.0748 159.76 67.8591 154.093 73.4461C148.426 79.0331 141.482 81.8267 133.261 81.8267H120.69V108.166H101.535V24.36H133.261ZM133.261 63.8683C136.214 63.8683 138.649 62.8307 140.564 60.7556C142.48 58.6804 143.437 56.1263 143.437 53.0933C143.437 50.0604 142.48 47.5063 140.564 45.4311C138.649 43.3559 136.214 42.3183 133.261 42.3183H120.69V63.8683H133.261ZM191.308 89.7283H224.83V108.166H172.152V24.36H224.231V42.7972H191.308V56.685H221.238V74.8828H191.308V89.7283ZM282.329 24.36H301.485V108.166H287.118L254.793 62.6711V108.166H235.638V24.36H250.004L282.329 69.8544V24.36Z" fill="url(#paint0_linear_933_2)"/>
<path d="M387.251 24.1945H406.406V108H392.04L359.715 62.5056V108H340.559V24.1945H354.926L387.251 69.6889V24.1945ZM439.919 89.5628H473.442V108H420.764V24.1945H472.843V42.6317H439.919V56.5195H469.85V74.7172H439.919V89.5628ZM501.37 108L478.263 24.1945H498.376L512.863 82.8583L529.025 24.1945H544.589L560.752 82.8583L575.238 24.1945H595.351L572.245 108H550.456L536.807 58.5547L523.159 108H501.37Z" fill="#1A1A1A" fill-opacity="0.9"/>
<path d="M40.7055 128.852C52.2787 128.852 61.9363 132.883 69.6783 140.944C77.5001 148.925 81.4111 158.862 81.4111 170.755C81.4111 182.647 77.5001 192.624 69.6783 200.685C61.9363 208.667 52.2787 212.658 40.7055 212.658H7.18333V128.852H40.7055ZM40.7055 194.22C47.3302 194.22 52.6777 192.105 56.7483 187.875C60.8987 183.565 62.9739 177.858 62.9739 170.755C62.9739 163.651 60.8987 157.984 56.7483 153.754C52.6777 149.444 47.3302 147.289 40.7055 147.289H26.3389V194.22H40.7055ZM163.057 201.763C154.597 210.143 144.3 214.334 132.169 214.334C120.037 214.334 109.741 210.143 101.28 201.763C92.8199 193.382 88.5897 183.046 88.5897 170.755C88.5897 158.463 92.8199 148.127 101.28 139.747C109.741 131.366 120.037 127.176 132.169 127.176C144.3 127.176 154.597 131.366 163.057 139.747C171.517 148.127 175.747 158.463 175.747 170.755C175.747 183.046 171.517 193.382 163.057 201.763ZM114.689 188.713C119.398 193.342 125.225 195.657 132.169 195.657C139.112 195.657 144.899 193.342 149.528 188.713C154.237 184.084 156.592 178.098 156.592 170.755C156.592 163.412 154.237 157.426 149.528 152.796C144.899 148.167 139.112 145.853 132.169 145.853C125.225 145.853 119.398 148.167 114.689 152.796C110.06 157.426 107.745 163.412 107.745 170.755C107.745 178.098 110.06 184.084 114.689 188.713ZM257.408 201.763C248.948 210.143 238.652 214.334 226.52 214.334C214.388 214.334 204.092 210.143 195.632 201.763C187.171 193.382 182.941 183.046 182.941 170.755C182.941 158.463 187.171 148.127 195.632 139.747C204.092 131.366 214.388 127.176 226.52 127.176C238.652 127.176 248.948 131.366 257.408 139.747C265.869 148.127 270.099 158.463 270.099 170.755C270.099 183.046 265.869 193.382 257.408 201.763ZM209.04 188.713C213.75 193.342 219.576 195.657 226.52 195.657C233.464 195.657 239.25 193.342 243.88 188.713C248.589 184.084 250.943 178.098 250.943 170.755C250.943 163.412 248.589 157.426 243.88 152.796C239.25 148.167 233.464 145.853 226.52 145.853C219.576 145.853 213.75 148.167 209.04 152.796C204.411 157.426 202.097 163.412 202.097 170.755C202.097 178.098 204.411 184.084 209.04 188.713ZM324.942 212.658L309.139 185.121H300.04V212.658H280.884V128.852H314.406C322.388 128.852 329.172 131.646 334.759 137.233C340.346 142.82 343.14 149.604 343.14 157.585C343.14 162.693 341.703 167.442 338.83 171.832C336.036 176.142 332.325 179.494 327.695 181.889L345.534 212.658H324.942ZM300.04 146.81V168.36H314.406C317.04 168.36 319.275 167.323 321.111 165.248C323.026 163.172 323.984 160.618 323.984 157.585C323.984 154.552 323.026 151.998 321.111 149.923C319.275 147.848 317.04 146.81 314.406 146.81H300.04Z" fill="url(#paint1_linear_933_2)"/>
<path d="M450.464 201.763C442.004 210.143 431.708 214.334 419.576 214.334C407.444 214.334 397.148 210.143 388.687 201.763C380.227 193.382 375.997 183.046 375.997 170.755C375.997 158.463 380.227 148.127 388.687 139.747C397.148 131.366 407.444 127.176 419.576 127.176C431.708 127.176 442.004 131.366 450.464 139.747C458.924 148.127 463.155 158.463 463.155 170.755C463.155 183.046 458.924 193.382 450.464 201.763ZM402.096 188.713C406.805 193.342 412.632 195.657 419.576 195.657C426.52 195.657 432.306 193.342 436.936 188.713C441.645 184.084 443.999 178.098 443.999 170.755C443.999 163.412 441.645 157.426 436.936 152.796C432.306 148.167 426.52 145.853 419.576 145.853C412.632 145.853 406.805 148.167 402.096 152.796C397.467 157.426 395.152 163.412 395.152 170.755C395.152 178.098 397.467 184.084 402.096 188.713ZM524.822 147.289H493.095V163.452H524.223V181.889H493.095V212.658H473.94V128.852H524.822V147.289Z" fill="url(#paint2_linear_933_2)"/>
<path d="M38.9097 230.063C47.1306 230.063 54.0745 232.857 59.7414 238.444C65.4082 244.031 68.2416 250.815 68.2416 258.796C68.2416 266.778 65.4082 273.562 59.7414 279.149C54.0745 284.736 47.1306 287.53 38.9097 287.53H26.3389V313.869H7.18333V230.063H38.9097ZM38.9097 269.571C41.8628 269.571 44.2972 268.534 46.2128 266.459C48.1283 264.383 49.0861 261.829 49.0861 258.796C49.0861 255.763 48.1283 253.209 46.2128 251.134C44.2972 249.059 41.8628 248.021 38.9097 248.021H26.3389V269.571H38.9097ZM148.092 302.974C139.631 311.354 129.335 315.545 117.203 315.545C105.071 315.545 94.7754 311.354 86.315 302.974C77.8546 294.593 73.6244 284.257 73.6244 271.966C73.6244 259.674 77.8546 249.338 86.315 240.958C94.7754 232.577 105.071 228.387 117.203 228.387C129.335 228.387 139.631 232.577 148.092 240.958C156.552 249.338 160.782 259.674 160.782 271.966C160.782 284.257 156.552 294.593 148.092 302.974ZM99.7239 289.924C104.433 294.553 110.259 296.868 117.203 296.868C124.147 296.868 129.934 294.553 134.563 289.924C139.272 285.295 141.627 279.309 141.627 271.966C141.627 264.623 139.272 258.637 134.563 254.007C129.934 249.378 124.147 247.064 117.203 247.064C110.259 247.064 104.433 249.378 99.7239 254.007C95.0946 258.637 92.78 264.623 92.78 271.966C92.78 279.309 95.0946 285.295 99.7239 289.924ZM197.86 315.545C189.319 315.545 182.176 313.709 176.429 310.037C170.762 306.286 166.732 301.218 164.337 294.833L180.859 285.255C184.211 292.997 190.078 296.868 198.458 296.868C206.041 296.868 209.832 294.593 209.832 290.044C209.832 287.57 208.595 285.654 206.12 284.297C203.726 282.86 199.177 281.224 192.472 279.389C188.96 278.431 185.887 277.353 183.253 276.156C180.62 274.959 178.026 273.402 175.472 271.487C172.997 269.492 171.082 267.017 169.725 264.064C168.448 261.111 167.809 257.719 167.809 253.888C167.809 246.146 170.563 239.96 176.07 235.331C181.657 230.702 188.282 228.387 195.944 228.387C202.808 228.387 208.874 230.023 214.142 233.296C219.41 236.488 223.56 241.157 226.593 247.303L210.43 256.761C208.914 253.568 207.038 251.174 204.803 249.578C202.569 247.902 199.615 247.064 195.944 247.064C193.071 247.064 190.836 247.702 189.24 248.979C187.723 250.176 186.965 251.653 186.965 253.409C186.965 255.484 187.923 257.28 189.838 258.796C191.834 260.313 195.904 261.989 202.05 263.825C205.402 264.862 207.996 265.7 209.832 266.339C211.668 266.977 213.982 268.055 216.776 269.571C219.649 271.008 221.804 272.564 223.241 274.24C224.757 275.837 226.074 277.992 227.191 280.705C228.389 283.339 228.987 286.372 228.987 289.804C228.987 297.786 226.114 304.091 220.367 308.72C214.621 313.27 207.118 315.545 197.86 315.545ZM265.554 315.545C257.014 315.545 249.87 313.709 244.124 310.037C238.457 306.286 234.426 301.218 232.032 294.833L248.553 285.255C251.906 292.997 257.772 296.868 266.153 296.868C273.735 296.868 277.526 294.593 277.526 290.044C277.526 287.57 276.289 285.654 273.815 284.297C271.42 282.86 266.871 281.224 260.167 279.389C256.655 278.431 253.582 277.353 250.948 276.156C248.314 274.959 245.72 273.402 243.166 271.487C240.692 269.492 238.776 267.017 237.419 264.064C236.142 261.111 235.504 257.719 235.504 253.888C235.504 246.146 238.257 239.96 243.765 235.331C249.352 230.702 255.976 228.387 263.638 228.387C270.503 228.387 276.568 230.023 281.836 233.296C287.104 236.488 291.254 241.157 294.287 247.303L278.125 256.761C276.608 253.568 274.733 251.174 272.498 249.578C270.263 247.902 267.31 247.064 263.638 247.064C260.765 247.064 258.53 247.702 256.934 248.979C255.418 250.176 254.659 251.653 254.659 253.409C254.659 255.484 255.617 257.28 257.533 258.796C259.528 260.313 263.599 261.989 269.744 263.825C273.097 264.862 275.69 265.7 277.526 266.339C279.362 266.977 281.677 268.055 284.47 269.571C287.343 271.008 289.498 272.564 290.935 274.24C292.452 275.837 293.769 277.992 294.886 280.705C296.083 283.339 296.682 286.372 296.682 289.804C296.682 297.786 293.808 304.091 288.062 308.72C282.315 313.27 274.813 315.545 265.554 315.545ZM305.67 230.063H324.826V313.869H305.67V230.063ZM391.185 270.409C398.049 274.799 401.481 281.105 401.481 289.325C401.481 296.589 398.887 302.495 393.699 307.044C388.511 311.594 382.086 313.869 374.424 313.869H339.225V230.063H372.029C379.532 230.063 385.797 232.298 390.825 236.767C395.934 241.157 398.488 246.904 398.488 254.007C398.488 260.712 396.053 266.179 391.185 270.409ZM372.029 248.021H358.381V262.867H372.029C374.184 262.867 375.94 262.188 377.297 260.832C378.654 259.395 379.332 257.599 379.332 255.444C379.332 253.289 378.654 251.533 377.297 250.176C375.94 248.74 374.184 248.021 372.029 248.021ZM374.424 295.91C376.818 295.91 378.734 295.192 380.17 293.755C381.607 292.239 382.325 290.283 382.325 287.889C382.325 285.494 381.607 283.579 380.17 282.142C378.734 280.626 376.818 279.867 374.424 279.867H358.381V295.91H374.424ZM411.012 230.063H430.167V313.869H411.012V230.063ZM463.722 295.431H493.653V313.869H444.567V230.063H463.722V295.431ZM502.089 230.063H521.245V313.869H502.089V230.063ZM591.914 230.063V248.5H570.364V313.869H551.208V248.5H529.658V230.063H591.914ZM600.299 230.063H619.455V313.869H600.299V230.063ZM653.01 295.431H686.532V313.869H633.854V230.063H685.933V248.5H653.01V262.388H682.94V280.586H653.01V295.431ZM726.671 315.545C718.131 315.545 710.988 313.709 705.241 310.037C699.574 306.286 695.544 301.218 693.149 294.833L709.671 285.255C713.023 292.997 718.889 296.868 727.27 296.868C734.852 296.868 738.644 294.593 738.644 290.044C738.644 287.57 737.406 285.654 734.932 284.297C732.538 282.86 727.988 281.224 721.284 279.389C717.772 278.431 714.699 277.353 712.065 276.156C709.431 274.959 706.837 273.402 704.283 271.487C701.809 269.492 699.894 267.017 698.537 264.064C697.26 261.111 696.621 257.719 696.621 253.888C696.621 246.146 699.375 239.96 704.882 235.331C710.469 230.702 717.094 228.387 724.756 228.387C731.62 228.387 737.686 230.023 742.954 233.296C748.221 236.488 752.372 241.157 755.405 247.303L739.242 256.761C737.726 253.568 735.85 251.174 733.615 249.578C731.38 247.902 728.427 247.064 724.756 247.064C721.883 247.064 719.648 247.702 718.051 248.979C716.535 250.176 715.777 251.653 715.777 253.409C715.777 255.484 716.734 257.28 718.65 258.796C720.645 260.313 724.716 261.989 730.862 263.825C734.214 264.862 736.808 265.7 738.644 266.339C740.479 266.977 742.794 268.055 745.587 269.571C748.461 271.008 750.616 272.564 752.052 274.24C753.569 275.837 754.886 277.992 756.003 280.705C757.201 283.339 757.799 286.372 757.799 289.804C757.799 297.786 754.926 304.091 749.179 308.72C743.432 313.27 735.93 315.545 726.671 315.545Z" fill="#1A1A1A" fill-opacity="0.9"/>
<defs>
<linearGradient id="paint0_linear_933_2" x1="170.191" y1="0.165527" x2="184.151" y2="355.874" gradientUnits="userSpaceOnUse">
<stop stop-color="#ED1C24"/>
<stop offset="1"/>
</linearGradient>
<linearGradient id="paint1_linear_933_2" x1="191.672" y1="104.658" x2="204.071" y2="460.482" gradientUnits="userSpaceOnUse">
<stop stop-color="#ED1C24"/>
<stop offset="1"/>
</linearGradient>
<linearGradient id="paint2_linear_933_2" x1="458.878" y1="104.658" x2="486.231" y2="458.801" gradientUnits="userSpaceOnUse">
<stop stop-color="#ED1C24"/>
<stop offset="1"/>
</linearGradient>
</defs>
</svg>
