<svg width="120" height="105" viewBox="0 0 120 105" fill="none" xmlns="http://www.w3.org/2000/svg">
<path fill-rule="evenodd" clip-rule="evenodd" d="M77.1082 92.0208C80.6941 99.6881 88.4769 105 97.5003 105C109.927 105 120 94.9262 120 82.4998C120 70.5739 110.722 60.8151 98.9899 60.0483C96.2611 73.4232 88.1927 84.8553 77.1082 92.0208Z" fill="#DD0000"/>
<circle cx="50" cy="50" r="48" stroke="url(#paint0_linear_303_50)" stroke-width="4"/>
<path d="M29 67V58.2102H32.0069C33.7529 58.2102 35.1432 57.9527 36.1778 57.4375C37.2771 56.9223 38.0855 56.0208 38.6028 54.733C39.1201 53.3807 39.3788 51.5455 39.3788 49.2273V42.1761L42.2887 48.1648C41.836 48.5511 41.1894 48.8731 40.3487 49.1307C39.5081 49.3239 38.5704 49.4205 37.5358 49.4205C35.2725 49.4205 33.3649 48.7443 31.8129 47.3921C30.261 45.9754 29.485 44.0114 29.485 41.5C29.485 39.1174 30.2286 37.1212 31.7159 35.5114C33.2032 33.8371 35.3372 33 38.1178 33C39.9284 33 41.5774 33.4186 43.0647 34.2557C44.6166 35.0928 45.8453 36.5095 46.7506 38.5057C47.7206 40.5019 48.2055 43.2064 48.2055 46.6193V48.0682C48.2055 52.6402 47.5266 56.3106 46.1686 59.0795C44.8753 61.8485 42.9677 63.8769 40.4457 65.1648C37.9238 66.3883 34.8199 67 31.1339 67H29ZM51.7945 67V58.2102H54.8014C56.5473 58.2102 57.9376 57.9527 58.9723 57.4375C60.0716 56.9223 60.8799 56.0208 61.3972 54.733C61.9145 53.3807 62.1732 51.5455 62.1732 49.2273V42.1761L65.0831 48.1648C64.6305 48.5511 63.9838 48.8731 63.1432 49.1307C62.3025 49.3239 61.3649 49.4205 60.3303 49.4205C58.067 49.4205 56.1594 48.7443 54.6074 47.3921C53.0554 45.9754 52.2794 44.0114 52.2794 41.5C52.2794 39.1174 53.0231 37.1212 54.5104 35.5114C55.9977 33.8371 58.1316 33 60.9122 33C62.7229 33 64.3718 33.4186 65.8591 34.2557C67.4111 35.0928 68.6397 36.5095 69.545 38.5057C70.515 40.5019 71 43.2064 71 46.6193V48.0682C71 52.6402 70.321 56.3106 68.9631 59.0795C67.6697 61.8485 65.7621 63.8769 63.2402 65.1648C60.7182 66.3883 57.6143 67 53.9284 67H51.7945Z" fill="black"/>
<defs>
<linearGradient id="paint0_linear_303_50" x1="0" y1="0" x2="100" y2="100" gradientUnits="userSpaceOnUse">
<stop stop-color="#F3001B"/>
<stop offset="1" stop-color="#BF000B"/>
</linearGradient>
</defs>
</svg>
