<svg width="154" height="156" viewBox="0 0 154 156" fill="none" xmlns="http://www.w3.org/2000/svg">
<g filter="url(#filter0_d_52_26)">
<path d="M133.25 35.1562H20.75V114.844H133.25V35.1562Z" fill="#698CB2"/>
<path d="M127.051 37.5H26.9492C24.8199 37.5 23.0938 39.2262 23.0938 41.3555V106.301C23.0938 108.43 24.8199 110.156 26.9492 110.156H127.051C129.18 110.156 130.906 108.43 130.906 106.301V41.3555C130.906 39.2262 129.18 37.5 127.051 37.5Z" fill="#D7E0EF"/>
<path d="M133.25 112.5L147.312 126.562C147.312 131.535 145.337 136.304 141.821 139.821C138.304 143.337 133.535 145.312 128.562 145.312H25.4375C20.4647 145.312 15.6956 143.337 12.1792 139.821C8.66294 136.304 6.6875 131.535 6.6875 126.562L20.75 112.5H133.25Z" fill="#698CB2"/>
<path d="M6.6875 126.562H147.312L133.25 112.5H20.75L6.6875 126.562Z" fill="#A5BADB"/>
<path d="M27.7812 110.156L81.6875 37.5H95.75L44.1875 110.156H27.7812Z" fill="#F2F5F9"/>
<path d="M58.25 110.156L112.156 37.5H126.219L74.6562 110.156H58.25Z" fill="#F2F5F9"/>
<path d="M109.358 110.156L130.906 79.7929V69.6L100.815 110.156H109.358Z" fill="#F2F5F9"/>
<path d="M23.0938 80.4328L53.5625 37.5H46.5312L23.0938 69.0891V80.4328Z" fill="#F2F5F9"/>
<path d="M98.0938 21.0938H55.9062V51.5625H98.0938V21.0938Z" fill="#F9CB5D"/>
<path d="M55.9062 21.0938V32.8125C57.7711 32.8125 59.5595 32.0717 60.8781 30.7531C62.1967 29.4345 62.9375 27.6461 62.9375 25.7812C62.9375 27.6461 63.6783 29.4345 64.9969 30.7531C66.3155 32.0717 68.1039 32.8125 69.9688 32.8125C71.8336 32.8125 73.622 32.0717 74.9406 30.7531C76.2592 29.4345 77 27.6461 77 25.7812C77 27.6461 77.7408 29.4345 79.0594 30.7531C80.378 32.0717 82.1664 32.8125 84.0312 32.8125C85.8961 32.8125 87.6845 32.0717 89.0031 30.7531C90.3217 29.4345 91.0625 27.6461 91.0625 25.7812C91.0625 27.6461 91.8033 29.4345 93.1219 30.7531C94.4405 32.0717 96.2289 32.8125 98.0938 32.8125V21.0938H55.9062Z" fill="#EDB340"/>
<path d="M81.6875 37.5H72.3125V51.5625H81.6875V37.5Z" fill="#3693CF"/>
<path d="M48.875 21.0938V18.75L55.9062 4.6875H98.0938L105.125 18.75V21.0938C105.125 22.9586 104.384 24.747 103.066 26.0656C101.747 27.3842 99.9586 28.125 98.0938 28.125C96.2289 28.125 94.4405 27.3842 93.1219 26.0656C91.8033 24.747 91.0625 22.9586 91.0625 21.0938C91.0625 22.9586 90.3217 24.747 89.0031 26.0656C87.6845 27.3842 85.8961 28.125 84.0312 28.125C82.1664 28.125 80.378 27.3842 79.0594 26.0656C77.7408 24.747 77 22.9586 77 21.0938C77 22.9586 76.2592 24.747 74.9406 26.0656C73.622 27.3842 71.8336 28.125 69.9688 28.125C68.1039 28.125 66.3155 27.3842 64.9969 26.0656C63.6783 24.747 62.9375 22.9586 62.9375 21.0938C62.9375 22.9586 62.1967 24.747 60.8781 26.0656C59.5595 27.3842 57.7711 28.125 55.9062 28.125C54.0414 28.125 52.253 27.3842 50.9344 26.0656C49.6158 24.747 48.875 22.9586 48.875 21.0938Z" fill="#DD0000"/>
<path d="M91.0625 18.75L86.375 4.6875H98.0938L105.125 18.75H91.0625Z" fill="#DD0000"/>
<path d="M91.0625 18.75H77V4.6875H86.375L91.0625 18.75Z" fill="#DD0000"/>
<path d="M62.9375 18.75L67.625 4.6875H55.9062L48.875 18.75H62.9375Z" fill="#DD0000"/>
<path d="M77 18.75H91.0625V21.0938C91.0625 22.9586 90.3217 24.747 89.0031 26.0656C87.6845 27.3842 85.8961 28.125 84.0312 28.125C82.1664 28.125 80.378 27.3842 79.0594 26.0656C77.7408 24.747 77 22.9586 77 21.0938V18.75Z" fill="#DD0000"/>
<path d="M48.875 18.75H62.9375V21.0938C62.9375 22.9586 62.1967 24.747 60.8781 26.0656C59.5595 27.3842 57.7711 28.125 55.9062 28.125C54.0414 28.125 52.253 27.3842 50.9344 26.0656C49.6158 24.747 48.875 22.9586 48.875 21.0938V18.75Z" fill="#DD0000"/>
<path d="M102.781 126.562L98.0938 135.938H55.9062L51.2188 126.562H102.781Z" fill="#D7E0EF"/>
<path d="M77 18.75H62.9375L67.625 4.6875H77V18.75Z" fill="#DD0000"/>
<path d="M98.0938 72.6562H55.9062C53.3174 72.6562 51.2188 74.7549 51.2188 77.3438C51.2188 79.9326 53.3174 82.0312 55.9062 82.0312H98.0938C100.683 82.0312 102.781 79.9326 102.781 77.3438C102.781 74.7549 100.683 72.6562 98.0938 72.6562Z" fill="#FF7A7E"/>
<path d="M55.9062 82.0312L57.732 98.4656C57.874 99.7469 58.4836 100.931 59.4441 101.79C60.4046 102.65 61.6484 103.125 62.9375 103.125H91.0625C92.3516 103.125 93.5955 102.65 94.5559 101.79C95.5164 100.931 96.126 99.7469 96.268 98.4656L98.0938 82.0312H55.9062Z" fill="#E73844"/>
<path d="M69.9688 89.0625H65.2812V96.0938H69.9688V89.0625Z" fill="#FF959D"/>
<path d="M79.3438 89.0625H74.6562V96.0938H79.3438V89.0625Z" fill="#FF959D"/>
<path d="M88.7188 89.0625H84.0312V96.0938H88.7188V89.0625Z" fill="#FF959D"/>
<path d="M63.9219 79.9922L57.2656 70.0078C56.3793 68.6779 55.9063 67.1154 55.9062 65.5172C55.9062 64.3026 56.3888 63.1377 57.2476 62.2789C58.1065 61.42 59.2713 60.9375 60.4859 60.9375C61.2399 60.9374 61.9823 61.1235 62.6471 61.4792C63.3119 61.8349 63.8786 62.3492 64.2969 62.9766L70.9531 72.9609C71.8395 74.2909 72.3125 75.8533 72.3125 77.4516C72.3125 78.6662 71.83 79.831 70.9711 80.6899C70.1123 81.5487 68.9474 82.0312 67.7328 82.0312C66.9788 82.0313 66.2365 81.8453 65.5717 81.4896C64.9069 81.1339 64.3402 80.6195 63.9219 79.9922Z" fill="#B21222"/>
<path d="M90.0781 79.9922L96.7344 70.0078C97.6207 68.6779 98.0937 67.1154 98.0938 65.5172C98.0938 64.3026 97.6112 63.1377 96.7524 62.2789C95.8935 61.42 94.7287 60.9375 93.5141 60.9375C92.7601 60.9374 92.0177 61.1235 91.3529 61.4792C90.6881 61.8349 90.1214 62.3492 89.7031 62.9766L83.0469 72.9609C82.1605 74.2909 81.6875 75.8533 81.6875 77.4516C81.6875 78.6662 82.17 79.831 83.0289 80.6899C83.8877 81.5487 85.0526 82.0312 86.2672 82.0312C87.0212 82.0313 87.7635 81.8453 88.4283 81.4896C89.0931 81.1339 89.6598 80.6195 90.0781 79.9922Z" fill="#B21222"/>
<path d="M135.594 111.53V35.1562C135.594 34.5346 135.347 33.9385 134.907 33.4989C134.468 33.0594 133.872 32.8125 133.25 32.8125H100.438V30.1359C102.444 29.6178 104.222 28.4495 105.495 26.8135C106.767 25.1775 107.461 23.1661 107.469 21.0937V18.75C107.473 18.3873 107.393 18.0287 107.234 17.7023L100.203 3.63982C100.008 3.24842 99.7063 2.91959 99.3335 2.69053C98.9608 2.46147 98.5313 2.34134 98.0938 2.34372H55.9062C55.4707 2.34352 55.0437 2.46468 54.6732 2.69362C54.3027 2.92256 54.0033 3.25021 53.8086 3.63982L46.7773 17.7023C46.6152 18.0277 46.5309 18.3864 46.5312 18.75V21.0937C46.539 23.1661 47.2332 25.1775 48.5054 26.8135C49.7775 28.4495 51.5559 29.6178 53.5625 30.1359V32.8125H20.75C20.1284 32.8125 19.5323 33.0594 19.0927 33.4989C18.6532 33.9385 18.4062 34.5346 18.4062 35.1562V111.53L5.03047 124.905C4.5909 125.345 4.34388 125.941 4.34375 126.562C4.35057 132.155 6.57513 137.516 10.5295 141.47C14.4839 145.425 19.8452 147.649 25.4375 147.656H128.562C134.155 147.649 139.516 145.425 143.47 141.47C147.425 137.516 149.649 132.155 149.656 126.562C149.656 125.941 149.409 125.345 148.97 124.905L135.594 111.53ZM79.3438 49.2187H74.6562V39.8437H79.3438V49.2187ZM81.6875 35.1562H72.3125C71.6909 35.1562 71.0948 35.4032 70.6552 35.8427C70.2157 36.2822 69.9688 36.8784 69.9688 37.5V49.2187H58.25V30.1429C60.0623 29.6803 61.6948 28.6861 62.9375 27.2883C63.8162 28.2875 64.8979 29.088 66.1103 29.6363C67.3227 30.1847 68.6381 30.4683 69.9688 30.4683C71.2994 30.4683 72.6148 30.1847 73.8272 29.6363C75.0396 29.088 76.1213 28.2875 77 27.2883C77.8787 28.2875 78.9604 29.088 80.1728 29.6363C81.3852 30.1847 82.7006 30.4683 84.0312 30.4683C85.3619 30.4683 86.6773 30.1847 87.8897 29.6363C89.1021 29.088 90.1838 28.2875 91.0625 27.2883C92.3052 28.6861 93.9377 29.6803 95.75 30.1429V49.2187H84.0312V37.5C84.0312 36.8784 83.7843 36.2822 83.3448 35.8427C82.9052 35.4032 82.3091 35.1562 81.6875 35.1562ZM79.3438 16.4062V7.03122H84.6852L87.8117 16.4062H79.3438ZM88.7188 21.0937C88.7188 22.3369 88.2249 23.5292 87.3458 24.4083C86.4667 25.2874 85.2745 25.7812 84.0312 25.7812C82.788 25.7812 81.5958 25.2874 80.7167 24.4083C79.8376 23.5292 79.3438 22.3369 79.3438 21.0937H88.7188ZM74.6562 16.4062H66.1883L69.3148 7.03122H74.6562V16.4062ZM74.6562 21.0937C74.6562 22.3369 74.1624 23.5292 73.2833 24.4083C72.4042 25.2874 71.212 25.7812 69.9688 25.7812C68.7255 25.7812 67.5333 25.2874 66.6542 24.4083C65.7751 23.5292 65.2812 22.3369 65.2812 21.0937H74.6562ZM98.0938 25.7812C96.8505 25.7812 95.6583 25.2874 94.7792 24.4083C93.9001 23.5292 93.4062 22.3369 93.4062 21.0937H102.781C102.781 22.3369 102.287 23.5292 101.408 24.4083C100.529 25.2874 99.337 25.7812 98.0938 25.7812ZM101.333 16.4062H92.7523L89.6281 7.03122H96.6453L101.333 16.4062ZM57.3547 7.03122H64.3719L61.2477 16.4062H52.6672L57.3547 7.03122ZM51.2188 21.0937H60.5938C60.5938 22.3369 60.0999 23.5292 59.2208 24.4083C58.3417 25.2874 57.1495 25.7812 55.9062 25.7812C54.663 25.7812 53.4708 25.2874 52.5917 24.4083C51.7126 23.5292 51.2188 22.3369 51.2188 21.0937ZM53.5625 37.5V51.5625C53.5625 52.1841 53.8094 52.7802 54.249 53.2198C54.6885 53.6593 55.2846 53.9062 55.9062 53.9062H98.0938C98.7154 53.9062 99.3115 53.6593 99.751 53.2198C100.191 52.7802 100.438 52.1841 100.438 51.5625V37.5H130.906V110.156H23.0938V37.5H53.5625ZM21.7203 114.844H132.28L141.655 124.219H12.3453L21.7203 114.844ZM98.9891 128.906L96.6453 133.594H57.3547L55.0109 128.906H98.9891ZM128.562 142.969H25.4375C21.4947 142.963 17.6856 141.539 14.7057 138.957C11.7258 136.376 9.77414 132.808 9.20703 128.906H49.7703L53.8086 136.985C54.0033 137.375 54.3027 137.702 54.6732 137.931C55.0437 138.16 55.4707 138.281 55.9062 138.281H98.0938C98.5313 138.284 98.9608 138.163 99.3335 137.934C99.7063 137.705 100.008 137.377 100.203 136.985L104.23 128.906H144.793C144.226 132.808 142.274 136.376 139.294 138.957C136.314 141.539 132.505 142.963 128.562 142.969Z" fill="black"/>
<path d="M53.7687 84.007L55.4094 98.7257C55.6137 100.579 56.4949 102.293 57.884 103.537C59.2731 104.781 61.0726 105.469 62.9375 105.469H91.0625C92.9285 105.471 94.7296 104.784 96.12 103.54C97.5104 102.295 98.3919 100.581 98.5953 98.7257L100.236 84.007C101.747 83.5359 103.055 82.566 103.943 81.2557C104.832 79.9454 105.25 78.3723 105.128 76.7937C105.007 75.2151 104.354 73.7244 103.275 72.5654C102.196 71.4064 100.756 70.6476 99.1906 70.4132C100.003 68.9087 100.431 67.2269 100.437 65.5171C100.438 64.031 99.9599 62.5843 99.0745 61.3907C98.1891 60.1972 96.9431 59.3202 95.5208 58.8895C94.0985 58.4587 92.5753 58.4971 91.1765 58.9988C89.7776 59.5006 88.5774 60.4392 87.7531 61.6757L81.9969 70.3124H72.0031L66.2469 61.6757C65.4226 60.4392 64.2224 59.5006 62.8235 58.9988C61.4247 58.4971 59.9015 58.4587 58.4792 58.8895C57.0569 59.3202 55.8109 60.1972 54.9255 61.3907C54.0401 62.5843 53.5622 64.031 53.5625 65.5171C53.5687 67.2305 53.9987 68.9157 54.8141 70.4226C53.2482 70.657 51.8083 71.4157 50.7297 72.5748C49.6511 73.7338 48.9977 75.2245 48.8763 76.8031C48.7549 78.3817 49.1727 79.9547 50.0614 81.265C50.9502 82.5753 52.2572 83.5453 53.7687 84.0164V84.007ZM91.0625 100.781H62.9375C62.2245 100.782 61.5365 100.519 61.0057 100.043C60.4748 99.5672 60.1386 98.9119 60.0617 98.2031L58.5242 84.3749H95.4758L93.9383 98.2031C93.8614 98.9119 93.5252 99.5672 92.9943 100.043C92.4635 100.519 91.7754 100.782 91.0625 100.781ZM79.7469 79.6874H74.2531C74.5118 78.97 74.648 78.2141 74.6562 77.4515C74.6483 76.6245 74.5413 75.8015 74.3375 74.9999H79.6625C79.4587 75.8015 79.3517 76.6245 79.3437 77.4515C79.3519 78.2141 79.4882 78.97 79.7469 79.6874ZM100.437 77.3437C100.437 77.9653 100.191 78.5614 99.751 79.001C99.3115 79.4405 98.7153 79.6874 98.0937 79.6874H93.0969L96.2187 74.9999H98.0937C98.7153 74.9999 99.3115 75.2469 99.751 75.6864C100.191 76.1259 100.437 76.7221 100.437 77.3437ZM84.9969 74.2617L91.6531 64.2773C91.9192 63.8778 92.3068 63.5745 92.7585 63.4123C93.2103 63.2502 93.7023 63.2377 94.1617 63.3767C94.6211 63.5157 95.0236 63.7989 95.3096 64.1844C95.5957 64.5699 95.7501 65.0371 95.75 65.5171C95.7505 66.6525 95.4145 67.7625 94.7844 68.707L88.1281 78.6914C87.862 79.0908 87.4744 79.3941 87.0227 79.5563C86.5709 79.7185 86.0789 79.731 85.6195 79.5919C85.1601 79.4529 84.7576 79.1697 84.4716 78.7843C84.1856 78.3988 84.0312 77.9315 84.0312 77.4515C84.0307 76.3161 84.3667 75.2061 84.9969 74.2617ZM60.4859 63.2812C60.8542 63.2807 61.2169 63.3715 61.5416 63.5453C61.8663 63.7191 62.143 63.9706 62.3469 64.2773L69.0031 74.2617C69.6333 75.2061 69.9693 76.3161 69.9687 77.4515C69.9688 77.9315 69.8144 78.3988 69.5284 78.7843C69.2424 79.1697 68.8399 79.4529 68.3805 79.5919C67.921 79.731 67.4291 79.7185 66.9773 79.5563C66.5255 79.3941 66.138 79.0908 65.8719 78.6914L59.2156 68.707C58.5855 67.7625 58.2494 66.6525 58.25 65.5171C58.2506 64.9243 58.4864 64.356 58.9056 63.9368C59.3248 63.5176 59.8931 63.2818 60.4859 63.2812ZM55.9062 74.9999H57.7812L60.9078 79.6874H55.9062C55.2846 79.6874 54.6885 79.4405 54.249 79.001C53.8094 78.5614 53.5625 77.9653 53.5625 77.3437C53.5625 76.7221 53.8094 76.1259 54.249 75.6864C54.6885 75.2469 55.2846 74.9999 55.9062 74.9999Z" fill="black"/>
<path d="M69.9688 89.0625H65.2812V96.0938H69.9688V89.0625Z" fill="black"/>
<path d="M79.3438 89.0625H74.6562V96.0938H79.3438V89.0625Z" fill="black"/>
<path d="M88.7188 89.0625H84.0312V96.0938H88.7188V89.0625Z" fill="black"/>
</g>
<defs>
<filter id="filter0_d_52_26" x="-2" y="0" width="158" height="158" filterUnits="userSpaceOnUse" color-interpolation-filters="sRGB">
<feFlood flood-opacity="0" result="BackgroundImageFix"/>
<feColorMatrix in="SourceAlpha" type="matrix" values="0 0 0 0 0 0 0 0 0 0 0 0 0 0 0 0 0 0 127 0" result="hardAlpha"/>
<feOffset dy="4"/>
<feGaussianBlur stdDeviation="2"/>
<feComposite in2="hardAlpha" operator="out"/>
<feColorMatrix type="matrix" values="0 0 0 0 0 0 0 0 0 0 0 0 0 0 0 0 0 0 0.25 0"/>
<feBlend mode="normal" in2="BackgroundImageFix" result="effect1_dropShadow_52_26"/>
<feBlend mode="normal" in="SourceGraphic" in2="effect1_dropShadow_52_26" result="shape"/>
</filter>
</defs>
</svg>
