<svg width="120" height="120" viewBox="0 0 120 120" fill="none" xmlns="http://www.w3.org/2000/svg">
<path d="M33.7508 27.0499C33.755 23.8339 33.7746 21.1341 33.7912 18.8582C33.8207 14.7974 33.8404 12.086 33.7453 10.1995C33.6671 8.64848 33.5082 7.50806 33.1524 6.56722C32.8365 5.73184 32.3918 5.12216 31.858 4.54994H75C76.6576 4.54994 78.2473 5.20842 79.4194 6.38052C80.5915 7.55262 81.25 9.14234 81.25 10.7999V27.0499H33.7508Z" fill="#DAD7E5" stroke="black" stroke-width="2.5"/>
<path d="M33.75 8.75V16.25H21.25V8.75C21.25 7.50511 21.8417 6.25355 22.9969 5.29086C24.1588 4.32262 25.7762 3.75 27.5 3.75C29.2238 3.75 30.8412 4.32262 32.0031 5.29086C33.1583 6.25355 33.75 7.50511 33.75 8.75Z" fill="#C6C3D8" stroke="black" stroke-width="2.5"/>
<path d="M81.25 10V18.75H45C44.0054 18.75 43.0516 18.3549 42.3484 17.6517C41.6451 16.9484 41.25 15.9946 41.25 15C41.25 14.1291 41.2593 13.3155 41.2681 12.548C41.3086 8.99597 41.3379 6.43307 40.382 3.75H75C76.6576 3.75 78.2473 4.40848 79.4194 5.58058C80.5915 6.75269 81.25 8.3424 81.25 10Z" fill="#EDEBF2" stroke="black" stroke-width="2.5"/>
<path d="M88.75 35C88.75 54.8349 88.7589 69.4888 88.7655 80.3328C88.7725 91.722 88.7768 98.9087 88.7656 103.481C88.7547 107.959 88.7286 109.893 88.6781 110.809C88.6527 111.27 88.6243 111.388 88.6177 111.412L88.6176 111.413C88.6153 111.421 88.6134 111.428 88.5888 111.493L88.5865 111.499C88.5606 111.567 88.5205 111.672 88.4782 111.814C88.0891 113.097 87.2982 114.22 86.2221 115.019C85.1455 115.818 83.8406 116.249 82.5 116.25C82.4999 116.25 82.4997 116.25 82.4996 116.25H32.5C30.8424 116.25 29.2527 115.592 28.0806 114.419C26.9085 113.247 26.25 111.658 26.25 110V35C26.25 33.3424 26.9085 31.7527 28.0806 30.5806C29.2527 29.4085 30.8424 28.75 32.5 28.75H82.5C84.1576 28.75 85.7473 29.4085 86.9194 30.5806C88.0915 31.7527 88.75 33.3424 88.75 35Z" fill="#374F68" stroke="black" stroke-width="2.5"/>
<path d="M88.75 35V108.75H40C38.3424 108.75 36.7527 108.092 35.5806 106.919C34.4085 105.747 33.75 104.158 33.75 102.5V28.75H82.5C84.1576 28.75 85.7473 29.4085 86.9194 30.5806C88.0915 31.7527 88.75 33.3424 88.75 35Z" fill="#425B72" stroke="black" stroke-width="2.5"/>
<path d="M37.5 40C37.5 38.6193 38.6193 37.5 40 37.5H80C81.3807 37.5 82.5 38.6193 82.5 40V57.5C82.5 58.8807 81.3807 60 80 60H40C38.6193 60 37.5 58.8807 37.5 57.5V40Z" fill="#9FDBF3"/>
<path d="M80 37.5C81.3807 37.5 82.5 38.6193 82.5 40V50C82.5 51.3807 81.3807 52.5 80 52.5H60C56.0218 52.5 52.2064 50.9196 49.3934 48.1066C47.1739 45.8871 45.7218 43.0437 45.2078 39.9886C44.9787 38.627 46.1193 37.5 47.5 37.5H80Z" fill="#B2E5FB"/>
<path d="M91.25 42.5C91.25 41.8096 91.8096 41.25 92.5 41.25H97.5C98.1904 41.25 98.75 41.8096 98.75 42.5V102.5C98.75 103.19 98.1904 103.75 97.5 103.75H92.5C91.8096 103.75 91.25 103.19 91.25 102.5V42.5Z" fill="#374F68" stroke="black" stroke-width="2.5"/>
<path d="M97.5 40C98.8807 40 100 41.1626 99.9998 42.5434C99.9928 98.908 99.7536 97.5 100 97.5C98.6739 97.5 97.4021 96.9732 96.4645 96.0355C95.5268 95.0979 95 93.8261 95 92.5V42.5C95 41.1193 96.1193 40 97.5 40Z" fill="black"/>
<path d="M72.8571 15H47.1429C46.5745 15 46.0295 14.8683 45.6276 14.6339C45.2258 14.3995 45 14.0815 45 13.75C45 13.4185 45.2258 13.1005 45.6276 12.8661C46.0295 12.6317 46.5745 12.5 47.1429 12.5H72.8571C73.4255 12.5 73.9705 12.6317 74.3724 12.8661C74.7742 13.1005 75 13.4185 75 13.75C75 14.0815 74.7742 14.3995 74.3724 14.6339C73.9705 14.8683 73.4255 15 72.8571 15Z" fill="black"/>
<path d="M56.6071 10H45.8929C45.6561 10 45.429 9.8683 45.2615 9.63388C45.0941 9.39946 45 9.08152 45 8.75C45 8.41848 45.0941 8.10054 45.2615 7.86612C45.429 7.6317 45.6561 7.5 45.8929 7.5H56.6071C56.8439 7.5 57.071 7.6317 57.2385 7.86612C57.4059 8.10054 57.5 8.41848 57.5 8.75C57.5 9.08152 57.4059 9.39946 57.2385 9.63388C57.071 9.8683 56.8439 10 56.6071 10Z" fill="black"/>
<path d="M64.6429 10H60.3571C60.2624 10 60.1716 9.8683 60.1046 9.63388C60.0376 9.39946 60 9.08152 60 8.75C60 8.41848 60.0376 8.10054 60.1046 7.86612C60.1716 7.6317 60.2624 7.5 60.3571 7.5H64.6429C64.7376 7.5 64.8284 7.6317 64.8954 7.86612C64.9624 8.10054 65 8.41848 65 8.75C65 9.08152 64.9624 9.39946 64.8954 9.63388C64.8284 9.8683 64.7376 10 64.6429 10Z" fill="black"/>
<path d="M74.4643 10H68.0357C67.8936 10 67.7574 9.8683 67.6569 9.63388C67.5564 9.39946 67.5 9.08152 67.5 8.75C67.5 8.41848 67.5564 8.10054 67.6569 7.86612C67.7574 7.6317 67.8936 7.5 68.0357 7.5H74.4643C74.6064 7.5 74.7426 7.6317 74.8431 7.86612C74.9436 8.10054 75 8.41848 75 8.75C75 9.08152 74.9436 9.39946 74.8431 9.63388C74.7426 9.8683 74.6064 10 74.4643 10Z" fill="black"/>
<rect x="37.5" y="95.0001" width="12.5" height="10" rx="2.5" fill="#DD0606"/>
<rect x="37.5" y="75" width="12.5" height="7.5" rx="2.5" fill="white"/>
<rect x="37.5" y="84.9999" width="12.5" height="7.5" rx="2.5" fill="white"/>
<rect x="52.5" y="95.0001" width="12.5" height="10" rx="2.5" fill="#0EA20B"/>
<rect x="52.5" y="75" width="12.5" height="7.5" rx="2.5" fill="white"/>
<rect x="52.5" y="84.9999" width="12.5" height="7.5" rx="2.5" fill="white"/>
<rect x="70" y="84.9999" width="12.5" height="7.5" rx="2.5" fill="white"/>
<rect x="70" y="95.0001" width="12.5" height="10" rx="2.5" fill="#FFE600"/>
<rect x="70" y="75" width="12.5" height="7.5" rx="2.5" fill="white"/>
<rect x="70" y="65" width="12.5" height="7.5" rx="2.5" fill="white"/>
<rect x="52.5" y="65" width="12.5" height="7.5" rx="2.5" fill="white"/>
<rect x="37.5" y="65" width="12.5" height="7.5" rx="2.5" fill="white"/>
</svg>
