<svg width="120" height="120" viewBox="0 0 120 120" fill="none" xmlns="http://www.w3.org/2000/svg">
<g filter="url(#filter0_d_55_60)">
<path d="M106.875 28.1398H99.4894V86.2348C99.4894 86.7321 99.2918 87.209 98.9402 87.5606C98.5886 87.9122 98.1117 88.1098 97.6144 88.1098H22.6144C22.1171 88.1098 21.6402 87.9122 21.2885 87.5606C20.9369 87.209 20.7394 86.7321 20.7394 86.2348V28.1398H13.125V91.8898H106.875V28.1398Z" fill="#F2F2FC"/>
<path d="M69.375 95.6398V101.265C69.375 101.762 69.1775 102.239 68.8258 102.591C68.4742 102.942 67.9973 103.14 67.5 103.14H52.5C52.0027 103.14 51.5258 102.942 51.1742 102.591C50.8225 102.239 50.625 101.762 50.625 101.265V95.6398H9.50812C9.96125 98.7628 11.5235 101.618 13.9091 103.684C16.2947 105.75 19.3443 106.888 22.5 106.89H97.5C100.656 106.89 103.707 105.753 106.093 103.687C108.479 101.621 110.041 98.7638 110.492 95.6398H69.375Z" fill="#61729B"/>
<path d="M65.625 95.6398H54.375V99.3898H65.625V95.6398Z" fill="#2C3B73"/>
<path d="M95.7394 23.8237H24.4894V84.36H95.7394V23.8237ZM42.0637 29.6006C42.561 29.6006 43.0379 29.7981 43.3896 30.1498C43.7412 30.5014 43.9387 30.9783 43.9387 31.4756V43.575H56.0381C56.5354 43.575 57.0123 43.7725 57.3639 44.1242C57.7156 44.4758 57.9131 44.9527 57.9131 45.45C57.9131 48.5847 56.9836 51.649 55.242 54.2554C53.5005 56.8618 51.0251 58.8933 48.129 60.0929C45.2329 61.2925 42.0462 61.6064 38.9717 60.9948C35.8972 60.3833 33.0731 58.8738 30.8565 56.6572C28.64 54.4406 27.1305 51.6165 26.5189 48.542C25.9074 45.4676 26.2212 42.2808 27.4208 39.3847C28.6204 36.4886 30.6519 34.0133 33.2583 32.2717C35.8647 30.5302 38.929 29.6006 42.0637 29.6006ZM62.1037 78.7256C62.1037 79.2229 61.9062 79.6998 61.5546 80.0514C61.2029 80.4031 60.726 80.6006 60.2287 80.6006H30.2287C29.7315 80.6006 29.2546 80.4031 28.9029 80.0514C28.5513 79.6998 28.3537 79.2229 28.3537 78.7256V67.4756C28.3537 66.9783 28.5513 66.5014 28.9029 66.1498C29.2546 65.7981 29.7315 65.6006 30.2287 65.6006H60.2287C60.726 65.6006 61.2029 65.7981 61.5546 66.1498C61.9062 66.5014 62.1037 66.9783 62.1037 67.4756V78.7256ZM60.2306 43.125H46.2562C45.759 43.125 45.2821 42.9274 44.9304 42.5758C44.5788 42.2242 44.3812 41.7473 44.3812 41.25V27.2831C44.3812 26.7858 44.5788 26.3089 44.9304 25.9573C45.2821 25.6056 45.759 25.4081 46.2562 25.4081C50.4579 25.4101 54.4869 27.0795 57.4586 30.0498C60.4303 33.0201 62.1017 37.0484 62.1056 41.25C62.1056 41.7473 61.9081 42.2242 61.5564 42.5758C61.2048 42.9274 60.7279 43.125 60.2306 43.125ZM69.6394 78.7256C69.6394 79.2229 69.4418 79.6998 69.0902 80.0514C68.7386 80.4031 68.2617 80.6006 67.7644 80.6006C67.2671 80.6006 66.7902 80.4031 66.4385 80.0514C66.0869 79.6998 65.8894 79.2229 65.8894 78.7256V67.4756C65.8894 66.9783 66.0869 66.5014 66.4385 66.1498C66.7902 65.7981 67.2671 65.6006 67.7644 65.6006C68.2617 65.6006 68.7386 65.7981 69.0902 66.1498C69.4418 66.5014 69.6394 66.9783 69.6394 67.4756V78.7256ZM77.1394 78.7256C77.1394 79.2229 76.9418 79.6998 76.5902 80.0514C76.2386 80.4031 75.7617 80.6006 75.2644 80.6006C74.7671 80.6006 74.2902 80.4031 73.9385 80.0514C73.5869 79.6998 73.3894 79.2229 73.3894 78.7256V63.7256C73.3894 63.2283 73.5869 62.7514 73.9385 62.3998C74.2902 62.0481 74.7671 61.8506 75.2644 61.8506C75.7617 61.8506 76.2386 62.0481 76.5902 62.3998C76.9418 62.7514 77.1394 63.2283 77.1394 63.7256V78.7256ZM84.6394 78.7256C84.6394 79.2229 84.4418 79.6998 84.0902 80.0514C83.7386 80.4031 83.2617 80.6006 82.7644 80.6006C82.2671 80.6006 81.7902 80.4031 81.4385 80.0514C81.0869 79.6998 80.8894 79.2229 80.8894 78.7256V60.9131C80.8894 60.4158 81.0869 59.9389 81.4385 59.5873C81.7902 59.2357 82.2671 59.0381 82.7644 59.0381C83.2617 59.0381 83.7386 59.2357 84.0902 59.5873C84.4418 59.9389 84.6394 60.4158 84.6394 60.9131V78.7256ZM92.1038 78.7256C92.1038 79.2229 91.9062 79.6998 91.5546 80.0514C91.2029 80.4031 90.726 80.6006 90.2288 80.6006C89.7315 80.6006 89.2546 80.4031 88.9029 80.0514C88.5513 79.6998 88.3537 79.2229 88.3537 78.7256V56.2256C88.3537 55.7283 88.5513 55.2514 88.9029 54.8998C89.2546 54.5482 89.7315 54.3506 90.2288 54.3506C90.726 54.3506 91.2029 54.5482 91.5546 54.8998C91.9062 55.2514 92.1038 55.7283 92.1038 56.2256V78.7256ZM92.3381 50.6006H65.4712C64.974 50.6006 64.497 50.4031 64.1454 50.0514C63.7938 49.6998 63.5962 49.2229 63.5962 48.7256C63.5962 48.2283 63.7938 47.7514 64.1454 47.3998C64.497 47.0482 64.974 46.8506 65.4712 46.8506H92.3381C92.8354 46.8506 93.3123 47.0482 93.6639 47.3998C94.0156 47.7514 94.2131 48.2283 94.2131 48.7256C94.2131 49.2229 94.0156 49.6998 93.6639 50.0514C93.3123 50.4031 92.8354 50.6006 92.3381 50.6006ZM92.3381 45.2437H65.4712C64.974 45.2437 64.497 45.0462 64.1454 44.6946C63.7938 44.3429 63.5962 43.866 63.5962 43.3687C63.5962 42.8714 63.7938 42.3945 64.1454 42.0429C64.497 41.6913 64.974 41.4937 65.4712 41.4937H92.3381C92.8354 41.4937 93.3123 41.6913 93.6639 42.0429C94.0156 42.3945 94.2131 42.8714 94.2131 43.3687C94.2131 43.866 94.0156 44.3429 93.6639 44.6946C93.3123 45.0462 92.8354 45.2437 92.3381 45.2437ZM92.3381 39.8869H65.4712C64.974 39.8869 64.497 39.6893 64.1454 39.3377C63.7938 38.986 63.5962 38.5091 63.5962 38.0119C63.5962 37.5146 63.7938 37.0377 64.1454 36.686C64.497 36.3344 64.974 36.1369 65.4712 36.1369H92.3381C92.8354 36.1369 93.3123 36.3344 93.6639 36.686C94.0156 37.0377 94.2131 37.5146 94.2131 38.0119C94.2131 38.5091 94.0156 38.986 93.6639 39.3377C93.3123 39.6893 92.8354 39.8869 92.3381 39.8869ZM92.3381 34.53H65.4712C64.974 34.53 64.497 34.3324 64.1454 33.9808C63.7938 33.6292 63.5962 33.1523 63.5962 32.655C63.5962 32.1577 63.7938 31.6808 64.1454 31.3292C64.497 30.9775 64.974 30.78 65.4712 30.78H92.3381C92.8354 30.78 93.3123 30.9775 93.6639 31.3292C94.0156 31.6808 94.2131 32.1577 94.2131 32.655C94.2131 33.1523 94.0156 33.6292 93.6639 33.9808C93.3123 34.3324 92.8354 34.53 92.3381 34.53Z" fill="#D8D8FC"/>
<path d="M95.7394 13.1099H24.4894V20.0736H95.7394V13.1099ZM33.3281 18.4667H27.9712C27.474 18.4667 26.9971 18.2692 26.6454 17.9176C26.2938 17.5659 26.0962 17.089 26.0962 16.5917C26.0962 16.0945 26.2938 15.6175 26.6454 15.2659C26.9971 14.9143 27.474 14.7167 27.9712 14.7167H33.3281C33.8254 14.7167 34.3023 14.9143 34.6539 15.2659C35.0056 15.6175 35.2031 16.0945 35.2031 16.5917C35.2031 17.089 35.0056 17.5659 34.6539 17.9176C34.3023 18.2692 33.8254 18.4667 33.3281 18.4667ZM44.0437 18.4667H38.685C38.1877 18.4667 37.7108 18.2692 37.3592 17.9176C37.0075 17.5659 36.81 17.089 36.81 16.5917C36.81 16.0945 37.0075 15.6175 37.3592 15.2659C37.7108 14.9143 38.1877 14.7167 38.685 14.7167H44.0437C44.541 14.7167 45.0179 14.9143 45.3696 15.2659C45.7212 15.6175 45.9187 16.0945 45.9187 16.5917C45.9187 17.089 45.7212 17.5659 45.3696 17.9176C45.0179 18.2692 44.541 18.4667 44.0437 18.4667ZM54.7575 18.4667H49.4006C48.9033 18.4667 48.4264 18.2692 48.0748 17.9176C47.7232 17.5659 47.5256 17.089 47.5256 16.5917C47.5256 16.0945 47.7232 15.6175 48.0748 15.2659C48.4264 14.9143 48.9033 14.7167 49.4006 14.7167H54.75C55.2473 14.7167 55.7242 14.9143 56.0758 15.2659C56.4275 15.6175 56.625 16.0945 56.625 16.5917C56.625 17.089 56.4275 17.5659 56.0758 17.9176C55.7242 18.2692 55.2473 18.4667 54.75 18.4667H54.7575Z" fill="#2C3B73"/>
<path d="M112.5 91.8899H110.625V26.2649C110.625 25.7676 110.427 25.2907 110.076 24.939C109.724 24.5874 109.247 24.3899 108.75 24.3899H99.4894V11.2349C99.4894 10.7376 99.2918 10.2607 98.9402 9.90904C98.5886 9.55741 98.1117 9.35986 97.6144 9.35986H22.6144C22.1171 9.35986 21.6402 9.55741 21.2885 9.90904C20.9369 10.2607 20.7394 10.7376 20.7394 11.2349V24.3899H11.25C10.7527 24.3899 10.2758 24.5874 9.92418 24.939C9.57254 25.2907 9.375 25.7676 9.375 26.2649V91.8899H7.5C7.00272 91.8899 6.52581 92.0874 6.17417 92.439C5.82254 92.7907 5.625 93.2676 5.625 93.7649C5.625 98.2404 7.4029 102.533 10.5676 105.697C13.7322 108.862 18.0245 110.64 22.5 110.64H97.5C101.976 110.64 106.268 108.862 109.432 105.697C112.597 102.533 114.375 98.2404 114.375 93.7649C114.375 93.2676 114.177 92.7907 113.826 92.439C113.474 92.0874 112.997 91.8899 112.5 91.8899ZM97.5 106.89H22.5C19.3443 106.888 16.2947 105.75 13.9091 103.684C11.5235 101.618 9.96126 98.7629 9.50813 95.6399H50.625V101.265C50.625 101.762 50.8225 102.239 51.1742 102.591C51.5258 102.942 52.0027 103.14 52.5 103.14H67.5C67.9973 103.14 68.4742 102.942 68.8258 102.591C69.1775 102.239 69.375 101.762 69.375 101.265V95.6399H110.492C110.041 98.7639 108.479 101.621 106.093 103.687C103.707 105.753 100.656 106.89 97.5 106.89ZM24.4894 23.8274H95.7394V84.3599H24.4894V23.8274ZM24.4894 13.1136H95.7394V20.0774H24.4894V13.1136ZM13.125 28.1399H20.7394V86.2349C20.7394 86.7321 20.9369 87.2091 21.2885 87.5607C21.6402 87.9123 22.1171 88.1099 22.6144 88.1099H97.6144C98.1117 88.1099 98.5886 87.9123 98.9402 87.5607C99.2918 87.2091 99.4894 86.7321 99.4894 86.2349V28.1399H106.875V91.8899H13.125V28.1399ZM54.375 95.6399H65.625V99.3899H54.375V95.6399Z" fill="black"/>
<path d="M33.3281 14.7168H27.9713C27.474 14.7168 26.9971 14.9143 26.6454 15.266C26.2938 15.6176 26.0963 16.0945 26.0963 16.5918C26.0963 17.0891 26.2938 17.566 26.6454 17.9176C26.9971 18.2693 27.474 18.4668 27.9713 18.4668H33.3281C33.8254 18.4668 34.3023 18.2693 34.654 17.9176C35.0056 17.566 35.2031 17.0891 35.2031 16.5918C35.2031 16.0945 35.0056 15.6176 34.654 15.266C34.3023 14.9143 33.8254 14.7168 33.3281 14.7168Z" fill="#D8D8FC"/>
<path d="M44.0438 14.7168H38.685C38.1877 14.7168 37.7108 14.9143 37.3592 15.266C37.0075 15.6176 36.81 16.0945 36.81 16.5918C36.81 17.0891 37.0075 17.566 37.3592 17.9176C37.7108 18.2693 38.1877 18.4668 38.685 18.4668H44.0438C44.541 18.4668 45.0179 18.2693 45.3696 17.9176C45.7212 17.566 45.9188 17.0891 45.9188 16.5918C45.9188 16.0945 45.7212 15.6176 45.3696 15.266C45.0179 14.9143 44.541 14.7168 44.0438 14.7168Z" fill="#D8D8FC"/>
<path d="M54.75 14.7168H49.4006C48.9033 14.7168 48.4264 14.9143 48.0748 15.266C47.7232 15.6176 47.5256 16.0945 47.5256 16.5918C47.5256 17.0891 47.7232 17.566 48.0748 17.9176C48.4264 18.2693 48.9033 18.4668 49.4006 18.4668H54.75C55.2473 18.4668 55.7242 18.2693 56.0758 17.9176C56.4275 17.566 56.625 17.0891 56.625 16.5918C56.625 16.0945 56.4275 15.6176 56.0758 15.266C55.7242 14.9143 55.2473 14.7168 54.75 14.7168Z" fill="#D8D8FC"/>
<path d="M42.0638 57.551C44.9477 57.5491 47.7363 56.518 49.9278 54.6434C52.1194 52.7688 53.57 50.1736 54.0188 47.3248H42.0638C41.5665 47.3248 41.0896 47.1272 40.7379 46.7756C40.3863 46.4239 40.1888 45.947 40.1888 45.4498V33.4948C37.179 33.967 34.4581 35.557 32.5694 37.9475C30.6807 40.3379 29.763 43.3528 29.9998 46.3901C30.2365 49.4274 31.6102 52.2637 33.8465 54.3326C36.0828 56.4015 39.0172 57.5508 42.0638 57.551Z" fill="#FDBF00"/>
<path d="M42.0638 61.3012C46.2667 61.2992 50.2969 59.6287 53.2688 56.6568C56.2407 53.6849 57.9111 49.6547 57.9131 45.4518C57.9131 44.9546 57.7156 44.4776 57.364 44.126C57.0123 43.7744 56.5354 43.5768 56.0381 43.5768H43.9388V31.4756C43.9388 30.9783 43.7412 30.5014 43.3896 30.1498C43.0379 29.7981 42.561 29.6006 42.0638 29.6006C37.86 29.6006 33.8284 31.2705 30.8559 34.243C27.8834 37.2155 26.2134 41.2471 26.2134 45.4509C26.2134 49.6547 27.8834 53.6863 30.8559 56.6588C33.8284 59.6313 37.86 61.3012 42.0638 61.3012ZM40.1888 33.495V45.45C40.1888 45.9472 40.3863 46.4242 40.7379 46.7758C41.0896 47.1274 41.5665 47.325 42.0638 47.325H54.0188C53.6727 49.5313 52.7229 51.5989 51.2744 53.2987C49.826 54.9986 47.9353 56.2645 45.8119 56.9562C43.6884 57.648 41.4149 57.7386 39.2431 57.2181C37.0713 56.6975 35.0859 55.5862 33.5067 54.007C31.9276 52.4278 30.8162 50.4424 30.2957 48.2706C29.7751 46.0988 29.8658 43.8253 30.5575 41.7018C31.2492 39.5784 32.5151 37.6877 34.215 36.2393C35.9149 34.7908 37.9824 33.841 40.1888 33.495Z" fill="black"/>
<path d="M48.1294 29.3025V39.375H58.2094C57.8082 36.8467 56.6169 34.5103 54.806 32.7009C52.9952 30.8914 50.658 29.7017 48.1294 29.3025Z" fill="#4BB9EC"/>
<path d="M46.2563 25.4078C45.759 25.4078 45.2821 25.6054 44.9304 25.957C44.5788 26.3086 44.3813 26.7856 44.3813 27.2828V41.2497C44.3813 41.747 44.5788 42.2239 44.9304 42.5755C45.2821 42.9272 45.759 43.1247 46.2563 43.1247H60.2306C60.7279 43.1247 61.2048 42.9272 61.5565 42.5755C61.9081 42.2239 62.1056 41.747 62.1056 41.2497C62.1017 37.0481 60.4303 33.0198 57.4586 30.0496C54.4869 27.0793 50.4579 25.4098 46.2563 25.4078ZM48.1313 39.3822V29.3022C50.6599 29.7015 52.9971 30.8911 54.8079 32.7006C56.6187 34.51 57.8101 36.8464 58.2113 39.3747L48.1313 39.3822Z" fill="black"/>
<path d="M67.7644 65.6099C67.2671 65.6099 66.7902 65.8074 66.4386 66.159C66.0869 66.5107 65.8894 66.9876 65.8894 67.4849V78.7349C65.8894 79.2321 66.0869 79.7091 66.4386 80.0607C66.7902 80.4123 67.2671 80.6099 67.7644 80.6099C68.2617 80.6099 68.7386 80.4123 69.0902 80.0607C69.4418 79.7091 69.6394 79.2321 69.6394 78.7349V67.4849C69.6394 66.9876 69.4418 66.5107 69.0902 66.159C68.7386 65.8074 68.2617 65.6099 67.7644 65.6099Z" fill="black"/>
<path d="M75.2644 61.8599C74.7671 61.8599 74.2902 62.0574 73.9386 62.409C73.5869 62.7607 73.3894 63.2376 73.3894 63.7349V78.7349C73.3894 79.2321 73.5869 79.7091 73.9386 80.0607C74.2902 80.4123 74.7671 80.6099 75.2644 80.6099C75.7617 80.6099 76.2386 80.4123 76.5902 80.0607C76.9418 79.7091 77.1394 79.2321 77.1394 78.7349V63.7349C77.1394 63.2376 76.9418 62.7607 76.5902 62.409C76.2386 62.0574 75.7617 61.8599 75.2644 61.8599Z" fill="black"/>
<path d="M82.7644 59.0474C82.2671 59.0474 81.7902 59.2449 81.4386 59.5965C81.0869 59.9482 80.8894 60.4251 80.8894 60.9224V78.7349C80.8894 79.2321 81.0869 79.7091 81.4386 80.0607C81.7902 80.4123 82.2671 80.6099 82.7644 80.6099C83.2617 80.6099 83.7386 80.4123 84.0902 80.0607C84.4418 79.7091 84.6394 79.2321 84.6394 78.7349V60.9224C84.6394 60.4251 84.4418 59.9482 84.0902 59.5965C83.7386 59.2449 83.2617 59.0474 82.7644 59.0474Z" fill="black"/>
<path d="M90.2288 54.3599C89.7315 54.3599 89.2546 54.5574 88.9029 54.909C88.5513 55.2607 88.3538 55.7376 88.3538 56.2349V78.7349C88.3538 79.2321 88.5513 79.7091 88.9029 80.0607C89.2546 80.4123 89.7315 80.6099 90.2288 80.6099C90.726 80.6099 91.2029 80.4123 91.5546 80.0607C91.9062 79.7091 92.1038 79.2321 92.1038 78.7349V56.2349C92.1038 55.7376 91.9062 55.2607 91.5546 54.909C91.2029 54.5574 90.726 54.3599 90.2288 54.3599Z" fill="black"/>
<path d="M92.3381 30.7892H65.4712C64.974 30.7892 64.4971 30.9867 64.1454 31.3384C63.7938 31.69 63.5962 32.1669 63.5962 32.6642C63.5962 33.1615 63.7938 33.6384 64.1454 33.99C64.4971 34.3416 64.974 34.5392 65.4712 34.5392H92.3381C92.8354 34.5392 93.3123 34.3416 93.6639 33.99C94.0156 33.6384 94.2131 33.1615 94.2131 32.6642C94.2131 32.1669 94.0156 31.69 93.6639 31.3384C93.3123 30.9867 92.8354 30.7892 92.3381 30.7892Z" fill="black"/>
<path d="M92.3381 36.1461H65.4712C64.974 36.1461 64.4971 36.3437 64.1454 36.6953C63.7938 37.0469 63.5962 37.5238 63.5962 38.0211C63.5962 38.5184 63.7938 38.9953 64.1454 39.3469C64.4971 39.6986 64.974 39.8961 65.4712 39.8961H92.3381C92.8354 39.8961 93.3123 39.6986 93.6639 39.3469C94.0156 38.9953 94.2131 38.5184 94.2131 38.0211C94.2131 37.5238 94.0156 37.0469 93.6639 36.6953C93.3123 36.3437 92.8354 36.1461 92.3381 36.1461Z" fill="black"/>
<path d="M92.3381 41.5029H65.4712C64.974 41.5029 64.4971 41.7005 64.1454 42.0521C63.7938 42.4037 63.5962 42.8806 63.5962 43.3779C63.5962 43.8752 63.7938 44.3521 64.1454 44.7038C64.4971 45.0554 64.974 45.2529 65.4712 45.2529H92.3381C92.8354 45.2529 93.3123 45.0554 93.6639 44.7038C94.0156 44.3521 94.2131 43.8752 94.2131 43.3779C94.2131 42.8806 94.0156 42.4037 93.6639 42.0521C93.3123 41.7005 92.8354 41.5029 92.3381 41.5029Z" fill="black"/>
<path d="M92.3381 46.8599H65.4712C64.974 46.8599 64.4971 47.0574 64.1454 47.409C63.7938 47.7607 63.5962 48.2376 63.5962 48.7349C63.5962 49.2321 63.7938 49.7091 64.1454 50.0607C64.4971 50.4123 64.974 50.6099 65.4712 50.6099H92.3381C92.8354 50.6099 93.3123 50.4123 93.6639 50.0607C94.0156 49.7091 94.2131 49.2321 94.2131 48.7349C94.2131 48.2376 94.0156 47.7607 93.6639 47.409C93.3123 47.0574 92.8354 46.8599 92.3381 46.8599Z" fill="black"/>
<path d="M58.3538 69.3599H32.1038V76.8599H58.3538V69.3599Z" fill="#F03800"/>
<path d="M60.2288 65.6099H30.2288C29.7315 65.6099 29.2546 65.8074 28.9029 66.159C28.5513 66.5107 28.3538 66.9876 28.3538 67.4849V78.7349C28.3538 79.2321 28.5513 79.7091 28.9029 80.0607C29.2546 80.4123 29.7315 80.6099 30.2288 80.6099H60.2288C60.726 80.6099 61.2029 80.4123 61.5546 80.0607C61.9062 79.7091 62.1038 79.2321 62.1038 78.7349V67.4849C62.1038 66.9876 61.9062 66.5107 61.5546 66.159C61.2029 65.8074 60.726 65.6099 60.2288 65.6099ZM58.3538 76.8599H32.1038V69.3599H58.3538V76.8599Z" fill="black"/>
</g>
<defs>
<filter id="filter0_d_55_60" x="-4" y="0" width="128" height="128" filterUnits="userSpaceOnUse" color-interpolation-filters="sRGB">
<feFlood flood-opacity="0" result="BackgroundImageFix"/>
<feColorMatrix in="SourceAlpha" type="matrix" values="0 0 0 0 0 0 0 0 0 0 0 0 0 0 0 0 0 0 127 0" result="hardAlpha"/>
<feOffset dy="4"/>
<feGaussianBlur stdDeviation="2"/>
<feComposite in2="hardAlpha" operator="out"/>
<feColorMatrix type="matrix" values="0 0 0 0 0 0 0 0 0 0 0 0 0 0 0 0 0 0 0.25 0"/>
<feBlend mode="normal" in2="BackgroundImageFix" result="effect1_dropShadow_55_60"/>
<feBlend mode="normal" in="SourceGraphic" in2="effect1_dropShadow_55_60" result="shape"/>
</filter>
</defs>
</svg>
