<svg width="120" height="120" viewBox="0 0 120 120" fill="none" xmlns="http://www.w3.org/2000/svg">
<path d="M105 22.5H86.25V33.75H105V22.5Z" fill="#CCCCCC"/>
<path d="M99.375 22.5H86.25V33.75H99.375V22.5Z" fill="#E6E6E6"/>
<path d="M33.75 22.5H15V33.75H33.75V22.5Z" fill="#CCCCCC"/>
<path d="M28.125 22.5H15V33.75H28.125V22.5Z" fill="#E6E6E6"/>
<path d="M108.75 33.75H11.25V75H108.75V33.75Z" fill="#E6E6E6"/>
<path d="M71.25 48.75H48.75V71.25H71.25V48.75Z" fill="#98856E"/>
<path d="M65.625 48.75H48.75V71.25H65.625V48.75Z" fill="#CBB292"/>
<path d="M26.25 41.25H18.75V48.75H26.25V41.25Z" fill="#849EB4"/>
<path d="M22.5 41.25H18.75V48.75H22.5V41.25Z" fill="#B0D3F0"/>
<path d="M26.25 56.25H18.75V63.75H26.25V56.25Z" fill="#849EB4"/>
<path d="M22.5 56.25H18.75V63.75H22.5V56.25Z" fill="#B0D3F0"/>
<path d="M41.25 56.25H33.75V63.75H41.25V56.25Z" fill="#849EB4"/>
<path d="M37.5 56.25H33.75V63.75H37.5V56.25Z" fill="#B0D3F0"/>
<path d="M41.25 41.25H33.75V48.75H41.25V41.25Z" fill="#849EB4"/>
<path d="M37.5 41.25H33.75V48.75H37.5V41.25Z" fill="#B0D3F0"/>
<path d="M86.25 41.25H78.75V48.75H86.25V41.25Z" fill="#849EB4"/>
<path d="M82.5 41.25H78.75V48.75H82.5V41.25Z" fill="#B0D3F0"/>
<path d="M86.25 56.25H78.75V63.75H86.25V56.25Z" fill="#849EB4"/>
<path d="M82.5 56.25H78.75V63.75H82.5V56.25Z" fill="#B0D3F0"/>
<path d="M101.25 56.25H93.75V63.75H101.25V56.25Z" fill="#849EB4"/>
<path d="M97.5 56.25H93.75V63.75H97.5V56.25Z" fill="#B0D3F0"/>
<path d="M101.25 41.25H93.75V48.75H101.25V41.25Z" fill="#849EB4"/>
<path d="M97.5 41.25H93.75V48.75H97.5V41.25Z" fill="#B0D3F0"/>
<path d="M112.5 75H7.5V108.75H112.5V75Z" fill="#F2F2F2"/>
<path d="M67.5 90H52.5V108.75H67.5V90Z" fill="#98856E"/>
<path d="M61.875 90H52.5V108.75H61.875V90Z" fill="#CBB292"/>
<path d="M26.25 86.25H15V101.25H26.25V86.25Z" fill="#849EB4"/>
<path d="M20.625 86.25H15V101.25H20.625V86.25Z" fill="#B0D3F0"/>
<path d="M105 86.25H93.75V101.25H105V86.25Z" fill="#849EB4"/>
<path d="M99.375 86.25H93.75V101.25H99.375V86.25Z" fill="#B0D3F0"/>
<path d="M33.75 15H11.25V22.5H33.75V15Z" fill="#993839"/>
<path d="M28.125 15H11.25V22.5H28.125V15Z" fill="#CC4B4C"/>
<path d="M108.75 15H86.25V22.5H108.75V15Z" fill="#993839"/>
<path d="M103.125 15H86.25V22.5H103.125V15Z" fill="#CC4B4C"/>
<path d="M86.25 3.75H33.75V33.75H86.25V3.75Z" fill="#BCBCBC"/>
<path d="M80.625 3.75H33.75V33.75H80.625V3.75Z" fill="white"/>
<path d="M41.25 78.75H33.75V108.75H41.25V78.75Z" fill="#98856E"/>
<path d="M37.5 78.75H33.75V108.75H37.5V78.75Z" fill="#CBB292"/>
<path d="M86.25 78.75H78.75V108.75H86.25V78.75Z" fill="#98856E"/>
<path d="M82.5 78.75H78.75V108.75H82.5V78.75Z" fill="#CBB292"/>
<path d="M90 71.25H30V78.75H90V71.25Z" fill="#AD392D"/>
<path d="M84.375 71.25H30V78.75H84.375V71.25Z" fill="#E64C3C"/>
<path d="M116.25 108.75H3.75V116.25H116.25V108.75Z" fill="#5F443E"/>
<path d="M110.625 108.75H3.75V116.25H110.625V108.75Z" fill="#7F5B53"/>
<path d="M116.25 108.75H3.75V116.25H116.25V108.75Z" stroke="black" stroke-width="3.75" stroke-linejoin="round"/>
<path d="M90 71.25H30V78.75H90V71.25Z" stroke="black" stroke-width="3.75" stroke-linejoin="round"/>
<path d="M33.75 78.75V108.75" stroke="black" stroke-width="3.75" stroke-linejoin="round"/>
<path d="M41.25 78.75V108.75" stroke="black" stroke-width="3.75" stroke-linejoin="round"/>
<path d="M78.75 78.75V108.75" stroke="black" stroke-width="3.75" stroke-linejoin="round"/>
<path d="M86.25 78.75V108.75" stroke="black" stroke-width="3.75" stroke-linejoin="round"/>
<path d="M90 75H112.5V108.75" stroke="black" stroke-width="3.75" stroke-linejoin="round"/>
<path d="M30 75H7.5V108.75" stroke="black" stroke-width="3.75" stroke-linejoin="round"/>
<path d="M52.5 108.75V90H67.5V108.75" stroke="black" stroke-width="3.75" stroke-linejoin="round"/>
<path d="M26.25 86.25H15V101.25H26.25V86.25Z" stroke="black" stroke-width="3.75" stroke-linejoin="round"/>
<path d="M105 86.25H93.75V101.25H105V86.25Z" stroke="black" stroke-width="3.75" stroke-linejoin="round"/>
<path d="M11.25 75V33.75H108.75V75" stroke="black" stroke-width="3.75" stroke-linejoin="round"/>
<path d="M26.25 41.25H18.75V48.75H26.25V41.25Z" stroke="black" stroke-width="3.75" stroke-linejoin="round"/>
<path d="M41.25 41.25H33.75V48.75H41.25V41.25Z" stroke="black" stroke-width="3.75" stroke-linejoin="round"/>
<path d="M26.25 56.25H18.75V63.75H26.25V56.25Z" stroke="black" stroke-width="3.75" stroke-linejoin="round"/>
<path d="M41.25 56.25H33.75V63.75H41.25V56.25Z" stroke="black" stroke-width="3.75" stroke-linejoin="round"/>
<path d="M93.75 48.75H101.25V41.25H93.75V48.75Z" stroke="black" stroke-width="3.75" stroke-linejoin="round"/>
<path d="M78.75 48.75H86.25V41.25H78.75V48.75Z" stroke="black" stroke-width="3.75" stroke-linejoin="round"/>
<path d="M93.75 63.75H101.25V56.25H93.75V63.75Z" stroke="black" stroke-width="3.75" stroke-linejoin="round"/>
<path d="M78.75 63.75H86.25V56.25H78.75V63.75Z" stroke="black" stroke-width="3.75" stroke-linejoin="round"/>
<path d="M48.75 71.25V48.75H71.25V71.25" stroke="black" stroke-width="3.75" stroke-linejoin="round"/>
<path d="M86.25 3.75H33.75V33.75H86.25V3.75Z" stroke="black" stroke-width="3.75" stroke-linejoin="round"/>
<path d="M108.75 15H86.25V22.5H108.75V15Z" stroke="black" stroke-width="3.75" stroke-linejoin="round"/>
<path d="M105 22.5V33.75" stroke="black" stroke-width="3.75" stroke-linejoin="round"/>
<path d="M11.25 22.5L33.75 22.5V15L11.25 15V22.5Z" stroke="black" stroke-width="3.75" stroke-linejoin="round"/>
<path d="M15 22.5V33.75" stroke="black" stroke-width="3.75" stroke-linejoin="round"/>
<path d="M41.7525 23.4348C40.9368 23.4348 40.2489 23.3071 39.6886 23.0517C39.1283 22.7881 38.704 22.4338 38.4157 21.9889C38.1273 21.5357 37.9831 21.0167 37.9831 20.4317H39.9481C39.9481 20.6624 40.0099 20.8766 40.1335 21.0743C40.2653 21.2721 40.4631 21.4327 40.7267 21.5563C40.9904 21.6717 41.3323 21.7293 41.7525 21.7293C42.1315 21.7293 42.4487 21.6799 42.7041 21.581C42.9595 21.4822 43.1531 21.3462 43.285 21.1732C43.4168 20.9919 43.4827 20.786 43.4827 20.5553C43.4827 20.2669 43.3591 20.0403 43.1119 19.8755C42.8648 19.7025 42.4652 19.5913 41.9132 19.5419L41.2334 19.4801C40.3354 19.4059 39.6186 19.1258 39.083 18.6397C38.5475 18.1536 38.2797 17.5109 38.2797 16.7117C38.2797 16.135 38.4157 15.6365 38.6876 15.2163C38.9677 14.7961 39.3549 14.4748 39.8493 14.2524C40.3436 14.0217 40.9286 13.9063 41.6042 13.9063C42.3128 13.9063 42.9183 14.0299 43.4209 14.2771C43.9317 14.516 44.3231 14.8579 44.595 15.3029C44.8669 15.7395 45.0028 16.2545 45.0028 16.8477H43.0254C43.0254 16.6252 42.9719 16.4234 42.8648 16.2421C42.7577 16.0526 42.597 15.9002 42.3828 15.7848C42.1768 15.6695 41.9173 15.6118 41.6042 15.6118C41.3076 15.6118 41.0563 15.6613 40.8503 15.7601C40.6526 15.859 40.5043 15.9949 40.4054 16.168C40.3065 16.3327 40.2571 16.514 40.2571 16.7117C40.2571 16.9671 40.3477 17.1896 40.529 17.3791C40.7103 17.5686 41.0069 17.6798 41.4188 17.7128L42.1109 17.7746C42.77 17.8323 43.3509 17.9764 43.8535 18.2071C44.356 18.4296 44.7474 18.7386 45.0275 19.134C45.3159 19.5213 45.4601 19.995 45.4601 20.5553C45.4601 21.132 45.3077 21.6387 45.0028 22.0754C44.7062 22.5038 44.2819 22.8375 43.7299 23.0764C43.1779 23.3154 42.5187 23.4348 41.7525 23.4348ZM49.7855 23.4348C49.2005 23.4348 48.6897 23.3401 48.253 23.1506C47.8246 22.9528 47.4662 22.6892 47.1778 22.3596C46.8895 22.0301 46.6752 21.6593 46.5352 21.2474C46.3951 20.8272 46.3251 20.3946 46.3251 19.9497V19.7149C46.3251 19.2535 46.3992 18.8127 46.5475 18.3925C46.6958 17.9641 46.9142 17.5851 47.2025 17.2555C47.4909 16.926 47.8493 16.6664 48.2777 16.4769C48.7144 16.2874 49.2129 16.1927 49.7731 16.1927C50.3828 16.1927 50.9225 16.3121 51.3921 16.5511C51.8618 16.7818 52.2366 17.1072 52.5168 17.5274C52.7969 17.9476 52.9534 18.4296 52.9864 18.9734H51.0461C51.0131 18.6685 50.8895 18.4131 50.6753 18.2071C50.4693 17.9929 50.1686 17.8858 49.7731 17.8858C49.4436 17.8858 49.1676 17.9682 48.9451 18.133C48.7309 18.2978 48.5702 18.5243 48.4631 18.8127C48.356 19.1011 48.3025 19.443 48.3025 19.8385C48.3025 20.201 48.3519 20.5306 48.4508 20.8272C48.5496 21.1155 48.7062 21.3421 48.9204 21.5069C49.1429 21.6634 49.4312 21.7417 49.7855 21.7417C50.0492 21.7417 50.2716 21.6964 50.4529 21.6058C50.6424 21.5069 50.7907 21.3751 50.8978 21.2103C51.0131 21.0373 51.0832 20.8395 51.1079 20.6171H53.0358C53.0111 21.1773 52.8546 21.6717 52.5662 22.1001C52.2778 22.5203 51.8947 22.8499 51.4168 23.0888C50.939 23.3195 50.3952 23.4348 49.7855 23.4348ZM54.3005 23.2V14.1782H56.2778V19.3812H55.9812C55.9812 18.6974 56.0677 18.1206 56.2408 17.651C56.4138 17.1814 56.6692 16.8271 57.007 16.5881C57.3448 16.341 57.7691 16.2174 58.2799 16.2174H58.3664C59.1162 16.2174 59.6888 16.4852 60.0843 17.0207C60.4798 17.548 60.6775 18.3225 60.6775 19.3441V23.2H58.7001V19.2205C58.7001 18.8498 58.5889 18.5532 58.3664 18.3307C58.1522 18.1 57.868 17.9847 57.5137 17.9847C57.1429 17.9847 56.8422 18.1041 56.6115 18.3431C56.3891 18.582 56.2778 18.8992 56.2778 19.2947V23.2H54.3005ZM65.6623 23.4348C65.0691 23.4348 64.5418 23.3442 64.0804 23.1629C63.619 22.9734 63.2276 22.718 62.9063 22.3967C62.5932 22.0754 62.3543 21.7087 62.1895 21.2968C62.0247 20.8766 61.9423 20.4358 61.9423 19.9744V19.6902C61.9423 19.2205 62.0247 18.7756 62.1895 18.3554C62.3625 17.927 62.6097 17.5521 62.931 17.2308C63.2606 16.9095 63.6561 16.6582 64.1174 16.4769C64.5788 16.2874 65.0938 16.1927 65.6623 16.1927C66.2472 16.1927 66.7663 16.2874 67.2195 16.4769C67.6808 16.6582 68.0722 16.9095 68.3935 17.2308C68.7149 17.5521 68.962 17.927 69.135 18.3554C69.3081 18.7756 69.3946 19.2205 69.3946 19.6902V19.9744C69.3946 20.4358 69.3122 20.8766 69.1474 21.2968C68.9826 21.7087 68.7396 22.0754 68.4182 22.3967C68.1052 22.718 67.7179 22.9734 67.2565 23.1629C66.7951 23.3442 66.2637 23.4348 65.6623 23.4348ZM65.6623 21.7664C66.0495 21.7664 66.3708 21.684 66.6262 21.5192C66.8817 21.3545 67.0753 21.1238 67.2071 20.8272C67.3472 20.5306 67.4172 20.201 67.4172 19.8385C67.4172 19.4512 67.3472 19.1134 67.2071 18.8251C67.067 18.5285 66.8652 18.2936 66.6015 18.1206C66.3461 17.9476 66.033 17.8611 65.6623 17.8611C65.2998 17.8611 64.9867 17.9476 64.723 18.1206C64.4594 18.2936 64.2575 18.5285 64.1174 18.8251C63.9856 19.1134 63.9197 19.4512 63.9197 19.8385C63.9197 20.201 63.9856 20.5306 64.1174 20.8272C64.2493 21.1238 64.447 21.3545 64.7107 21.5192C64.9743 21.684 65.2915 21.7664 65.6623 21.7664ZM74.0743 23.4348C73.4811 23.4348 72.9538 23.3442 72.4924 23.1629C72.0311 22.9734 71.6397 22.718 71.3184 22.3967C71.0053 22.0754 70.7664 21.7087 70.6016 21.2968C70.4368 20.8766 70.3544 20.4358 70.3544 19.9744V19.6902C70.3544 19.2205 70.4368 18.7756 70.6016 18.3554C70.7746 17.927 71.0218 17.5521 71.3431 17.2308C71.6727 16.9095 72.0681 16.6582 72.5295 16.4769C72.9909 16.2874 73.5058 16.1927 74.0743 16.1927C74.6593 16.1927 75.1784 16.2874 75.6315 16.4769C76.0929 16.6582 76.4843 16.9095 76.8056 17.2308C77.1269 17.5521 77.3741 17.927 77.5471 18.3554C77.7201 18.7756 77.8066 19.2205 77.8066 19.6902V19.9744C77.8066 20.4358 77.7243 20.8766 77.5595 21.2968C77.3947 21.7087 77.1516 22.0754 76.8303 22.3967C76.5172 22.718 76.13 22.9734 75.6686 23.1629C75.2072 23.3442 74.6758 23.4348 74.0743 23.4348ZM74.0743 21.7664C74.4616 21.7664 74.7829 21.684 75.0383 21.5192C75.2937 21.3545 75.4873 21.1238 75.6192 20.8272C75.7592 20.5306 75.8293 20.201 75.8293 19.8385C75.8293 19.4512 75.7592 19.1134 75.6192 18.8251C75.4791 18.5285 75.2773 18.2936 75.0136 18.1206C74.7582 17.9476 74.4451 17.8611 74.0743 17.8611C73.7118 17.8611 73.3987 17.9476 73.1351 18.1206C72.8714 18.2936 72.6696 18.5285 72.5295 18.8251C72.3977 19.1134 72.3318 19.4512 72.3318 19.8385C72.3318 20.201 72.3977 20.5306 72.5295 20.8272C72.6613 21.1238 72.8591 21.3545 73.1227 21.5192C73.3864 21.684 73.7036 21.7664 74.0743 21.7664ZM79.2732 23.2V14.1782H81.2629V23.2H79.2732ZM78.4699 15.6365V14.1782H81.2629V15.6365H78.4699Z" fill="black"/>
</svg>
