<svg width="150" height="150" viewBox="0 0 150 150" fill="none" xmlns="http://www.w3.org/2000/svg">
<path d="M140.625 28.125H9.375V135.938H140.625V28.125Z" fill="#CCCCCC"/>
<path d="M133.594 28.125H9.375V135.938H133.594V28.125Z" fill="#F2F2F2"/>
<path d="M75 28.125H98.4375V49.2188C98.4375 52.3268 97.2029 55.3075 95.0052 57.5052C92.8075 59.7029 89.8268 60.9375 86.7188 60.9375C83.6107 60.9375 80.63 59.7029 78.4323 57.5052C76.2347 55.3075 75 52.3268 75 49.2188V28.125Z" fill="#870000"/>
<path d="M83.2031 60.3516C85.5745 59.6058 87.6472 58.1253 89.1218 56.1241C90.5964 54.1229 91.3965 51.7046 91.4062 49.2188V28.125H75V49.2188C75.0098 51.7046 75.8098 54.1229 77.2844 56.1241C78.759 58.1253 80.8318 59.6058 83.2031 60.3516Z" fill="#DD0000"/>
<path d="M51.5625 28.125H75V49.2188C75 52.3268 73.7654 55.3075 71.5677 57.5052C69.37 59.7029 66.3893 60.9375 63.2812 60.9375C60.1732 60.9375 57.1925 59.7029 54.9948 57.5052C52.7972 55.3075 51.5625 52.3268 51.5625 49.2188V28.125Z" fill="#870000"/>
<path d="M59.7656 60.3516C62.137 59.6058 64.2097 58.1253 65.6843 56.1241C67.1589 54.1229 67.959 51.7046 67.9688 49.2188V28.125H51.5625V49.2188C51.5723 51.7046 52.3723 54.1229 53.8469 56.1241C55.3215 58.1253 57.3943 59.6058 59.7656 60.3516Z" fill="#DD0000"/>
<path d="M75 56.25C89.2386 56.25 100.781 44.7073 100.781 30.4688C100.781 16.2302 89.2386 4.6875 75 4.6875C60.7614 4.6875 49.2188 16.2302 49.2188 30.4688C49.2188 44.7073 60.7614 56.25 75 56.25Z" fill="#CCCCCC"/>
<path d="M71.4844 55.9922C83.7813 55.9922 93.75 44.565 93.75 30.4688C93.75 16.3725 83.7813 4.94531 71.4844 4.94531C59.1874 4.94531 49.2188 16.3725 49.2188 30.4688C49.2188 44.565 59.1874 55.9922 71.4844 55.9922Z" fill="#F2F2F2"/>
<path d="M126.562 70.3125H103.125V79.6875H126.562V70.3125Z" fill="#870000"/>
<path d="M119.531 70.3125H103.125V79.6875H119.531V70.3125Z" fill="#DD0000"/>
<path d="M131.25 89.0625H98.4375V135.938H131.25V89.0625Z" fill="#98856E"/>
<path d="M124.219 89.0625H98.4375V135.938H124.219V89.0625Z" fill="#CBB292"/>
<path d="M84.375 107.812H18.75V121.875H84.375V107.812Z" fill="#98856E"/>
<path d="M77.3438 107.812H18.75V121.875H77.3438V107.812Z" fill="#CBB292"/>
<path d="M84.375 70.3125H18.75V107.812H84.375V70.3125Z" fill="#849EB4"/>
<path d="M77.3438 70.3125H18.75V107.812H77.3438V70.3125Z" fill="#B0D3F0"/>
<path d="M145.312 135.938H4.6875V145.312H145.312V135.938Z" fill="#5F443E"/>
<path d="M138.281 135.938H4.6875V145.312H138.281V135.938Z" fill="#7F5B53"/>
<path d="M63.2812 18.75H82.0312V37.5C82.0312 38.7432 81.5374 39.9355 80.6583 40.8146C79.7792 41.6936 78.587 42.1875 77.3438 42.1875H67.9688C66.7255 42.1875 65.5333 41.6936 64.6542 40.8146C63.7751 39.9355 63.2812 38.7432 63.2812 37.5V18.75Z" fill="#98856E"/>
<path d="M75 37.5V18.75H63.2812V37.5C63.2812 38.7432 63.7751 39.9355 64.6542 40.8146C65.5333 41.6936 66.7255 42.1875 67.9688 42.1875H70.3125C71.5557 42.1875 72.748 41.6936 73.6271 40.8146C74.5061 39.9355 75 38.7432 75 37.5Z" fill="#CBB292"/>
<path d="M121.875 28.125H145.312V49.2188C145.312 52.3268 144.078 55.3075 141.88 57.5052C139.682 59.7029 136.702 60.9375 133.594 60.9375C130.486 60.9375 127.505 59.7029 125.307 57.5052C123.11 55.3075 121.875 52.3268 121.875 49.2188V28.125Z" fill="#870000"/>
<path d="M130.078 60.3516C132.449 59.6058 134.522 58.1253 135.997 56.1241C137.471 54.1229 138.271 51.7046 138.281 49.2188V28.125H121.875V49.2188C121.885 51.7046 122.685 54.1229 124.159 56.1241C125.634 58.1253 127.707 59.6058 130.078 60.3516Z" fill="#DD0000"/>
<path d="M98.4375 28.125H121.875V49.2188C121.875 52.3268 120.64 55.3075 118.443 57.5052C116.245 59.7029 113.264 60.9375 110.156 60.9375C107.048 60.9375 104.068 59.7029 101.87 57.5052C99.6722 55.3075 98.4375 52.3268 98.4375 49.2188V28.125Z" fill="#870000"/>
<path d="M106.641 60.3516C109.012 59.6058 111.085 58.1253 112.559 56.1241C114.034 54.1229 114.834 51.7046 114.844 49.2188V28.125H98.4375V49.2188C98.4473 51.7046 99.2473 54.1229 100.722 56.1241C102.197 58.1253 104.269 59.6058 106.641 60.3516Z" fill="#DD0000"/>
<path d="M28.125 28.125H51.5625V49.2188C51.5625 52.3268 50.3279 55.3075 48.1302 57.5052C45.9325 59.7029 42.9518 60.9375 39.8438 60.9375C36.7357 60.9375 33.755 59.7029 31.5573 57.5052C29.3597 55.3075 28.125 52.3268 28.125 49.2188V28.125Z" fill="#870000"/>
<path d="M36.3281 60.3516C38.6995 59.6058 40.7722 58.1253 42.2468 56.1241C43.7214 54.1229 44.5215 51.7046 44.5312 49.2188V28.125H28.125V49.2188C28.1348 51.7046 28.9348 54.1229 30.4094 56.1241C31.884 58.1253 33.9568 59.6058 36.3281 60.3516Z" fill="#DD0000"/>
<path d="M4.6875 28.125H28.125V49.2188C28.125 50.7577 27.8219 52.2815 27.233 53.7033C26.644 55.1251 25.7808 56.417 24.6927 57.5052C23.6045 58.5933 22.3126 59.4565 20.8908 60.0455C19.469 60.6344 17.9452 60.9375 16.4062 60.9375C13.2982 60.9375 10.3175 59.7029 8.11984 57.5052C5.92215 55.3075 4.6875 52.3268 4.6875 49.2188V28.125Z" fill="#870000"/>
<path d="M12.8906 60.3516C15.262 59.6058 17.3347 58.1253 18.8093 56.1241C20.2839 54.1229 21.084 51.7046 21.0938 49.2188V28.125H4.6875V49.2188C4.6973 51.7046 5.49732 54.1229 6.97191 56.1241C8.44651 58.1253 10.5193 59.6058 12.8906 60.3516Z" fill="#DD0000"/>
<path d="M145.312 135.938H4.6875V145.312H145.312V135.938Z" stroke="black" stroke-width="4.61539" stroke-linejoin="round"/>
<path d="M140.625 58.5938V135.938" stroke="black" stroke-width="4.61539" stroke-linejoin="round"/>
<path d="M9.375 135.938V58.5938" stroke="black" stroke-width="4.61539" stroke-linejoin="round"/>
<path d="M4.6875 28.125H28.125V49.2188C28.125 50.7577 27.8219 52.2815 27.233 53.7033C26.644 55.1251 25.7808 56.417 24.6927 57.5052C23.6045 58.5933 22.3126 59.4565 20.8908 60.0455C19.469 60.6344 17.9452 60.9375 16.4062 60.9375C13.2982 60.9375 10.3175 59.7028 8.11984 57.5052C5.92215 55.3075 4.6875 52.3268 4.6875 49.2188V28.125Z" stroke="black" stroke-width="4.61539" stroke-linejoin="round"/>
<path d="M51.5625 41.2266V49.2188C51.5625 52.3268 50.3278 55.3075 48.1302 57.5052C45.9325 59.7028 42.9518 60.9375 39.8438 60.9375C36.7357 60.9375 33.755 59.7028 31.5573 57.5052C29.3597 55.3075 28.125 52.3268 28.125 49.2188V28.125H49.3359" stroke="black" stroke-width="4.61539" stroke-linejoin="round"/>
<path d="M72.6562 56.2501C71.5647 57.7055 70.1492 58.8868 68.522 59.7004C66.8948 60.514 65.1005 60.9376 63.2812 60.9376C60.1732 60.9376 57.1925 59.7029 54.9948 57.5052C52.7972 55.3075 51.5625 52.3268 51.5625 49.2188V41.2266" stroke="black" stroke-width="4.61539" stroke-linejoin="round"/>
<path d="M98.4375 41.2266V49.2188C98.4375 52.3268 97.2028 55.3075 95.0052 57.5052C92.8075 59.7029 89.8268 60.9376 86.7188 60.9376C84.8995 60.9376 83.1052 60.514 81.478 59.7004C79.8508 58.8868 78.4353 57.7055 77.3438 56.2501" stroke="black" stroke-width="4.61539" stroke-linejoin="round"/>
<path d="M100.781 28.125H121.875V49.2188C121.875 52.3268 120.64 55.3075 118.443 57.5052C116.245 59.7028 113.264 60.9375 110.156 60.9375C107.048 60.9375 104.068 59.7028 101.87 57.5052C99.6722 55.3075 98.4375 52.3268 98.4375 49.2188V41.2266" stroke="black" stroke-width="4.61539" stroke-linejoin="round"/>
<path d="M121.875 28.125H145.312V49.2188C145.312 52.3268 144.078 55.3075 141.88 57.5052C139.682 59.7028 136.702 60.9375 133.594 60.9375C130.486 60.9375 127.505 59.7028 125.307 57.5052C123.11 55.3075 121.875 52.3268 121.875 49.2188V28.125Z" stroke="black" stroke-width="4.61539" stroke-linejoin="round"/>
<path d="M75 56.25C89.2386 56.25 100.781 44.7073 100.781 30.4688C100.781 16.2302 89.2386 4.6875 75 4.6875C60.7614 4.6875 49.2188 16.2302 49.2188 30.4688C49.2188 44.7073 60.7614 56.25 75 56.25Z" stroke="black" stroke-width="4.61539" stroke-linejoin="round"/>
<path d="M63.2812 18.75H82.0312V37.5C82.0312 38.7432 81.5374 39.9355 80.6583 40.8146C79.7792 41.6936 78.587 42.1875 77.3438 42.1875H67.9688C66.7255 42.1875 65.5333 41.6936 64.6542 40.8146C63.7751 39.9355 63.2812 38.7432 63.2812 37.5V18.75Z" stroke="black" stroke-width="4.61539" stroke-linejoin="round"/>
<path d="M82.0312 23.4375H84.375C86.2398 23.4375 88.0282 24.1783 89.3468 25.4969C90.6655 26.8155 91.4062 28.6039 91.4062 30.4688C91.4062 32.3336 90.6655 34.122 89.3468 35.4406C88.0282 36.7592 86.2398 37.5 84.375 37.5H82.0312" stroke="black" stroke-width="4.61539" stroke-linejoin="round"/>
<path d="M84.375 70.3125H18.75V121.875H84.375V70.3125Z" stroke="black" stroke-width="4.61539" stroke-linejoin="round"/>
<path d="M98.4375 135.938V89.0625H131.25V135.938" stroke="black" stroke-width="4.61539" stroke-linejoin="round"/>
<path d="M18.75 107.812H84.375" stroke="black" stroke-width="4.61539" stroke-linejoin="round"/>
<path d="M28.125 96.0938L42.1875 82.0312" stroke="black" stroke-width="4.61539" stroke-linejoin="round"/>
<path d="M44.5312 96.0938L58.5938 82.0312" stroke="black" stroke-width="4.61539" stroke-linejoin="round"/>
<path d="M60.9375 96.0938L75 82.0312" stroke="black" stroke-width="4.61539" stroke-linejoin="round"/>
<path d="M107.812 105.469V119.531" stroke="black" stroke-width="4.61539" stroke-linejoin="round"/>
<path d="M126.562 70.3125H103.125V79.6875H126.562V70.3125Z" stroke="black" stroke-width="4.61539" stroke-linejoin="round"/>
</svg>
