<svg width="516" height="485" viewBox="0 0 516 485" fill="none" xmlns="http://www.w3.org/2000/svg">
<g clip-path="url(#clip0_559_10152)">
<path d="M77.8602 231.801C-22.1343 289.528 -22.1343 383.183 77.8602 440.91C177.855 498.638 340.026 498.638 440.132 440.91C540.127 383.183 540.127 289.528 440.132 231.801C340.026 174.073 177.855 174.073 77.8602 231.801Z" fill="#FFD1D1"/>
<path d="M34.8148 315.556L180.302 399.645C181.525 400.312 183.528 400.312 184.862 399.645L427.563 259.497C428.787 258.829 428.787 257.606 427.563 256.938L282.076 172.849C280.853 172.182 278.851 172.182 277.516 172.849L34.8148 312.997C33.5913 313.665 33.5913 314.888 34.8148 315.556Z" fill="#FF9696"/>
<path d="M274 450.655C243.333 432.861 243.333 404.139 274 386.345C304.667 368.552 354.333 368.552 385 386.345C415.667 404.139 415.667 432.861 385 450.655C354.429 468.448 304.667 468.448 274 450.655Z" fill="#FF9696"/>
<path d="M399.607 323.084C381.464 312.53 381.464 295.47 399.607 284.916C417.749 274.361 447.251 274.361 465.393 284.916C483.536 295.47 483.536 312.53 465.393 323.084C447.172 333.639 417.749 333.639 399.607 323.084Z" fill="#FF9696"/>
<path d="M171.514 277.738V373.506C171.514 374.284 172.07 375.286 172.738 375.619L175.407 377.176C176.074 377.621 177.187 377.621 177.854 377.176L180.524 375.619C181.191 375.174 181.747 374.284 181.747 373.506V277.738C181.747 276.959 181.191 276.626 180.524 277.071L177.854 278.628C177.187 279.073 176.074 279.073 175.407 278.628L172.738 277.071C172.07 276.626 171.514 276.959 171.514 277.738Z" fill="#37474F"/>
<path d="M177.854 377.288L180.524 375.73C181.191 375.286 181.747 374.396 181.747 373.617V277.849C181.747 277.071 181.191 276.737 180.524 277.182L177.854 278.739C177.187 279.184 176.631 280.074 176.631 280.852V376.62C176.631 377.288 177.187 377.621 177.854 377.288Z" fill="#455A64"/>
<path d="M58.8397 212.669V308.437C58.8397 309.216 59.3959 310.217 60.0632 310.55L62.7327 312.108C63.4001 312.553 64.5124 312.553 65.1797 312.108L67.8492 310.55C68.5166 310.106 69.0728 309.216 69.0728 308.437V212.669C69.0728 211.891 68.5166 211.557 67.8492 212.002L65.1797 213.559C64.5124 214.004 63.4001 214.004 62.7327 213.559L60.0632 212.002C59.3959 211.557 58.8397 211.891 58.8397 212.669Z" fill="#37474F"/>
<path d="M65.1797 312.219L67.8492 310.662C68.5166 310.217 69.0728 309.327 69.0728 308.548V212.78C69.0728 212.002 68.5166 211.668 67.8492 212.113L65.1797 213.67C64.5124 214.115 63.9562 215.005 63.9562 215.784V311.552C63.9562 312.219 64.5124 312.553 65.1797 312.219Z" fill="#455A64"/>
<path d="M367.276 164.73V260.497C367.276 261.276 367.832 262.277 368.5 262.611L371.169 264.168C371.837 264.613 372.949 264.613 373.616 264.168L376.286 262.611C376.953 262.166 377.509 261.276 377.509 260.497V164.73C377.509 163.951 376.953 163.617 376.286 164.062L373.616 165.619C372.949 166.064 371.837 166.064 371.169 165.619L368.5 164.062C367.832 163.617 367.276 163.84 367.276 164.73Z" fill="#37474F"/>
<path d="M373.616 264.168L376.286 262.611C376.953 262.166 377.509 261.276 377.509 260.498V164.73C377.509 163.951 376.953 163.617 376.286 164.062L373.616 165.619C372.949 166.064 372.393 166.954 372.393 167.733V263.501C372.393 264.279 372.949 264.613 373.616 264.168Z" fill="#455A64"/>
<path d="M34.3694 221.456V220.566C34.3694 219.12 35.3705 217.341 36.594 216.673L279.295 76.5253C280.518 75.8579 282.521 75.8579 283.855 76.5253L405.984 147.044C407.208 147.712 408.209 149.491 408.209 150.937V151.827C408.209 153.273 407.208 155.053 405.984 155.72L163.283 295.868C162.06 296.536 160.058 296.536 158.723 295.868L36.4828 225.238C35.3705 224.682 34.3694 222.902 34.3694 221.456Z" fill="#37474F"/>
<path d="M161.059 290.307V296.424C160.28 296.424 159.39 296.202 158.834 295.868L36.5937 225.238C35.3702 224.459 34.3691 222.791 34.3691 221.345V220.455C34.3691 219.232 35.1477 217.674 36.26 216.785C35.4814 217.452 35.5926 218.453 36.7049 219.12L158.945 289.751C159.39 290.196 160.28 290.307 161.059 290.307Z" fill="#FF9696"/>
<path d="M161.059 290.307V296.424C160.28 296.424 159.39 296.202 158.834 295.868L36.5937 225.238C35.3702 224.459 34.3691 222.791 34.3691 221.345V220.455C34.3691 219.232 35.1477 217.674 36.26 216.785C35.4814 217.452 35.5926 218.453 36.7049 219.12L158.945 289.751C159.39 290.196 160.28 290.307 161.059 290.307Z" fill="#263238"/>
<path d="M36.5934 219.232L158.834 289.862C160.057 290.529 162.059 290.529 163.394 289.862L406.095 149.714C407.319 149.046 407.319 147.823 406.095 147.156L283.855 76.5253C282.631 75.8579 280.629 75.8579 279.294 76.5253L36.5934 216.673C35.3698 217.341 35.3698 218.564 36.5934 219.232Z" fill="#455A64"/>
<path opacity="0.15" d="M224.571 170.847L247.595 184.195C248.262 184.64 249.486 184.64 250.153 184.195L318.225 145.042C318.892 144.597 318.892 143.93 318.225 143.596L295.201 130.249C294.533 129.804 293.31 129.804 292.642 130.249L224.571 169.513C223.903 169.846 223.903 170.514 224.571 170.847Z" fill="black"/>
<path d="M316.89 141.149C316.89 140.927 316.668 140.593 316.334 140.371L294.644 127.913C293.977 127.468 292.754 127.468 292.086 127.913L226.016 166.064C225.683 166.287 225.46 166.509 225.46 166.843C225.46 167.065 225.46 168.845 225.46 169.068C225.46 169.29 225.683 169.624 226.016 169.846L247.595 182.304C248.262 182.749 249.486 182.749 250.153 182.304L316.223 144.152C316.556 143.93 316.779 143.707 316.779 143.374C316.89 143.151 316.89 141.372 316.89 141.149Z" fill="#EBEBEB"/>
<path d="M247.706 179.968L226.128 167.51C225.461 167.065 225.461 166.398 226.128 166.064L292.087 127.913C292.754 127.468 293.977 127.468 294.645 127.913L316.334 140.371C317.002 140.815 317.002 141.483 316.334 141.817L250.265 179.968C249.597 180.413 248.485 180.413 247.706 179.968Z" fill="white"/>
<path d="M248.93 180.302V182.637C248.485 182.637 248.04 182.526 247.706 182.304L226.128 169.846C225.794 169.624 225.572 169.401 225.572 169.068V166.843C225.572 167.065 225.794 167.399 226.128 167.622L247.706 180.079C248.04 180.19 248.485 180.302 248.93 180.302Z" fill="#E0E0E0"/>
<path d="M312.886 141.26L310.773 140.037L307.881 141.705L309.994 142.929L312.886 141.26ZM309.549 139.37L307.436 138.146L305.1 139.481L307.214 140.704L309.549 139.37ZM308.771 143.596L306.657 142.373L304.322 143.707L306.435 144.931L308.771 143.596ZM306.213 137.479C306.213 137.367 306.101 137.367 306.213 137.479L304.099 136.255L300.429 138.368L302.542 139.703L306.213 137.479ZM306.101 141.372L303.988 140.148L302.208 141.149L304.322 142.373L306.101 141.372ZM305.323 145.598L303.209 144.375L300.874 145.71L302.987 146.933L305.323 145.598ZM303.098 143.04L300.985 141.817L299.205 142.818L301.318 144.041L303.098 143.04ZM302.764 135.477L300.651 134.253L297.759 135.921L299.872 137.145L302.764 135.477ZM301.986 147.6L299.872 146.377L283.411 155.943L285.524 157.166L301.986 147.6ZM301.318 140.259L299.205 139.036L297.425 140.037L299.539 141.26L301.318 140.259ZM300.095 144.82C300.095 144.709 300.095 144.709 300.095 144.82L297.982 143.596L296.202 144.597L298.315 145.821L300.095 144.82ZM299.428 133.586L297.314 132.362L295.535 133.363L297.648 134.698L299.428 133.586ZM298.76 137.812L296.647 136.589L294.867 137.59L296.981 138.813L298.76 137.812ZM298.315 141.928L296.202 140.704L294.422 141.705L296.536 143.04L298.315 141.928ZM297.203 146.488L295.09 145.265L293.31 146.266L295.423 147.489L297.203 146.488ZM296.536 135.254L294.422 134.031L292.643 135.032L294.756 136.255L296.536 135.254ZM295.757 139.592C295.757 139.481 295.757 139.481 295.757 139.592L293.644 138.368L291.864 139.37L293.977 140.593L295.757 139.592ZM295.423 143.596L293.31 142.373L291.53 143.374L293.644 144.597L295.423 143.596ZM295.423 131.25C295.423 131.139 295.423 131.139 295.423 131.25L293.31 130.026L290.974 131.361L293.088 132.585L295.423 131.25ZM294.2 148.157L292.086 146.933L290.307 147.934L292.42 149.158L294.2 148.157ZM293.532 137.034C293.532 136.923 293.532 136.923 293.532 137.034L291.419 135.81L289.639 136.811L291.753 138.035L293.532 137.034ZM292.865 141.26L290.752 140.037L288.972 141.038L291.085 142.261L292.865 141.26ZM292.42 145.376L290.307 144.152L288.527 145.153L290.64 146.377L292.42 145.376ZM291.197 149.936L289.083 148.713L287.304 149.714L289.417 150.937L291.197 149.936ZM290.64 133.919L288.527 132.696L286.747 133.697L288.861 134.92L290.64 133.919ZM290.529 138.702L288.416 137.479L286.636 138.48L288.75 139.703L290.529 138.702ZM289.862 142.929L287.749 141.705L285.969 142.706L288.082 143.93L289.862 142.929ZM289.417 147.044L287.304 145.821L285.524 146.822L287.637 148.045L289.417 147.044ZM288.305 151.605L286.191 150.381L284.412 151.382L286.525 152.606L288.305 151.605ZM287.749 135.699C287.749 135.588 287.637 135.588 287.749 135.699L285.635 134.475L283.856 135.477L285.969 136.7L287.749 135.699ZM287.637 140.371L285.524 139.147L283.744 140.148L285.858 141.372L287.637 140.371ZM286.859 144.709L284.745 143.485L282.966 144.486L285.079 145.71L286.859 144.709ZM286.525 148.824L284.412 147.6L282.632 148.602L284.745 149.825L286.525 148.824ZM285.302 153.384C285.302 153.273 285.302 153.273 285.302 153.384L283.188 152.161L281.409 153.162L283.522 154.385L285.302 153.384ZM284.745 137.367L282.632 136.144L280.852 137.145L282.966 138.368L284.745 137.367ZM284.634 142.15L282.521 140.927L280.741 141.928L282.854 143.151L284.634 142.15ZM284.3 157.833L282.187 156.61L279.851 157.945L281.965 159.168L284.3 157.833ZM283.967 146.377L281.853 145.153L280.074 146.154L282.187 147.378L283.967 146.377ZM283.522 150.492L281.409 149.269L279.629 150.27L281.742 151.493L283.522 150.492ZM282.298 155.053L280.185 153.829L278.405 154.83L280.519 156.054L282.298 155.053ZM281.742 139.036L279.629 137.812L277.849 138.813L279.963 140.037L281.742 139.036ZM281.631 143.819L279.518 142.595L277.738 143.596L279.851 144.82L281.631 143.819ZM280.964 148.157C280.964 148.045 280.964 148.045 280.964 148.157L278.85 146.933L277.071 147.934L279.184 149.158L280.964 148.157ZM280.852 159.724L278.739 158.501L276.403 159.836L278.517 161.059L280.852 159.724ZM280.519 152.161L278.405 150.937L276.626 151.938L278.739 153.162L280.519 152.161ZM279.406 156.721L277.293 155.498L275.513 156.499L277.627 157.722L279.406 156.721ZM278.739 145.598C278.739 145.487 278.739 145.487 278.739 145.598L276.626 144.375L274.846 145.376L276.959 146.599L278.739 145.598ZM277.96 149.825L275.847 148.602L274.067 149.603L276.181 150.826L277.96 149.825ZM277.627 153.94L275.513 152.717L273.734 153.718L275.847 154.942L277.627 153.94ZM277.516 141.483L275.402 140.259L273.623 141.26L275.736 142.484L277.516 141.483ZM277.404 161.727L275.291 160.503L272.955 161.838L275.068 163.061L277.404 161.727ZM276.403 158.501L274.29 157.277L272.51 158.278L274.624 159.502L276.403 158.501ZM275.736 147.267L273.623 146.043L271.843 147.044L273.956 148.379L275.736 147.267ZM275.068 151.493L272.955 150.27L271.175 151.271L273.289 152.495L275.068 151.493ZM274.624 155.609L272.51 154.385L270.731 155.386L272.844 156.61L274.624 155.609ZM274.512 143.263L272.399 142.039L270.619 143.04L272.733 144.264L274.512 143.263ZM273.956 163.729L271.843 162.505L268.951 164.174L271.064 165.397L273.956 163.729ZM273.4 160.169L271.287 158.946L265.614 162.283L267.727 163.506L273.4 160.169ZM272.733 148.935L270.619 147.712L268.84 148.713L270.953 149.936L272.733 148.935ZM272.065 153.273L269.952 152.05L268.172 153.051L270.286 154.274L272.065 153.273ZM271.62 157.389L269.507 156.165L267.727 157.166L269.841 158.39L271.62 157.389ZM271.62 144.931L269.507 143.707L267.727 144.709L269.841 145.932L271.62 144.931ZM269.841 150.715L267.727 149.491L265.948 150.492L268.061 151.716L269.841 150.715ZM269.285 166.398L267.171 165.175L265.392 166.176L267.505 167.399L269.285 166.398ZM269.062 154.942L266.949 153.718L265.169 154.719L267.282 155.943L269.062 154.942ZM268.728 159.057L266.615 157.833L264.947 158.835C264.835 158.946 264.613 158.946 264.391 158.946C264.168 158.946 263.946 158.946 263.834 158.835L261.054 157.166L258.94 158.39L264.502 161.615L268.728 159.057ZM268.617 146.711C268.617 146.599 268.617 146.599 268.617 146.711L266.504 145.487L264.724 146.488L266.838 147.712L268.617 146.711ZM266.838 152.383L264.724 151.16L262.945 152.161L265.058 153.384L266.838 152.383ZM266.393 168.178L264.279 166.954L262.5 167.955L264.613 169.179L266.393 168.178ZM266.17 156.721C266.17 156.61 266.059 156.61 266.17 156.721L264.057 155.498L262.277 156.499L264.391 157.722L266.17 156.721ZM264.391 149.158L262.277 147.934L260.498 148.935L262.611 150.159L264.391 149.158ZM263.834 154.052L261.721 152.828L259.941 153.829L262.055 155.053L263.834 154.052ZM263.389 169.846L261.276 168.623L259.496 169.624L261.61 170.847L263.389 169.846ZM262.945 166.176L260.831 164.952L259.052 165.953L261.165 167.177L262.945 166.176ZM261.387 150.826L259.274 149.603L257.494 150.604L259.608 151.827L261.387 150.826ZM260.942 155.831L258.829 154.608L255.603 156.499L257.717 157.722L260.942 155.831ZM259.83 171.96L257.717 170.736L252.934 173.517L255.047 174.74L259.83 171.96ZM259.274 160.614L257.161 159.391L255.381 160.392L257.494 161.615L259.274 160.614ZM258.384 152.606C258.384 152.495 258.384 152.495 258.384 152.606L256.271 151.382L254.491 152.383L256.605 153.607L258.384 152.606ZM256.382 169.957L254.269 168.734L252.489 169.735L254.602 170.958L256.382 169.957ZM256.271 162.394C256.271 162.283 256.271 162.283 256.271 162.394L254.157 161.17L252.378 162.171L254.491 163.395L256.271 162.394ZM255.937 158.723L253.824 157.5L252.044 158.501L254.157 159.724L255.937 158.723ZM255.492 154.274L253.379 153.051L251.599 154.052L253.713 155.275L255.492 154.274ZM253.824 175.408L251.71 174.184L249.931 175.185L252.044 176.409L253.824 175.408ZM253.49 171.737L251.377 170.514L249.597 171.515L251.71 172.738L253.49 171.737ZM253.268 164.062L251.154 162.839L249.375 163.84L251.488 165.063L253.268 164.062ZM253.045 168.067L250.932 166.843L249.152 167.844L251.266 169.068L253.045 168.067ZM252.934 160.392L250.821 159.168L249.041 160.169L251.154 161.393L252.934 160.392ZM251.822 156.388L249.708 155.164L247.929 156.165L250.042 157.389L251.822 156.388ZM250.932 177.076L245.37 173.85L243.591 174.851L249.152 178.077L250.932 177.076ZM250.487 173.406L248.374 172.182L246.594 173.183L248.707 174.407L250.487 173.406ZM250.153 169.735L248.04 168.511L246.26 169.513L248.374 170.736L250.153 169.735ZM249.931 162.171C249.931 162.06 249.931 162.06 249.931 162.171L247.817 160.948L246.038 161.949L248.151 163.172L249.931 162.171ZM249.708 166.176L247.595 164.952L245.815 165.953L247.929 167.177L249.708 166.176ZM248.819 158.056L246.705 156.832L244.926 157.833L247.039 159.057L248.819 158.056ZM247.15 171.515L245.037 170.291L243.257 171.292L245.37 172.516L247.15 171.515ZM246.816 167.844L244.703 166.621L242.923 167.622L245.037 168.845L246.816 167.844ZM246.371 164.174L244.258 162.95L242.478 163.951L244.592 165.175L246.371 164.174ZM245.927 159.836C245.927 159.724 245.927 159.724 245.927 159.836L243.813 158.612L242.034 159.613L244.147 160.837L245.927 159.836ZM244.147 173.183L238.585 169.957L236.806 170.958L242.367 174.184L244.147 173.183ZM243.813 169.513L241.7 168.289L239.92 169.29L242.034 170.514L243.813 169.513ZM243.368 165.953L241.255 164.73L239.475 165.731L241.589 166.954L243.368 165.953ZM241.477 161.393L240.588 160.837L238.808 161.838L239.698 162.394L241.477 161.393ZM240.476 167.622L238.363 166.398L236.583 167.399L238.697 168.623L240.476 167.622ZM238.474 163.061L237.584 162.505L235.805 163.506L236.695 164.062L238.474 163.061ZM237.473 169.29L235.36 168.067L233.58 169.068L235.694 170.291L237.473 169.29ZM235.471 164.73L234.581 164.174L232.802 165.175L233.691 165.731L235.471 164.73ZM232.579 166.509L231.689 165.953L229.91 166.954L230.799 167.51L232.579 166.509Z" fill="#455A64"/>
<path opacity="0.15" d="M132.473 191.869L109.227 178.411L225.683 111.117L249.041 124.576L132.473 191.869Z" fill="black"/>
<path d="M198.432 169.957L215.116 160.392C216.784 159.391 217.674 158.056 217.674 156.832C217.674 155.498 217.674 154.497 217.674 154.497L201.991 145.598C201.101 145.042 200.323 143.819 200.323 142.706V122.24L171.292 139.036V159.502C171.292 160.503 172.071 161.838 172.96 162.394L186.085 169.957C189.533 171.96 195.095 171.96 198.432 169.957Z" fill="#E6E6E6"/>
<path d="M178.299 163.172V165.508L172.96 162.394C172.07 161.838 171.292 160.614 171.292 159.502V139.036L176.853 135.81C176.965 137.256 177.076 138.702 177.187 140.037L173.294 142.262V158.278C173.294 159.391 174.073 160.614 174.962 161.17L178.299 163.172Z" fill="#E0E0E0"/>
<path d="M173.294 158.39C173.294 159.391 174.072 160.725 174.962 161.282L186.085 167.733C189.533 169.735 195.095 169.735 198.543 167.733L215.227 158.167C218.675 156.165 218.675 152.939 215.227 151.049L204.104 144.597C203.214 144.041 202.436 142.818 202.436 141.705V125.688L173.405 142.484V158.39H173.294Z" fill="#F5F5F5"/>
<path d="M207.441 146.377L204.104 144.375C203.214 143.819 202.436 142.595 202.436 141.483V125.466L173.405 142.261V158.278C173.405 159.279 174.184 160.614 175.073 161.17L178.41 163.061L207.441 146.377Z" fill="#EBEBEB"/>
<path d="M217.674 154.497C217.674 154.497 217.674 155.498 217.674 156.832C217.674 158.167 216.784 159.391 215.116 160.392L198.432 169.957C196.763 170.958 194.65 171.403 192.537 171.403V169.068C194.65 169.068 196.875 168.511 198.432 167.622L215.116 157.945C216.784 157.055 217.674 155.72 217.674 154.497Z" fill="#EBEBEB"/>
<path d="M126.689 180.524C127.802 181.192 129.581 181.08 130.694 180.413C144.931 172.182 228.797 123.798 243.035 115.567C244.147 114.899 245.148 113.342 245.148 112.007V13.5699C245.148 12.2351 244.258 10.6779 243.257 10.0106C242.145 9.3432 240.365 9.45443 239.253 10.1218L126.912 74.9681C125.8 75.6355 124.799 77.1927 124.799 78.5274V176.854C124.687 178.3 125.577 179.857 126.689 180.524Z" fill="#455A64"/>
<path d="M130.694 180.413L243.035 115.567C244.147 114.899 245.148 113.342 245.148 112.007V13.5699C245.148 12.2351 244.258 11.679 243.035 12.3464L130.694 77.1927C129.581 77.86 128.58 79.4173 128.58 80.752V179.078C128.58 180.524 129.581 181.08 130.694 180.413Z" fill="#FF9696"/>
<path d="M130.694 180.413L243.035 115.567C244.147 114.899 245.148 113.342 245.148 112.007V13.5699C245.148 12.2351 244.258 11.679 243.035 12.3464L130.694 77.1927C129.581 77.86 128.58 79.4173 128.58 80.752V179.078C128.58 180.524 129.581 181.08 130.694 180.413Z" fill="#37474F"/>
<path d="M130.36 180.858C129.248 181.414 127.579 181.303 126.689 180.747C125.577 180.079 124.798 178.522 124.798 177.187V166.176L128.691 168.4V179.412C128.58 180.635 129.359 181.191 130.36 180.858Z" fill="#E0E0E0"/>
<path d="M128.58 168.4V179.412C128.58 180.747 129.47 181.303 130.694 180.635L243.035 115.789C244.147 115.122 245.148 113.564 245.148 112.23V101.218L128.58 168.4Z" fill="white"/>
<path d="M132.473 159.947V82.0867C132.473 81.3081 133.029 80.3071 133.697 79.9734L239.92 18.5752C240.587 18.1302 241.144 18.4639 241.144 19.2425V97.1026C241.144 97.8812 240.587 98.8823 239.92 99.2159L133.585 160.614C133.029 161.059 132.473 160.837 132.473 159.947Z" fill="#FF9696"/>
<path opacity="0.5" d="M132.473 159.947V82.0867C132.473 81.3081 133.029 80.3071 133.697 79.9734L239.92 18.5752C240.587 18.1302 241.144 18.4639 241.144 19.2425V97.1026C241.144 97.8812 240.587 98.8823 239.92 99.2159L133.585 160.614C133.029 161.059 132.473 160.837 132.473 159.947Z" fill="white"/>
<path d="M138.813 81.5306L233.469 26.9173C234.136 26.4724 234.692 26.8061 234.692 27.5847V96.4352C234.692 97.2139 234.136 98.2149 233.469 98.5486L138.813 153.162C138.146 153.607 137.59 153.273 137.59 152.495V83.6439C137.479 82.8653 138.035 81.8643 138.813 81.5306Z" fill="#455A64"/>
<path d="M223.569 43.7129V86.9808C223.569 87.2033 223.792 87.3145 224.014 87.2033L230.911 83.199C231.133 83.0878 231.355 82.7541 231.355 82.5317V39.2637C231.355 39.0413 231.133 38.93 230.911 39.0413L224.014 43.0455C223.792 43.1567 223.569 43.4904 223.569 43.7129Z" fill="#263238"/>
<path d="M224.57 44.8252L226.906 43.4904C227.128 43.3792 227.24 43.4904 227.24 43.7129V46.3824C227.24 46.6048 227.128 46.8273 226.906 46.9385L224.57 48.2732C224.348 48.3845 224.237 48.2732 224.237 48.0508V45.3813C224.237 45.1588 224.348 44.8252 224.57 44.8252Z" fill="#37474F"/>
<path d="M228.13 42.7118L230.466 41.3771C230.688 41.2658 230.799 41.3771 230.799 41.5995V44.269C230.799 44.4915 230.688 44.7139 230.466 44.8252L228.13 46.1599C227.907 46.2711 227.796 46.1599 227.796 45.9374V43.268C227.796 43.0455 227.907 42.823 228.13 42.7118Z" fill="#37474F"/>
<path d="M224.57 48.8294L226.906 47.4947C227.128 47.3834 227.24 47.4947 227.24 47.7171V50.3866C227.24 50.6091 227.128 50.8315 226.906 50.9427L224.57 52.2775C224.348 52.3887 224.237 52.2775 224.237 52.055V49.3855C224.237 49.1631 224.348 48.9406 224.57 48.8294Z" fill="#37474F"/>
<path d="M228.13 46.7161L230.466 45.3813C230.688 45.2701 230.799 45.3813 230.799 45.6038V48.2733C230.799 48.4957 230.688 48.7182 230.466 48.8294L228.13 50.0529C227.907 50.1641 227.796 50.0529 227.796 49.8305V47.161C227.796 47.0497 227.907 46.8273 228.13 46.7161Z" fill="#37474F"/>
<path d="M224.57 52.8336L226.906 51.4989C227.128 51.3876 227.24 51.4989 227.24 51.7213V54.3908C227.24 54.6133 227.128 54.8357 226.906 54.947L224.57 56.2817C224.348 56.3929 224.237 56.2817 224.237 56.0592V53.3898C224.237 53.1673 224.348 52.9448 224.57 52.8336Z" fill="#37474F"/>
<path d="M228.13 50.7203L230.466 49.3856C230.688 49.2743 230.799 49.3856 230.799 49.608V52.2775C230.799 52.5 230.688 52.7224 230.466 52.8336L228.13 54.1684C227.907 54.2796 227.796 54.1684 227.796 53.9459V51.2764C227.796 51.054 227.907 50.8315 228.13 50.7203Z" fill="#37474F"/>
<path d="M224.57 56.8378L226.906 55.5031C227.128 55.3919 227.24 55.5031 227.24 55.7256V58.3951C227.24 58.6175 227.128 58.84 226.906 58.9512L224.57 60.2859C224.348 60.3972 224.237 60.2859 224.237 60.0635V57.394C224.237 57.1715 224.348 56.9491 224.57 56.8378Z" fill="#37474F"/>
<path d="M228.13 54.7245L230.466 53.3898C230.688 53.2785 230.799 53.3898 230.799 53.6122V56.2817C230.799 56.5042 230.688 56.7266 230.466 56.8379L228.13 58.1726C227.907 58.2838 227.796 58.1726 227.796 57.9501V55.2807C227.796 55.0582 227.907 54.8357 228.13 54.7245Z" fill="#37474F"/>
<path d="M224.57 60.8421L226.906 59.5073C227.128 59.3961 227.24 59.5074 227.24 59.7298V62.3993C227.24 62.6218 227.128 62.8442 226.906 62.9554L224.57 64.2902C224.348 64.4014 224.237 64.2902 224.237 64.0677V61.3982C224.237 61.1758 224.348 60.9533 224.57 60.8421Z" fill="#37474F"/>
<path d="M228.13 58.84L230.466 57.5052C230.688 57.394 230.799 57.5052 230.799 57.7277V60.3972C230.799 60.6196 230.688 60.8421 230.466 60.9533L228.13 62.2881C227.907 62.3993 227.796 62.2881 227.796 62.0656V59.3961C227.796 59.1737 227.907 58.84 228.13 58.84Z" fill="#37474F"/>
<path d="M224.57 64.8463L226.906 63.5116C227.128 63.4004 227.24 63.5116 227.24 63.7341V66.4035C227.24 66.626 227.128 66.8485 226.906 66.9597L224.57 68.2944C224.348 68.4057 224.237 68.2944 224.237 68.072V65.4025C224.237 65.18 224.348 64.9576 224.57 64.8463Z" fill="#37474F"/>
<path d="M228.13 62.8442L230.466 61.5095C230.688 61.3982 230.799 61.5095 230.799 61.7319V64.4014C230.799 64.6239 230.688 64.8463 230.466 64.9575L228.13 66.2923C227.907 66.4035 227.796 66.2923 227.796 66.0698V63.4003C227.796 63.1779 227.907 62.8442 228.13 62.8442Z" fill="#37474F"/>
<path d="M224.57 68.8505L226.906 67.5158C227.128 67.4046 227.24 67.5158 227.24 67.7383V70.4077C227.24 70.6302 227.128 70.8527 226.906 70.9639L224.57 72.2986C224.348 72.4099 224.237 72.2986 224.237 72.0762V69.4067C224.237 69.1842 224.348 68.9618 224.57 68.8505Z" fill="#37474F"/>
<path d="M228.13 66.8484L230.466 65.5137C230.688 65.4025 230.799 65.5137 230.799 65.7362V68.4056C230.799 68.6281 230.688 68.8506 230.466 68.9618L228.13 70.2965C227.907 70.4078 227.796 70.2965 227.796 70.0741V67.4046C227.796 67.1821 227.907 66.9597 228.13 66.8484Z" fill="#37474F"/>
<path d="M224.57 72.8548L226.906 71.52C227.128 71.4088 227.24 71.52 227.24 71.7425V74.412C227.24 74.6344 227.128 74.8569 226.906 74.9681L224.57 76.3029C224.348 76.4141 224.237 76.3029 224.237 76.0804V73.4109C224.237 73.1885 224.348 72.966 224.57 72.8548Z" fill="#37474F"/>
<path d="M228.13 70.8527L230.466 69.5179C230.688 69.4067 230.799 69.5179 230.799 69.7404V72.4099C230.799 72.6323 230.688 72.8548 230.466 72.966L228.13 74.3008C227.907 74.412 227.796 74.3008 227.796 74.0783V71.4088C227.796 71.1864 227.907 70.9639 228.13 70.8527Z" fill="#37474F"/>
<path d="M224.682 77.8601L228.13 75.8579C228.352 75.7467 228.575 75.8579 228.575 76.0804V79.9734C228.575 80.3071 228.352 80.6408 228.13 80.752L224.682 82.7541C224.459 82.8653 224.237 82.7541 224.237 82.5317V78.6387C224.237 78.4162 224.459 78.0825 224.682 77.8601Z" fill="#E0E0E0"/>
<path d="M230.021 78.5274L227.24 80.1959C227.24 80.1959 227.129 80.3071 227.129 80.4183V83.6439L229.909 81.9755C229.909 81.9755 230.021 81.8643 230.021 81.7531V78.5274ZM230.466 77.5264C230.577 77.5264 230.688 77.6376 230.688 77.8601V81.7531C230.688 82.0867 230.466 82.4204 230.243 82.5317L226.795 84.5338C226.684 84.5338 226.684 84.645 226.573 84.645C226.461 84.645 226.35 84.5338 226.35 84.3113V80.4183C226.35 80.0846 226.573 79.7509 226.795 79.6397L230.243 77.6376C230.354 77.5264 230.466 77.5264 230.466 77.5264Z" fill="#455A64"/>
<path d="M151.716 88.6493L213.337 53.0561C214.671 52.2775 215.672 52.9449 215.672 54.3908V99.9946C215.672 101.552 214.671 103.331 213.337 104.11L151.716 139.592C150.381 140.371 149.38 139.703 149.38 138.257V92.6535C149.38 91.2075 150.381 89.4279 151.716 88.6493Z" fill="#37474F"/>
<path d="M209.888 62.288C210 62.288 210.111 62.1768 210.111 62.0656V61.3982C210.111 61.287 210.111 61.287 210 61.287C209.888 61.287 209.888 61.287 209.777 61.287L209.11 61.6207C208.999 61.6207 208.999 61.7319 208.999 61.8431C208.999 61.9544 209.11 61.9544 209.221 61.9544L209.555 61.7319V62.1768C209.666 62.288 209.777 62.288 209.888 62.288Z" fill="#FF9696"/>
<path d="M188.755 73.7446L190.09 72.966C190.201 72.966 190.201 72.8548 190.201 72.7435C190.201 72.6323 190.09 72.6323 189.979 72.6323L188.644 73.4109C188.533 73.4109 188.533 73.5221 188.533 73.6333C188.644 73.7446 188.755 73.7446 188.755 73.7446ZM191.313 72.2986L192.648 71.52C192.759 71.52 192.759 71.4088 192.759 71.2975C192.759 71.1863 192.648 71.1863 192.537 71.1863L191.202 71.9649C191.091 71.9649 191.091 72.0762 191.091 72.1874C191.202 72.2986 191.313 72.2986 191.313 72.2986ZM193.872 70.8526L195.206 70.074C195.318 70.074 195.318 69.9628 195.318 69.8516C195.318 69.7403 195.206 69.7403 195.095 69.7403L193.76 70.5189C193.649 70.5189 193.649 70.6302 193.649 70.7414C193.76 70.8526 193.872 70.8526 193.872 70.8526ZM196.43 69.4067L197.765 68.6281C197.876 68.6281 197.876 68.5168 197.876 68.4056C197.876 68.2944 197.765 68.2944 197.653 68.2944L196.319 69.073C196.207 69.073 196.207 69.1842 196.207 69.2954C196.319 69.2954 196.43 69.4067 196.43 69.4067ZM198.988 67.8495L200.323 67.0709C200.434 67.0709 200.434 66.9596 200.434 66.8484C200.434 66.7372 200.323 66.7372 200.212 66.7372L198.877 67.5158C198.766 67.5158 198.766 67.627 198.766 67.7382C198.877 67.8495 198.988 67.8495 198.988 67.8495ZM201.546 66.4035C201.658 66.4035 201.658 66.4035 201.546 66.4035L202.881 65.6249C202.992 65.6249 202.992 65.5137 202.992 65.4024C202.992 65.2912 202.881 65.2912 202.77 65.2912L201.435 66.0698C201.324 66.0698 201.324 66.181 201.324 66.2923C201.435 66.4035 201.546 66.4035 201.546 66.4035ZM204.105 64.9575C204.216 64.9575 204.216 64.9575 204.105 64.9575L205.439 64.1789C205.551 64.1789 205.551 64.0677 205.551 63.9565C205.551 63.8452 205.439 63.8452 205.328 63.8452L203.993 64.6238C203.882 64.6238 203.882 64.7351 203.882 64.8463C203.993 64.8463 204.105 64.9575 204.105 64.9575ZM206.663 63.4003C206.774 63.4003 206.774 63.4003 206.663 63.4003L207.998 62.6217C208.109 62.6217 208.109 62.5105 208.109 62.3993C208.109 62.288 207.998 62.288 207.886 62.288L206.552 63.0666C206.44 63.0666 206.44 63.1779 206.44 63.2891C206.552 63.4003 206.663 63.4003 206.663 63.4003Z" fill="#FF9696"/>
<path d="M186.864 75.6355C186.975 75.6355 187.087 75.5243 187.087 75.413V74.8569L187.643 74.5232C187.754 74.5232 187.754 74.412 187.754 74.3007C187.754 74.1895 187.643 74.1895 187.531 74.1895L186.864 74.5232L186.753 74.6344V75.3018C186.642 75.5243 186.753 75.6355 186.864 75.6355Z" fill="#FF9696"/>
<path d="M186.864 110.005C186.975 110.005 187.086 109.894 187.086 109.783V108.337C187.086 108.225 186.975 108.114 186.864 108.114C186.753 108.114 186.642 108.225 186.642 108.337V109.783C186.642 110.005 186.753 110.005 186.864 110.005ZM186.864 107.224C186.975 107.224 187.086 107.113 187.086 107.002V105.556C187.086 105.445 186.975 105.334 186.864 105.334C186.753 105.334 186.642 105.445 186.642 105.556V107.002C186.642 107.113 186.753 107.224 186.864 107.224ZM186.864 104.332C186.975 104.332 187.086 104.221 187.086 104.11V102.664C187.086 102.553 186.975 102.442 186.864 102.442C186.753 102.442 186.642 102.553 186.642 102.664V104.11C186.642 104.221 186.753 104.332 186.864 104.332ZM186.864 101.441C186.975 101.441 187.086 101.329 187.086 101.218V99.7721C187.086 99.6609 186.975 99.5496 186.864 99.5496C186.753 99.5496 186.642 99.6609 186.642 99.7721V101.218C186.642 101.329 186.753 101.441 186.864 101.441ZM186.864 98.5486C186.975 98.5486 187.086 98.4374 187.086 98.3261V96.8802C187.086 96.7689 186.975 96.6577 186.864 96.6577C186.753 96.6577 186.642 96.7689 186.642 96.8802V98.3261C186.642 98.4374 186.753 98.5486 186.864 98.5486ZM186.864 95.6566C186.975 95.6566 187.086 95.5454 187.086 95.4342V93.9882C187.086 93.877 186.975 93.7658 186.864 93.7658C186.753 93.7658 186.642 93.877 186.642 93.9882V95.4342C186.642 95.6566 186.753 95.6566 186.864 95.6566ZM186.864 92.8759C186.975 92.8759 187.086 92.7647 187.086 92.6535V91.2075C187.086 91.0963 186.975 90.985 186.864 90.985C186.753 90.985 186.642 91.0963 186.642 91.2075V92.6535C186.642 92.7647 186.753 92.8759 186.864 92.8759ZM186.864 89.984C186.975 89.984 187.086 89.8727 187.086 89.7615V88.3155C187.086 88.2043 186.975 88.0931 186.864 88.0931C186.753 88.0931 186.642 88.2043 186.642 88.3155V89.7615C186.642 89.8727 186.753 89.984 186.864 89.984ZM186.864 87.092C186.975 87.092 187.086 86.9808 187.086 86.8696V85.4236C187.086 85.3124 186.975 85.2011 186.864 85.2011C186.753 85.2011 186.642 85.3124 186.642 85.4236V86.8696C186.642 86.9808 186.753 87.092 186.864 87.092ZM186.864 84.2001C186.975 84.2001 187.086 84.0889 187.086 83.9776V82.5317C187.086 82.4204 186.975 82.3092 186.864 82.3092C186.753 82.3092 186.642 82.4204 186.642 82.5317V83.9776C186.642 84.0889 186.753 84.2001 186.864 84.2001ZM186.864 81.3081C186.975 81.3081 187.086 81.1969 187.086 81.0857V79.6397C187.086 79.5285 186.975 79.4173 186.864 79.4173C186.753 79.4173 186.642 79.5285 186.642 79.6397V81.1969C186.642 81.3081 186.753 81.3081 186.864 81.3081ZM186.864 78.5274C186.975 78.5274 187.086 78.4162 187.086 78.305V76.859C187.086 76.7478 186.975 76.6365 186.864 76.6365C186.753 76.6365 186.642 76.7478 186.642 76.859V78.305C186.642 78.4162 186.753 78.5274 186.864 78.5274Z" fill="#FF9696"/>
<path d="M186.864 112.23L187.531 111.896C187.643 111.896 187.643 111.785 187.643 111.674C187.643 111.562 187.531 111.562 187.42 111.562L187.086 111.785V111.34C187.086 111.229 186.975 111.117 186.864 111.117C186.753 111.117 186.642 111.229 186.642 111.34V112.007C186.642 112.118 186.753 112.118 186.864 112.23Z" fill="#FF9696"/>
<path d="M188.755 111.117L190.09 110.339C190.201 110.339 190.201 110.228 190.201 110.116C190.201 110.005 190.09 110.005 189.979 110.005L188.644 110.784C188.533 110.784 188.533 110.895 188.533 111.006C188.644 111.117 188.755 111.117 188.755 111.117ZM191.313 109.671L192.648 108.893C192.759 108.893 192.759 108.782 192.759 108.67C192.759 108.559 192.648 108.559 192.537 108.559L191.202 109.338C191.091 109.338 191.091 109.449 191.091 109.56C191.202 109.56 191.313 109.671 191.313 109.671ZM193.872 108.114L195.206 107.336C195.318 107.336 195.318 107.224 195.318 107.113C195.318 107.002 195.206 107.002 195.095 107.002L193.76 107.781C193.649 107.781 193.649 107.892 193.649 108.003C193.76 108.114 193.872 108.114 193.872 108.114ZM196.43 106.668L197.765 105.89C197.876 105.89 197.876 105.778 197.876 105.667C197.876 105.556 197.765 105.556 197.653 105.556L196.319 106.335C196.207 106.335 196.207 106.446 196.207 106.557C196.319 106.668 196.43 106.668 196.43 106.668ZM198.988 105.222C199.099 105.222 199.099 105.222 198.988 105.222L200.323 104.444C200.434 104.444 200.434 104.332 200.434 104.221C200.434 104.11 200.323 104.11 200.212 104.11L198.877 104.889C198.766 104.889 198.766 105 198.766 105.111C198.877 105.111 198.988 105.222 198.988 105.222ZM201.546 103.665C201.658 103.665 201.658 103.665 201.546 103.665L202.881 102.887C202.992 102.887 202.992 102.775 202.992 102.664C202.992 102.553 202.881 102.553 202.77 102.553L201.435 103.331C201.324 103.331 201.324 103.443 201.324 103.554C201.435 103.665 201.546 103.665 201.546 103.665ZM204.105 102.219C204.216 102.219 204.216 102.219 204.105 102.219L205.439 101.441C205.551 101.441 205.551 101.329 205.551 101.218C205.551 101.107 205.439 101.107 205.328 101.107L203.993 101.885C203.882 101.885 203.882 101.997 203.882 102.108C203.993 102.219 204.105 102.219 204.105 102.219ZM206.663 100.773C206.774 100.773 206.774 100.773 206.663 100.773L207.998 99.9946C208.109 99.9946 208.109 99.8833 208.109 99.7721C208.109 99.6609 207.998 99.6609 207.886 99.6609L206.552 100.439C206.44 100.439 206.44 100.551 206.44 100.662C206.552 100.773 206.663 100.773 206.663 100.773Z" fill="#FF9696"/>
<path d="M209.221 99.3272C209.332 99.3272 209.332 99.3272 209.221 99.3272L209.888 98.9935L210 98.8823V98.2149C210 98.1037 209.888 97.9924 209.777 97.9924C209.666 97.9924 209.555 98.1037 209.555 98.2149V98.7711L208.998 99.1047C208.887 99.1047 208.887 99.216 208.887 99.3272C209.11 99.216 209.221 99.3272 209.221 99.3272Z" fill="#FF9696"/>
<path d="M209.888 96.769C210 96.769 210.111 96.6577 210.111 96.5465V95.1005C210.111 94.9893 210 94.8781 209.888 94.8781C209.777 94.8781 209.666 94.9893 209.666 95.1005V96.5465C209.666 96.6577 209.777 96.769 209.888 96.769ZM209.888 93.877C210 93.877 210.111 93.7658 210.111 93.6545V92.3198C210.111 92.2086 210 92.0974 209.888 92.0974C209.777 92.0974 209.666 92.2086 209.666 92.3198V93.7658C209.666 93.877 209.777 93.877 209.888 93.877ZM209.888 90.9851C210 90.9851 210.111 90.8738 210.111 90.7626V89.3166C210.111 89.2054 210 89.0942 209.888 89.0942C209.777 89.0942 209.666 89.2054 209.666 89.3166V90.7626C209.666 90.9851 209.777 90.9851 209.888 90.9851ZM209.888 88.2043C210 88.2043 210.111 88.0931 210.111 87.9819V86.5359C210.111 86.4247 210 86.3135 209.888 86.3135C209.777 86.3135 209.666 86.4247 209.666 86.5359V87.9819C209.666 88.0931 209.777 88.2043 209.888 88.2043ZM209.888 85.3124C210 85.3124 210.111 85.2012 210.111 85.0899V83.644C210.111 83.5327 210 83.4215 209.888 83.4215C209.777 83.4215 209.666 83.5327 209.666 83.644V85.0899C209.666 85.2012 209.777 85.3124 209.888 85.3124ZM209.888 82.4205C210 82.4205 210.111 82.3092 210.111 82.198V80.752C210.111 80.6408 210 80.5296 209.888 80.5296C209.777 80.5296 209.666 80.6408 209.666 80.752V82.198C209.666 82.3092 209.777 82.4205 209.888 82.4205ZM209.888 79.5285C210 79.5285 210.111 79.4173 210.111 79.3061V77.8601C210.111 77.7488 210 77.6376 209.888 77.6376C209.777 77.6376 209.666 77.7488 209.666 77.8601V79.3061C209.666 79.4173 209.777 79.5285 209.888 79.5285ZM209.888 76.6366C210 76.6366 210.111 76.5253 210.111 76.4141V74.9681C210.111 74.8569 210 74.7457 209.888 74.7457C209.777 74.7457 209.666 74.8569 209.666 74.9681V76.4141C209.666 76.6366 209.777 76.6366 209.888 76.6366ZM209.888 73.8558C210 73.8558 210.111 73.7446 210.111 73.6334V72.1874C210.111 72.0762 210 71.965 209.888 71.965C209.777 71.965 209.666 72.0762 209.666 72.1874V73.6334C209.666 73.7446 209.777 73.8558 209.888 73.8558ZM209.888 70.9639C210 70.9639 210.111 70.8527 210.111 70.7414V69.2955C210.111 69.1842 210 69.073 209.888 69.073C209.777 69.073 209.666 69.1842 209.666 69.2955V70.7414C209.666 70.8527 209.777 70.9639 209.888 70.9639ZM209.888 68.072C210 68.072 210.111 67.9607 210.111 67.8495V66.4035C210.111 66.2923 210 66.1811 209.888 66.1811C209.777 66.1811 209.666 66.2923 209.666 66.4035V67.8495C209.666 67.9607 209.777 68.072 209.888 68.072ZM209.888 65.18C210 65.18 210.111 65.0688 210.111 64.9576V63.5116C210.111 63.4003 210 63.2891 209.888 63.2891C209.777 63.2891 209.666 63.4003 209.666 63.5116V64.9576C209.666 65.0688 209.777 65.18 209.888 65.18Z" fill="#FF9696"/>
<path d="M209.555 62.288C209.666 62.288 209.666 62.288 209.666 62.1768L210 61.5094C210 61.3982 210 61.287 209.888 61.287C209.777 61.287 209.666 61.287 209.666 61.3982L209.332 62.0656C209.332 62.0656 209.443 62.1768 209.555 62.288Z" fill="#FF9696"/>
<path d="M187.754 110.228C187.865 110.228 187.865 110.228 187.865 110.116L188.421 108.782C188.421 108.67 188.421 108.559 188.31 108.559C188.199 108.559 188.088 108.559 188.088 108.67L187.531 110.005C187.531 110.005 187.643 110.116 187.754 110.228ZM188.977 107.558C189.089 107.558 189.089 107.558 189.089 107.447L189.645 106.112C189.645 106.001 189.645 105.89 189.534 105.89C189.422 105.89 189.311 105.89 189.311 106.001L188.755 107.336C188.755 107.447 188.866 107.447 188.977 107.558ZM190.201 104.889C190.312 104.889 190.312 104.889 190.312 104.777L190.868 103.443C190.868 103.331 190.868 103.22 190.757 103.22C190.646 103.22 190.535 103.22 190.535 103.331L189.978 104.666C189.978 104.777 189.978 104.889 190.201 104.889ZM191.424 102.219C191.536 102.219 191.536 102.219 191.536 102.108L192.092 100.773C192.092 100.662 192.092 100.551 191.981 100.551C191.869 100.551 191.758 100.551 191.758 100.662L191.202 101.997C191.202 102.108 191.202 102.219 191.424 102.219ZM192.648 99.5497C192.759 99.5497 192.759 99.5497 192.759 99.4384L193.315 98.1037C193.315 97.9925 193.315 97.8812 193.204 97.8812C193.093 97.8812 192.982 97.8812 192.982 97.9925L192.425 99.3272C192.425 99.4384 192.425 99.5497 192.648 99.5497ZM193.871 96.8802C193.983 96.8802 193.983 96.8802 193.983 96.769L194.539 95.4342C194.539 95.323 194.539 95.2118 194.428 95.2118C194.316 95.2118 194.205 95.2118 194.205 95.323L193.649 96.6577C193.649 96.769 193.649 96.8802 193.871 96.8802C193.76 96.8802 193.76 96.8802 193.871 96.8802ZM195.095 94.2107C195.206 94.2107 195.206 94.2107 195.206 94.0995L195.762 92.7647C195.762 92.6535 195.762 92.5423 195.651 92.5423C195.54 92.5423 195.429 92.5423 195.429 92.6535L194.873 93.9882C194.873 94.0995 194.872 94.2107 195.095 94.2107C194.984 94.2107 194.984 94.2107 195.095 94.2107ZM196.207 91.5412C196.318 91.5412 196.318 91.5412 196.318 91.43L196.986 90.0952C196.986 89.984 196.986 89.8728 196.875 89.8728C196.763 89.8728 196.652 89.8728 196.652 89.984L196.096 91.3187C196.096 91.43 196.096 91.5412 196.207 91.5412ZM197.431 88.8717C197.542 88.8717 197.542 88.8717 197.542 88.7605L198.098 87.4257C198.098 87.3145 198.098 87.2033 197.987 87.2033C197.876 87.2033 197.764 87.2033 197.764 87.3145L197.208 88.6493C197.208 88.7605 197.32 88.8717 197.431 88.8717ZM198.654 86.2022C198.766 86.2022 198.766 86.2022 198.766 86.091L199.322 84.7563C199.322 84.645 199.322 84.5338 199.21 84.5338C199.099 84.5338 198.988 84.5338 198.988 84.645L198.432 85.9798C198.432 86.091 198.543 86.2022 198.654 86.2022ZM199.878 83.5327C199.989 83.5327 199.989 83.5327 199.989 83.4215L200.545 82.0868C200.545 81.9755 200.545 81.8643 200.434 81.8643C200.323 81.8643 200.211 81.8643 200.211 81.9755L199.655 83.3103C199.655 83.4215 199.767 83.5327 199.878 83.5327ZM201.101 80.8633C201.213 80.8633 201.213 80.8633 201.213 80.752L201.769 79.4173C201.769 79.3061 201.769 79.1948 201.657 79.1948C201.546 79.1948 201.435 79.1948 201.435 79.3061L200.879 80.6408C200.879 80.752 200.879 80.8633 201.101 80.8633ZM202.325 78.305C202.436 78.305 202.436 78.305 202.436 78.1938L202.992 76.859C202.992 76.7478 202.992 76.6366 202.881 76.6366C202.77 76.6366 202.659 76.6366 202.659 76.7478L202.102 78.0825C202.102 78.0825 202.102 78.1938 202.325 78.305ZM203.548 75.6355C203.66 75.6355 203.66 75.6355 203.66 75.5243L204.216 74.1895C204.216 74.0783 204.216 73.9671 204.104 73.9671C203.993 73.9671 203.882 73.9671 203.882 74.0783L203.326 75.4131C203.326 75.4131 203.326 75.5243 203.548 75.6355ZM204.772 72.966C204.883 72.966 204.883 72.966 204.883 72.8548L205.439 71.52C205.439 71.4088 205.439 71.2976 205.328 71.2976C205.217 71.2976 205.106 71.2976 205.106 71.4088L204.549 72.7436C204.549 72.7436 204.549 72.8548 204.772 72.966C204.661 72.966 204.661 72.966 204.772 72.966ZM205.995 70.2965C206.107 70.2965 206.107 70.2965 206.107 70.1853L206.663 68.8506C206.663 68.7393 206.663 68.6281 206.552 68.6281C206.44 68.6281 206.329 68.6281 206.329 68.7393L205.773 70.0741C205.773 70.0741 205.773 70.1853 205.995 70.2965C205.884 70.2965 205.884 70.2965 205.995 70.2965ZM207.108 67.627C207.219 67.627 207.219 67.627 207.219 67.5158L207.775 66.1811C207.775 66.0698 207.775 65.9586 207.664 65.9586C207.553 65.9586 207.441 65.9586 207.441 66.0698L206.885 67.4046C206.996 67.4046 206.996 67.5158 207.108 67.627ZM208.331 64.9576C208.442 64.9576 208.442 64.9576 208.442 64.8463L208.999 63.5116C208.999 63.4003 208.999 63.2891 208.887 63.2891C208.776 63.2891 208.665 63.2891 208.665 63.4004L208.109 64.7351C208.109 64.7351 208.22 64.8463 208.331 64.9576Z" fill="#FF9696"/>
<path d="M186.864 112.23C186.975 112.23 186.975 112.23 186.975 112.118L187.309 111.451C187.309 111.34 187.309 111.229 187.198 111.229C187.087 111.229 186.975 111.229 186.975 111.34L186.642 112.007C186.642 112.007 186.753 112.118 186.864 112.23Z" fill="#FF9696"/>
<path d="M187.42 75.4131H187.531C187.643 75.3018 187.643 75.1906 187.531 75.1906L187.086 74.6344C186.975 74.5232 186.864 74.5232 186.864 74.6344C186.753 74.7457 186.753 74.8569 186.864 74.8569L187.309 75.4131C187.309 75.4131 187.309 75.4131 187.42 75.4131Z" fill="#FF9696"/>
<path d="M208.443 97.4363H208.554C208.665 97.3251 208.665 97.2139 208.554 97.2139L207.553 96.2128C207.442 96.1016 207.33 96.1016 207.33 96.2128C207.219 96.3241 207.219 96.4353 207.33 96.4353L208.331 97.4363C208.331 97.4363 208.331 97.4363 208.443 97.4363ZM206.552 95.4342H206.663C206.774 95.323 206.774 95.2118 206.663 95.2118L205.662 94.2107C205.551 94.0995 205.439 94.0995 205.439 94.2107C205.328 94.3219 205.328 94.4332 205.439 94.4332L206.44 95.4342C206.44 95.4342 206.44 95.4342 206.552 95.4342ZM204.55 93.4321H204.661C204.772 93.3209 204.772 93.2097 204.661 93.2097L203.66 92.2086C203.549 92.0974 203.437 92.0974 203.437 92.2086C203.326 92.3198 203.326 92.4311 203.437 92.4311L204.438 93.4321C204.55 93.4321 204.55 93.4321 204.55 93.4321ZM202.659 91.43H202.77C202.881 91.3188 202.881 91.2075 202.77 91.2075L201.769 90.2065C201.658 90.0953 201.546 90.0953 201.546 90.2065C201.435 90.3177 201.435 90.4289 201.546 90.4289L202.547 91.43H202.659ZM200.768 89.4279H200.879C200.99 89.3167 200.99 89.2054 200.879 89.2054L199.878 88.2044C199.767 88.0931 199.655 88.0931 199.655 88.2044C199.544 88.3156 199.544 88.4268 199.655 88.4268L200.657 89.4279H200.768ZM198.877 87.4258H198.988C199.099 87.3145 199.099 87.2033 198.988 87.2033L197.987 86.2022C197.876 86.091 197.765 86.091 197.765 86.2022C197.653 86.3135 197.653 86.4247 197.765 86.4247L198.766 87.4258C198.766 87.4258 198.766 87.4258 198.877 87.4258ZM196.986 85.4237H197.097C197.208 85.3124 197.208 85.2012 197.097 85.2012L196.096 84.2001C195.985 84.0889 195.874 84.0889 195.874 84.2001C195.762 84.3114 195.762 84.4226 195.874 84.4226L196.875 85.4237C196.875 85.4237 196.875 85.4237 196.986 85.4237ZM194.984 83.4215H195.095C195.206 83.3103 195.206 83.1991 195.095 83.1991L194.094 82.198C193.983 82.0868 193.872 82.0868 193.872 82.198C193.76 82.3092 193.76 82.4205 193.872 82.4205L194.873 83.4215C194.984 83.4215 194.984 83.4215 194.984 83.4215ZM193.093 81.4194H193.204C193.315 81.3082 193.315 81.197 193.204 81.197L192.203 80.1959C192.092 80.0847 191.981 80.0847 191.981 80.1959C191.869 80.3071 191.869 80.4184 191.981 80.4184L192.982 81.4194H193.093ZM191.202 79.4173H191.313C191.425 79.3061 191.425 79.1948 191.313 79.1948L190.312 78.1938C190.201 78.0826 190.09 78.0826 190.09 78.1938C189.979 78.305 189.979 78.4162 190.09 78.4162L191.091 79.4173H191.202ZM189.311 77.4152H189.422C189.534 77.304 189.534 77.1927 189.422 77.1927L188.421 76.1917C188.31 76.0804 188.199 76.0804 188.199 76.1917C188.088 76.3029 188.088 76.4141 188.199 76.4141L189.2 77.4152C189.2 77.4152 189.2 77.4152 189.311 77.4152Z" fill="#FF9696"/>
<path d="M209.888 98.8823H210C210.111 98.7711 210.111 98.6598 210 98.6598L209.555 98.1037C209.443 97.9925 209.332 97.9925 209.332 98.1037C209.221 98.2149 209.221 98.3261 209.332 98.3261L209.777 98.8823C209.777 98.8823 209.777 98.8823 209.888 98.8823Z" fill="#FF9696"/>
<path d="M198.321 105.556C198.432 105.556 198.543 105.445 198.543 105.334V104.666C198.543 104.555 198.432 104.444 198.321 104.444C198.209 104.444 198.098 104.555 198.098 104.666V105.334C198.209 105.445 198.321 105.556 198.321 105.556Z" fill="#FF9696"/>
<path d="M198.321 103.554C198.432 103.554 198.543 103.443 198.543 103.331V101.997C198.543 101.885 198.432 101.774 198.321 101.774C198.209 101.774 198.098 101.885 198.098 101.997V103.331C198.209 103.443 198.321 103.554 198.321 103.554ZM198.321 100.884C198.432 100.884 198.543 100.773 198.543 100.662V99.3272C198.543 99.216 198.432 99.1047 198.321 99.1047C198.209 99.1047 198.098 99.216 198.098 99.3272V100.662C198.209 100.773 198.321 100.884 198.321 100.884ZM198.321 98.2149C198.432 98.2149 198.543 98.1037 198.543 97.9924V96.7689C198.543 96.6577 198.432 96.5465 198.321 96.5465C198.209 96.5465 198.098 96.6577 198.098 96.7689V98.1037C198.209 98.1037 198.321 98.2149 198.321 98.2149ZM198.321 95.5454C198.432 95.5454 198.543 95.4342 198.543 95.323V93.9882C198.543 93.877 198.432 93.7658 198.321 93.7658C198.209 93.7658 198.098 93.877 198.098 93.9882V95.323C198.209 95.5454 198.321 95.5454 198.321 95.5454ZM198.321 92.8759C198.432 92.8759 198.543 92.7647 198.543 92.6535V91.3187C198.543 91.2075 198.432 91.0963 198.321 91.0963C198.209 91.0963 198.098 91.2075 198.098 91.3187V92.6535C198.209 92.8759 198.321 92.8759 198.321 92.8759ZM198.321 90.3177C198.432 90.3177 198.543 90.2064 198.543 90.0952V88.7605C198.543 88.6492 198.432 88.538 198.321 88.538C198.209 88.538 198.098 88.6492 198.098 88.7605V90.0952C198.209 90.2064 198.321 90.3177 198.321 90.3177Z" fill="#FF9696"/>
<path d="M198.321 87.6482C198.432 87.6482 198.543 87.537 198.543 87.4257V86.7584C198.543 86.6471 198.543 86.6471 198.432 86.6471C198.321 86.6471 198.321 86.6471 198.209 86.6471L197.542 86.9808C197.431 86.9808 197.431 87.092 197.431 87.2033C197.431 87.3145 197.542 87.3145 197.653 87.3145L197.987 87.092V87.5369C198.209 87.5369 198.321 87.6482 198.321 87.6482Z" fill="#FF9696"/>
<path d="M188.644 92.5422L189.867 91.8749C189.978 91.8749 189.978 91.7637 189.978 91.6524C189.978 91.5412 189.867 91.5412 189.756 91.5412L188.644 92.2086C188.532 92.2086 188.532 92.3198 188.532 92.431C188.532 92.5422 188.532 92.5422 188.644 92.5422ZM190.979 91.2075L192.203 90.5401C192.314 90.5401 192.314 90.4289 192.314 90.3177C192.314 90.2064 192.203 90.2064 192.092 90.2064L190.979 90.8738C190.868 90.8738 190.868 90.9851 190.868 91.0963C190.757 91.2075 190.868 91.2075 190.979 91.2075ZM193.204 89.8728L194.427 89.2054C194.539 89.2054 194.539 89.0942 194.539 88.9829C194.539 88.8717 194.427 88.8717 194.316 88.8717L193.204 89.5391C193.093 89.5391 193.093 89.6503 193.093 89.7615C193.093 89.8728 193.093 89.8728 193.204 89.8728ZM195.428 88.538C195.54 88.538 195.54 88.538 195.428 88.538L196.652 87.8706C196.763 87.8706 196.763 87.7594 196.763 87.6482C196.763 87.537 196.652 87.537 196.541 87.537L195.428 88.2043C195.317 88.2043 195.317 88.3156 195.317 88.4268C195.317 88.538 195.428 88.538 195.428 88.538Z" fill="#FF9696"/>
<path d="M186.864 93.5433C186.976 93.5433 186.976 93.5433 186.864 93.5433L187.532 93.2096C187.643 93.2096 187.643 93.0984 187.643 92.9872C187.643 92.8759 187.532 92.8759 187.421 92.8759L186.753 93.2096C186.642 93.2096 186.642 93.3208 186.642 93.4321C186.753 93.5433 186.864 93.5433 186.864 93.5433Z" fill="#FF9696"/>
<path d="M198.321 68.8505C198.432 68.8505 198.543 68.7393 198.543 68.6281V67.9607C198.543 67.8495 198.432 67.7383 198.321 67.7383C198.209 67.7383 198.098 67.8495 198.098 67.9607V68.6281C198.209 68.7393 198.321 68.8505 198.321 68.8505Z" fill="#FF9696"/>
<path d="M198.321 84.7563C198.432 84.7563 198.543 84.645 198.543 84.5338V83.1991C198.543 83.0878 198.432 82.9766 198.321 82.9766C198.209 82.9766 198.098 83.0878 198.098 83.1991V84.5338C198.209 84.645 198.321 84.7563 198.321 84.7563ZM198.321 82.0868C198.432 82.0868 198.543 81.9755 198.543 81.8643V80.5296C198.543 80.4183 198.432 80.3071 198.321 80.3071C198.209 80.3071 198.098 80.4183 198.098 80.5296V81.8643C198.209 81.9755 198.321 82.0868 198.321 82.0868ZM198.321 79.4173C198.432 79.4173 198.543 79.306 198.543 79.1948V77.8601C198.543 77.7489 198.432 77.6376 198.321 77.6376C198.209 77.6376 198.098 77.7489 198.098 77.8601V79.1948C198.209 79.4173 198.321 79.4173 198.321 79.4173ZM198.321 76.859C198.432 76.859 198.543 76.7478 198.543 76.6366V75.3018C198.543 75.1906 198.432 75.0794 198.321 75.0794C198.209 75.0794 198.098 75.1906 198.098 75.3018V76.6366C198.209 76.7478 198.321 76.859 198.321 76.859ZM198.321 74.1895C198.432 74.1895 198.543 74.0783 198.543 73.9671V72.6323C198.543 72.5211 198.432 72.4099 198.321 72.4099C198.209 72.4099 198.098 72.5211 198.098 72.6323V73.9671C198.209 74.0783 198.321 74.1895 198.321 74.1895ZM198.321 71.52C198.432 71.52 198.543 71.4088 198.543 71.2976V69.9628C198.543 69.8516 198.432 69.7404 198.321 69.7404C198.209 69.7404 198.098 69.8516 198.098 69.9628V71.2976C198.209 71.4088 198.321 71.52 198.321 71.52Z" fill="#FF9696"/>
<path d="M198.321 86.7583C198.432 86.7583 198.432 86.7583 198.321 86.7583L198.988 86.4247C199.099 86.4247 199.099 86.3134 199.099 86.2022C199.099 86.091 198.988 86.091 198.877 86.091L198.543 86.3134V85.8685C198.543 85.7573 198.432 85.6461 198.321 85.6461C198.209 85.6461 198.098 85.7573 198.098 85.8685V86.5359C198.209 86.6471 198.209 86.7583 198.321 86.7583Z" fill="#FF9696"/>
<path d="M200.1 85.7573C200.211 85.7573 200.211 85.7573 200.1 85.7573L201.324 85.0899C201.435 85.0899 201.435 84.9787 201.435 84.8675C201.435 84.7562 201.324 84.7562 201.212 84.7562L200.1 85.4236C199.989 85.4236 199.989 85.5348 199.989 85.6461C199.989 85.7573 200.1 85.7573 200.1 85.7573ZM202.436 84.4226L203.659 83.7552C203.771 83.7552 203.771 83.644 203.771 83.5327C203.771 83.4215 203.659 83.4215 203.548 83.4215L202.436 84.0889C202.325 84.0889 202.325 84.2001 202.325 84.3113C202.325 84.4226 202.325 84.4226 202.436 84.4226ZM204.66 83.199L205.884 82.5317C205.995 82.5317 205.995 82.4204 205.995 82.3092C205.995 82.198 205.884 82.198 205.773 82.198L204.66 82.8654C204.549 82.8654 204.549 82.9766 204.549 83.0878L204.66 83.199ZM206.996 81.8643L208.22 81.1969C208.331 81.1969 208.331 81.0857 208.331 80.9745C208.331 80.8632 208.22 80.8632 208.109 80.8632L206.996 81.5306C206.885 81.5306 206.885 81.6418 206.885 81.7531C206.885 81.8643 206.885 81.8643 206.996 81.8643Z" fill="#FF9696"/>
<path d="M209.221 80.5296L209.888 80.1959C210 80.1959 210 80.0846 210 79.9734C210 79.8622 209.888 79.8622 209.777 79.8622L209.11 80.1959C208.998 80.1959 208.998 80.3071 208.998 80.4183C209.11 80.5296 209.221 80.5296 209.221 80.5296Z" fill="#FF9696"/>
<path d="M186.864 93.3208C186.864 103.665 191.98 109.004 198.432 105.334C204.772 101.663 210 90.3177 210 79.9734C210 69.6291 204.883 64.2902 198.432 67.9607C192.092 71.7425 186.864 83.0878 186.864 93.3208Z" stroke="#FF9696" stroke-width="0.374284" stroke-miterlimit="10" stroke-linecap="round" stroke-linejoin="round"/>
<path d="M180.969 114.677L161.504 125.911L180.969 83.0878V114.677Z" fill="#DD0000"/>
<path d="M234.692 27.5847C234.692 26.8061 234.136 26.4724 233.469 26.9173L138.813 81.5306C138.146 81.9755 137.59 82.8653 137.59 83.6439V88.9829L234.692 32.9237V27.5847Z" fill="#37474F"/>
<path d="M186.864 139.036C185.752 139.703 184.973 141.149 184.973 142.373C184.973 143.596 185.863 144.152 186.864 143.485C187.977 142.818 188.755 141.372 188.755 140.148C188.866 138.925 187.977 138.368 186.864 139.036Z" fill="#455A64"/>
<path d="M129.248 78.7499C128.914 79.4173 128.691 80.0846 128.58 80.752V168.289L124.687 166.064V78.6386C124.687 77.9713 124.91 77.1927 125.355 76.6365L129.248 78.7499Z" fill="#263238"/>
<path opacity="0.15" d="M177.633 224.126L237.585 189.534C238.141 189.2 239.031 189.2 239.587 189.534L275.736 210.333C276.292 210.667 276.292 211.223 275.736 211.557L215.784 246.149C215.228 246.483 214.338 246.483 213.782 246.149L177.633 225.349C177.076 225.016 177.076 224.459 177.633 224.126Z" fill="black"/>
<path d="M178.634 220.344L236.917 186.642C237.474 186.308 238.363 186.308 238.92 186.642L274.068 206.885C274.624 207.219 275.069 207.998 275.069 208.554V208.999C275.069 209.666 274.624 210.445 274.068 210.667L215.784 244.369C215.228 244.703 214.338 244.703 213.782 244.369L178.634 224.126C178.077 223.792 177.633 223.013 177.633 222.457V222.012C177.633 221.456 178.077 220.678 178.634 220.344Z" fill="#FF9696"/>
<path d="M178.634 220.344L236.917 186.642C237.474 186.308 238.363 186.308 238.919 186.642L274.068 206.885C274.624 207.219 274.624 207.664 274.068 207.998L215.784 241.7C215.228 242.034 214.338 242.034 213.782 241.7L178.634 221.456C178.077 221.234 178.077 220.678 178.634 220.344Z" fill="#FF9696"/>
<g opacity="0.2">
<path d="M178.634 220.344L236.917 186.642C237.474 186.308 238.363 186.308 238.919 186.642L274.068 206.885C274.624 207.219 274.624 207.664 274.068 207.998L215.784 241.7C215.228 242.034 214.338 242.034 213.782 241.7L178.634 221.456C178.077 221.234 178.077 220.678 178.634 220.344Z" fill="black"/>
</g>
<path d="M227.463 197.542C228.019 197.208 228.909 197.208 229.465 197.542C233.803 199.989 251.044 210 255.27 212.447C255.827 212.78 255.827 213.225 255.27 213.559C249.598 216.785 221.123 233.247 215.562 236.472C215.006 236.806 214.116 236.806 213.56 236.472L187.755 221.567C187.198 221.234 187.198 220.789 187.755 220.455L227.463 197.542Z" fill="#37474F"/>
<path d="M245.705 199.322C243.925 200.323 243.925 201.991 245.705 202.992C247.484 203.993 250.265 203.993 252.045 202.992C253.824 201.991 253.824 200.323 252.045 199.322C250.265 198.321 247.484 198.321 245.705 199.322Z" fill="#37474F"/>
<path d="M255.492 203.104L252.712 204.772C251.933 205.217 251.711 205.884 252.378 206.329C253.045 206.663 254.158 206.663 255.048 206.107L257.828 204.438C258.607 203.993 258.829 203.326 258.162 202.881C257.495 202.547 256.382 202.659 255.492 203.104Z" fill="#37474F"/>
<path d="M258.829 204.994L256.049 206.663C255.27 207.108 255.048 207.775 255.715 208.22C256.382 208.554 257.495 208.554 258.384 207.998L261.165 206.329C261.944 205.884 262.166 205.217 261.499 204.772C260.832 204.438 259.608 204.55 258.829 204.994Z" fill="#37474F"/>
<path d="M262.055 206.885L259.274 208.554C258.496 208.999 258.273 209.666 258.941 210.111C259.608 210.445 260.72 210.445 261.61 209.889L264.391 208.22C265.169 207.775 265.392 207.108 264.724 206.663C264.057 206.329 262.945 206.44 262.055 206.885Z" fill="#37474F"/>
<path d="M236.584 192.203L233.803 193.872C233.024 194.317 232.802 194.984 233.469 195.429C234.137 195.762 235.249 195.762 236.139 195.206L238.92 193.538C239.698 193.093 239.921 192.426 239.253 191.981C238.586 191.647 237.362 191.758 236.584 192.203Z" fill="#37474F"/>
<path d="M239.921 194.094L237.14 195.763C236.361 196.207 236.139 196.875 236.806 197.32C237.474 197.653 238.586 197.653 239.476 197.097L242.257 195.429C243.035 194.984 243.258 194.317 242.59 193.872C241.923 193.538 240.699 193.649 239.921 194.094Z" fill="#37474F"/>
<path d="M243.146 195.985L240.365 197.653C239.586 198.098 239.364 198.766 240.031 199.211C240.699 199.544 241.811 199.544 242.701 198.988L245.482 197.32C246.26 196.875 246.483 196.207 245.815 195.762C245.148 195.429 244.036 195.54 243.146 195.985Z" fill="#37474F"/>
<g opacity="0.3">
<path d="M214.672 242.034V244.703C214.338 244.703 214.005 244.592 213.671 244.481L178.523 224.237C177.966 223.903 177.522 223.125 177.522 222.569V222.235C177.522 221.679 177.855 221.011 178.3 220.678C177.966 221.011 177.966 221.456 178.523 221.679L213.671 241.922C214.005 241.922 214.338 242.034 214.672 242.034Z" fill="black"/>
</g>
<g opacity="0.5">
<path d="M274.958 208.665V209.11C274.958 209.777 274.513 210.556 273.956 210.778L215.673 244.481C215.45 244.592 215.005 244.703 214.672 244.703V242.034C215.005 242.034 215.339 241.922 215.673 241.811L273.956 208.109C274.401 207.886 274.513 207.441 274.179 207.108C274.624 207.553 274.958 208.109 274.958 208.665Z" fill="black"/>
</g>
<path opacity="0.15" d="M237.585 146.266C238.03 147.044 238.92 147.489 240.032 147.712C240.366 147.823 240.588 147.712 240.922 147.6L264.614 133.697L266.727 131.139C266.838 130.916 266.727 130.694 266.504 130.694L261.722 131.917L237.696 145.821C237.585 145.932 237.585 146.154 237.585 146.266Z" fill="black"/>
<path d="M260.721 130.138L265.615 129.136C265.726 129.136 265.837 129.248 265.726 129.359L262.389 133.141L260.721 130.138Z" fill="#FFA8A7"/>
<path d="M265.837 129.47C265.948 129.359 265.837 129.136 265.726 129.248L264.725 129.47C264.947 129.693 265.17 129.915 265.17 130.249V130.36L265.837 129.47Z" fill="#263238"/>
<path d="M244.147 143.819L244.592 143.596L245.037 143.374L262.5 133.363C262.722 132.807 262.611 132.251 262.389 131.695C262.055 130.916 261.388 130.249 260.831 130.249L243.369 140.259L242.479 140.815C242.924 140.371 244.703 143.485 244.147 143.819Z" fill="#FF9696"/>
<path d="M245.594 142.929L246.483 142.373C246.706 142.261 246.595 141.594 246.261 140.927C245.816 140.037 245.037 139.147 244.704 139.37L244.036 139.703L243.814 139.814C244.148 139.592 244.926 140.482 245.371 141.372C245.705 142.039 245.927 142.706 245.594 142.929C245.705 142.929 245.705 142.929 245.594 142.929Z" fill="#EBEBEB"/>
<path d="M245.816 142.818C246.483 142.484 244.703 139.481 244.036 139.814L243.146 140.371C243.814 140.037 245.482 143.04 244.926 143.374L245.816 142.818Z" fill="#FF9696"/>
<path d="M244.148 143.819L245.037 143.263C245.594 142.929 243.925 140.037 243.369 140.148L242.479 140.704C242.924 140.371 244.704 143.485 244.148 143.819Z" fill="#EBEBEB"/>
<path opacity="0.15" d="M265.837 129.248L265.726 129.136L262.166 131.139L243.702 141.705C243.702 141.705 243.591 141.594 243.591 141.705C244.147 142.484 244.481 143.596 244.147 143.707L244.592 143.485L245.037 143.263L262.5 133.252L265.837 129.47C265.837 129.359 265.837 129.359 265.837 129.248Z" fill="black"/>
<path d="M240.366 145.932L244.147 143.819C244.37 143.707 244.259 143.04 243.925 142.373C243.48 141.483 242.701 140.593 242.368 140.815L238.586 143.04C237.807 143.485 238.475 145.153 239.365 145.821C239.698 145.932 240.032 146.154 240.366 145.932Z" fill="#F28F8F"/>
<path opacity="0.1" d="M240.588 144.82C240.366 143.93 239.698 143.151 239.031 142.929C238.809 142.818 238.586 142.929 238.475 143.04C237.919 143.596 238.586 145.042 239.365 145.71C239.698 145.932 240.032 146.154 240.366 145.932C240.588 145.821 240.699 145.376 240.588 144.82Z" fill="black"/>
<path opacity="0.15" d="M188.31 201.88L181.08 206.107C178.744 207.441 175.185 207.219 173.072 205.662L161.059 196.875C158.946 195.318 159.057 192.982 161.281 191.647L164.952 189.534C167.288 188.199 170.958 188.088 173.405 189.311L188.199 197.32C190.535 198.432 190.535 200.545 188.31 201.88Z" fill="black"/>
<path d="M160.836 193.093L169.067 199.544L175.185 204.327C175.741 204.55 176.408 204.772 177.187 204.772C178.188 204.883 179.3 204.661 180.079 204.105L186.53 200.323C188.755 198.988 189.311 195.874 187.865 193.76C187.754 193.649 187.754 193.538 187.642 193.538C186.419 191.869 184.528 190.646 182.415 190.201L179.078 189.534C173.739 188.421 169.401 187.976 168.845 188.31L160.836 193.093Z" fill="white"/>
<path d="M165.508 196.652L165.063 196.319L172.404 192.092L166.064 190.09C166.287 189.979 166.509 189.867 166.731 189.756L173.071 191.758L177.409 189.2C177.632 189.2 177.966 189.311 178.188 189.311L165.508 196.652Z" fill="#455A64"/>
<path d="M174.517 203.882L168.622 199.655L160.725 193.983V193.093C160.725 193.093 160.725 193.093 160.725 192.982C161.281 192.759 164.729 193.76 168.845 195.429L171.625 196.541C172.515 196.875 173.294 197.32 173.961 197.876C175.963 199.544 177.076 201.88 177.076 204.55V204.661C176.408 204.661 175.741 204.438 175.074 204.216L174.517 203.882Z" fill="#E6E6E6"/>
<path opacity="0.15" d="M151.048 208.331C150.937 208.109 150.603 207.886 150.27 207.775L93.6544 198.988H93.4319C92.987 198.988 92.5421 199.211 92.4309 199.544L89.9838 204.772L86.9807 207.775C86.8695 207.886 86.8695 207.998 86.7582 208.109L85.0898 209.11C84.7561 209.221 84.6449 209.555 84.6449 209.889C84.6449 210.222 84.8673 210.445 85.0898 210.667L126.467 234.581C126.689 234.693 126.912 234.693 127.134 234.693C127.245 234.693 127.579 234.693 127.802 234.581L136.366 229.576C136.7 229.465 136.811 229.131 136.811 228.797C136.811 228.464 136.589 228.241 136.366 228.019L126.244 222.235L138.035 226.128C138.146 226.128 138.368 226.239 138.48 226.239C138.813 226.239 139.147 226.128 139.369 225.905L145.487 219.788C145.709 219.565 145.821 219.343 145.709 219.009C145.598 218.676 145.376 218.453 145.042 218.342L131.695 213.893L146.71 216.229H146.933C147.378 216.229 147.823 216.006 147.934 215.672L151.048 208.887C151.16 208.776 151.16 208.554 151.048 208.331Z" fill="black"/>
<path d="M136.145 226.35C136.145 226.239 136.145 226.239 136.033 226.128L94.6562 202.214C94.4338 202.103 94.2113 202.103 93.9889 202.214L85.4243 207.219C85.3131 207.219 85.313 207.33 85.313 207.442C85.313 207.553 85.313 208.665 85.313 208.776C85.313 208.887 85.3131 208.887 85.4243 208.999L126.801 232.913C127.024 233.024 127.246 233.024 127.469 232.913L136.033 227.908C136.145 227.908 136.145 227.796 136.145 227.685C136.145 227.574 136.145 226.462 136.145 226.35Z" fill="#F0F0F0"/>
<path d="M127.135 231.578V232.913C127.024 232.913 126.912 232.913 126.801 232.802L85.424 208.887C85.3128 208.887 85.3128 208.776 85.3128 208.665V207.33C85.3128 207.442 85.3128 207.442 85.424 207.553L126.801 231.467C126.912 231.578 127.024 231.578 127.135 231.578Z" fill="#E0E0E0"/>
<path d="M94.6558 202.214L136.033 226.128C136.255 226.239 136.255 226.35 136.033 226.462L127.468 231.467C127.246 231.578 127.023 231.578 126.801 231.467L85.4238 207.553C85.2014 207.442 85.2014 207.33 85.4238 207.219L93.9884 202.214C94.2109 202.103 94.4333 202.103 94.6558 202.214Z" fill="#FAFAFA"/>
<path d="M94.3225 204.438L89.2059 207.33L94.3225 210.333L99.439 207.33L94.3225 204.438Z" fill="#F28F8F"/>
<path opacity="0.9" d="M94.3225 204.438L89.2059 207.33L94.3225 210.333L99.439 207.33L94.3225 204.438Z" fill="#F0F0F0"/>
<path d="M107.447 212.002L102.33 215.005L107.447 217.897L112.563 215.005L107.447 212.002Z" fill="#F28F8F"/>
<path opacity="0.6" d="M107.447 212.002L102.33 215.005L107.447 217.897L112.563 215.005L107.447 212.002Z" fill="#F0F0F0"/>
<path d="M114.01 215.784L108.893 218.787L114.01 221.679L119.126 218.787L114.01 215.784Z" fill="#F28F8F"/>
<path opacity="0.5" d="M114.01 215.784L108.893 218.787L114.01 221.679L119.126 218.787L114.01 215.784Z" fill="#F0F0F0"/>
<path d="M120.572 219.565L115.456 222.569L120.572 225.461L125.689 222.569L120.572 219.565Z" fill="#F28F8F"/>
<path opacity="0.4" d="M120.572 219.565L115.456 222.569L120.572 225.461L125.689 222.569L120.572 219.565Z" fill="#F0F0F0"/>
<path d="M127.135 223.347L122.018 226.35L127.135 229.354L132.251 226.35L127.135 223.347Z" fill="#F28F8F"/>
<path d="M100.885 208.22L95.7684 211.223L100.885 214.115L106.001 211.223L100.885 208.22Z" fill="#F28F8F"/>
<path opacity="0.8" d="M100.885 208.22L95.7684 211.223L100.885 214.115L106.001 211.223L100.885 208.22Z" fill="#F0F0F0"/>
<path d="M94.8781 203.771C94.5444 203.882 94.0995 203.882 93.877 203.771C93.5433 203.66 93.5433 203.326 93.877 203.215C94.2107 203.104 94.6556 203.104 94.8781 203.215C95.1005 203.326 95.1005 203.549 94.8781 203.771Z" fill="#263238"/>
<path d="M145.042 216.785C145.042 216.673 144.931 216.562 144.82 216.562L94.0993 199.655C93.8768 199.544 93.5431 199.655 93.4319 199.767L87.3143 205.884L87.2031 205.995V207.219C87.2031 207.33 87.3143 207.441 87.4255 207.441L138.146 224.348C138.368 224.459 138.702 224.348 138.813 224.237L144.931 218.119L145.042 218.008C145.042 218.008 145.042 216.896 145.042 216.785Z" fill="#F0F0F0"/>
<path d="M138.702 223.125V224.459C138.59 224.459 138.479 224.459 138.368 224.459L87.6477 207.553C87.5365 207.553 87.4252 207.441 87.4252 207.33V206.107C87.4252 206.218 87.5365 206.329 87.6477 206.329L138.368 223.236C138.368 223.125 138.59 223.125 138.702 223.125Z" fill="#E0E0E0"/>
<path d="M94.0991 199.655L144.819 216.562C145.042 216.673 145.153 216.785 145.042 216.896L138.924 223.013C138.813 223.125 138.479 223.236 138.257 223.125L87.5366 206.218C87.3142 206.107 87.2029 205.996 87.3141 205.884L93.4317 199.767C93.5429 199.655 93.8766 199.544 94.0991 199.655Z" fill="#FAFAFA"/>
<path d="M94.7658 201.769L91.0952 205.439L97.4353 207.553L100.995 203.882L94.7658 201.769Z" fill="#FF9696"/>
<path d="M110.894 207.219L107.224 210.778L113.452 212.892L117.123 209.221L110.894 207.219Z" fill="#FF9696"/>
<path opacity="0.25" d="M110.894 207.219L107.224 210.778L113.452 212.892L117.123 209.221L110.894 207.219Z" fill="black"/>
<path d="M118.903 209.889L115.232 213.448L121.573 215.561L125.132 212.002L118.903 209.889Z" fill="#FF9696"/>
<path opacity="0.35" d="M118.903 209.889L115.232 213.448L121.573 215.561L125.132 212.002L118.903 209.889Z" fill="black"/>
<path d="M126.911 212.558L123.352 216.117L129.58 218.231L133.251 214.671L126.911 212.558Z" fill="#FF9696"/>
<path opacity="0.35" d="M126.911 212.558L123.352 216.117L129.58 218.231L133.251 214.671L126.911 212.558Z" fill="black"/>
<path d="M135.031 215.228L131.36 218.898L137.589 220.9L141.26 217.341L135.031 215.228Z" fill="#FF9696"/>
<path opacity="0.5" d="M135.031 215.228L131.36 218.898L137.589 220.9L141.26 217.341L135.031 215.228Z" fill="black"/>
<path d="M102.775 204.438L99.2154 208.109L105.444 210.222L109.115 206.552L102.775 204.438Z" fill="#FF9696"/>
<path opacity="0.15" d="M102.775 204.438L99.2154 208.109L105.444 210.222L109.115 206.552L102.775 204.438Z" fill="black"/>
<path d="M94.9891 201.101C94.7666 201.324 94.3217 201.324 93.988 201.213C93.6543 201.101 93.5431 200.879 93.7656 200.657C93.988 200.434 94.433 200.434 94.7666 200.545C94.9891 200.545 95.1003 200.879 94.9891 201.101Z" fill="#263238"/>
<path d="M150.493 206.107C150.493 205.996 150.381 205.884 150.159 205.884L93.5436 197.097C93.3211 197.097 92.9874 197.097 92.9874 197.32L89.873 204.105C89.873 204.105 89.873 204.105 89.873 204.216V205.551C89.873 205.662 89.9843 205.773 90.2067 205.773L146.822 214.56C147.045 214.56 147.378 214.56 147.378 214.338L150.493 207.553C150.493 207.553 150.493 207.553 150.493 207.441V206.107Z" fill="#F0F0F0"/>
<path d="M147.044 213.225V214.449C146.933 214.449 146.822 214.449 146.711 214.449L90.0953 205.662C89.8729 205.662 89.7617 205.551 89.7617 205.439V204.105C89.7617 204.216 89.8729 204.327 90.0953 204.327L146.711 213.114C146.822 213.225 146.933 213.225 147.044 213.225Z" fill="#E0E0E0"/>
<path d="M93.5433 197.097L150.159 205.884C150.381 205.884 150.604 206.107 150.492 206.218L147.378 213.003C147.267 213.114 147.044 213.225 146.822 213.225L90.2064 204.438C89.984 204.438 89.7615 204.216 89.8728 204.105L92.9871 197.32C93.0984 197.208 93.3208 197.097 93.5433 197.097Z" fill="#FAFAFA"/>
<path d="M95.2123 199.099L93.3214 203.215L100.329 204.216L102.22 200.212L95.2123 199.099Z" fill="#FF9696"/>
<path opacity="0.9" d="M95.2123 199.099L93.3214 203.215L100.329 204.216L102.22 200.212L95.2123 199.099Z" fill="white"/>
<path d="M113.12 201.88L111.229 205.995L118.236 206.997L120.127 202.992L113.12 201.88Z" fill="#FF9696"/>
<path opacity="0.75" d="M113.12 201.88L111.229 205.995L118.236 206.997L120.127 202.992L113.12 201.88Z" fill="white"/>
<path d="M122.129 203.326L120.238 207.33L127.246 208.442L129.137 204.327L122.129 203.326Z" fill="#FF9696"/>
<path opacity="0.7" d="M122.129 203.326L120.238 207.33L127.246 208.442L129.137 204.327L122.129 203.326Z" fill="white"/>
<path d="M131.027 204.661L129.136 208.776L136.144 209.777L138.035 205.773L131.027 204.661Z" fill="#FF9696"/>
<path opacity="0.6" d="M131.027 204.661L129.136 208.776L136.144 209.777L138.035 205.773L131.027 204.661Z" fill="white"/>
<path d="M140.037 206.107L138.146 210.111L145.154 211.223L147.044 207.108L140.037 206.107Z" fill="#FF9696"/>
<path d="M104.11 200.545L102.219 204.549L109.227 205.662L111.118 201.658L104.11 200.545Z" fill="#FF9696"/>
<path opacity="0.8" d="M104.11 200.545L102.219 204.549L109.227 205.662L111.118 201.658L104.11 200.545Z" fill="white"/>
<path d="M94.9892 198.321C94.878 198.543 94.4331 198.654 94.0994 198.654C93.6545 198.543 93.432 198.321 93.5433 198.098C93.6545 197.876 94.0994 197.765 94.4331 197.765C94.878 197.876 95.1005 198.098 94.9892 198.321Z" fill="#263238"/>
<g opacity="0.15">
<path d="M170.069 262.5C165.063 260.275 157.166 260.275 152.383 262.5C147.601 264.724 147.601 268.284 152.383 270.508C157.166 272.733 165.063 272.733 170.069 270.508C175.074 268.284 175.074 264.724 170.069 262.5Z" fill="black"/>
</g>
<path d="M173.406 236.583H149.269L151.049 265.058C151.16 266.059 152.161 267.171 153.941 267.95C157.834 269.618 164.396 269.618 168.4 267.95C170.291 267.171 171.292 266.17 171.404 265.058L173.406 236.583Z" fill="#FAFAFA"/>
<path d="M149.269 236.583L149.603 242.367C150.159 242.701 150.826 243.146 151.605 243.48C156.833 245.593 165.397 245.593 170.848 243.48C171.07 243.368 171.292 243.257 171.515 243.146C172.405 242.701 173.072 242.256 173.072 242.256L173.406 236.472L149.269 236.583Z" fill="#E0E0E0"/>
<path d="M173.851 237.584V233.58H171.292C170.959 233.358 170.625 233.247 170.18 233.024C165.175 231.022 157.277 231.022 152.495 233.024C152.05 233.135 151.716 233.358 151.382 233.58H148.824V237.584C148.824 238.919 150.048 240.143 152.383 241.144C157.166 243.146 165.063 243.146 170.069 241.144C172.627 240.143 173.851 238.808 173.851 237.584Z" fill="#DD0000"/>
<g opacity="0.2">
<path d="M173.851 237.584V233.58H171.292C170.959 233.358 170.625 233.247 170.18 233.024C165.175 231.022 157.277 231.022 152.495 233.024C152.05 233.135 151.716 233.358 151.382 233.58H148.824V237.584C148.824 238.919 150.048 240.143 152.383 241.144C157.166 243.146 165.063 243.146 170.069 241.144C172.627 240.143 173.851 238.808 173.851 237.584Z" fill="black"/>
</g>
<path d="M170.069 229.91C165.063 227.908 157.166 227.908 152.383 229.91C147.601 231.912 147.601 235.137 152.383 237.14C157.166 239.142 165.063 239.142 170.069 237.14C175.074 235.137 175.074 231.912 170.069 229.91Z" fill="#DD0000"/>
<path d="M170.625 232.468L169.624 229.798H152.94L151.939 232.468C151.605 233.469 152.384 234.581 154.608 235.36C158.167 236.695 164.174 236.695 167.956 235.36C170.18 234.581 171.07 233.469 170.625 232.468Z" fill="#DD0000"/>
<path opacity="0.2" d="M170.625 232.468L169.624 229.798H152.94L151.939 232.468C151.605 233.469 152.384 234.581 154.608 235.36C158.167 236.695 164.174 236.695 167.956 235.36C170.18 234.581 171.07 233.469 170.625 232.468Z" fill="black"/>
<path d="M167.177 227.908C163.84 226.684 158.612 226.684 155.387 227.908C152.161 229.131 152.161 231.022 155.387 232.245C158.612 233.469 163.951 233.469 167.177 232.245C170.514 231.022 170.514 229.131 167.177 227.908Z" fill="#DD0000"/>
<g opacity="0.3">
<path d="M167.177 227.908C163.84 226.684 158.612 226.684 155.387 227.908C152.161 229.131 152.161 231.022 155.387 232.245C158.612 233.469 163.951 233.469 167.177 232.245C170.514 231.022 170.514 229.131 167.177 227.908Z" fill="white"/>
</g>
<path d="M168.512 230.132C168.512 230.132 168.401 230.355 168.178 230.577C167.956 230.8 167.511 231.022 166.843 231.244C165.397 231.801 163.395 232.134 161.282 232.134C159.169 232.134 157.166 231.801 155.832 231.356C155.164 231.133 154.719 230.911 154.497 230.688C154.274 230.466 154.163 230.355 154.163 230.243C154.163 230.132 154.497 229.687 155.832 229.131C157.278 228.575 159.28 228.352 161.282 228.352C163.395 228.352 165.397 228.686 166.843 229.242C168.178 229.465 168.512 230.021 168.512 230.132Z" fill="#DD0000"/>
<g opacity="0.2">
<path d="M168.512 230.132C168.512 230.132 168.401 230.355 168.178 230.577C167.956 230.8 167.511 231.022 166.843 231.244C165.397 231.801 163.395 232.134 161.282 232.134C159.169 232.134 157.166 231.801 155.832 231.356C155.164 231.133 154.719 230.911 154.497 230.688C154.274 230.466 154.163 230.355 154.163 230.243C154.163 230.132 154.497 229.687 155.832 229.131C157.278 228.575 159.28 228.352 161.282 228.352C163.395 228.352 165.397 228.686 166.843 229.242C168.178 229.465 168.512 230.021 168.512 230.132Z" fill="black"/>
</g>
<path d="M168.178 230.466C167.956 230.688 167.511 230.911 166.843 231.133C165.397 231.689 163.395 232.023 161.282 232.023C159.169 232.023 157.167 231.689 155.832 231.244C155.164 231.022 154.72 230.799 154.497 230.577C154.72 230.355 155.164 230.132 155.832 229.91C157.278 229.354 159.28 229.131 161.282 229.131C163.395 229.131 165.397 229.465 166.843 230.021C167.511 230.021 167.956 230.243 168.178 230.466Z" fill="#DD0000"/>
<path d="M164.842 230.577C165.287 230.355 165.954 230.243 166.176 230.355C166.399 230.466 166.176 230.8 165.731 231.133C165.287 231.356 164.619 231.578 164.397 231.356C164.174 231.133 164.397 230.8 164.842 230.577Z" fill="black"/>
<path d="M150.382 258.607C150.382 259.608 151.383 260.72 153.496 261.499C157.723 263.056 164.73 263.056 169.068 261.499C171.293 260.72 172.294 259.608 172.294 258.607L172.961 248.262C172.961 249.375 171.849 250.487 169.513 251.377C164.841 253.045 157.5 253.045 152.94 251.377C150.715 250.487 149.603 249.375 149.603 248.262L150.382 258.607Z" fill="#FFBDA7"/>
<path d="M165.064 259.163C165.509 258.607 165.62 257.939 165.954 257.383C166.621 256.271 167.511 255.492 168.623 255.047C168.734 254.936 168.957 255.047 169.068 255.159C169.624 256.382 169.29 258.051 168.067 259.274C166.843 260.498 165.175 260.831 164.063 260.275C163.951 260.275 163.951 260.164 164.063 260.053C164.396 259.83 164.841 259.608 165.064 259.163Z" fill="#B16668"/>
<path d="M168.067 254.714C167.4 254.936 166.844 255.381 166.399 255.715C165.842 256.16 165.509 256.716 165.175 257.383C164.73 258.384 164.285 258.94 163.618 259.385C163.507 259.497 163.284 259.497 163.173 259.274C162.394 258.051 162.728 256.271 163.952 254.936C165.175 253.713 166.955 253.379 168.067 253.935C168.29 254.269 168.29 254.602 168.067 254.714Z" fill="#B16668"/>
<path opacity="0.15" d="M288.083 96.9914C295.424 101.218 295.424 108.114 288.083 112.341C280.741 116.568 268.84 116.568 261.61 112.341C254.269 108.114 254.269 101.218 261.61 96.9914C268.84 92.7647 280.741 92.7647 288.083 96.9914Z" fill="black"/>
<path d="M258.05 99.6609C258.829 97.9925 260.275 96.4353 262.5 95.2117C269.284 91.3187 280.296 91.3187 286.97 95.2117C289.194 96.5465 290.752 98.1037 291.419 99.6609H291.975V102.219C291.975 104.777 290.307 107.336 286.859 109.338C280.074 113.231 269.062 113.231 262.388 109.338C259.051 107.336 257.272 104.777 257.272 102.219V99.6609H258.05Z" fill="#FF9696"/>
<path opacity="0.5" d="M258.05 99.6609C258.829 97.9925 260.275 96.4353 262.5 95.2117C269.284 91.3187 280.296 91.3187 286.97 95.2117C289.194 96.5465 290.752 98.1037 291.419 99.6609H291.975V102.219C291.975 104.777 290.307 107.336 286.859 109.338C280.074 113.231 269.062 113.231 262.388 109.338C259.051 107.336 257.272 104.777 257.272 102.219V99.6609H258.05Z" fill="black"/>
<path d="M287.082 106.78C293.867 102.887 293.867 96.5465 287.082 92.6535C280.297 88.7605 269.285 88.7605 262.611 92.6535C255.826 96.5465 255.826 102.887 262.611 106.78C269.396 110.673 280.297 110.673 287.082 106.78Z" fill="#FF9696"/>
<path opacity="0.2" d="M287.082 106.78C293.867 102.887 293.867 96.5465 287.082 92.6535C280.297 88.7605 269.285 88.7605 262.611 92.6535C255.826 96.5465 255.826 102.887 262.611 106.78C269.396 110.673 280.297 110.673 287.082 106.78Z" fill="black"/>
<path d="M271.064 98.1037L274.29 96.9914C260.386 57.394 292.865 44.7139 294.2 44.1578L292.976 40.9322C292.754 41.0434 256.048 55.2807 271.064 98.1037Z" fill="#FF9696"/>
<path d="M268.173 99.6609C268.173 95.9904 271.176 92.9872 274.846 92.9872C278.517 92.9872 281.52 95.9904 281.52 99.6609C281.52 100.662 280.853 101.663 279.518 102.442C276.96 103.999 272.622 103.999 270.063 102.442C268.84 101.663 268.173 100.662 268.173 99.6609Z" fill="#37474F"/>
<path d="M270.397 99.216C270.842 101.997 276.626 103.331 278.851 102.664C276.181 103.776 272.511 103.665 270.064 102.33C268.729 101.552 268.061 100.551 268.061 99.5497C268.061 95.8791 271.065 92.8759 274.735 92.8759C273.178 92.9872 269.952 96.4353 270.397 99.216Z" fill="#263238"/>
<path d="M293.532 41.822L294.645 40.4872L290.529 36.9279C290.195 36.5942 289.639 36.5942 289.306 37.0391C288.972 37.3728 288.972 37.929 289.417 38.2627L293.532 41.822Z" fill="black"/>
<path d="M290.974 44.0465C289.973 42.823 290.863 40.5985 291.975 39.2637C293.088 37.929 295.201 36.8167 296.536 37.5953C297.871 38.3739 300.54 40.376 300.54 40.376L294.2 47.6059C294.2 47.6059 291.975 45.2701 290.974 44.0465Z" fill="#37474F"/>
<path d="M294.088 37.7065C292.642 39.375 292.086 42.4894 296.313 45.2701L294.311 47.6059C294.311 47.6059 291.975 45.2701 291.085 44.0466C290.084 42.8231 290.974 40.5985 292.086 39.2637C292.531 38.7076 293.199 38.1515 294.088 37.7065Z" fill="#263238"/>
<path d="M304.099 72.966C298.649 68.2944 289.862 50.3866 296.202 43.0455C302.542 35.8156 321.451 42.0444 326.901 46.8273" fill="#FF9696"/>
<path opacity="0.2" d="M304.099 72.966C298.649 68.2944 289.862 50.3866 296.202 43.0455C302.542 35.8156 321.451 42.0444 326.901 46.8273" fill="black"/>
<path d="M328.125 54.5021C330.127 47.2722 326.011 43.7129 319.115 46.7161C312.219 49.608 304.989 57.9501 302.987 65.18C300.985 72.4099 305.1 75.9692 311.997 72.966C318.893 70.0741 326.123 61.8432 328.125 54.5021Z" fill="#FF9696"/>
<path opacity="0.5" d="M328.125 54.5021C330.127 47.2722 326.011 43.7129 319.115 46.7161C312.219 49.608 304.989 57.9501 302.987 65.18C300.985 72.4099 305.1 75.9692 311.997 72.966C318.893 70.0741 326.123 61.8432 328.125 54.5021Z" fill="black"/>
<path d="M305.434 60.3972C305.323 60.2859 305.212 60.1747 305.101 60.0635C307.325 56.0593 310.662 52.1663 314.333 49.4968C314.444 49.608 314.555 49.7192 314.666 49.8305C317.558 52.3887 317.892 56.8379 315.334 59.841C312.887 62.6217 308.438 62.9554 305.434 60.3972Z" fill="#FF9696"/>
<path opacity="0.7" d="M305.434 60.3972C305.323 60.2859 305.212 60.1747 305.101 60.0635C307.325 56.0593 310.662 52.1663 314.333 49.4968C314.444 49.608 314.555 49.7192 314.666 49.8305C317.558 52.3887 317.892 56.8379 315.334 59.841C312.887 62.6217 308.438 62.9554 305.434 60.3972Z" fill="white"/>
<path d="M162.505 35.9269L109.338 66.626C108.67 67.0709 108.114 67.9607 108.114 68.7393V119.348C108.114 120.127 108.67 121.128 109.338 121.462L110.116 121.907C110.784 122.352 111.896 122.352 112.563 121.907L165.731 91.2075C166.398 90.7626 166.954 89.8728 166.954 89.0942V38.4851C166.954 37.7065 166.398 36.7055 165.731 36.3718L164.952 35.9269C164.285 35.5932 163.172 35.5932 162.505 35.9269Z" fill="#E0E0E0"/>
<path d="M166.954 38.2627C166.843 37.7065 166.287 37.5953 165.731 37.929L112.563 68.6281C112.23 68.8505 111.896 69.1842 111.673 69.5179L108.448 67.627C108.67 67.1821 109.004 66.8484 109.338 66.7372L162.505 35.9269C163.172 35.4819 164.285 35.4819 164.952 35.9269L165.731 36.3718C166.287 36.8167 166.843 37.4841 166.954 38.2627Z" fill="white"/>
<path d="M165.731 37.8177L112.563 68.5168C111.896 68.9618 111.34 69.8516 111.34 70.6302V121.239C111.34 122.018 111.896 122.352 112.563 121.907L165.731 91.2075C166.398 90.7626 166.954 89.8727 166.954 89.0942V38.4851C166.954 37.8177 166.398 37.484 165.731 37.8177Z" fill="#F5F5F5"/>
<path d="M114.677 71.1863L163.729 42.823V88.2043L114.677 116.568V71.1863Z" fill="#FF9696"/>
<path opacity="0.75" d="M114.677 71.1863L163.729 42.823V88.2043L114.677 116.568V71.1863Z" fill="white"/>
<path d="M114.677 101.441L128.58 77.3039L147.712 91.5412L143.04 86.4247L153.162 72.966L163.729 79.6397V88.2043L114.677 116.568V101.441Z" fill="#FF9696"/>
<path d="M148.935 59.3961C147.156 60.3972 145.71 62.9554 145.71 65.0688C145.71 67.1821 147.156 67.9607 148.935 66.9596C150.715 65.9586 152.161 63.4003 152.161 61.287C152.272 59.1736 150.826 58.395 148.935 59.3961Z" fill="#FF9696"/>
<path d="M65.8475 130.36C64.4015 131.139 63.2892 133.363 63.2892 135.254C63.2892 136.922 64.1791 137.812 65.4026 137.367V173.294L52.2776 145.821C52.0551 145.376 52.0551 144.597 52.2776 144.152C55.6144 136.478 58.0615 127.913 58.8401 119.126C58.8401 118.57 59.285 118.014 59.7299 117.791L71.9651 110.784C72.41 110.561 72.7437 110.784 72.8549 111.229C73.6335 118.903 75.9693 124.576 79.1949 128.358C79.5286 128.803 79.6398 129.47 79.5286 129.915C77.6377 135.921 67.071 170.291 66.2924 172.849V136.922C67.5159 135.921 68.4057 134.031 68.4057 132.362C68.4057 130.471 67.1822 129.581 65.8475 130.36Z" fill="#DD0000"/>
<path d="M85.4233 133.363L72.187 176.297L71.2972 175.741V176.742L65.2909 173.294L52.1659 145.821C51.9434 145.376 51.9434 144.597 52.1659 144.152C55.5027 136.478 57.9498 127.913 58.7284 119.126C58.7284 118.57 59.1733 118.014 59.6182 117.791L71.8534 110.784C72.2983 110.561 72.9656 110.561 73.4105 110.784L77.7485 113.342C78.1934 113.564 78.5271 114.232 78.6383 114.677C79.4169 122.352 81.7527 128.024 84.9783 131.806C85.4232 132.14 85.5345 132.807 85.4233 133.363Z" fill="#DD0000"/>
<path opacity="0.2" d="M74.3003 135.81C74.3003 137.479 73.4104 139.481 72.1869 140.371V176.297L71.2971 175.741V176.742V140.816C70.0736 141.26 69.1838 140.371 69.1838 138.702C69.1838 136.811 70.296 134.587 71.742 133.808C73.188 133.03 74.3003 133.919 74.3003 135.81Z" fill="black"/>
<path d="M85.4236 133.363L72.1874 176.297V140.371C73.4109 139.37 74.3008 137.479 74.3008 135.81C74.3008 133.919 73.1884 133.03 71.7425 133.808C70.2965 134.587 69.1842 136.811 69.1842 138.702C69.1842 140.371 70.0741 141.26 71.2976 140.816V176.742L58.1726 149.269C57.9501 148.824 57.9501 148.045 58.1726 147.6C61.5095 139.926 63.9565 131.361 64.7351 122.463C64.7351 121.907 65.18 121.35 65.6249 121.128L77.8601 114.121C78.305 113.898 78.6387 114.121 78.7499 114.566C79.5285 122.24 81.8643 127.913 85.0899 131.695C85.4236 132.14 85.5349 132.807 85.4236 133.363Z" fill="#DD0000"/>
<path opacity="0.1" d="M65.0688 121.907C64.9576 122.129 64.8464 122.352 64.8464 122.574C64.0678 131.361 61.6208 140.037 58.2839 147.6C58.1727 147.823 58.1727 148.157 58.1727 148.49L52.1663 145.042C52.1663 144.709 52.1663 144.375 52.2775 144.152C55.6144 136.478 58.0614 127.913 58.84 119.126C58.84 118.903 58.9513 118.681 59.0625 118.459L65.0688 121.907Z" fill="black"/>
<path opacity="0.3" d="M78.7495 114.454C78.6383 114.009 78.3046 113.898 77.8597 114.121L65.6245 121.128C65.4021 121.239 65.1796 121.573 64.9571 121.795L58.9508 118.347C59.062 118.014 59.2845 117.791 59.6182 117.68L71.8533 110.673C72.2982 110.45 72.9656 110.45 73.4105 110.673L77.7484 113.231C78.3046 113.453 78.6383 114.009 78.7495 114.454Z" fill="black"/>
<path d="M56.1702 106.78L75.524 95.6567C75.9689 95.4342 76.6363 95.4342 77.0813 95.6567L81.4192 98.2149C81.8641 98.4374 82.1978 99.1048 82.1978 99.5497V108.114C82.1978 108.67 81.8641 109.227 81.4192 109.449L62.0654 120.572C61.6205 120.794 60.9531 120.794 60.5082 120.572L56.1702 118.014C55.7253 117.791 55.3917 117.124 55.3917 116.679V108.114C55.2804 107.669 55.7253 107.113 56.1702 106.78Z" fill="#DD0000"/>
<path opacity="0.5" d="M82.1978 99.4384C82.1978 98.9935 81.7529 98.8823 81.4192 99.1048L62.0654 110.228C61.8429 110.339 61.6205 110.561 61.5092 110.784L55.5029 107.336C55.6141 107.113 55.8366 106.891 56.059 106.78L75.4128 95.6567C75.8577 95.4342 76.5251 95.4342 76.97 95.6567L81.3079 98.2149C81.8641 98.4374 82.1978 98.9935 82.1978 99.4384Z" fill="white"/>
<path opacity="0.2" d="M61.9541 120.683C61.8429 120.683 61.8429 120.683 61.8429 120.683C61.8429 120.683 61.8429 120.683 61.7316 120.683H61.6204C61.6204 120.683 61.6204 120.683 61.5092 120.683H61.398C61.0643 120.683 60.7306 120.683 60.3969 120.461L56.059 117.902C55.614 117.68 55.2804 117.013 55.2804 116.568V108.003C55.2804 107.781 55.3916 107.447 55.5028 107.224L61.5092 110.673C61.398 110.895 61.2867 111.229 61.2867 111.451V120.016C61.2867 120.349 61.5092 120.572 61.7316 120.572H61.8429C61.9541 120.683 61.9541 120.683 61.9541 120.683Z" fill="black"/>
<path opacity="0.2" d="M71.2979 176.742L65.2915 173.294L52.1665 145.821C52.0553 145.598 52.0553 145.376 51.9441 145.042L57.9504 148.49C57.9504 148.713 58.0617 149.046 58.1729 149.269L71.2979 176.742Z" fill="black"/>
<path opacity="0.15" d="M72.1875 140.371V176.297L71.2977 175.741V176.742V140.816C70.0742 141.26 69.1843 140.371 69.1843 138.702V138.591L72.1875 140.371Z" fill="black"/>
<path d="M99.8833 130.026C99.8833 129.025 99.2159 128.692 98.3261 129.136C97.4362 129.581 96.7689 130.805 96.7689 131.806C96.7689 132.585 97.2138 133.03 97.8812 132.918C96.9913 150.937 84.4225 172.182 68.9617 181.08C61.2869 185.529 54.1683 186.197 48.8293 183.082C43.7128 180.19 40.8208 174.184 40.4872 166.064C41.1545 165.508 41.5994 164.507 41.5994 163.729C41.5994 162.728 40.9321 162.394 40.0423 162.839C39.1524 163.284 38.4851 164.507 38.4851 165.508C38.4851 166.287 38.93 166.732 39.7086 166.509C40.1535 174.629 43.1567 180.747 48.3844 183.75C50.7202 185.085 53.2785 185.752 56.1704 185.752C60.1746 185.752 64.735 184.417 69.4066 181.748C85.2011 172.627 97.9924 150.826 98.6598 132.473C99.4384 131.806 99.8833 130.916 99.8833 130.026Z" fill="#455A64"/>
<path d="M98.3261 162.839C97.6587 163.284 96.9913 164.174 96.8801 164.952L41.5995 196.875C41.377 196.319 40.8209 196.096 40.1535 196.43C39.2637 196.875 38.5963 198.098 38.5963 199.099C38.5963 200.1 39.2637 200.434 40.1535 199.989C40.8209 199.544 41.4882 198.654 41.5995 197.765L96.8801 165.953C97.1026 166.621 97.6587 166.843 98.3261 166.398C99.2159 165.953 99.8833 164.73 99.8833 163.729C99.8833 162.839 99.2159 162.394 98.3261 162.839Z" fill="#455A64"/>
<path d="M40.0425 166.732C38.8139 166.732 37.8179 165.736 37.8179 164.507C37.8179 163.279 38.8139 162.283 40.0425 162.283C41.2711 162.283 42.2671 163.279 42.2671 164.507C42.2671 165.736 41.2711 166.732 40.0425 166.732Z" fill="#455A64"/>
<path d="M40.0425 200.545C38.8139 200.545 37.8179 199.549 37.8179 198.321C37.8179 197.092 38.8139 196.096 40.0425 196.096C41.2711 196.096 42.2671 197.092 42.2671 198.321C42.2671 199.549 41.2711 200.545 40.0425 200.545Z" fill="#455A64"/>
<path d="M98.4375 166.954C97.2089 166.954 96.213 165.958 96.213 164.73C96.213 163.501 97.2089 162.505 98.4375 162.505C99.6661 162.505 100.662 163.501 100.662 164.73C100.662 165.958 99.6661 166.954 98.4375 166.954Z" fill="#455A64"/>
<path d="M98.3262 133.141C97.0976 133.141 96.1016 132.145 96.1016 130.916C96.1016 129.688 97.0976 128.692 98.3262 128.692C99.5548 128.692 100.551 129.688 100.551 130.916C100.551 132.145 99.5548 133.141 98.3262 133.141Z" fill="#455A64"/>
<path d="M468.829 34.9258C468.829 32.2563 466.938 29.0307 464.713 27.6959C462.378 26.3612 458.707 26.3612 456.371 27.6959L424.671 45.8262C422.335 47.161 420.556 50.3866 420.556 53.0561V87.2033C420.556 89.8728 422.447 93.0984 424.671 94.4332C427.007 95.7679 430.677 95.7679 433.013 94.4332L465.047 75.9692C468.829 73.8558 468.829 71.7425 468.829 69.073V34.9258Z" fill="#37474F"/>
<path d="M420.444 87.2033C420.444 89.8728 422.335 93.0984 424.56 94.4331C426.673 95.6567 429.899 95.7679 432.235 94.7668C430.232 95.5454 428.786 94.4331 428.786 91.9861V57.8389C428.786 56.5042 429.231 55.0582 430.01 53.7234L421.668 48.9406C420.889 50.2754 420.444 51.7213 420.444 53.0561V87.2033Z" fill="#263238"/>
<path d="M468.718 33.7023C468.273 31.9226 466.604 31.3665 464.714 32.4788L433.013 50.6091C431.901 51.2764 430.789 52.3887 430.121 53.7235L421.779 48.9406C422.558 47.6059 423.559 46.4936 424.671 45.8262L456.371 27.6959C458.707 26.3612 462.378 26.3612 464.714 27.6959C466.604 28.8082 468.273 31.3665 468.718 33.7023Z" fill="#455A64"/>
<path d="M459.152 44.5975C459.152 46.3772 458.262 48.3793 456.816 49.2691C455.481 50.0477 454.591 49.0467 454.591 47.267C454.591 45.3761 455.481 43.374 456.816 42.5954C458.262 41.7056 459.04 42.7066 459.152 44.5975Z" fill="#FF9696"/>
<path d="M458.929 50.4926L458.596 71.9598L454.146 74.518L454.48 53.0509L458.929 50.4926Z" fill="#FF9696"/>
<path d="M446.806 49.4916L441.133 52.7172L435.349 85.3072L439.798 82.749L441.133 74.518L446.583 71.4036L448.029 78.0773L452.59 75.4079L446.806 49.4916ZM441.8 69.1791C441.8 69.1791 443.469 58.0562 443.802 56.1653C444.136 57.7225 445.916 66.732 445.916 66.732L441.8 69.1791Z" fill="#FF9696"/>
<path d="M392.415 9.00952C392.415 6.34003 390.524 3.1144 388.3 1.77965C385.964 0.444909 382.294 0.444909 379.958 1.77965L348.258 19.9099C345.922 21.2447 344.142 24.4703 344.142 27.1398V61.287C344.142 63.9565 346.033 67.1821 348.258 68.5169C350.593 69.8516 354.264 69.8516 356.6 68.5169L388.634 50.0529C392.415 47.9395 392.415 45.8262 392.415 43.1567V9.00952Z" fill="#37474F"/>
<path d="M344.031 61.287C344.031 63.9565 345.922 67.1821 348.146 68.5168C350.26 69.7404 353.485 69.8516 355.821 68.8505C353.819 69.6291 352.373 68.5168 352.373 66.0698V31.9226C352.373 30.5879 352.818 29.1419 353.596 27.8072L345.254 23.0243C344.476 24.3591 344.031 25.805 344.031 27.1398V61.287Z" fill="#263238"/>
<path d="M392.304 7.786C391.859 6.00634 390.191 5.4502 388.3 6.56249L356.6 24.6928C355.488 25.3601 354.375 26.4724 353.708 27.8072L345.366 23.0243C346.144 21.6896 347.145 20.5773 348.258 19.9099L379.958 1.77965C382.294 0.444909 385.964 0.444909 388.3 1.77965C390.191 2.89194 391.859 5.4502 392.304 7.786Z" fill="#455A64"/>
<path fill-rule="evenodd" clip-rule="evenodd" d="M385.519 37.8177C385.519 41.5995 383.517 45.4925 379.735 47.7171C377.955 48.7182 376.509 49.0518 375.508 48.7182L376.287 43.7129C377.065 43.9353 378.623 43.9353 379.846 43.1567C381.07 42.4894 381.626 41.4883 381.626 40.4872C381.626 39.4862 381.181 39.1525 379.735 39.2637C376.954 39.4862 375.953 37.7065 375.953 35.2595C375.953 31.4777 378.067 27.3623 381.292 25.4714C382.849 24.5815 384.184 24.3591 385.074 24.4703L384.295 29.2531C383.739 29.1419 382.516 29.0307 381.403 29.6981C380.402 30.2542 379.846 31.2553 379.846 32.2563C379.846 33.2574 380.402 33.3686 381.96 33.3686C384.407 33.4798 385.408 34.9258 385.519 37.8177Z" fill="#FF9696"/>
<path fill-rule="evenodd" clip-rule="evenodd" d="M372.727 25.2489C371.504 24.4703 369.724 24.6928 367.166 26.25C364.608 27.6959 362.828 29.0307 361.604 30.0317V57.7277L365.72 55.3919V45.3813C366.054 45.2701 366.61 44.9364 367.166 44.7139C369.613 43.268 371.726 41.1546 373.061 38.3739C374.173 36.1493 374.729 33.4798 374.729 30.6991C374.729 27.9184 373.951 26.0275 372.727 25.2489ZM367.055 39.8199C366.499 40.1535 366.054 40.376 365.72 40.4872V32.1451C366.054 31.8114 366.61 31.3665 367.388 30.9216C369.502 29.698 370.614 30.5879 370.614 33.1461C370.614 36.0381 369.279 38.4851 367.055 39.8199Z" fill="#FF9696"/>
</g>
<defs>
<clipPath id="clip0_559_10152">
<rect width="515.1" height="484.29" fill="white" transform="matrix(-1 0 0 1 515.1 0)"/>
</clipPath>
</defs>
</svg>
