<svg width="70" height="60" viewBox="0 0 70 60" fill="none" xmlns="http://www.w3.org/2000/svg">
<path fill-rule="evenodd" clip-rule="evenodd" d="M7.5 1.25H68.75V8.75H7.5V1.25Z" fill="#DD0000"/>
<path fill-rule="evenodd" clip-rule="evenodd" d="M7.5 8.75H68.75V58.75H7.5V8.75Z" fill="#FF9696"/>
<path fill-rule="evenodd" clip-rule="evenodd" d="M7.5 8.75V58.75H44.7119C51.931 52.2349 57.9686 44.0502 62.0987 35.1801C66.2288 26.31 68.2757 17.1321 67.9932 8.75H7.5Z" fill="#FFE7E7"/>
<path fill-rule="evenodd" clip-rule="evenodd" d="M10 0C7.94374 0 6.25 1.69375 6.25 3.75V53.75C6.25 54.4404 6.80965 55 7.5 55C8.19035 55 8.75 54.4404 8.75 53.75V3.75C8.75 3.04484 9.29484 2.5 10 2.5H66.25C66.9552 2.5 67.5 3.04484 67.5 3.75V7.5H15C14.3097 7.5 13.75 8.05965 13.75 8.75C13.75 9.44036 14.3097 10 15 10H67.5V56.25C67.5 56.9552 66.9552 57.5 66.25 57.5H5C4.30965 57.5 3.75 58.0597 3.75 58.75C3.75 59.4404 4.30965 60 5 60H66.25C68.3063 60 70 58.3063 70 56.25C70 38.75 70 21.25 70 3.75C70 1.69375 68.3063 0 66.25 0H10Z" fill="black"/>
<path fill-rule="evenodd" clip-rule="evenodd" d="M63.75 3.75C63.0597 3.75 62.5 4.30965 62.5 5C62.5 5.69036 63.0597 6.25 63.75 6.25C64.4404 6.25 65 5.69036 65 5C65 4.30965 64.4404 3.75 63.75 3.75Z" fill="white"/>
<path fill-rule="evenodd" clip-rule="evenodd" d="M58.75 3.75C58.0597 3.75 57.5 4.30965 57.5 5C57.5 5.69036 58.0597 6.25 58.75 6.25C59.4404 6.25 60 5.69036 60 5C60 4.30965 59.4404 3.75 58.75 3.75Z" fill="white"/>
<path fill-rule="evenodd" clip-rule="evenodd" d="M53.75 3.75C53.0597 3.75 52.5 4.30965 52.5 5C52.5 5.69036 53.0597 6.25 53.75 6.25C54.4404 6.25 55 5.69036 55 5C55 4.30965 54.4404 3.75 53.75 3.75Z" fill="white"/>
<path fill-rule="evenodd" clip-rule="evenodd" d="M1.25 57.5C0.918479 57.5 0.600555 57.6317 0.366135 57.8661C0.131714 58.1005 0 58.4185 0 58.75C0 59.0815 0.131714 59.3995 0.366135 59.6339C0.600555 59.8683 0.918479 60 1.25 60C1.58152 60 1.89944 59.8683 2.13387 59.6339C2.36829 59.3995 2.5 59.0815 2.5 58.75C2.5 58.4185 2.36829 58.1005 2.13387 57.8661C1.89944 57.6317 1.58152 57.5 1.25 57.5Z" fill="black"/>
<path fill-rule="evenodd" clip-rule="evenodd" d="M11.25 7.5C10.5597 7.5 10 8.05965 10 8.75C10 9.44036 10.5597 10 11.25 10C11.9404 10 12.5 9.44036 12.5 8.75C12.5 8.05965 11.9404 7.5 11.25 7.5Z" fill="black"/>
<path d="M53.75 20H22.5C21.1193 20 20 21.1193 20 22.5V45C20 46.3807 21.1193 47.5 22.5 47.5H53.75C55.1307 47.5 56.25 46.3807 56.25 45V22.5C56.25 21.1193 55.1307 20 53.75 20Z" fill="#FF5959"/>
<path d="M56.25 20H20V27.5H56.25V20Z" fill="#FF5959"/>
<path fill-rule="evenodd" clip-rule="evenodd" d="M22.5 20C21.115 20 20 21.115 20 22.5V45C20 46.385 21.115 47.5 22.5 47.5H46.98C50.7172 43.7959 52.7724 39.083 52.7759 34.209C52.7742 28.908 50.3464 23.8142 46.0034 20H22.5Z" fill="#FF9696"/>
<path fill-rule="evenodd" clip-rule="evenodd" d="M20 20V27.5H50.7373C50.8233 27.0853 50.869 26.6679 50.874 26.25C50.8735 24.0041 49.7009 21.816 47.5244 20H20Z" fill="#FFBBBB"/>
<path fill-rule="evenodd" clip-rule="evenodd" d="M22.5 18.75C20.4441 18.75 18.75 20.4441 18.75 22.5C18.75 24.5288 18.75 26.5576 18.75 28.5864C18.75 29.2768 19.3097 29.8364 20 29.8364C20.6904 29.8364 21.25 29.2768 21.25 28.5864V27.5H55V40.0342C55 40.7245 55.5597 41.2842 56.25 41.2842C56.9403 41.2842 57.5 40.7245 57.5 40.0342C57.5 34.1895 57.5 28.3447 57.5 22.5C57.5 20.4441 55.8059 18.75 53.75 18.75H22.5ZM22.5 21.25H53.75C54.4641 21.25 55 21.7859 55 22.5V25H21.25V22.5C21.25 21.7859 21.7859 21.25 22.5 21.25ZM20 32.5C19.3097 32.5 18.75 33.0597 18.75 33.75V45C18.75 47.0559 20.4441 48.75 22.5 48.75H53.75C55.8059 48.75 57.5 47.0559 57.5 45C57.5 44.3097 56.9403 43.75 56.25 43.75C55.5597 43.75 55 44.3097 55 45C55 45.7141 54.4641 46.25 53.75 46.25H22.5C21.7859 46.25 21.25 45.7141 21.25 45V33.75C21.25 33.0597 20.6904 32.5 20 32.5Z" fill="black"/>
<path fill-rule="evenodd" clip-rule="evenodd" d="M32.0313 30.2734C31.9031 30.1708 31.7559 30.0944 31.5981 30.0486C31.4404 30.0029 31.2752 29.9887 31.1119 30.0068C30.9486 30.0249 30.7906 30.0751 30.6467 30.1543C30.5028 30.2336 30.376 30.3404 30.2735 30.4688L25.2735 36.7188C25.096 36.9405 24.9993 37.216 24.9993 37.5C24.9993 37.784 25.096 38.0595 25.2735 38.2813L30.2735 44.5312C30.376 44.6596 30.5028 44.7664 30.6467 44.8457C30.7906 44.9249 30.9486 44.9751 31.1119 44.9932C31.2752 45.0113 31.4404 44.9971 31.5981 44.9514C31.7559 44.9056 31.9031 44.8292 32.0313 44.7266C32.1596 44.624 32.2664 44.4972 32.3457 44.3533C32.425 44.2095 32.4751 44.0514 32.4932 43.8881C32.5114 43.7249 32.4972 43.5597 32.4514 43.4019C32.4057 43.2442 32.3293 43.097 32.2266 42.9688L27.8516 37.5L32.2266 32.0313C32.3293 31.903 32.4057 31.7558 32.4514 31.5981C32.4972 31.4403 32.5114 31.2751 32.4932 31.1119C32.4751 30.9486 32.425 30.7906 32.3457 30.6467C32.2664 30.5028 32.1596 30.376 32.0313 30.2734Z" fill="black"/>
<path fill-rule="evenodd" clip-rule="evenodd" d="M44.2186 30.2734C44.0903 30.376 43.9835 30.5028 43.9042 30.6467C43.825 30.7906 43.7748 30.9486 43.7567 31.1119C43.7385 31.2751 43.7527 31.4403 43.7985 31.5981C43.8442 31.7558 43.9206 31.903 44.0233 32.0313L48.3983 37.5L44.0233 42.9688C43.9206 43.097 43.8442 43.2442 43.7985 43.4019C43.7527 43.5597 43.7385 43.7249 43.7567 43.8881C43.7748 44.0514 43.825 44.2095 43.9042 44.3533C43.9835 44.4972 44.0903 44.624 44.2186 44.7266C44.3468 44.8292 44.494 44.9056 44.6518 44.9514C44.8095 44.9971 44.9748 45.0113 45.138 44.9932C45.3013 44.9751 45.4594 44.9249 45.6032 44.8457C45.7471 44.7664 45.8739 44.6596 45.9764 44.5312L50.9764 38.2813C51.1539 38.0595 51.2506 37.784 51.2506 37.5C51.2506 37.216 51.1539 36.9405 50.9764 36.7188L45.9764 30.4688C45.8739 30.3404 45.7471 30.2336 45.6032 30.1543C45.4594 30.0751 45.3013 30.0249 45.138 30.0068C44.9748 29.9887 44.8095 30.0029 44.6518 30.0486C44.494 30.0944 44.3468 30.1708 44.2186 30.2734Z" fill="black"/>
<path fill-rule="evenodd" clip-rule="evenodd" d="M40.8104 28.8306C40.5005 28.9468 40.2494 29.1813 40.1122 29.4824L33.8622 43.2324C33.7249 43.5342 33.7131 43.8781 33.8294 44.1885C33.9457 44.4989 34.1806 44.7504 34.4823 44.8877C34.784 45.0249 35.1279 45.0367 35.4383 44.9204C35.7487 44.8041 36.0003 44.5693 36.1376 44.2676L42.3876 30.5176C42.5248 30.2158 42.5366 29.8719 42.4203 29.5615C42.304 29.2511 42.0692 28.9996 41.7674 28.8623C41.6178 28.7944 41.4563 28.7566 41.2921 28.7511C41.1279 28.7457 40.9642 28.7727 40.8104 28.8306Z" fill="black"/>
</svg>
