<svg width="87" height="80" viewBox="0 0 87 80" fill="none" xmlns="http://www.w3.org/2000/svg">
<g clip-path="url(#clip0_307_66)" filter="url(#filter0_d_307_66)">
<path d="M26.6946 15.8668C27.4757 15.97 28.1926 15.4205 28.2958 14.6394C28.3991 13.8583 27.8496 13.1414 27.0685 13.0382C26.2874 12.9349 25.5705 13.4844 25.4672 14.2655C25.364 15.0466 25.9135 15.7635 26.6946 15.8668Z" fill="#DD0000"/>
<path d="M28.8455 38.9536L25.6906 38.5366L25.2735 41.6916L28.4285 42.1086L28.8455 38.9536Z" fill="#DD0000"/>
<path d="M54.9334 16.6108L51.7784 16.1937L51.3614 19.3487L54.5164 19.7657L54.9334 16.6108Z" fill="#DD0000"/>
<path d="M79.1322 22.7982C79.9133 22.9014 80.6302 22.3519 80.7334 21.5709C80.8367 20.7898 80.2872 20.0729 79.5061 19.9696C78.725 19.8664 78.0081 20.4159 77.9048 21.197C77.8016 21.978 78.3511 22.6949 79.1322 22.7982Z" fill="#DD0000"/>
<path d="M74.3202 44.9647L71.1653 44.5477L70.7482 47.7027L73.9032 48.1197L74.3202 44.9647Z" fill="#DD0000"/>
<path d="M51.7149 36.7741C51.6286 37.4268 51.1359 37.8045 50.4832 37.7182C49.8304 37.6319 49.4528 37.1392 49.5391 36.4865L51.0634 24.9546L37.6552 44.3244C39.1001 45.9544 42.2957 50.2511 41.7079 56.3722L54.1102 58.0116C55.1475 51.8392 59.3497 48.5204 61.1541 47.4307L53.2393 25.2422L51.7149 36.7741Z" fill="#FF9696"/>
<path d="M40.3325 58.4042L38.8094 58.2029C38.7006 58.1885 38.5774 58.2829 38.563 58.3917L38.2035 61.1115C38.1891 61.2203 38.2835 61.3434 38.3923 61.3578L55.5814 63.63C55.6902 63.6443 55.8134 63.5499 55.8278 63.4411L56.1873 60.7213C56.2016 60.6126 56.1072 60.4894 55.9984 60.475L54.9105 60.3312L40.3325 58.4042Z" fill="#DD0000"/>
<path d="M79.7937 17.7937C78.1619 17.578 76.7126 18.4934 76.0905 19.8501L56.9431 17.3191L57.1445 15.7961C57.2308 15.1433 56.8531 14.6506 56.2004 14.5643L50.8696 13.8597C50.2168 13.7734 49.7241 14.151 49.6379 14.8038L49.4365 16.3269L30.5068 13.8246C30.2586 12.3528 28.9881 11.078 27.465 10.8766C25.5068 10.6178 23.6592 12.034 23.4003 13.9922C23.1415 15.9504 24.5577 17.798 26.5159 18.0569C28.1478 18.2726 29.5971 17.3572 30.2192 16.0005L43.0566 17.6974C34.6403 20.2377 28.1653 27.3517 26.5221 36.4326L24.8903 36.2169C24.2375 36.1307 23.7448 36.5083 23.6585 37.161L22.9539 42.4918C22.8676 43.1446 23.2453 43.6373 23.898 43.7236L29.2288 44.4282C29.8815 44.5145 30.3742 44.1368 30.4605 43.4841L31.1652 38.1533C31.2514 37.5006 30.8738 37.0079 30.221 36.9216L28.698 36.7203C30.5793 26.6745 39.0845 19.2755 49.2146 18.8435L49.0564 20.0402C48.9701 20.6929 49.3477 21.1856 50.0005 21.2719L50.8708 21.3869L35.3993 43.8048C35.1242 44.2113 35.1467 44.8784 35.5387 45.2623C35.5387 45.2623 40.0829 49.4051 39.5321 56.0845L39.0969 56.027C37.7914 55.8544 36.5597 56.7986 36.3871 58.1041L36.0276 60.8238C35.855 62.1293 36.7992 63.3611 38.1047 63.5336L55.2937 65.8058C56.5992 65.9783 57.8309 65.0342 58.0035 63.7287L58.363 61.0089C58.5356 59.7034 57.5915 58.4717 56.286 58.2992C57.4896 51.706 62.7222 48.9662 62.9542 48.8862C63.4325 48.6173 63.722 48.1021 63.4675 47.515L54.3378 21.9559L55.2081 22.0709C55.8609 22.1572 56.3535 21.7796 56.4398 21.1268L56.598 19.9301C66.268 22.9794 72.5585 32.3343 71.765 42.5238L70.2419 42.3224C69.5892 42.2362 69.0965 42.6138 69.0102 43.2666L68.32 48.4885C68.2337 49.1413 68.6113 49.634 69.2641 49.7203L74.5948 50.4249C75.2476 50.5112 75.7403 50.1336 75.8266 49.4808L76.5312 44.15C76.6175 43.4973 76.2399 43.0046 75.5871 42.9183L73.9552 42.7026C74.7137 33.6154 70.3095 25.0634 62.8566 20.3147L75.6941 22.0116C75.9423 23.4834 77.2128 24.7582 78.7358 24.9596C80.6941 25.2184 82.5417 23.8023 82.8005 21.844C83.1682 19.9001 81.752 18.0526 79.7937 17.7937ZM26.6947 15.8667C25.9332 15.766 25.3667 15.027 25.4674 14.2654C25.568 13.5039 26.3071 12.9374 27.0686 13.0381C27.8302 13.1388 28.3966 13.8778 28.296 14.6393C28.1809 15.5097 27.4563 15.9673 26.6947 15.8667ZM28.7367 38.9392L28.3197 42.0942L25.2735 41.6915L25.6906 38.5366L28.7367 38.9392ZM51.7787 16.1937L54.9336 16.6107L54.5166 19.7657L51.3616 19.3487L51.7787 16.1937ZM55.9984 60.475C56.1072 60.4894 56.2016 60.6125 56.1872 60.7213L55.8277 63.4411C55.8133 63.5499 55.6901 63.6443 55.5813 63.6299L38.3923 61.3578C38.2835 61.3434 38.1891 61.2202 38.2034 61.1115L38.563 58.3917C38.5773 58.2829 38.7005 58.1885 38.8093 58.2028L40.3324 58.4042L54.8017 60.3168L55.9984 60.475ZM61.1541 47.4306C59.3353 48.6292 55.133 51.948 54.1101 58.0115L41.7079 56.3721C42.31 50.1423 39.1144 45.8456 37.6551 44.3244L51.0634 24.9545L49.5534 36.3777C49.4671 37.0304 49.8448 37.5231 50.4975 37.6094C51.1503 37.6957 51.643 37.318 51.7293 36.6653L53.2392 25.2422L61.1541 47.4306ZM74.2116 44.9503L73.7945 48.1053L70.6396 47.6882L71.0566 44.5333L74.2116 44.9503ZM79.1322 22.7981C78.3707 22.6975 77.8042 21.9584 77.9049 21.1969C78.0056 20.4353 78.7446 19.8689 79.5061 19.9695C80.2677 20.0702 80.8341 20.8092 80.7335 21.5708C80.6184 22.4411 79.8938 22.8988 79.1322 22.7981Z" fill="black"/>
<path d="M13.7513 46.8537L12.5548 47.316L19.2061 52.1597L19.69 51.1416L13.7513 46.8537Z" fill="#DD0000"/>
<path d="M13.4356 44.2074L10.3358 43.765L11.7727 46.5643L13.361 45.9627L13.4356 44.2074Z" fill="#FF9696"/>
<path d="M20.1108 50.2564L20.5948 49.2383L14.4115 44.7799L14.3492 46.0526L20.1108 50.2564Z" fill="#DD0000"/>
<path d="M6.73636 49.0542L5.24255 52.1969L6.79178 52.9333L7.10738 52.2694C7.23361 52.0038 7.49483 51.9109 7.76041 52.0371C8.02599 52.1634 8.11889 52.4246 7.99265 52.6901L7.67706 53.3541L8.65086 53.817L8.96645 53.153C9.09269 52.8874 9.3539 52.7945 9.61949 52.9208C9.88507 53.047 9.97797 53.3082 9.85173 53.5738L9.53613 54.2378L10.5099 54.7006L10.8255 54.0367C10.9518 53.7711 11.213 53.6782 11.4786 53.8044C11.7441 53.9307 11.837 54.1919 11.7108 54.4575L11.3952 55.1214L12.369 55.5843L12.6846 54.9203C12.8108 54.6548 13.0721 54.5619 13.3376 54.6881C13.6032 54.8143 13.6961 55.0755 13.5699 55.3411L13.2543 56.0051L14.2281 56.468L14.5437 55.804C14.6699 55.5384 14.9311 55.4455 15.1967 55.5718C15.4623 55.698 15.5552 55.9592 15.429 56.2248L15.1134 56.8887L16.6626 57.6251L18.1564 54.4824L6.73636 49.0542Z" fill="#FF9696"/>
<path d="M17.2932 58.4675L15.8625 61.4775L17.8776 62.4896L18.2352 61.7371L24.0421 49.5203L24.3788 48.8121L22.3637 47.8L19.2078 54.4395L17.2932 58.4675Z" fill="#FF9696"/>
<path d="M27.6031 64.2906L31.9373 55.1722L24.675 50.4723L19.373 61.6267L27.6031 64.2906Z" fill="#DD0000"/>
<path d="M21.4994 47.335L21.0155 48.353L14.2525 43.4019C14.164 43.3599 14.1197 43.3388 14.0312 43.2967L9.58893 42.5961C9.36979 42.6005 9.21815 42.6912 9.08973 42.8472C8.9613 43.0032 8.98671 43.1781 9.05639 43.374L11.0884 47.4329C11.1116 47.4982 11.1791 47.5846 11.2234 47.6056L18.7643 53.0892L18.5118 53.6204L6.6934 48.0028C6.42782 47.8766 6.16661 47.9695 6.04037 48.2351L4.12577 52.2631C3.99953 52.5287 4.09243 52.7899 4.35801 52.9161L16.1764 58.5337L14.9351 61.1452C14.7247 61.5879 14.9337 62.1756 15.4206 62.407L17.4567 63.3749C17.9436 63.6063 18.5103 63.4415 18.7418 62.9546L18.9311 62.5563L27.6902 65.363C27.9325 65.424 28.1937 65.3311 28.2989 65.1097L33.0118 55.1947C33.117 54.9734 33.0241 54.7121 32.8238 54.5627L25.1168 49.5427L25.3061 49.1444C25.5165 48.7017 25.3075 48.114 24.8206 47.8826L22.7845 46.9147C22.2976 46.6833 21.7098 46.8923 21.4994 47.335ZM20.5947 49.2383L20.1108 50.2564L14.3492 46.0526L14.4115 44.7799L20.5947 49.2383ZM10.3357 43.765L13.4145 44.2517L13.3609 45.9627L11.7726 46.5643L10.3357 43.765ZM12.5548 47.316L13.7513 46.8537L19.69 51.1416L19.2272 52.1154L12.5548 47.316ZM15.069 56.8678L15.3846 56.2038C15.5109 55.9382 15.418 55.677 15.1524 55.5508C14.8868 55.4245 14.6256 55.5174 14.4993 55.783L14.1838 56.447L13.2099 55.9841L13.5255 55.3201C13.6518 55.0546 13.5589 54.7933 13.2933 54.6671C13.0277 54.5409 12.7665 54.6338 12.6403 54.8993L12.3247 55.5633L11.3951 55.1215L11.7107 54.4575C11.837 54.1919 11.7441 53.9307 11.4785 53.8045C11.2129 53.6782 10.9517 53.7711 10.8255 54.0367L10.5099 54.7007L9.53606 54.2378L9.85165 53.5739C9.97789 53.3083 9.885 53.0471 9.61941 52.9208C9.35383 52.7946 9.09262 52.8875 8.96638 53.1531L8.65079 53.817L7.67699 53.3542L7.99258 52.6902C8.11882 52.4246 8.02592 52.1634 7.76034 52.0372C7.49475 51.9109 7.23354 52.0038 7.1073 52.2694L6.79171 52.9334L5.24248 52.197L6.73629 49.0543L18.1121 54.4614L16.6183 57.6041L15.069 56.8678ZM31.9372 55.1723L27.603 64.2906L19.373 61.6267L24.696 50.428L31.9372 55.1723ZM24.3788 48.8121L24.0211 49.5646L18.2352 61.7371L17.8775 62.4896L15.8414 61.5218L17.2721 58.5118L19.1867 54.4838L22.3426 47.8443L24.3788 48.8121Z" fill="black"/>
</g>
<defs>
<filter id="filter0_d_307_66" x="-1" y="0" width="88" height="88" filterUnits="userSpaceOnUse" color-interpolation-filters="sRGB">
<feFlood flood-opacity="0" result="BackgroundImageFix"/>
<feColorMatrix in="SourceAlpha" type="matrix" values="0 0 0 0 0 0 0 0 0 0 0 0 0 0 0 0 0 0 127 0" result="hardAlpha"/>
<feOffset dy="4"/>
<feGaussianBlur stdDeviation="2"/>
<feComposite in2="hardAlpha" operator="out"/>
<feColorMatrix type="matrix" values="0 0 0 0 0 0 0 0 0 0 0 0 0 0 0 0 0 0 0.25 0"/>
<feBlend mode="normal" in2="BackgroundImageFix" result="effect1_dropShadow_307_66"/>
<feBlend mode="normal" in="SourceGraphic" in2="effect1_dropShadow_307_66" result="shape"/>
</filter>
<clipPath id="clip0_307_66">
<rect width="80" height="80" fill="white" transform="translate(3)"/>
</clipPath>
</defs>
</svg>
