<svg width="80" height="80" viewBox="0 0 80 80" fill="none" xmlns="http://www.w3.org/2000/svg">
<path d="M66 10H14C9.58172 10 6 13.5817 6 18V19.3333H74V18C74 13.5817 70.4183 10 66 10Z" fill="#DD0000"/>
<path d="M36.6666 25.3333H12.6666V49.3333H36.6666V25.3333Z" fill="#FF9696"/>
<path d="M70 8.75H10C8.3424 8.75 6.75269 9.40848 5.58058 10.5806C4.40848 11.7527 3.75 13.3424 3.75 15V65C3.75 66.6576 4.40848 68.2473 5.58058 69.4194C6.75269 70.5915 8.3424 71.25 10 71.25H70C71.6576 71.25 73.2473 70.5915 74.4194 69.4194C75.5915 68.2473 76.25 66.6576 76.25 65V15C76.25 13.3424 75.5915 11.7527 74.4194 10.5806C73.2473 9.40848 71.6576 8.75 70 8.75ZM73.75 65C73.75 65.9946 73.3549 66.9484 72.6516 67.6516C71.9484 68.3549 70.9946 68.75 70 68.75H10C9.00544 68.75 8.05161 68.3549 7.34835 67.6516C6.64509 66.9484 6.25 65.9946 6.25 65V21.25H73.75V65ZM6.25 18.75V15C6.25 14.0054 6.64509 13.0516 7.34835 12.3483C8.05161 11.6451 9.00544 11.25 10 11.25H70C70.9946 11.25 71.9484 11.6451 72.6516 12.3483C73.3549 13.0516 73.75 14.0054 73.75 15V18.75H6.25ZM12.5 51.25H37.5C37.8315 51.25 38.1495 51.1183 38.3839 50.8839C38.6183 50.6495 38.75 50.3315 38.75 50V25C38.75 24.6685 38.6183 24.3505 38.3839 24.1161C38.1495 23.8817 37.8315 23.75 37.5 23.75H12.5C12.1685 23.75 11.8505 23.8817 11.6161 24.1161C11.3817 24.3505 11.25 24.6685 11.25 25V50C11.25 50.3315 11.3817 50.6495 11.6161 50.8839C11.8505 51.1183 12.1685 51.25 12.5 51.25ZM13.75 26.25H36.25V48.75H13.75V26.25ZM12.5 66.25H67.5C67.8315 66.25 68.1495 66.1183 68.3839 65.8839C68.6183 65.6495 68.75 65.3315 68.75 65V55C68.75 54.6685 68.6183 54.3505 68.3839 54.1161C68.1495 53.8817 67.8315 53.75 67.5 53.75H12.5C12.1685 53.75 11.8505 53.8817 11.6161 54.1161C11.3817 54.3505 11.25 54.6685 11.25 55V65C11.25 65.3315 11.3817 65.6495 11.6161 65.8839C11.8505 66.1183 12.1685 66.25 12.5 66.25ZM13.75 56.25H66.25V63.75H13.75V56.25ZM41.25 27.5C41.25 27.1685 41.3817 26.8505 41.6161 26.6161C41.8505 26.3817 42.1685 26.25 42.5 26.25H67.5C67.8315 26.25 68.1495 26.3817 68.3839 26.6161C68.6183 26.8505 68.75 27.1685 68.75 27.5C68.75 27.8315 68.6183 28.1495 68.3839 28.3839C68.1495 28.6183 67.8315 28.75 67.5 28.75H42.5C42.1685 28.75 41.8505 28.6183 41.6161 28.3839C41.3817 28.1495 41.25 27.8315 41.25 27.5ZM41.25 32.5C41.25 32.1685 41.3817 31.8505 41.6161 31.6161C41.8505 31.3817 42.1685 31.25 42.5 31.25H67.5C67.8315 31.25 68.1495 31.3817 68.3839 31.6161C68.6183 31.8505 68.75 32.1685 68.75 32.5C68.75 32.8315 68.6183 33.1495 68.3839 33.3839C68.1495 33.6183 67.8315 33.75 67.5 33.75H42.5C42.1685 33.75 41.8505 33.6183 41.6161 33.3839C41.3817 33.1495 41.25 32.8315 41.25 32.5ZM41.25 37.5C41.25 37.1685 41.3817 36.8505 41.6161 36.6161C41.8505 36.3817 42.1685 36.25 42.5 36.25H67.5C67.8315 36.25 68.1495 36.3817 68.3839 36.6161C68.6183 36.8505 68.75 37.1685 68.75 37.5C68.75 37.8315 68.6183 38.1495 68.3839 38.3839C68.1495 38.6183 67.8315 38.75 67.5 38.75H42.5C42.1685 38.75 41.8505 38.6183 41.6161 38.3839C41.3817 38.1495 41.25 37.8315 41.25 37.5ZM41.25 42.5C41.25 42.1685 41.3817 41.8505 41.6161 41.6161C41.8505 41.3817 42.1685 41.25 42.5 41.25H67.5C67.8315 41.25 68.1495 41.3817 68.3839 41.6161C68.6183 41.8505 68.75 42.1685 68.75 42.5C68.75 42.8315 68.6183 43.1495 68.3839 43.3839C68.1495 43.6183 67.8315 43.75 67.5 43.75H42.5C42.1685 43.75 41.8505 43.6183 41.6161 43.3839C41.3817 43.1495 41.25 42.8315 41.25 42.5ZM41.25 47.5C41.25 47.1685 41.3817 46.8505 41.6161 46.6161C41.8505 46.3817 42.1685 46.25 42.5 46.25H67.5C67.8315 46.25 68.1495 46.3817 68.3839 46.6161C68.6183 46.8505 68.75 47.1685 68.75 47.5C68.75 47.8315 68.6183 48.1495 68.3839 48.3839C68.1495 48.6183 67.8315 48.75 67.5 48.75H42.5C42.1685 48.75 41.8505 48.6183 41.6161 48.3839C41.3817 48.1495 41.25 47.8315 41.25 47.5Z" fill="black"/>
<path fill-rule="evenodd" clip-rule="evenodd" d="M68.25 14C67.5597 14 67 14.5597 67 15.25C67 15.9404 67.5597 16.5 68.25 16.5C68.9404 16.5 69.5 15.9404 69.5 15.25C69.5 14.5597 68.9404 14 68.25 14Z" fill="white"/>
<path fill-rule="evenodd" clip-rule="evenodd" d="M64.4166 14C63.7263 14 63.1666 14.5597 63.1666 15.25C63.1666 15.9404 63.7263 16.5 64.4166 16.5C65.107 16.5 65.6666 15.9404 65.6666 15.25C65.6666 14.5597 65.107 14 64.4166 14Z" fill="white"/>
<path fill-rule="evenodd" clip-rule="evenodd" d="M60.5834 14C59.893 14 59.3334 14.5597 59.3334 15.25C59.3334 15.9404 59.893 16.5 60.5834 16.5C61.2737 16.5 61.8334 15.9404 61.8334 15.25C61.8334 14.5597 61.2737 14 60.5834 14Z" fill="white"/>
<path d="M66.6667 56H13.3334V64H66.6667V56Z" fill="#FF9696"/>
<path d="M33.8203 43.3242L29.0565 35.2018C29.0565 35.2018 29.0565 35.2018 28.9871 35.1231L28.8065 34.9262L28.5982 34.7557C28.5982 34.7557 28.5982 34.7557 28.5148 34.7557H28.3621C28.2794 34.7157 28.1902 34.6891 28.0982 34.6769C28.0108 34.6632 27.9217 34.6632 27.8343 34.6769C27.7515 34.664 27.6671 34.664 27.5843 34.6769C27.4879 34.6891 27.3941 34.7157 27.3065 34.7557C27.2604 34.7499 27.2137 34.7499 27.1676 34.7557C27.1676 34.7557 27.1676 34.7557 27.0843 34.7557C27.0086 34.8053 26.9388 34.8625 26.876 34.9262C26.808 34.9851 26.7475 35.0512 26.6954 35.1231V35.2018L23.9177 39.965L22.4038 37.8131C22.2768 37.6344 22.1052 37.4881 21.9042 37.3869C21.7031 37.2857 21.4788 37.2328 21.2511 37.2328C21.0233 37.2328 20.799 37.2857 20.598 37.3869C20.3969 37.4881 20.2254 37.6344 20.0983 37.8131L16.2789 43.2324C16.1654 43.375 16.0838 43.538 16.0392 43.7114C15.9947 43.8848 15.988 44.065 16.0196 44.2409C16.0512 44.4168 16.1205 44.5848 16.2232 44.7346C16.3259 44.8843 16.4599 45.0127 16.6169 45.1119C16.7739 45.2111 16.9506 45.279 17.1364 45.3115C17.3221 45.3439 17.5129 45.3402 17.697 45.3006C17.8812 45.261 18.0549 45.1864 18.2075 45.0812C18.36 44.976 18.4883 44.8425 18.5844 44.6889L21.2511 40.9098L23.9177 44.6889C24.0451 44.867 24.2168 45.0128 24.4178 45.1134C24.6188 45.2141 24.843 45.2666 25.0705 45.2663C25.3206 45.2651 25.5657 45.2001 25.7799 45.0781C25.9942 44.9562 26.1696 44.7819 26.2877 44.5735C26.4057 44.3652 26.4621 44.1306 26.4507 43.8946C26.4394 43.6585 26.3608 43.4297 26.2232 43.2324L25.6538 42.4188L27.9315 38.4823L31.5009 44.5446C31.6215 44.7473 31.7969 44.916 32.0092 45.0336C32.2216 45.1512 32.4631 45.2134 32.7092 45.2138C32.9461 45.2133 33.1794 45.1593 33.3898 45.0563C33.6787 44.8715 33.8834 44.5907 33.9632 44.2698C34.043 43.9488 33.992 43.6113 33.8203 43.3242Z" fill="black"/>
<path d="M23.3333 35.3333C22.9797 35.3333 22.6406 35.1927 22.3905 34.9424C22.1405 34.6922 22 34.3527 22 33.9988C22.0049 33.6454 22.143 33.307 22.3867 33.0513C22.5742 32.8661 22.8123 32.7406 23.0709 32.6908C23.3296 32.6409 23.5972 32.6688 23.84 32.771C24.0037 32.8345 24.1532 32.9298 24.28 33.0513C24.5236 33.307 24.6618 33.6454 24.6667 33.9988C24.6667 34.3527 24.5262 34.6922 24.2761 34.9424C24.0261 35.1927 23.687 35.3333 23.3333 35.3333Z" fill="white"/>
</svg>
