<svg width="80" height="80" viewBox="0 0 80 80" fill="none" xmlns="http://www.w3.org/2000/svg">
<path d="M71.25 18.7598H66.3263V57.4898C66.3263 57.8214 66.1946 58.1393 65.9601 58.3737C65.7257 58.6081 65.4078 58.7398 65.0763 58.7398H15.0763C14.7447 58.7398 14.4268 58.6081 14.1924 58.3737C13.9579 58.1393 13.8263 57.8214 13.8263 57.4898V18.7598H8.75V61.2598H71.25V18.7598Z" fill="#FFE7E7"/>
<path d="M46.2501 63.7598V67.5098C46.2501 67.8413 46.1184 68.1593 45.884 68.3937C45.6496 68.6281 45.3316 68.7598 45.0001 68.7598H35.0001C34.6686 68.7598 34.3507 68.6281 34.1162 68.3937C33.8818 68.1593 33.7501 67.8413 33.7501 67.5098V63.7598H6.33887C6.64096 65.8418 7.68245 67.7455 9.27286 69.1227C10.8633 70.4999 12.8963 71.2585 15.0001 71.2598H65.0001C67.1044 71.2601 69.1382 70.502 70.729 69.1245C72.3197 67.7471 73.3608 65.8425 73.6614 63.7598H46.2501Z" fill="#DD0000"/>
<path d="M43.75 63.7598H36.25V66.2598H43.75V63.7598Z" fill="#DD0000"/>
<path d="M63.8262 15.8824H16.3262V56.2399H63.8262V15.8824ZM28.0424 19.7337C28.3739 19.7337 28.6919 19.8654 28.9263 20.0998C29.1607 20.3342 29.2924 20.6522 29.2924 20.9837V29.0499H37.3587C37.6902 29.0499 38.0081 29.1816 38.2426 29.4161C38.477 29.6505 38.6087 29.9684 38.6087 30.2999C38.6087 32.3898 37.989 34.4326 36.8279 36.1702C35.6669 37.9079 34.0167 39.2622 32.086 40.0619C30.1552 40.8616 28.0307 41.0709 25.981 40.6632C23.9314 40.2555 22.0487 39.2491 20.571 37.7714C19.0932 36.2937 18.0869 34.411 17.6792 32.3613C17.2715 30.3117 17.4807 28.1871 18.2805 26.2564C19.0802 24.3257 20.4345 22.6755 22.1721 21.5144C23.9097 20.3534 25.9526 19.7337 28.0424 19.7337ZM41.4024 52.4837C41.4024 52.8152 41.2707 53.1332 41.0363 53.3676C40.8019 53.602 40.4839 53.7337 40.1524 53.7337H20.1524C19.8209 53.7337 19.503 53.602 19.2685 53.3676C19.0341 53.1332 18.9024 52.8152 18.9024 52.4837V44.9837C18.9024 44.6522 19.0341 44.3342 19.2685 44.0998C19.503 43.8654 19.8209 43.7337 20.1524 43.7337H40.1524C40.4839 43.7337 40.8019 43.8654 41.0363 44.0998C41.2707 44.3342 41.4024 44.6522 41.4024 44.9837V52.4837ZM40.1537 28.7499H30.8374C30.5059 28.7499 30.188 28.6183 29.9535 28.3838C29.7191 28.1494 29.5874 27.8315 29.5874 27.4999V18.1887C29.5874 17.8572 29.7191 17.5392 29.9535 17.3048C30.188 17.0704 30.5059 16.9387 30.8374 16.9387C33.6385 16.94 36.3245 18.053 38.3057 20.0332C40.2868 22.0134 41.401 24.6989 41.4037 27.4999C41.4037 27.8315 41.272 28.1494 41.0376 28.3838C40.8031 28.6183 40.4852 28.7499 40.1537 28.7499ZM46.4262 52.4837C46.4262 52.8152 46.2945 53.1332 46.0601 53.3676C45.8256 53.602 45.5077 53.7337 45.1762 53.7337C44.8446 53.7337 44.5267 53.602 44.2923 53.3676C44.0579 53.1332 43.9262 52.8152 43.9262 52.4837V44.9837C43.9262 44.6522 44.0579 44.3342 44.2923 44.0998C44.5267 43.8654 44.8446 43.7337 45.1762 43.7337C45.5077 43.7337 45.8256 43.8654 46.0601 44.0998C46.2945 44.3342 46.4262 44.6522 46.4262 44.9837V52.4837ZM51.4262 52.4837C51.4262 52.8152 51.2945 53.1332 51.0601 53.3676C50.8256 53.602 50.5077 53.7337 50.1762 53.7337C49.8447 53.7337 49.5267 53.602 49.2923 53.3676C49.0579 53.1332 48.9262 52.8152 48.9262 52.4837V42.4837C48.9262 42.1522 49.0579 41.8342 49.2923 41.5998C49.5267 41.3654 49.8447 41.2337 50.1762 41.2337C50.5077 41.2337 50.8256 41.3654 51.0601 41.5998C51.2945 41.8342 51.4262 42.1522 51.4262 42.4837V52.4837ZM56.4262 52.4837C56.4262 52.8152 56.2945 53.1332 56.0601 53.3676C55.8256 53.602 55.5077 53.7337 55.1762 53.7337C54.8447 53.7337 54.5267 53.602 54.2923 53.3676C54.0579 53.1332 53.9262 52.8152 53.9262 52.4837V40.6087C53.9262 40.2772 54.0579 39.9592 54.2923 39.7248C54.5267 39.4904 54.8447 39.3587 55.1762 39.3587C55.5077 39.3587 55.8256 39.4904 56.0601 39.7248C56.2945 39.9592 56.4262 40.2772 56.4262 40.6087V52.4837ZM61.4024 52.4837C61.4024 52.8152 61.2707 53.1332 61.0363 53.3676C60.8019 53.602 60.4839 53.7337 60.1524 53.7337C59.8209 53.7337 59.503 53.602 59.2685 53.3676C59.0341 53.1332 58.9024 52.8152 58.9024 52.4837V37.4837C58.9024 37.1522 59.0341 36.8342 59.2685 36.5998C59.503 36.3654 59.8209 36.2337 60.1524 36.2337C60.4839 36.2337 60.8019 36.3654 61.0363 36.5998C61.2707 36.8342 61.4024 37.1522 61.4024 37.4837V52.4837ZM61.5587 33.7337H43.6474C43.3159 33.7337 42.998 33.602 42.7635 33.3676C42.5291 33.1332 42.3974 32.8152 42.3974 32.4837C42.3974 32.1522 42.5291 31.8342 42.7635 31.5998C42.998 31.3654 43.3159 31.2337 43.6474 31.2337H61.5587C61.8902 31.2337 62.2081 31.3654 62.4426 31.5998C62.677 31.8342 62.8087 32.1522 62.8087 32.4837C62.8087 32.8152 62.677 33.1332 62.4426 33.3676C62.2081 33.602 61.8902 33.7337 61.5587 33.7337ZM61.5587 30.1624H43.6474C43.3159 30.1624 42.998 30.0308 42.7635 29.7963C42.5291 29.5619 42.3974 29.244 42.3974 28.9124C42.3974 28.5809 42.5291 28.263 42.7635 28.0286C42.998 27.7941 43.3159 27.6624 43.6474 27.6624H61.5587C61.8902 27.6624 62.2081 27.7941 62.4426 28.0286C62.677 28.263 62.8087 28.5809 62.8087 28.9124C62.8087 29.244 62.677 29.5619 62.4426 29.7963C62.2081 30.0308 61.8902 30.1624 61.5587 30.1624ZM61.5587 26.5912H43.6474C43.3159 26.5912 42.998 26.4595 42.7635 26.2251C42.5291 25.9907 42.3974 25.6727 42.3974 25.3412C42.3974 25.0097 42.5291 24.6917 42.7635 24.4573C42.998 24.2229 43.3159 24.0912 43.6474 24.0912H61.5587C61.8902 24.0912 62.2081 24.2229 62.4426 24.4573C62.677 24.6917 62.8087 25.0097 62.8087 25.3412C62.8087 25.6727 62.677 25.9907 62.4426 26.2251C62.2081 26.4595 61.8902 26.5912 61.5587 26.5912ZM61.5587 23.0199H43.6474C43.3159 23.0199 42.998 22.8882 42.7635 22.6538C42.5291 22.4194 42.3974 22.1015 42.3974 21.7699C42.3974 21.4384 42.5291 21.1205 42.7635 20.8861C42.998 20.6516 43.3159 20.5199 43.6474 20.5199H61.5587C61.8902 20.5199 62.2081 20.6516 62.4426 20.8861C62.677 21.1205 62.8087 21.4384 62.8087 21.7699C62.8087 22.1015 62.677 22.4194 62.4426 22.6538C62.2081 22.8882 61.8902 23.0199 61.5587 23.0199Z" fill="#FF9696"/>
<path d="M63.8262 8.7399H16.3262V13.3824H63.8262V8.7399ZM22.2187 12.3111H18.6474C18.3159 12.3111 17.998 12.1795 17.7635 11.945C17.5291 11.7106 17.3974 11.3927 17.3974 11.0611C17.3974 10.7296 17.5291 10.4117 17.7635 10.1773C17.998 9.94284 18.3159 9.81115 18.6474 9.81115H22.2187C22.5502 9.81115 22.8681 9.94284 23.1026 10.1773C23.337 10.4117 23.4687 10.7296 23.4687 11.0611C23.4687 11.3927 23.337 11.7106 23.1026 11.945C22.8681 12.1795 22.5502 12.3111 22.2187 12.3111ZM29.3624 12.3111H25.7899C25.4584 12.3111 25.1405 12.1795 24.906 11.945C24.6716 11.7106 24.5399 11.3927 24.5399 11.0611C24.5399 10.7296 24.6716 10.4117 24.906 10.1773C25.1405 9.94284 25.4584 9.81115 25.7899 9.81115H29.3624C29.6939 9.81115 30.0119 9.94284 30.2463 10.1773C30.4807 10.4117 30.6124 10.7296 30.6124 11.0611C30.6124 11.3927 30.4807 11.7106 30.2463 11.945C30.0119 12.1795 29.6939 12.3111 29.3624 12.3111ZM36.5049 12.3111H32.9337C32.6022 12.3111 32.2842 12.1795 32.0498 11.945C31.8154 11.7106 31.6837 11.3927 31.6837 11.0611C31.6837 10.7296 31.8154 10.4117 32.0498 10.1773C32.2842 9.94284 32.6022 9.81115 32.9337 9.81115H36.4999C36.8314 9.81115 37.1494 9.94284 37.3838 10.1773C37.6182 10.4117 37.7499 10.7296 37.7499 11.0611C37.7499 11.3927 37.6182 11.7106 37.3838 11.945C37.1494 12.1795 36.8314 12.3111 36.4999 12.3111H36.5049Z" fill="#DD0000"/>
<path d="M75 61.2599H73.75V17.5099C73.75 17.1784 73.6183 16.8604 73.3839 16.626C73.1495 16.3916 72.8315 16.2599 72.5 16.2599H66.3263V7.4899C66.3263 7.15838 66.1946 6.84044 65.9601 6.60601C65.7257 6.37159 65.4078 6.2399 65.0763 6.2399H15.0763C14.7447 6.2399 14.4268 6.37159 14.1924 6.60601C13.9579 6.84044 13.8263 7.15838 13.8263 7.4899V16.2599H7.5C7.16848 16.2599 6.85054 16.3916 6.61612 16.626C6.3817 16.8604 6.25 17.1784 6.25 17.5099V61.2599H5C4.66848 61.2599 4.35054 61.3916 4.11612 61.626C3.8817 61.8604 3.75 62.1784 3.75 62.5099C3.75 65.4936 4.93526 68.3551 7.04505 70.4648C9.15483 72.5746 12.0163 73.7599 15 73.7599H65C67.9837 73.7599 70.8452 72.5746 72.9549 70.4648C75.0647 68.3551 76.25 65.4936 76.25 62.5099C76.25 62.1784 76.1183 61.8604 75.8839 61.626C75.6495 61.3916 75.3315 61.2599 75 61.2599ZM65 71.2599H15C12.8962 71.2586 10.8632 70.5 9.27274 69.1228C7.68233 67.7456 6.64084 65.8419 6.33875 63.7599H33.75V67.5099C33.75 67.8414 33.8817 68.1594 34.1161 68.3938C34.3505 68.6282 34.6685 68.7599 35 68.7599H45C45.3315 68.7599 45.6495 68.6282 45.8839 68.3938C46.1183 68.1594 46.25 67.8414 46.25 67.5099V63.7599H73.6613C73.3606 65.8426 72.3196 67.7471 70.7288 69.1246C69.1381 70.5021 67.1042 71.2601 65 71.2599ZM16.3263 15.8849H63.8263V56.2399H16.3263V15.8849ZM16.3263 8.7424H63.8263V13.3849H16.3263V8.7424ZM8.75 18.7599H13.8263V57.4899C13.8263 57.8214 13.9579 58.1394 14.1924 58.3738C14.4268 58.6082 14.7447 58.7399 15.0763 58.7399H65.0763C65.4078 58.7399 65.7257 58.6082 65.9601 58.3738C66.1946 58.1394 66.3263 57.8214 66.3263 57.4899V18.7599H71.25V61.2599H8.75V18.7599ZM36.25 63.7599H43.75V66.2599H36.25V63.7599Z" fill="black"/>
<path d="M22.2187 9.81122H18.6475C18.3159 9.81122 17.998 9.94291 17.7636 10.1773C17.5292 10.4118 17.3975 10.7297 17.3975 11.0612C17.3975 11.3927 17.5292 11.7107 17.7636 11.9451C17.998 12.1795 18.3159 12.3112 18.6475 12.3112H22.2187C22.5502 12.3112 22.8682 12.1795 23.1026 11.9451C23.337 11.7107 23.4687 11.3927 23.4687 11.0612C23.4687 10.7297 23.337 10.4118 23.1026 10.1773C22.8682 9.94291 22.5502 9.81122 22.2187 9.81122Z" fill="white"/>
<path d="M29.3625 9.81122H25.79C25.4585 9.81122 25.1406 9.94291 24.9062 10.1773C24.6717 10.4118 24.54 10.7297 24.54 11.0612C24.54 11.3927 24.6717 11.7107 24.9062 11.9451C25.1406 12.1795 25.4585 12.3112 25.79 12.3112H29.3625C29.6941 12.3112 30.012 12.1795 30.2464 11.9451C30.4808 11.7107 30.6125 11.3927 30.6125 11.0612C30.6125 10.7297 30.4808 10.4118 30.2464 10.1773C30.012 9.94291 29.6941 9.81122 29.3625 9.81122Z" fill="white"/>
<path d="M36.5001 9.81122H32.9338C32.6023 9.81122 32.2844 9.94291 32.05 10.1773C31.8155 10.4118 31.6838 10.7297 31.6838 11.0612C31.6838 11.3927 31.8155 11.7107 32.05 11.9451C32.2844 12.1795 32.6023 12.3112 32.9338 12.3112H36.5001C36.8316 12.3112 37.1495 12.1795 37.384 11.9451C37.6184 11.7107 37.7501 11.3927 37.7501 11.0612C37.7501 10.7297 37.6184 10.4118 37.384 10.1773C37.1495 9.94291 36.8316 9.81122 36.5001 9.81122Z" fill="white"/>
<path d="M28.0424 38.3673C29.965 38.366 31.8241 37.6787 33.2851 36.4289C34.7462 35.1792 35.7132 33.449 36.0124 31.5498H28.0424C27.7109 31.5498 27.3929 31.4181 27.1585 31.1837C26.9241 30.9493 26.7924 30.6314 26.7924 30.2998V22.3298C24.7859 22.6446 22.972 23.7047 21.7128 25.2983C20.4537 26.8919 19.8419 28.9018 19.9998 30.9267C20.1576 32.9516 21.0734 34.8425 22.5642 36.2218C24.0551 37.601 26.0114 38.3672 28.0424 38.3673Z" fill="#FDBF00"/>
<path d="M28.0425 40.8675C30.8444 40.8662 33.5312 39.7525 35.5125 37.7713C37.4937 35.79 38.6074 33.1032 38.6087 30.3013C38.6087 29.9697 38.477 29.6518 38.2426 29.4174C38.0082 29.183 37.6902 29.0513 37.3587 29.0513H29.2925V20.9838C29.2925 20.6522 29.1608 20.3343 28.9263 20.0999C28.6919 19.8655 28.374 19.7338 28.0425 19.7338C25.24 19.7338 22.5522 20.8471 20.5706 22.8287C18.5889 24.8104 17.4756 27.4981 17.4756 30.3006C17.4756 33.1031 18.5889 35.7909 20.5706 37.7725C22.5522 39.7542 25.24 40.8675 28.0425 40.8675ZM26.7925 22.33V30.3C26.7925 30.6315 26.9242 30.9495 27.1586 31.1839C27.393 31.4183 27.7109 31.55 28.0425 31.55H36.0125C35.7818 33.0209 35.1486 34.3993 34.1829 35.5325C33.2173 36.6658 31.9569 37.5097 30.5412 37.9708C29.1256 38.432 27.6099 38.4924 26.162 38.1454C24.7142 37.7984 23.3906 37.0575 22.3378 36.0047C21.285 34.9519 20.5441 33.6283 20.1971 32.1804C19.85 30.7326 19.9105 29.2169 20.3716 27.8013C20.8328 26.3856 21.6767 25.1252 22.81 24.1596C23.9432 23.1939 25.3216 22.5607 26.7925 22.33Z" fill="black"/>
<path d="M32.0862 19.535V26.25H38.8062C38.5388 24.5644 37.7445 23.0069 36.5373 21.8005C35.3301 20.5942 33.7719 19.8011 32.0862 19.535Z" fill="#4BB9EC"/>
<path d="M30.8374 16.9385C30.5059 16.9385 30.1879 17.0702 29.9535 17.3047C29.7191 17.5391 29.5874 17.857 29.5874 18.1885V27.4998C29.5874 27.8313 29.7191 28.1493 29.9535 28.3837C30.1879 28.6181 30.5059 28.7498 30.8374 28.7498H40.1537C40.4852 28.7498 40.8031 28.6181 41.0375 28.3837C41.272 28.1493 41.4037 27.8313 41.4037 27.4998C41.401 24.6987 40.2868 22.0132 38.3056 20.033C36.3245 18.0528 33.6385 16.9399 30.8374 16.9385ZM32.0874 26.2548V19.5348C33.7731 19.801 35.3313 20.5941 36.5385 21.8004C37.7457 23.0067 38.54 24.5643 38.8074 26.2498L32.0874 26.2548Z" fill="black"/>
<path d="M45.1763 43.7399C44.8447 43.7399 44.5268 43.8716 44.2924 44.106C44.058 44.3404 43.9263 44.6584 43.9263 44.9899V52.4899C43.9263 52.8214 44.058 53.1394 44.2924 53.3738C44.5268 53.6082 44.8447 53.7399 45.1763 53.7399C45.5078 53.7399 45.8257 53.6082 46.0602 53.3738C46.2946 53.1394 46.4263 52.8214 46.4263 52.4899V44.9899C46.4263 44.6584 46.2946 44.3404 46.0602 44.106C45.8257 43.8716 45.5078 43.7399 45.1763 43.7399Z" fill="black"/>
<path d="M50.1763 41.2399C49.8447 41.2399 49.5268 41.3716 49.2924 41.606C49.058 41.8404 48.9263 42.1584 48.9263 42.4899V52.4899C48.9263 52.8214 49.058 53.1394 49.2924 53.3738C49.5268 53.6082 49.8447 53.7399 50.1763 53.7399C50.5078 53.7399 50.8257 53.6082 51.0602 53.3738C51.2946 53.1394 51.4263 52.8214 51.4263 52.4899V42.4899C51.4263 42.1584 51.2946 41.8404 51.0602 41.606C50.8257 41.3716 50.5078 41.2399 50.1763 41.2399Z" fill="black"/>
<path d="M55.1763 39.3649C54.8447 39.3649 54.5268 39.4966 54.2924 39.731C54.058 39.9654 53.9263 40.2834 53.9263 40.6149V52.4899C53.9263 52.8214 54.058 53.1394 54.2924 53.3738C54.5268 53.6082 54.8447 53.7399 55.1763 53.7399C55.5078 53.7399 55.8257 53.6082 56.0602 53.3738C56.2946 53.1394 56.4263 52.8214 56.4263 52.4899V40.6149C56.4263 40.2834 56.2946 39.9654 56.0602 39.731C55.8257 39.4966 55.5078 39.3649 55.1763 39.3649Z" fill="black"/>
<path d="M60.1526 36.2399C59.8211 36.2399 59.5031 36.3716 59.2687 36.606C59.0343 36.8404 58.9026 37.1584 58.9026 37.4899V52.4899C58.9026 52.8214 59.0343 53.1394 59.2687 53.3738C59.5031 53.6082 59.8211 53.7399 60.1526 53.7399C60.4841 53.7399 60.802 53.6082 61.0365 53.3738C61.2709 53.1394 61.4026 52.8214 61.4026 52.4899V37.4899C61.4026 37.1584 61.2709 36.8404 61.0365 36.606C60.802 36.3716 60.4841 36.2399 60.1526 36.2399Z" fill="black"/>
<path d="M61.5587 20.5261H43.6475C43.3159 20.5261 42.998 20.6578 42.7636 20.8922C42.5292 21.1266 42.3975 21.4446 42.3975 21.7761C42.3975 22.1076 42.5292 22.4256 42.7636 22.66C42.998 22.8944 43.3159 23.0261 43.6475 23.0261H61.5587C61.8902 23.0261 62.2082 22.8944 62.4426 22.66C62.677 22.4256 62.8087 22.1076 62.8087 21.7761C62.8087 21.4446 62.677 21.1266 62.4426 20.8922C62.2082 20.6578 61.8902 20.5261 61.5587 20.5261Z" fill="black"/>
<path d="M61.5587 24.0974H43.6475C43.3159 24.0974 42.998 24.2291 42.7636 24.4635C42.5292 24.6979 42.3975 25.0159 42.3975 25.3474C42.3975 25.6789 42.5292 25.9969 42.7636 26.2313C42.998 26.4657 43.3159 26.5974 43.6475 26.5974H61.5587C61.8902 26.5974 62.2082 26.4657 62.4426 26.2313C62.677 25.9969 62.8087 25.6789 62.8087 25.3474C62.8087 25.0159 62.677 24.6979 62.4426 24.4635C62.2082 24.2291 61.8902 24.0974 61.5587 24.0974Z" fill="black"/>
<path d="M61.5587 27.6686H43.6475C43.3159 27.6686 42.998 27.8003 42.7636 28.0347C42.5292 28.2691 42.3975 28.5871 42.3975 28.9186C42.3975 29.2501 42.5292 29.568 42.7636 29.8025C42.998 30.0369 43.3159 30.1686 43.6475 30.1686H61.5587C61.8902 30.1686 62.2082 30.0369 62.4426 29.8025C62.677 29.568 62.8087 29.2501 62.8087 28.9186C62.8087 28.5871 62.677 28.2691 62.4426 28.0347C62.2082 27.8003 61.8902 27.6686 61.5587 27.6686Z" fill="black"/>
<path d="M61.5587 31.2399H43.6475C43.3159 31.2399 42.998 31.3716 42.7636 31.606C42.5292 31.8404 42.3975 32.1584 42.3975 32.4899C42.3975 32.8214 42.5292 33.1394 42.7636 33.3738C42.998 33.6082 43.3159 33.7399 43.6475 33.7399H61.5587C61.8902 33.7399 62.2082 33.6082 62.4426 33.3738C62.677 33.1394 62.8087 32.8214 62.8087 32.4899C62.8087 32.1584 62.677 31.8404 62.4426 31.606C62.2082 31.3716 61.8902 31.2399 61.5587 31.2399Z" fill="black"/>
<path d="M38.9026 46.2399H21.4026V51.2399H38.9026V46.2399Z" fill="#F03800"/>
<path d="M40.1526 43.7399H20.1526C19.8211 43.7399 19.5031 43.8716 19.2687 44.106C19.0343 44.3404 18.9026 44.6584 18.9026 44.9899V52.4899C18.9026 52.8214 19.0343 53.1394 19.2687 53.3738C19.5031 53.6082 19.8211 53.7399 20.1526 53.7399H40.1526C40.4841 53.7399 40.802 53.6082 41.0365 53.3738C41.2709 53.1394 41.4026 52.8214 41.4026 52.4899V44.9899C41.4026 44.6584 41.2709 44.3404 41.0365 44.106C40.802 43.8716 40.4841 43.7399 40.1526 43.7399ZM38.9026 51.2399H21.4026V46.2399H38.9026V51.2399Z" fill="black"/>
</svg>
