<svg width="30" height="76" viewBox="0 0 30 76" fill="none" xmlns="http://www.w3.org/2000/svg">
<path d="M0.0361328 2L6.96739 11.2353L11.4998 0.615013L0.0361328 2ZM5.1482 5.52931C6.34758 6.18943 7.50243 6.89024 8.6116 7.62862L9.71988 5.96377C8.56358 5.19402 7.36069 4.46412 6.11256 3.77716L5.1482 5.52931ZM11.8719 10.01C12.9355 10.8613 13.9477 11.7504 14.9072 12.6738L16.294 11.2327C15.2904 10.2668 14.2324 9.33754 13.1217 8.44854L11.8719 10.01ZM17.6778 15.6031C18.5617 16.6316 19.3874 17.6933 20.1532 18.7841L21.7901 17.6349C20.9865 16.4903 20.1207 15.3771 19.1945 14.2995L17.6778 15.6031ZM22.2982 22.1905C22.9587 23.3677 23.5546 24.5714 24.0843 25.7976L25.9203 25.0045C25.363 23.7145 24.7365 22.4488 24.0424 21.2119L22.2982 22.1905ZM25.4819 29.5675C25.8811 30.8492 26.211 32.1497 26.4697 33.4644L28.4321 33.0781C28.1594 31.6926 27.8118 30.3226 27.3914 28.9727L25.4819 29.5675ZM27.0308 37.4436C27.1451 38.7738 27.1876 40.1141 27.1565 41.46L29.156 41.5062C29.1887 40.0875 29.144 38.6747 29.0235 37.2724L27.0308 37.4436ZM26.8469 45.4666C26.6733 46.7845 26.4283 48.104 26.1102 49.4214L28.0543 49.8908C28.389 48.505 28.6469 47.1159 28.8297 45.7278L26.8469 45.4666ZM24.9654 53.2772C24.5239 54.5264 24.0143 55.7704 23.435 57.0057L25.2458 57.8549C25.8528 56.5605 26.3875 55.2555 26.8511 53.9436L24.9654 53.2772ZM21.5516 60.5717C20.8806 61.7106 20.1469 62.8391 19.3493 63.9542L20.976 65.1178C21.8075 63.9553 22.5734 62.7774 23.2748 61.5869L21.5516 60.5717ZM16.8558 67.1481C15.9998 68.1564 15.0876 69.1509 14.1182 70.1292L15.5388 71.5369C16.5437 70.5228 17.4907 69.4906 18.3805 68.4424L16.8558 67.1481ZM11.1643 72.9021C10.6566 73.3462 10.1359 73.7862 9.60235 74.2219L10.8673 75.7711C11.4182 75.3212 11.9561 74.8666 12.481 74.4075L11.1643 72.9021Z" fill="black"/>
</svg>
