<svg width="27" height="36" viewBox="0 0 27 36" fill="none" xmlns="http://www.w3.org/2000/svg">
<g clip-path="url(#clip0_945_1361)">
<path d="M13.5 0C6.04477 0 0 6.04477 0 13.5C0 18.9429 1.89633 20.463 12.1148 35.2758C12.785 36.244 14.2179 36.244 14.888 35.2758C25.1016 20.4609 27 18.9422 27 13.5C27 6.04477 20.9531 0 13.5 0ZM13.5 19.0617C10.3971 19.0617 7.875 16.5389 7.875 13.4367C7.875 10.3345 10.3992 7.81172 13.5 7.81172C16.6008 7.81172 19.125 10.3345 19.125 13.4367C19.125 16.5389 16.6008 19.0617 13.5 19.0617Z" fill="white"/>
</g>
<defs>
<clipPath id="clip0_945_1361">
<rect width="27" height="36" fill="white"/>
</clipPath>
</defs>
</svg>
