<svg width="30" height="23" viewBox="0 0 30 23" fill="none" xmlns="http://www.w3.org/2000/svg">
<path d="M25.0949 1.11466L23.1749 2.61466L14.9999 8.68966L6.82493 2.55466L4.90493 1.05466C4.45261 0.680473 3.90045 0.447215 3.31686 0.38378C2.73327 0.320345 2.14389 0.429521 1.62174 0.697781C1.09959 0.966041 0.667617 1.3816 0.379338 1.89297C0.0910579 2.40434 -0.0408599 2.98904 -7.26348e-05 3.57466V20.9597C-7.26348e-05 21.5007 0.214855 22.0196 0.597429 22.4022C0.980004 22.7847 1.49889 22.9997 2.03993 22.9997H6.82493V11.4197L14.9999 17.5547L23.1749 11.4197V22.9997H27.9599C28.501 22.9997 29.0199 22.7847 29.4024 22.4022C29.785 22.0196 29.9999 21.5007 29.9999 20.9597V3.57466C30.0281 2.9941 29.887 2.41786 29.5938 1.91599C29.3006 1.41412 28.8679 1.00822 28.3484 0.747651C27.8288 0.487077 27.2447 0.383044 26.6672 0.448198C26.0896 0.513351 25.5434 0.744885 25.0949 1.11466Z" fill="white"/>
</svg>
