<svg width="81" height="67" viewBox="0 0 81 67" fill="none" xmlns="http://www.w3.org/2000/svg">
<path d="M53.2887 50.0471L17.4118 59.7702C16.3701 60.0444 15.31 59.4412 15.0176 58.3995L2.62609 12.5984C2.35194 11.5567 2.95507 10.4966 3.99683 10.2042L39.8737 0.481072C40.9155 0.206924 41.9755 0.81005 42.2679 1.85181L54.6594 47.6711C54.9336 48.6946 54.3305 49.7729 53.2887 50.0471Z" fill="#FFE3E3"/>
<path d="M52.2469 52.1311L16.37 61.8542C15.3283 62.1283 14.2682 61.5252 13.9758 60.4834L1.56603 14.6824C1.29188 13.6406 1.89501 12.5806 2.93677 12.2882L38.8136 2.56506C39.8554 2.29091 40.9154 2.89403 41.2079 3.9358L53.6176 49.7551C53.8918 50.7786 53.2887 51.8569 52.2469 52.1311Z" fill="white" stroke="black" stroke-width="1.5" stroke-miterlimit="10" stroke-linecap="round"/>
<path d="M16.4982 59.8252C15.9134 59.9897 15.3103 59.6425 15.1641 59.0576" stroke="black" stroke-width="1.5" stroke-miterlimit="10" stroke-linecap="round"/>
<path d="M4.72803 16.4541L6.19015 17.5872" stroke="black" stroke-width="1.5" stroke-miterlimit="10" stroke-linecap="round"/>
<path d="M4.72803 15.0469L7.67055 17.2949" stroke="black" stroke-width="1.5" stroke-miterlimit="10" stroke-linecap="round"/>
<path d="M6.86621 15.2476L7.67038 15.8507" stroke="black" stroke-width="1.5" stroke-miterlimit="10" stroke-linecap="round"/>
<path d="M34.9577 37.3073C35.1222 37.947 34.7566 38.5867 34.117 38.7511L17.1198 43.3568C16.4984 43.5213 15.8404 43.1558 15.6759 42.5344L15.219 40.8164C15.018 40.0488 15.4566 39.2629 16.2425 39.0436L33.0021 34.511C33.6418 34.3465 34.2997 34.712 34.4642 35.3517L34.9577 37.3073Z" fill="#DD0000"/>
<path d="M32.7824 29.9435C32.9469 30.5832 32.5813 31.2229 31.9417 31.3874L14.9445 35.9931C14.3231 36.1576 13.6651 35.792 13.5006 35.1706L13.0437 33.4526C12.8427 32.685 13.2813 31.8991 14.0672 31.6798L30.8268 27.1472C31.4665 26.9827 32.1244 27.3483 32.2889 27.9879L32.7824 29.9435Z" fill="#DD0000"/>
<path d="M30.6994 22.6867C30.8639 23.3264 30.4983 23.966 29.8587 24.1305L12.8615 28.7362C12.2401 28.9007 11.5821 28.5352 11.4176 27.9138L10.9607 26.1958C10.7597 25.4282 11.1983 24.6423 11.9842 24.423L28.7438 19.8904C29.3835 19.7259 30.0414 20.0914 30.2059 20.7311L30.6994 22.6867Z" fill="#DD0000"/>
<path d="M28.6886 15.321C28.8531 15.9606 28.4876 16.6003 27.8479 16.7648L10.8507 21.3705C10.2293 21.535 9.57136 21.1695 9.40687 20.5481L8.94996 18.8301C8.74891 18.0624 9.18755 17.2766 9.97344 17.0572L26.733 12.5247C27.3727 12.3602 28.0307 12.7257 28.1952 13.3654L28.6886 15.321Z" fill="#DD0000"/>
<path d="M54.2575 65.0872L21.8897 46.8106C20.9576 46.2806 20.6286 45.0926 21.1586 44.1605L44.4978 2.85552C45.0278 1.92341 46.2158 1.59443 47.1479 2.12445L79.5157 20.401C80.4478 20.931 80.7767 22.119 80.2467 23.0511L56.9076 64.3378C56.3775 65.2882 55.1896 65.6172 54.2575 65.0872Z" fill="#FFE3E3"/>
<path d="M51.6989 65.7449L19.3311 47.4683C18.399 46.9383 18.07 45.7503 18.6 44.8182L41.9392 3.51323C42.4692 2.58113 43.6572 2.25215 44.5893 2.78217L76.9571 21.0587C77.8892 21.5887 78.2182 22.7767 77.6881 23.7088L54.349 65.0138C53.819 65.9459 52.631 66.2749 51.6989 65.7449Z" fill="#FF9696" stroke="black" stroke-width="1.5" stroke-miterlimit="10" stroke-linecap="round"/>
<path d="M42.9629 4.82984C43.237 4.33637 43.8584 4.17188 44.3519 4.44603" stroke="black" stroke-width="1.5" stroke-miterlimit="10" stroke-linecap="round"/>
<path d="M55.501 22.5942L56.9814 23.7274" stroke="black" stroke-width="1.5" stroke-miterlimit="10" stroke-linecap="round"/>
<path d="M55.501 21.1875L58.4435 23.4538" stroke="black" stroke-width="1.5" stroke-miterlimit="10" stroke-linecap="round"/>
<path d="M57.6392 21.3877L58.4433 22.0091" stroke="black" stroke-width="1.5" stroke-miterlimit="10" stroke-linecap="round"/>
<path d="M20.8663 22.8865L23.3153 24.842L18.1431 31.2937L15.694 29.3381C13.9212 27.9125 13.6288 25.3172 15.0543 23.5261C15.7671 22.6306 16.7723 22.1188 17.8324 22.0092C18.8741 21.8812 19.9707 22.1737 20.8663 22.8865Z" fill="white" stroke="black" stroke-width="1.5" stroke-miterlimit="10" stroke-linecap="round"/>
<path d="M15.95 25.6285C15.8586 25.2081 15.95 24.7512 16.2424 24.3857C16.4983 24.075 16.8638 23.874 17.2294 23.8374" stroke="black" stroke-width="1.5" stroke-miterlimit="10" stroke-linecap="round"/>
<path d="M23.3519 24.8785L50.7119 46.8103C50.7302 46.8286 50.7485 46.8651 50.7302 46.9017L45.631 53.2619C45.6128 53.2802 45.5762 53.2985 45.5396 53.2619L18.1797 31.3301C18.1614 31.3118 18.1431 31.2752 18.1614 31.2387L23.2605 24.8785C23.2971 24.8602 23.3336 24.8602 23.3519 24.8785Z" fill="#F0C330" stroke="black" stroke-width="1.5" stroke-miterlimit="10" stroke-linecap="round"/>
<path d="M21.3228 30.1245L47.3303 50.9781" stroke="black" stroke-width="1.5" stroke-miterlimit="10" stroke-linecap="round"/>
<path d="M23.0771 27.9683L49.0481 48.7853" stroke="black" stroke-width="1.5" stroke-miterlimit="10" stroke-linecap="round"/>
<path d="M22.6503 24.3074L17.4839 30.7534L19.4805 32.3536L24.6469 25.9076L22.6503 24.3074Z" fill="#79CAA1" stroke="black" stroke-width="1.5" stroke-miterlimit="10" stroke-linecap="round"/>
<path d="M50.7844 46.9005L52.8497 51.1589L50.2727 54.3756L45.667 53.2973C45.6304 53.2973 45.6304 53.2607 45.6487 53.2425L50.7296 46.9005C50.7479 46.8639 50.7844 46.8822 50.7844 46.9005Z" fill="white" stroke="black" stroke-width="1.5" stroke-miterlimit="10" stroke-linecap="round"/>
<path d="M52.8501 51.1602L54.6778 54.9617C54.7875 55.181 54.5864 55.4003 54.3671 55.3638L50.2549 54.3951L52.8501 51.1602Z" fill="#E09287" stroke="black" stroke-width="1.5" stroke-miterlimit="10" stroke-linecap="round"/>
<path d="M63.3774 37.0329L57.8945 44.1242C57.8214 44.2338 57.6752 44.2521 57.5655 44.1607L23.827 18.0984C23.7173 18.0252 23.6991 17.879 23.7904 17.7694L29.2734 10.6781C29.3465 10.5684 29.4927 10.5501 29.6024 10.6415L63.3409 36.7039C63.4323 36.777 63.4506 36.9232 63.3774 37.0329Z" fill="#DD0000" stroke="black" stroke-width="1.5" stroke-miterlimit="10" stroke-linecap="round"/>
<path d="M26.4951 20.1627L28.6883 17.3115" stroke="black" stroke-width="1.5" stroke-miterlimit="10" stroke-linecap="round"/>
<path d="M28.6338 21.8077L29.7304 20.4004" stroke="black" stroke-width="1.5" stroke-miterlimit="10" stroke-linecap="round"/>
<path d="M30.8452 23.5082L33.0384 20.6753" stroke="black" stroke-width="1.5" stroke-miterlimit="10" stroke-linecap="round"/>
<path d="M33.0381 25.2254L34.153 23.7998" stroke="black" stroke-width="1.5" stroke-miterlimit="10" stroke-linecap="round"/>
<path d="M35.25 26.9066L37.4432 24.0737" stroke="black" stroke-width="1.5" stroke-miterlimit="10" stroke-linecap="round"/>
<path d="M37.4609 28.6248L38.5575 27.1992" stroke="black" stroke-width="1.5" stroke-miterlimit="10" stroke-linecap="round"/>
<path d="M39.5996 30.2691L41.7928 27.418" stroke="black" stroke-width="1.5" stroke-miterlimit="10" stroke-linecap="round"/>
<path d="M41.7925 31.969L42.8891 30.5435" stroke="black" stroke-width="1.5" stroke-miterlimit="10" stroke-linecap="round"/>
<path d="M43.9497 33.6327L46.1429 30.7998" stroke="black" stroke-width="1.5" stroke-miterlimit="10" stroke-linecap="round"/>
<path d="M46.1606 35.3509L47.2572 33.9253" stroke="black" stroke-width="1.5" stroke-miterlimit="10" stroke-linecap="round"/>
<path d="M48.3174 37.0137L50.5106 34.1626" stroke="black" stroke-width="1.5" stroke-miterlimit="10" stroke-linecap="round"/>
<path d="M50.5288 38.7127L51.6254 37.2871" stroke="black" stroke-width="1.5" stroke-miterlimit="10" stroke-linecap="round"/>
<path d="M52.7041 40.3951L54.8973 37.5439" stroke="black" stroke-width="1.5" stroke-miterlimit="10" stroke-linecap="round"/>
<path d="M54.897 42.095L56.0118 40.6694" stroke="black" stroke-width="1.5" stroke-miterlimit="10" stroke-linecap="round"/>
</svg>
