<svg width="81" height="80" viewBox="0 0 81 80" fill="none" xmlns="http://www.w3.org/2000/svg">
<g clip-path="url(#clip0_894_264)">
<circle cx="67" cy="18.5" r="12.5" fill="#DD0000"/>
<path d="M29.5 68.8836C28.9937 67.4504 27.6331 66.4133 26.0408 66.4133C22.4832 66.4572 21.4307 66.4231 18.7169 66.4133V63.0938C18.7169 62.2238 18.5457 61.2659 17.9606 60.433C17.3756 59.6001 16.2996 59 15.0573 59C13.9645 59 13.5998 59.7384 13 60.433C12.0588 61.4959 11.2853 63.2744 10.5189 64.7994C10.3754 65.0629 10.2425 65.2744 10.1682 65.3663C9.48518 66.1284 8.53476 66.0984 7.64272 65.9622C7.38219 65.42 7.12893 65.2425 6.5 65.1734V80L7.57593 79.3559C8.5 79 9.83088 79.5024 10.5 80L17.5002 79.9976C20.8619 79.9976 23.6051 77.2261 23.6051 73.8267H26.0504C27.6297 73.8267 28.9887 72.7872 29.4976 71.3563L29.5 68.8836Z" fill="#DD0000"/>
<path d="M44.1342 29.9985C44.009 29.9597 43.7005 29.9011 43.1552 29.9058C42.616 29.9057 42.3123 29.9716 42.186 30.0132C42.0998 30.2196 41.9281 30.7198 41.5146 31.2119C41.1012 31.704 40.4802 32.1481 39.5908 32.5254C38.7014 32.9027 37.9542 33.0364 37.313 32.9917C36.6718 32.947 36.1933 32.7312 35.9825 32.6474C35.8593 32.7086 35.6046 32.887 35.2281 33.27C34.856 33.6485 34.6815 33.9045 34.6202 34.0293C34.7061 34.2375 34.938 34.722 34.9937 35.3623C35.0494 36.0026 34.9212 36.7444 34.5591 37.6401C34.197 38.5358 33.7698 39.1666 33.2847 39.5884C32.7997 40.0101 32.2922 40.1861 32.0909 40.2744C32.0544 40.3922 31.9958 40.699 32.0006 41.2534C32.0065 41.9537 32.112 42.2063 32.1178 42.2275C32.3119 42.3089 32.8121 42.4904 33.3043 42.9038C33.7964 43.3172 34.2428 43.926 34.6202 44.8154C34.9975 45.7048 35.141 46.4545 35.0962 47.0957C35.0515 47.7369 34.8236 48.224 34.7422 48.4311C34.8069 48.5518 34.9843 48.8066 35.3648 49.1807C35.865 49.6723 36.1179 49.7806 36.1363 49.791C36.3311 49.7112 36.8142 49.478 37.4546 49.4224C38.095 49.3667 38.8489 49.4875 39.7446 49.8496C40.6404 50.2117 41.2588 50.6488 41.6806 51.1338C42.1024 51.6188 42.2918 52.1166 42.3813 52.3227C42.5079 52.3623 42.8086 52.4104 43.3481 52.4058C43.8949 52.4012 44.2038 52.3439 44.3295 52.3032C44.4157 52.0968 44.585 51.5942 44.9984 51.1021C45.4119 50.6099 46.0231 50.1635 46.9125 49.7861C47.8019 49.4087 48.5588 49.2774 49.2001 49.3222C49.8413 49.367 50.3174 49.5949 50.5135 49.6714C50.5317 49.6604 50.7835 49.5416 51.2752 49.0415C51.767 48.5413 51.8776 48.2884 51.888 48.27C51.8082 48.0752 51.5726 47.6017 51.5169 46.9614C51.4612 46.3211 51.5821 45.5695 51.9441 44.6738C52.3062 43.7781 52.7433 43.1473 53.2283 42.7256C53.7133 42.3038 54.2111 42.1267 54.4172 42.0371C54.4569 41.9088 54.5073 41.6003 54.5027 41.0581C54.4981 40.516 54.4197 40.106 54.4197 40.106C54.4197 40.106 53.6887 39.8358 53.1966 39.4224C52.7044 39.0089 52.2605 38.3879 51.8831 37.4985C51.5058 36.6092 51.3719 35.8594 51.4168 35.2183C51.4616 34.5771 51.6895 34.1009 51.7708 33.895C51.7124 33.7833 51.5339 33.522 51.1385 33.1333C50.7449 32.7464 50.4872 32.5741 50.3768 32.5181C50.1722 32.6027 49.6964 32.8457 49.056 32.9014C48.4156 32.957 47.6642 32.8264 46.7684 32.4644C45.8727 32.1023 45.242 31.6749 44.8202 31.1899C44.3984 30.7049 44.2225 30.2011 44.1342 29.9985Z" fill="#FF9696"/>
<path d="M4.25483 0C2.19891 0 0.5 1.6893 0.5 3.74512C0.5 5.36193 1.5509 6.76002 2.99997 7.28271V17.5049C2.99997 20.7262 4.10728 23.6873 5.96135 26.0303C7.08033 27.9317 8.22183 30.1681 9.08143 32.5024C7.1019 32.5915 5.50238 34.2552 5.50238 36.2549C5.50238 36.9212 5.67814 37.5488 5.98821 38.0933C4.94903 38.762 4.25483 39.9257 4.25483 41.2427C4.25483 42.1991 4.62085 43.0806 5.21918 43.7476C4.62157 44.4122 4.25483 45.2893 4.25483 46.2451C4.25483 48.301 5.94632 50 8.00234 50V52.5024C8.00234 54.5583 9.69149 56.2476 11.7474 56.2476H21.7497C23.8056 56.2476 25.4997 54.5583 25.4997 52.5024V50C25.4997 48.3831 24.4514 46.9874 23.0046 46.4648V41.2427H23.6223C26.0245 41.2427 27.9996 39.2746 27.9996 36.8726C27.9996 34.7357 26.4368 32.9389 24.4011 32.5684C25.2618 30.2107 26.4095 27.9482 27.5382 26.0303C29.3924 23.6873 30.4996 20.7262 30.4996 17.5049V7.28516C31.9502 6.76463 32.9996 5.36477 32.9996 3.74512C32.9996 1.6893 31.3104 0 29.2545 0H4.25483ZM69.254 3.74512C68.5589 3.74245 67.9951 4.30736 67.9991 5.00244H66.754C60.0518 5.00244 54.3153 9.85407 53.1995 16.4624C53.1407 16.8107 53.0969 17.158 53.0652 17.5049H39.7646L41.3881 15.8813C41.8729 15.3938 41.8729 14.6062 41.3881 14.1187C41.1539 13.8818 40.835 13.7483 40.5019 13.7476C40.1689 13.7483 39.8499 13.8818 39.6157 14.1187L35.8706 17.8638C35.3794 18.3525 35.3794 19.1475 35.8706 19.6362L39.6157 23.3813C40.1044 23.8726 40.8994 23.8726 41.3881 23.3813C41.8729 22.8938 41.8729 22.1062 41.3881 21.6187L39.7646 19.9951H53.0652C53.5458 25.2626 57.052 29.9392 62.2424 31.7432C63.316 32.1163 64.4083 32.3466 65.4991 32.4463V38.7451C65.4991 39.4592 64.9682 39.9976 64.254 39.9976H56.6785C56.6214 39.6169 56.5219 39.2834 56.3538 38.9624C56.0378 38.3594 55.424 38.0077 55.1038 37.8735C54.7836 37.7394 54.6842 37.7058 54.5496 37.5928C54.4151 37.4798 54.2041 37.2494 53.9344 36.6138C53.6647 35.9781 53.6438 35.6611 53.656 35.4858C53.6683 35.3106 53.7107 35.2185 53.8367 34.895C53.9628 34.5716 54.1387 33.8811 53.9246 33.2349C53.7105 32.5887 53.2971 32.0909 52.6429 31.4478C51.9887 30.8046 51.4714 30.3959 50.8216 30.1929C50.1718 29.9899 49.4852 30.1687 49.1639 30.3003C48.8427 30.4319 48.7652 30.478 48.5902 30.4932C48.4152 30.5084 48.0976 30.4957 47.4574 30.2368C46.8172 29.978 46.5717 29.7664 46.4564 29.6338C46.3412 29.5012 46.3128 29.4072 46.1732 29.0894C46.0337 28.7715 45.6707 28.1669 45.0624 27.8613C44.4541 27.5558 43.8021 27.4873 42.8847 27.4951C41.9673 27.503 41.3174 27.5747 40.7143 27.8906C40.1113 28.2065 39.7571 28.8326 39.623 29.1528C39.4889 29.473 39.4553 29.5603 39.3423 29.6948C39.2293 29.8293 39.0014 30.0428 38.3657 30.3125C37.73 30.5822 37.4106 30.6006 37.2354 30.5884C37.0601 30.5761 36.968 30.5362 36.6445 30.4102C36.3211 30.2841 35.6331 30.1082 34.9869 30.3223C34.3406 30.5364 33.8405 30.9596 33.1973 31.6138C32.5542 32.268 32.1479 32.7755 31.9449 33.4253C31.7419 34.0751 31.9207 34.7618 32.0523 35.083C32.1839 35.4043 32.2275 35.4915 32.2427 35.6665C32.258 35.8415 32.2452 36.1591 31.9864 36.7993C31.7276 37.4395 31.5184 37.6753 31.3858 37.7905C31.2533 37.9058 31.1593 37.9341 30.8414 38.0737C30.5235 38.2133 29.9165 38.5836 29.6109 39.1919C29.3054 39.8002 29.2393 40.4426 29.2472 41.3599C29.2551 42.2772 29.3498 42.9205 29.6525 43.5303C29.9944 44.2193 30.5822 44.4948 30.9024 44.6289C31.2227 44.763 31.3123 44.7869 31.4469 44.8999C31.5814 45.0129 31.8022 45.253 32.0718 45.8887C32.3416 46.5244 32.3502 46.8414 32.338 47.0166C32.3257 47.1919 32.2858 47.2742 32.1597 47.5977C32.0336 47.9211 31.8398 48.5766 32.0719 49.2554C32.292 49.8995 32.7091 50.414 33.3633 51.0571C34.0176 51.7002 34.5243 52.109 35.1748 52.3096C35.9204 52.5394 36.5113 52.3238 36.8325 52.1924C37.1538 52.0608 37.241 52.0172 37.416 52.002C37.591 51.9869 37.9086 51.9972 38.5488 52.2559C39.189 52.5147 39.4247 52.7263 39.54 52.8589C39.6553 52.9915 39.6837 53.0854 39.8232 53.4033C39.9628 53.7212 40.2563 54.3088 40.9414 54.6436C41.1972 54.7686 41.4603 54.8553 41.747 54.9097V59.9927C41.747 62.0485 43.4386 63.75 45.4945 63.75H53.5486C53.1779 64.9308 52.9773 66.1844 52.9773 67.4854C52.9773 67.9122 53.0014 68.334 53.0433 68.75H30.2848C29.7666 67.2995 28.3743 66.25 26.7448 66.25C23.1041 66.2944 22.027 66.2599 19.2498 66.25V62.8906C19.2498 62.0101 19.0746 61.0407 18.4758 60.1977C17.8771 59.3548 16.776 58.7476 15.5047 58.7476C14.3864 58.7476 13.516 59.4021 12.9022 60.105C11.939 61.1806 11.1474 62.9806 10.3632 64.5239C10.2163 64.7906 10.0802 65.0046 10.0043 65.0976L7.91689 65.7934C7.72988 65.311 7.26496 64.9935 6.74748 64.9951H1.7744C1.08021 64.9924 0.516819 65.5558 0.519531 66.25V78.7427C0.515454 79.4378 1.07925 80.0027 1.7744 80H6.74748C7.20633 80.0012 7.62895 79.751 7.84854 79.3481C8.6457 79.6653 9.52286 79.9976 10.5023 79.9976H18.0047C21.4449 79.9976 24.2521 77.1927 24.2521 73.7524H26.7545C28.3708 73.7524 29.7615 72.7005 30.2823 71.2524H53.5584C55.1618 76.3149 59.9055 80 65.4894 80C72.3851 80 78.0039 74.3807 78.0039 67.4854C78.0039 65.0502 77.3022 62.7771 76.0923 60.852L77.4863 59.7656L78.2529 60.7495C78.6764 61.3009 79.4684 61.4007 80.0156 60.9717C80.5638 60.5452 80.6592 59.7535 80.228 59.209C79.203 57.8944 78.1817 56.5828 77.1567 55.2686C76.6258 54.6386 75.8693 54.7025 75.4014 55.0488C74.857 55.4725 74.7587 56.2569 75.1816 56.8018L75.9531 57.793L74.5615 58.877C73.119 57.3584 71.2971 56.2008 69.254 55.5542V52.5025H70.4991C71.1952 52.5066 71.7605 51.9412 71.7564 51.2451C71.7536 50.5538 71.1904 49.996 70.4991 50H60.5065C59.8162 49.9974 59.2544 50.5548 59.2517 51.2451C59.2475 51.9402 59.8114 52.5052 60.5065 52.5025H61.7541V55.5444C58.7346 56.4918 56.2038 58.5562 54.6472 61.25H45.4945C44.7804 61.25 44.2494 60.7068 44.2494 59.9927V54.9268C44.6331 54.8698 44.9713 54.7713 45.2943 54.6021C45.8974 54.2861 46.2204 53.7481 46.3807 53.3521C46.5111 53.0303 46.5412 52.9324 46.6542 52.7979C46.7672 52.6634 47.0048 52.4523 47.6405 52.1826C48.2762 51.913 48.5956 51.8921 48.7709 51.9043C48.9461 51.9166 49.0284 51.9565 49.3519 52.0825C49.6754 52.2086 50.3634 52.3845 51.0096 52.1704C51.6558 51.9563 52.1657 51.5453 52.8089 50.8911C53.452 50.2369 53.8607 49.7196 54.0638 49.0698C54.2668 48.42 54.0756 47.7309 53.9441 47.4096C53.8126 47.0884 53.7689 47.0109 53.7537 46.8359C53.7386 46.6609 53.7512 46.3335 54.01 45.6933C54.2688 45.0531 54.478 44.8174 54.6106 44.7021C54.7432 44.5869 54.8371 44.5585 55.155 44.4189C55.4729 44.2794 56.0897 43.9188 56.3953 43.3105C56.5242 43.0538 56.6095 42.7896 56.6638 42.5H64.254C66.3099 42.5 67.9991 40.8009 67.9991 38.7451V32.4463C72.4355 32.0378 76.55 29.4802 78.8071 25.3662C81.9848 19.5741 80.5806 12.3288 75.5039 8.14209V5.00244C75.5079 4.30736 74.9417 3.74246 74.2466 3.74512H69.254ZM5.50238 7.50244H27.9996V17.5049C27.9996 23.7588 23.004 28.7524 16.7498 28.7524C10.4955 28.7524 5.50238 23.7588 5.50238 17.5049V7.50244ZM66.754 7.50244H67.9991V11.2476H64.254C63.5599 11.2449 62.9965 11.8083 62.9992 12.5024V16.25H59.2517C58.5575 16.2474 57.9942 16.8108 57.9968 17.5049V21.25H55.7849C55.4663 19.8494 55.4109 18.3696 55.6628 16.8774C56.5783 11.4554 61.2549 7.50244 66.754 7.50244ZM75.5039 11.6748C77.6837 14.3609 78.4932 17.9005 77.7255 21.25H75.5039V11.6748ZM56.676 23.7524H76.832C73.8722 29.558 67.5929 30.9897 63.0627 29.3799C60.1866 28.3803 57.9478 26.3156 56.676 23.7524ZM22.7727 29.8657C22.4073 30.7193 22.0705 31.601 21.7693 32.4976H21.1223C18.7201 32.4976 16.7498 34.4705 16.7498 36.8726C16.7498 39.0647 18.3917 40.895 20.5046 41.1987V46.2451H14.2474C14.2474 45.2887 13.8838 44.4099 13.2855 43.7451C13.8829 43.0784 14.2474 42.1983 14.2474 41.2427C14.2474 40.2872 13.8828 39.4146 13.2855 38.75C13.8828 38.0854 14.2474 37.2103 14.2474 36.2549C14.2474 34.6608 13.2309 33.2811 11.8158 32.7417C11.4948 31.7604 11.126 30.7993 10.7269 29.8682C12.5456 30.7553 14.5893 31.2524 16.7498 31.2524C18.9107 31.2524 20.9537 30.7531 22.7727 29.8657ZM42.9018 29.9951C43.4471 29.9905 43.7556 30.0491 43.8808 30.0879C43.9691 30.2904 44.145 30.7943 44.5668 31.2793C44.9886 31.7643 45.6193 32.1916 46.515 32.5537C47.4108 32.9158 48.1622 33.0464 48.8026 32.9907C49.443 32.9351 49.9188 32.6921 50.1234 32.6074C50.2337 32.6634 50.4915 32.8358 50.8851 33.2227C51.2805 33.6114 51.4589 33.8726 51.5174 33.9844C51.436 34.1903 51.2081 34.6664 51.1634 35.3076C51.1185 35.9488 51.2524 36.6985 51.6297 37.5879C52.007 38.4773 52.451 39.0983 52.9432 39.5117C53.4353 39.9251 54.1663 40.1953 54.1663 40.1953C54.1663 40.1953 54.2447 40.6054 54.2493 41.1475C54.2539 41.6897 54.2035 41.9981 54.1638 42.1265C53.9577 42.2161 53.4599 42.3932 52.9749 42.8149C52.4898 43.2367 52.0528 43.8675 51.6907 44.7632C51.3286 45.6589 51.2078 46.4105 51.2635 47.0508C51.3191 47.6911 51.5548 48.1646 51.6346 48.3594C51.6242 48.3778 51.5135 48.6307 51.0218 49.1309C50.5301 49.631 50.2783 49.7497 50.2601 49.7607C50.0639 49.6843 49.5879 49.4563 48.9466 49.4116C48.3054 49.3667 47.5485 49.4981 46.6591 49.8755C45.7696 50.2528 45.1585 50.6993 44.745 51.1914C44.3316 51.6836 44.1623 52.1862 44.0761 52.3926C43.9504 52.4332 43.6415 52.4905 43.0947 52.4951C42.5552 52.4997 42.2545 52.4516 42.1279 52.4121C42.0384 52.2059 41.849 51.7081 41.4272 51.2231C41.0054 50.7381 40.3869 50.301 39.4912 49.9389C38.5955 49.5769 37.8415 49.456 37.2012 49.5117C36.5608 49.5674 36.0777 49.8006 35.8828 49.8804C35.8645 49.87 35.6115 49.7617 35.1114 49.27C34.7308 48.8959 34.5534 48.6412 34.4888 48.5205C34.5702 48.3134 34.7981 47.8262 34.8428 47.1851C34.8876 46.5438 34.7441 45.7942 34.3667 44.9048C33.9894 44.0154 33.543 43.4066 33.0508 42.9932C32.5587 42.5797 32.0585 42.3982 31.8643 42.3169C31.8586 42.2956 31.7531 42.0431 31.7472 41.3428C31.7424 40.7883 31.8009 40.4816 31.8375 40.3638C32.0388 40.2755 32.5463 40.0995 33.0313 39.6777C33.5164 39.256 33.9436 38.6252 34.3057 37.7295C34.6678 36.8338 34.796 36.092 34.7403 35.4517C34.6846 34.8113 34.4527 34.3269 34.3668 34.1186C34.4281 33.9938 34.6026 33.7378 34.9747 33.3594C35.3512 32.9763 35.6059 32.798 35.729 32.7368C35.9398 32.8206 36.4184 33.0363 37.0596 33.081C37.7008 33.1258 38.448 32.9921 39.3374 32.6147C40.2268 32.2374 40.8478 31.7934 41.2612 31.3013C41.6746 30.8091 41.8464 30.3089 41.9326 30.1025C42.0588 30.0609 42.3626 29.9951 42.9018 29.9951ZM9.18153 35C9.61565 34.9998 10.0634 35 10.5023 35C11.2163 35 11.7474 35.5409 11.7474 36.2549C11.7474 36.9689 11.2163 37.5 10.5023 37.5H9.24744C8.53341 37.5 8.00234 36.9689 8.00234 36.2549C8.00234 35.5632 8.50118 35.0324 9.18153 35ZM21.1223 35H23.6223C24.6827 35 25.4997 35.8122 25.4997 36.8726C25.4997 37.9329 24.6827 38.7451 23.6223 38.7451H21.1223C20.0619 38.7451 19.2498 37.9329 19.2498 36.8726C19.2498 35.8122 20.0619 35 21.1223 35ZM42.9994 36.2549C40.2144 36.2549 37.9922 38.539 37.9922 41.2427C37.9922 43.9892 40.2477 46.2451 42.9946 46.2451C45.7414 46.2451 47.9945 44.0344 47.9945 41.2427C47.9945 38.4961 45.811 36.2549 42.9994 36.2549ZM8.00234 39.9976H10.5023C11.2164 39.9976 11.7474 40.5286 11.7474 41.2427C11.7474 41.9568 11.2164 42.5 10.5023 42.5H8.00234C7.28821 42.5 6.74748 41.9568 6.74748 41.2427C6.74748 40.5286 7.28821 39.9976 8.00234 39.9976ZM7.97059 45H10.5023C11.2165 45 11.7474 45.5309 11.7474 46.2451C11.7474 46.9593 11.2165 47.5 10.5023 47.5H8.00234C7.28811 47.5 6.74748 46.9271 6.74748 46.2451C6.74748 45.5532 7.29298 45.0302 7.97059 45ZM13.2855 48.7451H21.7497C22.4638 48.7451 23.0046 49.2859 23.0046 50V52.5024C23.0046 53.2165 22.4639 53.7476 21.7497 53.7476H11.7474C11.0333 53.7476 10.5023 53.2165 10.5023 52.5024V50C11.6026 50 12.5976 49.5127 13.2855 48.7451ZM65.4894 57.4756C71.034 57.4756 75.5039 61.941 75.5039 67.4854C75.5039 73.0297 71.034 77.4975 65.4894 77.4976C59.9448 77.4976 55.4773 73.0297 55.4773 67.4854C55.4773 61.941 59.9448 57.4756 65.4894 57.4756ZM65.4894 59.9756C62.454 59.9756 59.7126 61.8028 58.551 64.6069C57.3894 67.4111 58.0282 70.6541 60.1745 72.8003C62.3208 74.9465 65.5635 75.5878 68.3678 74.4263C71.172 73.2648 73.0015 70.5205 73.0015 67.4854C73.0041 66.795 72.4467 66.2332 71.7564 66.2305H66.7442V61.2207C66.7415 60.5304 66.1797 59.9729 65.4894 59.9756ZM15.5047 61.2476C16.106 61.2476 16.2529 61.3894 16.4349 61.6455C16.6168 61.9016 16.7498 62.3861 16.7498 62.8906V67.4951C16.7472 68.1892 17.3105 68.7526 18.0047 68.75C22.1625 68.75 22.5228 68.8013 26.7545 68.75C27.4687 68.75 27.9996 69.281 27.9996 69.9951C27.9996 70.7092 27.4687 71.25 26.7545 71.25H23.0046C22.3133 71.2474 21.7511 71.8063 21.7497 72.4975V73.7524C21.7497 75.8519 20.1026 77.4975 18.0047 77.4975H10.5023C9.51914 77.3622 8.81335 77.0325 8.00234 76.7017V68.4009L10.8295 67.4536C11.4002 67.2924 11.7045 66.9664 11.9427 66.6748C12.1832 66.3804 12.3661 66.0674 12.5506 65.7324C13.2119 64.5173 13.9755 62.699 14.7845 61.748C15.1485 61.3312 15.3705 61.2476 15.5047 61.2476Z" fill="black"/>
<path d="M15.6145 10.7222C15.8206 10.2817 16.2634 10.0008 16.7497 10.002C17.236 10.0008 17.6789 10.2817 17.885 10.7222L19.4987 14.2085L23.1901 14.7627C24.2057 14.9178 24.611 16.1638 23.881 16.8867L21.1589 19.5991L21.8156 23.52C21.9843 24.5537 20.8833 25.3242 19.9699 24.8115L16.7497 23.0122L13.4637 24.8384C12.547 25.3544 11.4417 24.5766 11.618 23.5396L12.2747 19.6724L9.59896 16.9136C8.87938 16.1815 9.30012 14.9421 10.3167 14.7993L13.9617 14.2647L15.6145 10.7222Z" fill="#FFBA50"/>
</g>
<defs>
<clipPath id="clip0_894_264">
<rect width="80" height="80" fill="white" transform="translate(0.5)"/>
</clipPath>
</defs>
</svg>
