<svg width="80" height="80" viewBox="0 0 80 80" fill="none" xmlns="http://www.w3.org/2000/svg">
<g clip-path="url(#clip0_894_239)">
<path d="M41.5293 67.1475C42.0703 67.1475 42.5088 66.709 42.5088 66.168C42.5088 65.627 42.0703 65.1885 41.5293 65.1885C40.9884 65.1885 40.5498 65.627 40.5498 66.168C40.5498 66.709 40.9884 67.1475 41.5293 67.1475Z" fill="black"/>
<path d="M46.4878 65.1885C46.2949 65.1885 46.1062 65.2457 45.9458 65.3529C45.7854 65.4601 45.6603 65.6125 45.5865 65.7907C45.5126 65.969 45.4933 66.1652 45.531 66.3544C45.5686 66.5437 45.6615 66.7175 45.798 66.854C45.9344 66.9904 46.1082 67.0833 46.2975 67.121C46.4867 67.1586 46.6829 67.1393 46.8612 67.0654C47.0394 66.9916 47.1918 66.8666 47.299 66.7061C47.4062 66.5457 47.4634 66.357 47.4634 66.1641C47.4634 65.9053 47.3606 65.6572 47.1777 65.4742C46.9947 65.2913 46.7466 65.1885 46.4878 65.1885Z" fill="black"/>
<path d="M51.354 67.1475C51.895 67.1475 52.3335 66.709 52.3335 66.168C52.3335 65.627 51.895 65.1885 51.354 65.1885C50.8131 65.1885 50.3745 65.627 50.3745 66.168C50.3745 66.709 50.8131 67.1475 51.354 67.1475Z" fill="black"/>
<path d="M30.9894 59.3009C29.801 59.3033 28.6338 59.6147 27.602 60.2043V53.375C27.602 53.1163 27.4993 52.8681 27.3163 52.6852C27.1333 52.5022 26.8852 52.3994 26.6264 52.3994H17.8049C17.6089 52.3996 17.4174 52.4589 17.2555 52.5696C17.0936 52.6803 16.9688 52.8371 16.8974 53.0198C16.826 53.2024 16.8113 53.4023 16.8552 53.5934C16.8991 53.7845 16.9995 53.958 17.1435 54.0911C17.6505 54.5504 18.0557 55.1108 18.333 55.7362C18.6103 56.3617 18.7534 57.0382 18.7532 57.7224C18.7532 59.0358 18.2315 60.2954 17.3028 61.2241C16.374 62.1528 15.1144 62.6746 13.801 62.6746C12.4876 62.6746 11.228 62.1528 10.2993 61.2241C9.37056 60.2954 8.84881 59.0358 8.84881 57.7224C8.84863 57.0382 8.99179 56.3617 9.26904 55.7362C9.5463 55.1108 9.95152 54.5504 10.4586 54.0911C10.6025 53.958 10.703 53.7845 10.7469 53.5934C10.7907 53.4023 10.776 53.2024 10.7046 53.0198C10.6332 52.8371 10.5084 52.6803 10.3465 52.5696C10.1847 52.4589 9.9932 52.3996 9.79711 52.3994H0.975613C0.716865 52.3994 0.468714 52.5022 0.285751 52.6852C0.102788 52.8681 0 53.1163 0 53.375V75.1214C0 76.4152 0.513938 77.6559 1.42875 78.5708C2.34357 79.4856 3.58432 79.9995 4.87807 79.9995H26.6264C26.8852 79.9995 27.1333 79.8967 27.3163 79.7138C27.4993 79.5308 27.602 79.2826 27.602 79.0239V72.1946C28.521 72.7136 29.5469 73.0149 30.6006 73.0751C31.6544 73.1353 32.7079 72.9529 33.68 72.5419C34.6521 72.1309 35.517 71.5023 36.208 70.7045C36.899 69.9067 37.3977 68.961 37.6657 67.9401C37.9336 66.9192 37.9638 65.8505 37.7538 64.8162C37.5437 63.7818 37.0991 62.8095 36.4542 61.974C35.8093 61.1385 34.9812 60.4622 34.0338 59.997C33.0864 59.5319 32.0448 59.2904 30.9894 59.2911V59.3009Z" fill="black"/>
<path d="M30.9893 71.1575C30.3023 71.1577 29.6229 71.013 28.9956 70.7329C28.3682 70.4529 27.8069 70.0437 27.3483 69.5321C27.2148 69.3882 27.0413 69.2874 26.8501 69.2425C26.659 69.1977 26.4588 69.2109 26.2752 69.2804C26.0915 69.3513 25.9336 69.476 25.8221 69.6383C25.7107 69.8006 25.651 69.9928 25.6508 70.1897V78.0492H4.87801C4.10177 78.0492 3.35731 77.7409 2.80842 77.192C2.25953 76.6431 1.95117 75.8986 1.95117 75.1224V54.3555H7.78339C7.19903 55.3829 6.89364 56.5452 6.89753 57.7272C6.89753 59.5581 7.62486 61.314 8.9195 62.6087C10.2141 63.9033 11.9701 64.6306 13.801 64.6306C15.6319 64.6306 17.3878 63.9033 18.6824 62.6087C19.9771 61.314 20.7044 59.5581 20.7044 57.7272C20.7083 56.5452 20.4029 55.3829 19.8186 54.3555H25.6508V62.2189C25.6506 62.4161 25.7101 62.6087 25.8216 62.7714C25.933 62.9341 26.0912 63.0591 26.2752 63.1301C26.4588 63.1996 26.659 63.2128 26.8501 63.168C27.0413 63.1232 27.2148 63.0223 27.3483 62.8784C27.8069 62.3668 28.3682 61.9577 28.9956 61.6776C29.6229 61.3975 30.3023 61.2529 30.9893 61.2531C31.6397 61.2531 32.2836 61.3811 32.8845 61.63C33.4853 61.8789 34.0312 62.2437 34.4911 62.7035C34.9509 63.1634 35.3157 63.7093 35.5646 64.3101C35.8134 64.911 35.9415 65.5549 35.9415 66.2053C35.9415 66.8556 35.8134 67.4996 35.5646 68.1004C35.3157 68.7012 34.9509 69.2472 34.4911 69.707C34.0312 70.1669 33.4853 70.5316 32.8845 70.7805C32.2836 71.0294 31.6397 71.1575 30.9893 71.1575Z" fill="#FF9696"/>
<path d="M79.0244 52.4031H72.2068C72.7969 51.3719 73.1057 50.2038 73.1024 49.0157C73.1024 47.1848 72.3751 45.4289 71.0804 44.1343C69.7858 42.8396 68.0299 42.1123 66.199 42.1123C64.3681 42.1123 62.6121 42.8396 61.3175 44.1343C60.0229 45.4289 59.2955 47.1848 59.2955 49.0157C59.2922 50.2038 59.6011 51.3719 60.1911 52.4031H53.3736C53.1148 52.4031 52.8667 52.5059 52.6837 52.6888C52.5007 52.8718 52.3979 53.1199 52.3979 53.3787V62.2002C52.3982 62.3963 52.4575 62.5877 52.5681 62.7496C52.6788 62.9115 52.8357 63.0363 53.0183 63.1077C53.2009 63.1791 53.4008 63.1938 53.5919 63.1499C53.783 63.106 53.9565 63.0056 54.0897 62.8616C54.5486 62.3547 55.1087 61.9496 55.7338 61.6723C56.3589 61.3951 57.0351 61.2519 57.7189 61.2519C59.0324 61.2519 60.292 61.7736 61.2207 62.7024C62.1494 63.6311 62.6712 64.8907 62.6712 66.2041C62.6712 67.5175 62.1494 68.7771 61.2207 69.7058C60.292 70.6346 59.0324 71.1563 57.7189 71.1563C57.0351 71.1563 56.3589 71.0131 55.7338 70.7358C55.1087 70.4586 54.5486 70.0535 54.0897 69.5466C53.9565 69.4026 53.783 69.3022 53.5919 69.2583C53.4008 69.2144 53.2009 69.2291 53.0183 69.3005C52.8357 69.3719 52.6788 69.4967 52.5681 69.6586C52.4575 69.8205 52.3982 70.0119 52.3979 70.208V79.0237C52.3979 79.2824 52.5007 79.5306 52.6837 79.7135C52.8667 79.8965 53.1148 79.9993 53.3736 79.9993H75.1219C76.4157 79.9993 77.6564 79.4853 78.5712 78.5705C79.4861 77.6557 80 76.4149 80 75.1212V53.3787C80 53.1199 79.8972 52.8718 79.7142 52.6888C79.5313 52.5059 79.2831 52.4031 79.0244 52.4031Z" fill="black"/>
<path d="M78.0492 75.1221C78.0492 75.8984 77.7408 76.6428 77.192 77.1917C76.6431 77.7406 75.8986 78.049 75.1224 78.049H54.3496V72.2148C55.3762 72.7995 56.5379 73.1056 57.7194 73.1026C58.626 73.1026 59.5236 72.924 60.3612 72.5771C61.1988 72.2302 61.9598 71.7217 62.6008 71.0806C63.2419 70.4396 63.7504 69.6786 64.0973 68.841C64.4443 68.0034 64.6228 67.1057 64.6228 66.1992C64.6228 65.2926 64.4443 64.3949 64.0973 63.5573C63.7504 62.7198 63.2419 61.9587 62.6008 61.3177C61.9598 60.6766 61.1988 60.1681 60.3612 59.8212C59.5236 59.4743 58.626 59.2957 57.7194 59.2957C56.5382 59.2931 55.3768 59.5984 54.3496 60.1816V54.3552H62.213C62.4098 54.3555 62.6021 54.2962 62.7645 54.1852C62.927 54.0742 63.0522 53.9167 63.1235 53.7333C63.1948 53.5499 63.209 53.3492 63.1642 53.1576C63.1195 52.966 63.0178 52.7924 62.8726 52.6596C62.3609 52.2007 61.9517 51.639 61.6717 51.0113C61.3916 50.3837 61.247 49.704 61.2472 49.0167C61.2472 47.7033 61.7689 46.4436 62.6977 45.5149C63.6264 44.5862 64.886 44.0645 66.1994 44.0645C67.5128 44.0645 68.7724 44.5862 69.7012 45.5149C70.6299 46.4436 71.1516 47.7033 71.1516 49.0167C71.1518 49.704 71.0072 50.3837 70.7271 51.0113C70.4471 51.639 70.0379 52.2007 69.5262 52.6596C69.3812 52.7923 69.2795 52.9657 69.2347 53.1571C69.1898 53.3485 69.2039 53.5491 69.275 53.7324C69.3461 53.9157 69.4709 54.0732 69.6331 54.1844C69.7952 54.2955 69.9872 54.3551 70.1838 54.3552H78.0492V75.1221Z" fill="#DD0000"/>
<path d="M47.6267 37.5647C47.7012 35.8008 48.4286 34.1275 49.6677 32.87C50.9223 31.5454 51.8908 29.9769 52.5131 28.2619C53.1355 26.547 53.3982 24.7223 53.2851 22.9015C53.172 21.0806 52.6855 19.3025 51.8557 17.6778C51.0259 16.053 49.8707 14.6164 48.4619 13.4573C46.9296 12.1992 45.1369 11.2975 43.2133 10.8173C41.2898 10.3371 39.2836 10.2904 37.3399 10.6807C35.014 11.154 32.8571 12.2409 31.0928 13.8287C29.3285 15.4165 28.0211 17.4473 27.3061 19.7106C26.591 21.9739 26.4945 24.3873 27.0264 26.7005C27.5583 29.0136 28.6993 31.1424 30.3311 32.8661C31.5708 34.1252 32.2994 35.7994 32.376 37.5647C31.7825 37.6336 31.2347 37.917 30.8355 38.3614C30.4363 38.8059 30.2132 39.3809 30.2081 39.9783V41.791C30.2092 42.4479 30.4706 43.0776 30.9351 43.5421C31.3996 44.0066 32.0293 44.268 32.6862 44.2691H32.8813C33.0376 46.0523 33.8564 47.7122 35.1762 48.9214C36.496 50.1307 38.2211 50.8014 40.0111 50.8014C41.8011 50.8014 43.5262 50.1307 44.846 48.9214C46.1659 47.7122 46.9846 46.0523 47.1409 44.2691H47.336C47.9929 44.268 48.6226 44.0066 49.0871 43.5421C49.5516 43.0776 49.813 42.4479 49.8141 41.791V39.9783C49.8085 39.3779 49.5826 38.8004 49.1794 38.3555C48.7762 37.9106 48.2237 37.6292 47.6267 37.5647Z" fill="black"/>
<path d="M28.8195 21.6797C29.2153 19.4469 30.2755 17.3853 31.8615 15.7645C33.4475 14.1437 35.4855 13.039 37.7093 12.5948C39.3709 12.2616 41.0857 12.301 42.7302 12.7103C44.3747 13.1196 45.908 13.8885 47.2196 14.9617C48.422 15.9506 49.4081 17.1765 50.1164 18.5629C50.8247 19.9493 51.2401 21.4667 51.3367 23.0206C51.4334 24.5745 51.2092 26.1316 50.6781 27.5952C50.147 29.0587 49.3205 30.3973 48.2498 31.5276C46.6834 33.1317 45.7677 35.2599 45.6801 37.5003H43.6449V29.0534H44.3532C45.0603 29.0545 45.7389 28.7747 46.2398 28.2756C46.7407 27.7766 47.0229 27.099 47.0245 26.3919V26.1461C47.0245 25.4402 46.7441 24.7633 46.2449 24.2642C45.7458 23.765 45.0689 23.4846 44.363 23.4846C43.6571 23.4846 42.9802 23.765 42.4811 24.2642C41.9819 24.7633 41.7015 25.4402 41.7015 26.1461V27.1041H38.3064V26.1461C38.3064 25.4402 38.026 24.7633 37.5269 24.2642C37.0277 23.765 36.3508 23.4846 35.6449 23.4846C34.939 23.4846 34.2621 23.765 33.763 24.2642C33.2638 24.7633 32.9834 25.4402 32.9834 26.1461V26.3939C32.985 27.0996 33.2662 27.776 33.7654 28.2748C34.2646 28.7737 34.9411 29.0543 35.6469 29.0554H36.3552V37.5022H34.3181C34.2292 35.2606 33.313 33.1314 31.7464 31.5256C30.5173 30.2311 29.6116 28.6645 29.1029 26.9535C28.5943 25.2424 28.4972 23.4354 28.8195 21.6797Z" fill="#FFBA50"/>
<path d="M36.3546 27.1019H35.6463C35.5528 27.1022 35.4603 27.084 35.3739 27.0484C35.2875 27.0128 35.209 26.9605 35.1428 26.8946C35.0766 26.8286 35.0241 26.7502 34.9883 26.6639C34.9525 26.5776 34.9341 26.4851 34.9341 26.3916V26.1458C34.9341 25.9574 35.0089 25.7768 35.1421 25.6436C35.2753 25.5104 35.456 25.4355 35.6443 25.4355C35.8327 25.4355 36.0134 25.5104 36.1465 25.6436C36.2797 25.7768 36.3546 25.9574 36.3546 26.1458V27.1019Z" fill="#FFBA50"/>
<path d="M41.694 29.0547H38.3066V37.5035H41.694V29.0547Z" fill="#FFBA50"/>
<path d="M43.645 27.1019V26.1458C43.645 25.9574 43.7198 25.7768 43.853 25.6436C43.9862 25.5104 44.1669 25.4355 44.3553 25.4355C44.5436 25.4355 44.7243 25.5104 44.8575 25.6436C44.9907 25.7768 45.0655 25.9574 45.0655 26.1458V26.3936C45.0655 26.487 45.0471 26.5796 45.0113 26.6659C44.9754 26.7522 44.923 26.8305 44.8568 26.8965C44.7906 26.9625 44.7121 27.0148 44.6257 27.0503C44.5393 27.0859 44.4468 27.1041 44.3533 27.1038L43.645 27.1019Z" fill="#FFBA50"/>
<path d="M39.9994 48.853C38.7265 48.8491 37.4987 48.3816 36.5455 47.538C35.5924 46.6944 34.9792 45.5325 34.8208 44.2695H45.1779C45.0195 45.5325 44.4063 46.6944 43.4532 47.538C42.5 48.3816 41.2722 48.8491 39.9994 48.853Z" fill="#8D7F89"/>
<path d="M47.3148 39.4521H32.6826C32.3916 39.4521 32.1558 39.688 32.1558 39.979V41.7897C32.1558 42.0807 32.3916 42.3165 32.6826 42.3165H47.3148C47.6058 42.3165 47.8417 42.0807 47.8417 41.7897V39.979C47.8417 39.688 47.6058 39.4521 47.3148 39.4521Z" fill="#8D7F89"/>
<path d="M40 8.82149C40.2588 8.82149 40.5069 8.71871 40.6899 8.53574C40.8729 8.35278 40.9756 8.10463 40.9756 7.84588V0.975613C40.9756 0.716864 40.8729 0.468714 40.6899 0.285751C40.5069 0.102788 40.2588 0 40 0C39.7413 0 39.4931 0.102788 39.3102 0.285751C39.1272 0.468714 39.0244 0.716864 39.0244 0.975613V7.84588C39.0244 8.10463 39.1272 8.35278 39.3102 8.53574C39.4931 8.71871 39.7413 8.82149 40 8.82149Z" fill="black"/>
<path d="M55.6309 24.4532C55.6309 24.7119 55.7336 24.9601 55.9166 25.143C56.0996 25.326 56.3477 25.4288 56.6065 25.4288H63.4826C63.7413 25.4288 63.9895 25.326 64.1725 25.143C64.3554 24.9601 64.4582 24.7119 64.4582 24.4532C64.4582 24.1944 64.3554 23.9463 64.1725 23.7633C63.9895 23.5803 63.7413 23.4775 63.4826 23.4775H56.6065C56.3477 23.4775 56.0996 23.5803 55.9166 23.7633C55.7336 23.9463 55.6309 24.1944 55.6309 24.4532Z" fill="black"/>
<path d="M16.5171 25.4288H23.3932C23.652 25.4288 23.9001 25.326 24.0831 25.143C24.2661 24.9601 24.3689 24.7119 24.3689 24.4532C24.3689 24.1944 24.2661 23.9463 24.0831 23.7633C23.9001 23.5803 23.652 23.4775 23.3932 23.4775H16.5171C16.2584 23.4775 16.0102 23.5803 15.8273 23.7633C15.6443 23.9463 15.5415 24.1944 15.5415 24.4532C15.5415 24.7119 15.6443 24.9601 15.8273 25.143C16.0102 25.326 16.2584 25.4288 16.5171 25.4288Z" fill="black"/>
<path d="M30.8525 10.5577C30.9819 10.7812 31.1946 10.9443 31.4441 11.0113C31.6936 11.0782 31.9594 11.0435 32.1833 10.9147C32.4074 10.7854 32.5709 10.5723 32.6378 10.3223C32.7048 10.0724 32.6697 9.80613 32.5404 9.58205L29.1023 3.62691C29.0413 3.51032 28.9574 3.40727 28.8555 3.32396C28.7537 3.24065 28.636 3.17881 28.5096 3.14215C28.3833 3.10549 28.2508 3.09477 28.1202 3.11063C27.9896 3.1265 27.8635 3.16863 27.7496 3.23447C27.6357 3.30032 27.5362 3.38853 27.4573 3.4938C27.3784 3.59907 27.3215 3.71922 27.2902 3.84702C27.2589 3.97482 27.2538 4.10763 27.2751 4.23747C27.2965 4.36731 27.3439 4.49148 27.4145 4.60252L30.8525 10.5577Z" fill="black"/>
<path d="M54.3823 17.125C54.5536 17.125 54.7218 17.0799 54.8701 16.9942L60.8253 13.5562C60.9363 13.4921 61.0337 13.4068 61.1118 13.3051C61.1899 13.2034 61.2472 13.0873 61.2805 12.9635C61.3137 12.8397 61.3223 12.7105 61.3056 12.5833C61.2889 12.4562 61.2474 12.3336 61.1833 12.2225C61.1192 12.1114 61.0339 12.0141 60.9322 11.936C60.8306 11.8578 60.7145 11.8005 60.5906 11.7673C60.4668 11.734 60.3376 11.7255 60.2105 11.7422C60.0833 11.7589 59.9607 11.8004 59.8496 11.8645L53.8945 15.3045C53.7085 15.4119 53.5632 15.5776 53.481 15.776C53.3988 15.9744 53.3844 16.1944 53.44 16.4019C53.4956 16.6093 53.618 16.7926 53.7884 16.9234C53.9588 17.0541 54.1675 17.125 54.3823 17.125Z" fill="black"/>
<path d="M25.1293 31.9113L19.1742 35.3494C18.9498 35.4787 18.7861 35.6919 18.7189 35.942C18.6518 36.1922 18.6868 36.4587 18.8161 36.683C18.9455 36.9074 19.1587 37.0711 19.4088 37.1383C19.6589 37.2054 19.9255 37.1705 20.1498 37.0411L26.1049 33.6011C26.2168 33.5375 26.3149 33.4524 26.3938 33.3507C26.4726 33.249 26.5306 33.1327 26.5643 33.0086C26.598 32.8844 26.6068 32.7548 26.5902 32.6272C26.5736 32.4996 26.532 32.3766 26.4676 32.2651C26.4033 32.1537 26.3176 32.0561 26.2154 31.978C26.1131 31.8998 25.9965 31.8426 25.8721 31.8098C25.7477 31.7769 25.618 31.7689 25.4906 31.7863C25.3631 31.8038 25.2403 31.8462 25.1293 31.9113Z" fill="black"/>
<path d="M19.1742 13.5562L25.1293 16.9942C25.2403 17.0593 25.3631 17.1018 25.4906 17.1192C25.618 17.1366 25.7477 17.1287 25.8721 17.0958C25.9965 17.0629 26.1131 17.0057 26.2154 16.9276C26.3176 16.8494 26.4033 16.7518 26.4676 16.6404C26.532 16.529 26.5736 16.4059 26.5902 16.2783C26.6068 16.1508 26.598 16.0211 26.5643 15.897C26.5306 15.7728 26.4726 15.6565 26.3938 15.5548C26.3149 15.4532 26.2168 15.3681 26.1049 15.3045L20.1498 11.8645C19.9255 11.7351 19.6589 11.7001 19.4088 11.7673C19.1587 11.8344 18.9455 11.9982 18.8161 12.2225C18.6868 12.4469 18.6518 12.7134 18.7189 12.9635C18.7861 13.2136 18.9498 13.4268 19.1742 13.5562Z" fill="black"/>
<path d="M53.8943 33.6011L59.8494 37.0411C59.9977 37.1267 60.166 37.1718 60.3372 37.1718C60.5526 37.1726 60.7622 37.102 60.9333 36.9712C61.1044 36.8403 61.2273 36.6565 61.283 36.4485C61.3387 36.2404 61.324 36.0198 61.2412 35.821C61.1583 35.6221 61.012 35.4563 60.825 35.3494L54.8699 31.9113C54.7589 31.8462 54.6361 31.8038 54.5087 31.7863C54.3812 31.7689 54.2515 31.7769 54.1271 31.8098C54.0027 31.8426 53.8861 31.8998 53.7839 31.978C53.6817 32.0561 53.5959 32.1537 53.5316 32.2651C53.4673 32.3766 53.4256 32.4996 53.409 32.6272C53.3924 32.7548 53.4013 32.8844 53.435 33.0086C53.4687 33.1327 53.5266 33.249 53.6054 33.3507C53.6843 33.4524 53.7824 33.5375 53.8943 33.6011Z" fill="black"/>
<path d="M47.8169 10.9147C48.0408 11.0435 48.3066 11.0782 48.5561 11.0113C48.8055 10.9443 49.0182 10.7812 49.1476 10.5577L52.5857 4.60252C52.6563 4.49148 52.7037 4.36731 52.725 4.23747C52.7464 4.10763 52.7412 3.97482 52.7099 3.84702C52.6786 3.71922 52.6218 3.59907 52.5429 3.4938C52.4639 3.38853 52.3645 3.30032 52.2506 3.23447C52.1367 3.16863 52.0106 3.1265 51.88 3.11063C51.7494 3.09477 51.6169 3.10549 51.4905 3.14215C51.3641 3.17881 51.2465 3.24065 51.1447 3.32396C51.0428 3.40727 50.9589 3.51032 50.8979 3.62691L47.4598 9.58205C47.3304 9.80613 47.2954 10.0724 47.3623 10.3223C47.4293 10.5723 47.5928 10.7854 47.8169 10.9147Z" fill="black"/>
</g>
<defs>
<clipPath id="clip0_894_239">
<rect width="80" height="80" fill="white"/>
</clipPath>
</defs>
</svg>
