<svg width="80" height="80" viewBox="0 0 80 80" fill="none" xmlns="http://www.w3.org/2000/svg">
<path d="M50.4375 30.2998C49.9965 25.4766 47.7314 21.0036 44.1046 17.7938C40.4778 14.5839 35.7627 12.8791 30.9217 13.0275C26.0807 13.1758 21.4788 15.1661 18.0553 18.592C14.6319 22.0179 12.6449 26.6212 12.5 31.4623C12.4997 36.295 14.3398 40.9465 17.6462 44.4712C20.9526 47.9958 25.4771 50.1291 30.3 50.4373L50.4375 30.2998Z" fill="#FF9696"/>
<path d="M31.4624 12.5C27.3843 12.5038 23.4153 13.8179 20.1407 16.2485C16.8661 18.6791 14.4592 22.0977 13.2749 26C15.4937 23.0952 18.5027 20.8916 21.9417 19.653C25.3807 18.4145 29.1038 18.1935 32.6652 19.0166C36.2265 19.8396 39.4752 21.6718 42.0219 24.2938C44.5687 26.9157 46.3057 30.2162 47.0249 33.8L50.4749 30.35C50.1756 25.5128 48.0415 20.9722 44.5082 17.6549C40.9749 14.3377 36.3089 12.4939 31.4624 12.5Z" fill="#DD0000"/>
<path d="M33.8374 33.8625C31.1687 36.6435 29.623 40.3134 29.498 44.1658C29.3729 48.0182 30.6773 51.7806 33.1601 54.7289C35.6428 57.6771 39.1284 59.6028 42.9458 60.1352C46.7633 60.6675 50.6427 59.769 53.8374 57.6125L58.6624 62.5L62.4124 58.75L57.6499 53.875C59.8064 50.6803 60.7049 46.8009 60.1726 42.9834C59.6402 39.166 57.7145 35.6804 54.7663 33.1977C51.818 30.7149 48.0556 29.4105 44.2032 29.5356C40.3509 29.6606 36.6809 31.2063 33.8999 33.875L33.8374 33.8625Z" fill="#FFE3E3"/>
<path d="M38.2002 38.3247C39.7215 36.778 41.7327 35.8076 43.8902 35.5793C46.0477 35.3511 48.2174 35.8792 50.0287 37.0734C51.84 38.2676 53.1803 40.0537 53.8206 42.1266C54.4609 44.1994 54.3615 46.4303 53.5393 48.438C52.7171 50.4457 51.2232 52.1055 49.3129 53.1338C47.4026 54.1622 45.1944 54.4951 43.0658 54.0759C40.9372 53.6566 39.0202 52.5111 37.6426 50.8351C36.2649 49.1591 35.5121 47.0568 35.5127 44.8872C35.5134 42.432 36.4785 40.0752 38.2002 38.3247Z" fill="#F9F9F9"/>
<path d="M68.9625 75L75 68.9625L63.575 57.5L57.5 63.575L68.9625 75Z" fill="#FF9696"/>
<path d="M72.1748 71.7875L74.9998 68.9625L63.5748 57.5L60.7373 60.325L72.1748 71.7875Z" fill="#DD0000"/>
<path d="M44.8873 29.2754C44.3373 29.2754 43.7873 29.2754 43.2373 29.3629C46.021 29.5134 48.7136 30.4064 51.0354 31.9493C53.3573 33.4922 55.2237 35.6287 56.4407 38.1368C57.6577 40.6448 58.181 43.433 57.9562 46.2116C57.7314 48.9903 56.7667 51.6581 55.1623 53.9379L59.9998 58.7504L57.4998 61.2504L58.7498 62.5004L62.4998 58.7504L57.6498 53.8754C59.2957 51.5374 60.2681 48.7924 60.4607 45.9397C60.6533 43.0869 60.0588 40.2361 58.7421 37.6981C57.4254 35.1601 55.437 33.0324 52.9938 31.5472C50.5507 30.0619 47.7465 29.2761 44.8873 29.2754Z" fill="#FF9696"/>
<path d="M44.8876 35.5125C44.4145 35.5122 43.9422 35.5498 43.4751 35.625C45.6837 35.9703 47.6963 37.0934 49.1498 38.7918C50.6033 40.4902 51.4021 42.6521 51.4021 44.8875C51.4021 47.1229 50.6033 49.2848 49.1498 50.9832C47.6963 52.6816 45.6837 53.8047 43.4751 54.15C43.9474 54.2144 44.4234 54.2478 44.9001 54.25C47.3865 54.25 49.7711 53.2623 51.5292 51.5041C53.2874 49.746 54.2751 47.3614 54.2751 44.875C54.2751 42.3886 53.2874 40.004 51.5292 38.2459C49.7711 36.4877 47.3865 35.5 44.9001 35.5L44.8876 35.5125Z" fill="#FF9696"/>
<path d="M12.6375 38.9375C13.6643 41.4966 15.1996 43.8208 17.1505 45.7695C19.1014 47.7183 21.4273 49.251 23.9875 50.275C25.8375 56.0125 28.475 59.175 31.4875 59.175C32.5669 59.1524 33.6068 58.7646 34.4375 58.075C37.142 60.2394 40.4499 61.5142 43.9074 61.7246C47.365 61.9349 50.803 61.0706 53.75 59.25L56.9 62.5L56.65 62.75C56.5341 62.8668 56.4425 63.0053 56.3803 63.1576C56.3181 63.3099 56.2865 63.473 56.2875 63.6375C56.2889 63.9654 56.4191 64.2797 56.65 64.5125L68.075 75.95C68.1912 76.0672 68.3295 76.1602 68.4818 76.2236C68.6341 76.2871 68.7975 76.3197 68.9625 76.3197C69.1275 76.3197 69.2909 76.2871 69.4432 76.2236C69.5955 76.1602 69.7338 76.0672 69.85 75.95L75.8875 69.9125C76.0047 69.7963 76.0976 69.658 76.1611 69.5057C76.2246 69.3534 76.2572 69.19 76.2572 69.025C76.2572 68.86 76.2246 68.6966 76.1611 68.5443C76.0976 68.392 76.0047 68.2537 75.8875 68.1375L64.45 56.7125C64.2158 56.4797 63.899 56.349 63.5687 56.349C63.2385 56.349 62.9217 56.4797 62.6875 56.7125L62.4375 56.9625L59.25 53.75C61.067 50.8019 61.9293 47.3645 61.719 43.9078C61.5087 40.4511 60.236 37.1436 58.075 34.4375C58.7655 33.6122 59.1535 32.5759 59.175 31.5C59.175 28.5125 56.0125 25.875 50.275 24C49.251 21.4398 47.7183 19.1139 45.7695 17.163C43.8208 15.2121 41.4966 13.6768 38.9375 12.65C37.0875 6.9125 34.45 3.75 31.4625 3.75C28.475 3.75 25.8375 6.9125 23.9625 12.65C21.4038 13.6742 19.0797 15.2071 17.1309 17.1559C15.1821 19.1047 13.6492 21.4288 12.625 23.9875C6.9125 25.8375 3.75 28.475 3.75 31.4625C3.75 34.45 6.9 37.0875 12.6375 38.9375ZM13.7 31.4375C13.7029 29.5912 13.9939 27.7566 14.5625 26C16.9213 25.3485 19.3231 24.864 21.75 24.55C21.5625 26.775 21.45 29.0875 21.45 31.4375C21.4082 36.7093 21.9702 41.9686 23.125 47.1125C20.294 45.5945 17.9274 43.3376 16.2766 40.582C14.6259 37.8263 13.7527 34.6748 13.75 31.4625L13.7 31.4375ZM48.975 28.5125C47.6381 28.1777 46.2657 28.0056 44.8875 28C42.671 28 40.4762 28.437 38.4287 29.286C36.3812 30.135 34.5212 31.3793 32.9551 32.9477C31.3889 34.5162 30.1473 36.3781 29.3014 38.4268C28.4555 40.4756 28.0217 42.671 28.025 44.8875C28.0331 46.2663 28.2094 47.6389 28.55 48.975C27.7023 48.829 26.8667 48.6201 26.05 48.35C24.6069 42.8388 23.909 37.1591 23.975 31.4625C23.975 28.9625 24.0875 26.6 24.3125 24.2875C26.625 24.0625 29.0375 23.95 31.4875 23.95C37.1841 23.884 42.8638 24.5819 48.375 26.025C48.6335 26.8475 48.8339 27.687 48.975 28.5375V28.5125ZM26.9625 51.25C27.7877 51.4301 28.6223 51.5637 29.4625 51.65C30.2084 53.3662 31.2349 54.9461 32.5 56.325C32.1813 56.5395 31.8089 56.6607 31.425 56.675C30.25 56.675 28.5125 55.1875 26.9625 51.25ZM73.2125 69.0125L68.9375 73.2875L59.275 63.625L63.55 59.35L73.2125 69.0125ZM56.7625 54.75L60.675 58.6625L58.6625 60.675L54.75 56.7625C54.5172 56.5316 54.2029 56.4014 53.875 56.4C53.6159 56.398 53.3625 56.4767 53.15 56.625C51.3042 57.9267 49.1774 58.7746 46.9424 59.1001C44.7073 59.4256 42.4271 59.2193 40.2867 58.4981C38.1463 57.7769 36.2062 56.5611 34.6239 54.9494C33.0416 53.3377 31.8617 51.3755 31.18 49.2222C30.4984 47.0689 30.3341 44.7852 30.7007 42.5566C31.0672 40.3279 31.9542 38.2171 33.2897 36.3956C34.6251 34.574 36.3713 33.0931 38.3864 32.0731C40.4016 31.0531 42.6289 30.5227 44.8875 30.525C48.6811 30.5448 52.3142 32.0582 55 34.7375C57.4015 37.1205 58.8821 40.2765 59.1795 43.6466C59.477 47.0167 58.572 50.3832 56.625 53.15C56.4563 53.3904 56.3777 53.6824 56.4028 53.975C56.428 54.2676 56.5553 54.5419 56.7625 54.75ZM56.675 31.4625C56.6577 31.8441 56.5414 32.2145 56.3375 32.5375C54.9438 31.242 53.3423 30.1898 51.6 29.425C51.5137 28.5848 51.3801 27.7502 51.2 26.925C55.1875 28.5125 56.675 30.25 56.675 31.4625ZM47.1125 23.125C41.9767 21.9721 36.726 21.4101 31.4625 21.45C29.1125 21.45 26.8 21.5625 24.575 21.75C24.889 19.3231 25.3735 16.9213 26.025 14.5625C29.9854 13.2773 34.2725 13.4315 38.1303 14.998C41.9882 16.5644 45.1692 19.4426 47.1125 23.125ZM31.4625 6.25C32.7125 6.25 34.4125 7.7375 35.9625 11.725C33.0033 11.0251 29.9217 11.0251 26.9625 11.725C28.525 7.7375 30.25 6.25 31.4625 6.25ZM23.125 15.7875C22.6436 17.849 22.2763 19.9355 22.025 22.0375C19.923 22.2888 17.8365 22.6561 15.775 23.1375C17.4434 20.014 20.0015 17.4559 23.125 15.7875ZM11.725 26.9625C11.0251 29.9217 11.0251 33.0033 11.725 35.9625C7.7375 34.4125 6.25 32.675 6.25 31.4625C6.25 30.25 7.7375 28.525 11.725 26.9625Z" fill="black"/>
<path d="M44.8877 34.2627C43.4739 34.2757 42.0767 34.5685 40.7766 35.1242C39.4765 35.6799 38.2992 36.4874 37.3127 37.5002C35.598 39.2513 34.5422 41.5418 34.3246 43.983C34.107 46.4241 34.741 48.8653 36.119 50.892C37.4969 52.9188 39.5339 54.4061 41.884 55.1015C44.234 55.7969 46.7524 55.6575 49.0113 54.707C51.2703 53.7564 53.1306 52.0533 54.2764 49.8869C55.4223 47.7204 55.7829 45.2242 55.2972 42.822C54.8115 40.4198 53.5094 38.2597 51.6119 36.7086C49.7144 35.1575 47.3385 34.311 44.8877 34.3127V34.2627ZM44.8877 53.0127C42.7328 53.0127 40.6662 52.1567 39.1425 50.6329C37.6187 49.1092 36.7627 47.0426 36.7627 44.8877C36.7627 42.7328 37.6187 40.6662 39.1425 39.1425C40.6662 37.6187 42.7328 36.7627 44.8877 36.7627C47.0426 36.7627 49.1092 37.6187 50.633 39.1425C52.1567 40.6662 53.0127 42.7328 53.0127 44.8877C53.0127 47.0426 52.1567 49.1092 50.633 50.6329C49.1092 52.1567 47.0426 53.0127 44.8877 53.0127Z" fill="black"/>
<path d="M54.1375 17.1373C54.469 17.1373 54.787 17.0056 55.0214 16.7712C55.2558 16.5368 55.3875 16.2188 55.3875 15.8873V15.4998H55.775C56.1065 15.4998 56.4245 15.3681 56.6589 15.1337C56.8933 14.8993 57.025 14.5813 57.025 14.2498C57.025 13.9183 56.8933 13.6003 56.6589 13.3659C56.4245 13.1315 56.1065 12.9998 55.775 12.9998H55.3875V12.6123C55.3875 12.2808 55.2558 11.9628 55.0214 11.7284C54.787 11.494 54.469 11.3623 54.1375 11.3623C53.806 11.3623 53.488 11.494 53.2536 11.7284C53.0192 11.9628 52.8875 12.2808 52.8875 12.6123V12.9998H52.5C52.1685 12.9998 51.8505 13.1315 51.6161 13.3659C51.3817 13.6003 51.25 13.9183 51.25 14.2498C51.25 14.5813 51.3817 14.8993 51.6161 15.1337C51.8505 15.3681 52.1685 15.4998 52.5 15.4998H52.8875V15.8873C52.8875 16.2188 53.0192 16.5368 53.2536 16.7712C53.488 17.0056 53.806 17.1373 54.1375 17.1373Z" fill="black"/>
<path d="M65.9248 36.1754C66.2563 36.1754 66.5743 36.0437 66.8087 35.8093C67.0431 35.5749 67.1748 35.2569 67.1748 34.9254V34.5379H67.4998C67.8313 34.5379 68.1493 34.4062 68.3837 34.1718C68.6181 33.9374 68.7498 33.6194 68.7498 33.2879C68.7498 32.9564 68.6181 32.6384 68.3837 32.404C68.1493 32.1696 67.8313 32.0379 67.4998 32.0379H67.1248V31.6504C67.1248 31.3189 66.9931 31.0009 66.7587 30.7665C66.5243 30.5321 66.2063 30.4004 65.8748 30.4004C65.5433 30.4004 65.2253 30.5321 64.9909 30.7665C64.7565 31.0009 64.6248 31.3189 64.6248 31.6504V32.0379H64.2373C63.9058 32.0379 63.5878 32.1696 63.3534 32.404C63.119 32.6384 62.9873 32.9564 62.9873 33.2879C62.9873 33.6194 63.119 33.9374 63.3534 34.1718C63.5878 34.4062 63.9058 34.5379 64.2373 34.5379H64.6248V34.9254C64.6247 35.0938 64.6586 35.2606 64.7245 35.4156C64.7904 35.5706 64.887 35.7107 65.0084 35.8274C65.1298 35.9442 65.2736 36.0352 65.4311 36.095C65.5886 36.1548 65.7565 36.1821 65.9248 36.1754Z" fill="black"/>
<path d="M36.0125 62.7373C35.681 62.7373 35.363 62.869 35.1286 63.1034C34.8942 63.3378 34.7625 63.6558 34.7625 63.9873V64.3748H34.375C34.0435 64.3748 33.7255 64.5065 33.4911 64.7409C33.2567 64.9753 33.125 65.2933 33.125 65.6248C33.125 65.9563 33.2567 66.2743 33.4911 66.5087C33.7255 66.7431 34.0435 66.8748 34.375 66.8748H34.7625V67.2498C34.7625 67.5813 34.8942 67.8993 35.1286 68.1337C35.363 68.3681 35.681 68.4998 36.0125 68.4998C36.344 68.4998 36.662 68.3681 36.8964 68.1337C37.1308 67.8993 37.2625 67.5813 37.2625 67.2498V66.8748H37.6375C37.969 66.8748 38.287 66.7431 38.5214 66.5087C38.7558 66.2743 38.8875 65.9563 38.8875 65.6248C38.8875 65.2933 38.7558 64.9753 38.5214 64.7409C38.287 64.5065 37.969 64.3748 37.6375 64.3748H37.2625V63.9873C37.2625 63.6558 37.1308 63.3378 36.8964 63.1034C36.662 62.869 36.344 62.7373 36.0125 62.7373Z" fill="black"/>
<path d="M13.5999 55.7754C13.2684 55.7754 12.9504 55.9071 12.716 56.1415C12.4816 56.3759 12.3499 56.6939 12.3499 57.0254V57.4004H11.9624C11.6309 57.4004 11.3129 57.5321 11.0785 57.7665C10.8441 58.0009 10.7124 58.3189 10.7124 58.6504C10.7124 58.9819 10.8441 59.2999 11.0785 59.5343C11.3129 59.7687 11.6309 59.9004 11.9624 59.9004H12.3499V60.2879C12.3499 60.6194 12.4816 60.9374 12.716 61.1718C12.9504 61.4062 13.2684 61.5379 13.5999 61.5379C13.9314 61.5379 14.2494 61.4062 14.4838 61.1718C14.7182 60.9374 14.8499 60.6194 14.8499 60.2879V59.9004H15.2374C15.5689 59.9004 15.8869 59.7687 16.1213 59.5343C16.3557 59.2999 16.4874 58.9819 16.4874 58.6504C16.4874 58.3189 16.3557 58.0009 16.1213 57.7665C15.8869 57.5321 15.5689 57.4004 15.2374 57.4004H14.8499V57.0254C14.8499 56.6939 14.7182 56.3759 14.4838 56.1415C14.2494 55.9071 13.9314 55.7754 13.5999 55.7754Z" fill="black"/>
<path d="M10.825 15.3375C11.1565 15.3375 11.4745 15.2058 11.7089 14.9714C11.9433 14.737 12.075 14.419 12.075 14.0875V13.75H12.5C12.8315 13.75 13.1495 13.6183 13.3839 13.3839C13.6183 13.1495 13.75 12.8315 13.75 12.5C13.75 12.1685 13.6183 11.8505 13.3839 11.6161C13.1495 11.3817 12.8315 11.25 12.5 11.25H12.125V10.875C12.125 10.5435 11.9933 10.2255 11.7589 9.99112C11.5245 9.7567 11.2065 9.625 10.875 9.625C10.5435 9.625 10.2255 9.7567 9.99112 9.99112C9.7567 10.2255 9.625 10.5435 9.625 10.875V11.25H9.1875C8.85598 11.25 8.53804 11.3817 8.30362 11.6161C8.0692 11.8505 7.9375 12.1685 7.9375 12.5C7.9375 12.8315 8.0692 13.1495 8.30362 13.3839C8.53804 13.6183 8.85598 13.75 9.1875 13.75H9.575V14.1375C9.58792 14.4603 9.7253 14.7655 9.95833 14.9892C10.1914 15.2129 10.502 15.3378 10.825 15.3375Z" fill="black"/>
<path d="M46.7 43.5252H46.325V43.1377C46.325 42.8062 46.1933 42.4882 45.9589 42.2538C45.7245 42.0194 45.4065 41.8877 45.075 41.8877C44.7435 41.8877 44.4255 42.0194 44.1911 42.2538C43.9567 42.4882 43.825 42.8062 43.825 43.1377V43.5252H43.4375C43.106 43.5252 42.788 43.6569 42.5536 43.8913C42.3192 44.1257 42.1875 44.4437 42.1875 44.7752C42.1875 45.1067 42.3192 45.4247 42.5536 45.6591C42.788 45.8935 43.106 46.0252 43.4375 46.0252H43.825V46.4002C43.825 46.7317 43.9567 47.0497 44.1911 47.2841C44.4255 47.5185 44.7435 47.6502 45.075 47.6502C45.4065 47.6502 45.7245 47.5185 45.9589 47.2841C46.1933 47.0497 46.325 46.7317 46.325 46.4002V46.0252H46.7C47.0315 46.0252 47.3495 45.8935 47.5839 45.6591C47.8183 45.4247 47.95 45.1067 47.95 44.7752C47.95 44.4437 47.8183 44.1257 47.5839 43.8913C47.3495 43.6569 47.0315 43.5252 46.7 43.5252Z" fill="black"/>
</svg>
